solid OpenSCAD_Model
  facet normal 0 0 1
    outer loop
      vertex 7.6 19.4 2
      vertex 8 20.9 2
      vertex 7.6 20.9 2
    endloop
  endfacet
  facet normal 0 0 1
    outer loop
      vertex 8 20.9 2
      vertex 7.6 19.4 2
      vertex 8 19 2
    endloop
  endfacet
  facet normal 0 0 1
    outer loop
      vertex 7.6 19.4 2
      vertex 0.4 19 2
      vertex 8 19 2
    endloop
  endfacet
  facet normal 0 0 1
    outer loop
      vertex 0.4 19 2
      vertex -4.44089e-016 19.4 2
      vertex 0.4 0.4 2
    endloop
  endfacet
  facet normal -0 0 1
    outer loop
      vertex -4.44089e-016 19.4 2
      vertex 0.4 19 2
      vertex 7.6 19.4 2
    endloop
  endfacet
  facet normal 0 0 1
    outer loop
      vertex 8 0.4 2
      vertex 7.6 0 2
      vertex 8 -1.5 2
    endloop
  endfacet
  facet normal -0 0 1
    outer loop
      vertex 0.4 0.4 2
      vertex 7.6 0 2
      vertex 8 0.4 2
    endloop
  endfacet
  facet normal 0 0 1
    outer loop
      vertex 0.4 0.4 2
      vertex -4.44089e-016 0 2
      vertex 7.6 0 2
    endloop
  endfacet
  facet normal 0 0 1
    outer loop
      vertex -4.44089e-016 0 2
      vertex 0.4 0.4 2
      vertex -4.44089e-016 19.4 2
    endloop
  endfacet
  facet normal 0 0 1
    outer loop
      vertex 8 -1.5 2
      vertex 7.6 0 2
      vertex 7.6 -1.5 2
    endloop
  endfacet
  facet normal 1 -0 0
    outer loop
      vertex 8 -1.5 2
      vertex 8 0.4 -2
      vertex 8 0.4 2
    endloop
  endfacet
  facet normal 1 0 0
    outer loop
      vertex 8 0.4 -2
      vertex 8 -1.5 2
      vertex 8 -1.5 -2
    endloop
  endfacet
  facet normal 0 0 -1
    outer loop
      vertex 7.6 0 -2
      vertex 8 -1.5 -2
      vertex 7.6 -1.5 -2
    endloop
  endfacet
  facet normal 0 0 -1
    outer loop
      vertex 8 -1.5 -2
      vertex 7.6 0 -2
      vertex 8 0.4 -2
    endloop
  endfacet
  facet normal 0 0 -1
    outer loop
      vertex 7.6 0 -2
      vertex 0.4 0.4 -2
      vertex 8 0.4 -2
    endloop
  endfacet
  facet normal -0 0 -1
    outer loop
      vertex 0.4 0.4 -2
      vertex 4.44089e-016 0 -2
      vertex 0.4 19 -2
    endloop
  endfacet
  facet normal 0 0 -1
    outer loop
      vertex 4.44089e-016 0 -2
      vertex 0.4 0.4 -2
      vertex 7.6 0 -2
    endloop
  endfacet
  facet normal 0 0 -1
    outer loop
      vertex 8 19 -2
      vertex 7.6 19.4 -2
      vertex 8 20.9 -2
    endloop
  endfacet
  facet normal 0 0 -1
    outer loop
      vertex 0.4 19 -2
      vertex 7.6 19.4 -2
      vertex 8 19 -2
    endloop
  endfacet
  facet normal 0 0 -1
    outer loop
      vertex 0.4 19 -2
      vertex 4.44089e-016 19.4 -2
      vertex 7.6 19.4 -2
    endloop
  endfacet
  facet normal 0 0 -1
    outer loop
      vertex 4.44089e-016 19.4 -2
      vertex 0.4 19 -2
      vertex 4.44089e-016 0 -2
    endloop
  endfacet
  facet normal -0 0 -1
    outer loop
      vertex 8 20.9 -2
      vertex 7.6 19.4 -2
      vertex 7.6 20.9 -2
    endloop
  endfacet
  facet normal -1 0 -2.22045e-016
    outer loop
      vertex 4.44089e-016 0 -2
      vertex -4.44089e-016 19.4 2
      vertex 4.44089e-016 19.4 -2
    endloop
  endfacet
  facet normal -1 -0 -2.22045e-016
    outer loop
      vertex -4.44089e-016 19.4 2
      vertex 4.44089e-016 0 -2
      vertex -4.44089e-016 0 2
    endloop
  endfacet
  facet normal 0 -1 0
    outer loop
      vertex 4.44089e-016 0 -2
      vertex 7.6 0 2
      vertex -4.44089e-016 0 2
    endloop
  endfacet
  facet normal 0 -1 -0
    outer loop
      vertex 7.6 0 2
      vertex 4.44089e-016 0 -2
      vertex 7.6 0 -2
    endloop
  endfacet
  facet normal 0 1 -0
    outer loop
      vertex 8 0.4 -2
      vertex 0.4 0.4 2
      vertex 8 0.4 2
    endloop
  endfacet
  facet normal 0 1 0
    outer loop
      vertex 0.4 0.4 2
      vertex 8 0.4 -2
      vertex 0.4 0.4 -2
    endloop
  endfacet
  facet normal 1 -0 0
    outer loop
      vertex 0.4 0.4 2
      vertex 0.4 19 -2
      vertex 0.4 19 2
    endloop
  endfacet
  facet normal 1 0 0
    outer loop
      vertex 0.4 19 -2
      vertex 0.4 0.4 2
      vertex 0.4 0.4 -2
    endloop
  endfacet
  facet normal 0 -1 0
    outer loop
      vertex 0.4 19 -2
      vertex 8 19 2
      vertex 0.4 19 2
    endloop
  endfacet
  facet normal 0 -1 -0
    outer loop
      vertex 8 19 2
      vertex 0.4 19 -2
      vertex 8 19 -2
    endloop
  endfacet
  facet normal 1 -0 0
    outer loop
      vertex 8 19 2
      vertex 8 20.9 -2
      vertex 8 20.9 2
    endloop
  endfacet
  facet normal 1 0 0
    outer loop
      vertex 8 20.9 -2
      vertex 8 19 2
      vertex 8 19 -2
    endloop
  endfacet
  facet normal 0 1 -0
    outer loop
      vertex 7.6 19.4 -2
      vertex -4.44089e-016 19.4 2
      vertex 7.6 19.4 2
    endloop
  endfacet
  facet normal 0 1 0
    outer loop
      vertex -4.44089e-016 19.4 2
      vertex 7.6 19.4 -2
      vertex 4.44089e-016 19.4 -2
    endloop
  endfacet
  facet normal -1 0 0
    outer loop
      vertex 7.6 -1.5 -2
      vertex 7.6 0 2
      vertex 7.6 0 -2
    endloop
  endfacet
  facet normal -1 -0 0
    outer loop
      vertex 7.6 0 2
      vertex 7.6 -1.5 -2
      vertex 7.6 -1.5 2
    endloop
  endfacet
  facet normal 0 -1 0
    outer loop
      vertex 7.6 -1.5 -2
      vertex 8 -1.5 2
      vertex 7.6 -1.5 2
    endloop
  endfacet
  facet normal 0 -1 -0
    outer loop
      vertex 8 -1.5 2
      vertex 7.6 -1.5 -2
      vertex 8 -1.5 -2
    endloop
  endfacet
  facet normal 0 1 -0
    outer loop
      vertex 8 20.9 -2
      vertex 7.6 20.9 2
      vertex 8 20.9 2
    endloop
  endfacet
  facet normal 0 1 0
    outer loop
      vertex 7.6 20.9 2
      vertex 8 20.9 -2
      vertex 7.6 20.9 -2
    endloop
  endfacet
  facet normal -1 0 0
    outer loop
      vertex 7.6 19.4 -2
      vertex 7.6 20.9 2
      vertex 7.6 20.9 -2
    endloop
  endfacet
  facet normal -1 -0 0
    outer loop
      vertex 7.6 20.9 2
      vertex 7.6 19.4 -2
      vertex 7.6 19.4 2
    endloop
  endfacet
endsolid OpenSCAD_Model
