  0
SECTION
  2
HEADER
  9
$ACADVER
  1
AC1014
  9
$HANDSEED
  5
FFFF
  9
$MEASUREMENT
 70
     1
  0
ENDSEC
  0
SECTION
  2
TABLES
  0
TABLE
  2
VPORT
  5
8
330
0
100
AcDbSymbolTable
 70
     4
  0
VPORT
  5
2E
330
8
100
AcDbSymbolTableRecord
100
AcDbViewportTableRecord
  2
*ACTIVE
 70
     0
 10
0.0
 20
0.0
 11
1.0
 21
1.0
 12
210.0
 22
148.5
 13
0.0
 23
0.0
 14
10.0
 24
10.0
 15
10.0
 25
10.0
 16
0.0
 26
0.0
 36
1.0
 17
0.0
 27
0.0
 37
0.0
 40
341.0
 41
1.24
 42
50.0
 43
0.0
 44
0.0
 50
0.0
 51
0.0
 71
     0
 72
   100
 73
     1
 74
     3
 75
     0
 76
     0
 77
     0
 78
     0
  0
ENDTAB
  0
TABLE
  2
LTYPE
  5
5
330
0
100
AcDbSymbolTable
 70
     1
  0
LTYPE
  5
14
330
5
100
AcDbSymbolTableRecord
100
AcDbLinetypeTableRecord
  2
BYBLOCK
 70
     0
  3

 72
    65
 73
     0
 40
0.0
  0
LTYPE
  5
15
330
5
100
AcDbSymbolTableRecord
100
AcDbLinetypeTableRecord
  2
BYLAYER
 70
     0
  3

 72
    65
 73
     0
 40
0.0
  0
LTYPE
  5
16
330
5
100
AcDbSymbolTableRecord
100
AcDbLinetypeTableRecord
  2
CONTINUOUS
 70
     0
  3
Solid line
 72
    65
 73
     0
 40
0.0
  0
ENDTAB
  0
TABLE
  2
LAYER
  5
2
100
AcDbSymbolTable
 70
2
  0
LAYER
  5
50
100
AcDbSymbolTableRecord
100
AcDbLayerTableRecord
  2
0
 70
0
  6
CONTINUOUS
  0
LAYER
  5
51
100
AcDbSymbolTableRecord
100
AcDbLayerTableRecord
  2
Layer_1
 70
0
  6
CONTINUOUS
  0
ENDTAB
  0
TABLE
  2
STYLE
  5
3
330
0
100
AcDbSymbolTable
 70
     1
  0
STYLE
  5
11
330
3
100
AcDbSymbolTableRecord
100
AcDbTextStyleTableRecord
  2
STANDARD
 70
     0
 40
0.0
 41
1.0
 50
0.0
 71
     0
 42
2.5
  3
txt
  4

  0
ENDTAB
  0
TABLE
  2
VIEW
  5
6
330
0
100
AcDbSymbolTable
 70
     0
  0
ENDTAB
  0
TABLE
  2
UCS
  5
7
330
0
100
AcDbSymbolTable
 70
     0
  0
ENDTAB
  0
TABLE
  2
APPID
  5
9
330
0
100
AcDbSymbolTable
 70
     2
  0
APPID
  5
12
330
9
100
AcDbSymbolTableRecord
100
AcDbRegAppTableRecord
  2
ACAD
 70
     0
  0
ENDTAB
  0
TABLE
  2
DIMSTYLE
  5
A
330
0
100
AcDbSymbolTable
 70
     1
  0
DIMSTYLE
105
27
330
A
100
AcDbSymbolTableRecord
100
AcDbDimStyleTableRecord
  2
ISO-25
 70
     0
  3

  4

  5

  6

  7

 40
1.0
 41
2.5
 42
0.625
 43
3.75
 44
1.25
 45
0.0
 46
0.0
 47
0.0
 48
0.0
140
2.5
141
2.5
142
0.0
143
0.03937007874016
144
1.0
145
0.0
146
1.0
147
0.625
 71
     0
 72
     0
 73
     0
 74
     0
 75
     0
 76
     0
 77
     1
 78
     8
170
     0
171
     3
172
     1
173
     0
174
     0
175
     0
176
     0
177
     0
178
     0
270
     2
271
     2
272
     2
273
     2
274
     3
340
11
275
     0
280
     0
281
     0
282
     0
283
     0
284
     8
285
     0
286
     0
287
     3
288
     0
  0
ENDTAB
  0
TABLE
  2
BLOCK_RECORD
  5
1
330
0
100
AcDbSymbolTable
 70
     1
  0
BLOCK_RECORD
  5
1F
330
1
100
AcDbSymbolTableRecord
100
AcDbBlockTableRecord
  2
*MODEL_SPACE
  0
BLOCK_RECORD
  5
1B
330
1
100
AcDbSymbolTableRecord
100
AcDbBlockTableRecord
  2
*PAPER_SPACE
  0
ENDTAB
  0
ENDSEC
  0
SECTION
  2
BLOCKS
  0
BLOCK
  5
20
330
1F
100
AcDbEntity
  8
0
100
AcDbBlockBegin
  2
*MODEL_SPACE
 70
     0
 10
0.0
 20
0.0
 30
0.0
  3
*MODEL_SPACE
  1

  0
ENDBLK
  5
21
330
1F
100
AcDbEntity
  8
0
100
AcDbBlockEnd
  0
BLOCK
  5
1C
330
1B
100
AcDbEntity
 67
     1
  8
0
100
AcDbBlockBegin
  2
*PAPER_SPACE
  1

  0
ENDBLK
  5
1D
330
1B
100
AcDbEntity
 67
     1
  8
0
100
AcDbBlockEnd
  0
ENDSEC
  0
SECTION
  2
ENTITIES
  0
LWPOLYLINE
  5
100
100
AcDbEntity
  8
Layer_1
 62
7
100
AcDbPolyline
 90
4
 70
1
 10
0.022720
 20
0.022720
 30
0.0
 10
38.385097
 20
0.022720
 30
0.0
 10
38.385097
 20
22.771331
 30
0.0
 10
0.022720
 20
22.771331
 30
0.0
  0
LWPOLYLINE
  5
101
100
AcDbEntity
  8
Layer_1
 62
7
100
AcDbPolyline
 90
2
 70
0
 10
14.292405
 20
20.631999
 30
0.0
 10
17.887827
 20
17.047776
 30
0.0
  0
LWPOLYLINE
  5
102
100
AcDbEntity
  8
Layer_1
 62
7
100
AcDbPolyline
 90
2
 70
0
 10
16.756557
 20
15.927706
 30
0.0
 10
13.172335
 20
19.511929
 30
0.0
  0
LWPOLYLINE
  5
103
100
AcDbEntity
  8
Layer_1
 62
7
100
AcDbPolyline
 90
2
 70
0
 10
21.718465
 20
15.927706
 30
0.0
 10
25.313889
 20
19.511929
 30
0.0
  0
LWPOLYLINE
  5
104
100
AcDbEntity
  8
Layer_1
 62
7
100
AcDbPolyline
 90
2
 70
0
 10
24.193819
 20
20.631999
 30
0.0
 10
20.598395
 20
17.047776
 30
0.0
  0
LWPOLYLINE
  5
105
100
AcDbEntity
  8
Layer_1
 62
7
100
AcDbPolyline
 90
2
 70
0
 10
16.756557
 20
13.205937
 30
0.0
 10
13.172335
 20
9.621714
 30
0.0
  0
LWPOLYLINE
  5
106
100
AcDbEntity
  8
Layer_1
 62
7
100
AcDbPolyline
 90
2
 70
0
 10
14.292405
 20
8.501645
 30
0.0
 10
17.887827
 20
12.085867
 30
0.0
  0
LWPOLYLINE
  5
107
100
AcDbEntity
  8
Layer_1
 62
7
100
AcDbPolyline
 90
2
 70
0
 10
21.718465
 20
13.205937
 30
0.0
 10
25.313889
 20
9.621714
 30
0.0
  0
LWPOLYLINE
  5
108
100
AcDbEntity
  8
Layer_1
 62
7
100
AcDbPolyline
 90
2
 70
0
 10
24.193819
 20
8.501645
 30
0.0
 10
20.598395
 20
12.085867
 30
0.0
  0
LWPOLYLINE
  5
109
100
AcDbEntity
  8
Layer_1
 62
7
100
AcDbPolyline
 90
2
 70
0
 10
16.991772
 20
15.367672
 30
0.0
 10
16.991772
 20
13.765972
 30
0.0
  0
LWPOLYLINE
  5
10a
100
AcDbEntity
  8
Layer_1
 62
7
100
AcDbPolyline
 90
2
 70
0
 10
21.494452
 20
15.367672
 30
0.0
 10
21.494452
 20
13.765972
 30
0.0
  0
LWPOLYLINE
  5
10b
100
AcDbEntity
  8
Layer_1
 62
7
100
AcDbPolyline
 90
16
 70
1
 10
13.161135
 20
20.923215
 30
0.0
 10
13.138733
 20
21.024022
 30
0.0
 10
13.071529
 20
21.113629
 30
0.0
 10
12.981924
 20
21.169631
 30
0.0
 10
12.869917
 20
21.180831
 30
0.0
 10
12.769110
 20
21.147230
 30
0.0
 10
12.679505
 20
21.080024
 30
0.0
 10
12.634702
 20
20.979217
 30
0.0
 10
12.634702
 20
20.878415
 30
0.0
 10
12.668304
 20
20.777609
 30
0.0
 10
12.746709
 20
20.699200
 30
0.0
 10
12.847515
 20
20.654401
 30
0.0
 10
12.948321
 20
20.665599
 30
0.0
 10
13.049127
 20
20.710403
 30
0.0
 10
13.127533
 20
20.788808
 30
0.0
 10
13.149934
 20
20.889614
 30
0.0
  0
LWPOLYLINE
  5
10c
100
AcDbEntity
  8
Layer_1
 62
7
100
AcDbPolyline
 90
16
 70
1
 10
25.851521
 20
20.923215
 30
0.0
 10
25.829119
 20
21.024022
 30
0.0
 10
25.773117
 20
21.113629
 30
0.0
 10
25.683512
 20
21.169631
 30
0.0
 10
25.571504
 20
21.180831
 30
0.0
 10
25.470698
 20
21.147230
 30
0.0
 10
25.381092
 20
21.080024
 30
0.0
 10
25.336290
 20
20.979217
 30
0.0
 10
25.325090
 20
20.878415
 30
0.0
 10
25.369892
 20
20.777609
 30
0.0
 10
25.448296
 20
20.699200
 30
0.0
 10
25.549102
 20
20.654401
 30
0.0
 10
25.649909
 20
20.665599
 30
0.0
 10
25.750715
 20
20.710403
 30
0.0
 10
25.817919
 20
20.788808
 30
0.0
 10
25.851521
 20
20.889614
 30
0.0
  0
LWPOLYLINE
  5
10d
100
AcDbEntity
  8
Layer_1
 62
7
100
AcDbPolyline
 90
16
 70
1
 10
25.851521
 20
8.221627
 30
0.0
 10
25.829119
 20
8.322433
 30
0.0
 10
25.773117
 20
8.412041
 30
0.0
 10
25.683512
 20
8.468044
 30
0.0
 10
25.571504
 20
8.479242
 30
0.0
 10
25.470698
 20
8.445642
 30
0.0
 10
25.381092
 20
8.378436
 30
0.0
 10
25.336290
 20
8.288833
 30
0.0
 10
25.325090
 20
8.176828
 30
0.0
 10
25.369892
 20
8.076021
 30
0.0
 10
25.448296
 20
7.997617
 30
0.0
 10
25.549102
 20
7.952813
 30
0.0
 10
25.649909
 20
7.964012
 30
0.0
 10
25.750715
 20
8.008815
 30
0.0
 10
25.817919
 20
8.087220
 30
0.0
 10
25.851521
 20
8.188027
 30
0.0
  0
LWPOLYLINE
  5
10e
100
AcDbEntity
  8
Layer_1
 62
7
100
AcDbPolyline
 90
16
 70
1
 10
13.161135
 20
8.221627
 30
0.0
 10
13.138733
 20
8.322433
 30
0.0
 10
13.071529
 20
8.412041
 30
0.0
 10
12.981924
 20
8.468044
 30
0.0
 10
12.869917
 20
8.479242
 30
0.0
 10
12.769110
 20
8.445642
 30
0.0
 10
12.679505
 20
8.378436
 30
0.0
 10
12.634702
 20
8.288833
 30
0.0
 10
12.634702
 20
8.176828
 30
0.0
 10
12.668304
 20
8.076021
 30
0.0
 10
12.746709
 20
7.997617
 30
0.0
 10
12.847515
 20
7.952813
 30
0.0
 10
12.948321
 20
7.964012
 30
0.0
 10
13.049127
 20
8.008815
 30
0.0
 10
13.127533
 20
8.087220
 30
0.0
 10
13.149934
 20
8.188027
 30
0.0
  0
LWPOLYLINE
  5
10f
100
AcDbEntity
  8
Layer_1
 62
7
100
AcDbPolyline
 90
2
 70
0
 10
18.447862
 20
16.812562
 30
0.0
 10
18.582271
 20
16.812562
 30
0.0
  0
LWPOLYLINE
  5
110
100
AcDbEntity
  8
Layer_1
 62
7
100
AcDbPolyline
 90
2
 70
0
 10
18.582271
 20
17.350194
 30
0.0
 10
19.243112
 20
17.350194
 30
0.0
  0
LWPOLYLINE
  5
111
100
AcDbEntity
  8
Layer_1
 62
7
100
AcDbPolyline
 90
4
 70
0
 10
18.582271
 20
16.812562
 30
0.0
 10
18.649475
 20
16.834964
 30
0.0
 10
18.705479
 20
16.902165
 30
0.0
 10
18.716678
 20
16.946969
 30
0.0
  0
LWPOLYLINE
  5
112
100
AcDbEntity
  8
Layer_1
 62
7
100
AcDbPolyline
 90
4
 70
0
 10
18.582271
 20
17.081376
 30
0.0
 10
18.649475
 20
17.058974
 30
0.0
 10
18.705479
 20
17.002972
 30
0.0
 10
18.716678
 20
16.946969
 30
0.0
  0
LWPOLYLINE
  5
113
100
AcDbEntity
  8
Layer_1
 62
7
100
AcDbPolyline
 90
4
 70
0
 10
18.447862
 20
17.215788
 30
0.0
 10
18.470264
 20
17.137383
 30
0.0
 10
18.526267
 20
17.092579
 30
0.0
 10
18.582271
 20
17.081376
 30
0.0
  0
LWPOLYLINE
  5
114
100
AcDbEntity
  8
Layer_1
 62
7
100
AcDbPolyline
 90
4
 70
0
 10
18.582271
 20
17.350194
 30
0.0
 10
18.503867
 20
17.327793
 30
0.0
 10
18.459062
 20
17.260588
 30
0.0
 10
18.447862
 20
17.215788
 30
0.0
  0
LWPOLYLINE
  5
115
100
AcDbEntity
  8
Layer_1
 62
7
100
AcDbPolyline
 90
2
 70
0
 10
20.038360
 20
16.812562
 30
0.0
 10
19.903953
 20
16.812562
 30
0.0
  0
LWPOLYLINE
  5
116
100
AcDbEntity
  8
Layer_1
 62
7
100
AcDbPolyline
 90
2
 70
0
 10
19.903953
 20
17.350194
 30
0.0
 10
19.243112
 20
17.350194
 30
0.0
  0
LWPOLYLINE
  5
117
100
AcDbEntity
  8
Layer_1
 62
7
100
AcDbPolyline
 90
4
 70
0
 10
19.903953
 20
16.812562
 30
0.0
 10
19.825549
 20
16.834964
 30
0.0
 10
19.780745
 20
16.902165
 30
0.0
 10
19.769544
 20
16.946969
 30
0.0
  0
LWPOLYLINE
  5
118
100
AcDbEntity
  8
Layer_1
 62
7
100
AcDbPolyline
 90
4
 70
0
 10
19.903953
 20
17.081376
 30
0.0
 10
19.825549
 20
17.058974
 30
0.0
 10
19.780745
 20
17.002972
 30
0.0
 10
19.769544
 20
16.946969
 30
0.0
  0
LWPOLYLINE
  5
119
100
AcDbEntity
  8
Layer_1
 62
7
100
AcDbPolyline
 90
4
 70
0
 10
20.038360
 20
17.215788
 30
0.0
 10
20.015960
 20
17.137383
 30
0.0
 10
19.959956
 20
17.092579
 30
0.0
 10
19.903953
 20
17.081376
 30
0.0
  0
LWPOLYLINE
  5
11a
100
AcDbEntity
  8
Layer_1
 62
7
100
AcDbPolyline
 90
4
 70
0
 10
19.903953
 20
17.350194
 30
0.0
 10
19.971157
 20
17.327793
 30
0.0
 10
20.027160
 20
17.260588
 30
0.0
 10
20.038360
 20
17.215788
 30
0.0
  0
LWPOLYLINE
  5
11b
100
AcDbEntity
  8
Layer_1
 62
7
100
AcDbPolyline
 90
2
 70
0
 10
18.447862
 20
12.321081
 30
0.0
 10
18.582271
 20
12.321081
 30
0.0
  0
LWPOLYLINE
  5
11c
100
AcDbEntity
  8
Layer_1
 62
7
100
AcDbPolyline
 90
2
 70
0
 10
18.582271
 20
11.794652
 30
0.0
 10
19.243112
 20
11.794652
 30
0.0
  0
LWPOLYLINE
  5
11d
100
AcDbEntity
  8
Layer_1
 62
7
100
AcDbPolyline
 90
4
 70
0
 10
18.582271
 20
12.321081
 30
0.0
 10
18.649475
 20
12.298679
 30
0.0
 10
18.705479
 20
12.242676
 30
0.0
 10
18.716678
 20
12.186674
 30
0.0
  0
LWPOLYLINE
  5
11e
100
AcDbEntity
  8
Layer_1
 62
7
100
AcDbPolyline
 90
4
 70
0
 10
18.582271
 20
12.052267
 30
0.0
 10
18.649475
 20
12.074669
 30
0.0
 10
18.705479
 20
12.130672
 30
0.0
 10
18.716678
 20
12.186674
 30
0.0
  0
LWPOLYLINE
  5
11f
100
AcDbEntity
  8
Layer_1
 62
7
100
AcDbPolyline
 90
4
 70
0
 10
18.447862
 20
11.917860
 30
0.0
 10
18.470264
 20
11.996264
 30
0.0
 10
18.526267
 20
12.041064
 30
0.0
 10
18.582271
 20
12.052267
 30
0.0
  0
LWPOLYLINE
  5
120
100
AcDbEntity
  8
Layer_1
 62
7
100
AcDbPolyline
 90
4
 70
0
 10
18.582271
 20
11.794652
 30
0.0
 10
18.503867
 20
11.817054
 30
0.0
 10
18.459062
 20
11.873056
 30
0.0
 10
18.447862
 20
11.917860
 30
0.0
  0
LWPOLYLINE
  5
121
100
AcDbEntity
  8
Layer_1
 62
7
100
AcDbPolyline
 90
2
 70
0
 10
20.038360
 20
12.321081
 30
0.0
 10
19.903953
 20
12.321081
 30
0.0
  0
LWPOLYLINE
  5
122
100
AcDbEntity
  8
Layer_1
 62
7
100
AcDbPolyline
 90
2
 70
0
 10
19.903953
 20
11.794652
 30
0.0
 10
19.243112
 20
11.794652
 30
0.0
  0
LWPOLYLINE
  5
123
100
AcDbEntity
  8
Layer_1
 62
7
100
AcDbPolyline
 90
4
 70
0
 10
19.903953
 20
12.321081
 30
0.0
 10
19.825549
 20
12.298679
 30
0.0
 10
19.780745
 20
12.242676
 30
0.0
 10
19.769544
 20
12.186674
 30
0.0
  0
LWPOLYLINE
  5
124
100
AcDbEntity
  8
Layer_1
 62
7
100
AcDbPolyline
 90
4
 70
0
 10
19.903953
 20
12.052267
 30
0.0
 10
19.825549
 20
12.074669
 30
0.0
 10
19.780745
 20
12.130672
 30
0.0
 10
19.769544
 20
12.186674
 30
0.0
  0
LWPOLYLINE
  5
125
100
AcDbEntity
  8
Layer_1
 62
7
100
AcDbPolyline
 90
4
 70
0
 10
20.038360
 20
11.917860
 30
0.0
 10
20.015960
 20
11.996264
 30
0.0
 10
19.959956
 20
12.041064
 30
0.0
 10
19.903953
 20
12.052267
 30
0.0
  0
LWPOLYLINE
  5
126
100
AcDbEntity
  8
Layer_1
 62
7
100
AcDbPolyline
 90
4
 70
0
 10
19.903953
 20
11.794652
 30
0.0
 10
19.971157
 20
11.817054
 30
0.0
 10
20.027160
 20
11.873056
 30
0.0
 10
20.038360
 20
11.917860
 30
0.0
  0
LWPOLYLINE
  5
127
100
AcDbEntity
  8
Layer_1
 62
7
100
AcDbPolyline
 90
5
 70
0
 10
17.887827
 20
17.047776
 30
0.0
 10
18.033438
 20
16.935770
 30
0.0
 10
18.201447
 20
16.857366
 30
0.0
 10
18.391859
 20
16.823761
 30
0.0
 10
18.447862
 20
16.812562
 30
0.0
  0
LWPOLYLINE
  5
128
100
AcDbEntity
  8
Layer_1
 62
7
100
AcDbPolyline
 90
5
 70
0
 10
20.038360
 20
16.812562
 30
0.0
 10
20.228772
 20
16.834964
 30
0.0
 10
20.407983
 20
16.902165
 30
0.0
 10
20.553594
 20
17.014175
 30
0.0
 10
20.598395
 20
17.047776
 30
0.0
  0
LWPOLYLINE
  5
129
100
AcDbEntity
  8
Layer_1
 62
7
100
AcDbPolyline
 90
5
 70
0
 10
21.494452
 20
15.367672
 30
0.0
 10
21.516852
 20
15.546883
 30
0.0
 10
21.584058
 20
15.726093
 30
0.0
 10
21.684864
 20
15.882902
 30
0.0
 10
21.718465
 20
15.927706
 30
0.0
  0
LWPOLYLINE
  5
12a
100
AcDbEntity
  8
Layer_1
 62
7
100
AcDbPolyline
 90
5
 70
0
 10
21.718465
 20
13.205937
 30
0.0
 10
21.606458
 20
13.351547
 30
0.0
 10
21.528053
 20
13.530758
 30
0.0
 10
21.494452
 20
13.709969
 30
0.0
 10
21.494452
 20
13.765972
 30
0.0
  0
LWPOLYLINE
  5
12b
100
AcDbEntity
  8
Layer_1
 62
7
100
AcDbPolyline
 90
5
 70
0
 10
20.598395
 20
12.085867
 30
0.0
 10
20.452787
 20
12.197877
 30
0.0
 10
20.284777
 20
12.276281
 30
0.0
 10
20.094365
 20
12.321081
 30
0.0
 10
20.038360
 20
12.321081
 30
0.0
  0
LWPOLYLINE
  5
12c
100
AcDbEntity
  8
Layer_1
 62
7
100
AcDbPolyline
 90
5
 70
0
 10
18.447862
 20
12.321081
 30
0.0
 10
18.257450
 20
12.298679
 30
0.0
 10
18.078239
 20
12.231478
 30
0.0
 10
17.921430
 20
12.130672
 30
0.0
 10
17.887827
 20
12.085867
 30
0.0
  0
LWPOLYLINE
  5
12d
100
AcDbEntity
  8
Layer_1
 62
7
100
AcDbPolyline
 90
5
 70
0
 10
16.756557
 20
13.205937
 30
0.0
 10
16.879765
 20
13.351547
 30
0.0
 10
16.958169
 20
13.530758
 30
0.0
 10
16.991772
 20
13.709969
 30
0.0
 10
16.991772
 20
13.765972
 30
0.0
  0
LWPOLYLINE
  5
12e
100
AcDbEntity
  8
Layer_1
 62
7
100
AcDbPolyline
 90
5
 70
0
 10
16.991772
 20
15.367672
 30
0.0
 10
16.969371
 20
15.546883
 30
0.0
 10
16.902167
 20
15.726093
 30
0.0
 10
16.801360
 20
15.882902
 30
0.0
 10
16.756557
 20
15.927706
 30
0.0
  0
LWPOLYLINE
  5
12f
100
AcDbEntity
  8
Layer_1
 62
7
100
AcDbPolyline
 90
2
 70
0
 10
17.518204
 20
15.591686
 30
0.0
 10
17.518204
 20
13.541957
 30
0.0
  0
LWPOLYLINE
  5
130
100
AcDbEntity
  8
Layer_1
 62
7
100
AcDbPolyline
 90
2
 70
0
 10
17.742219
 20
13.452354
 30
0.0
 10
18.772683
 20
14.471617
 30
0.0
  0
LWPOLYLINE
  5
131
100
AcDbEntity
  8
Layer_1
 62
7
100
AcDbPolyline
 90
2
 70
0
 10
17.742219
 20
15.692492
 30
0.0
 10
18.772683
 20
14.662026
 30
0.0
  0
LWPOLYLINE
  5
132
100
AcDbEntity
  8
Layer_1
 62
7
100
AcDbPolyline
 90
5
 70
0
 10
17.518204
 20
15.591686
 30
0.0
 10
17.540606
 20
15.670090
 30
0.0
 10
17.607810
 20
15.714895
 30
0.0
 10
17.675015
 20
15.726093
 30
0.0
 10
17.742219
 20
15.692492
 30
0.0
  0
LWPOLYLINE
  5
133
100
AcDbEntity
  8
Layer_1
 62
7
100
AcDbPolyline
 90
4
 70
0
 10
18.772683
 20
14.662026
 30
0.0
 10
18.806284
 20
14.594825
 30
0.0
 10
18.806284
 20
14.516420
 30
0.0
 10
18.772683
 20
14.471617
 30
0.0
  0
LWPOLYLINE
  5
134
100
AcDbEntity
  8
Layer_1
 62
7
100
AcDbPolyline
 90
5
 70
0
 10
17.742219
 20
13.452354
 30
0.0
 10
17.675015
 20
13.407550
 30
0.0
 10
17.607810
 20
13.418749
 30
0.0
 10
17.540606
 20
13.463553
 30
0.0
 10
17.518204
 20
13.541957
 30
0.0
  0
LWPOLYLINE
  5
135
100
AcDbEntity
  8
Layer_1
 62
7
100
AcDbPolyline
 90
2
 70
0
 10
20.956817
 20
15.591686
 30
0.0
 10
20.956817
 20
13.541957
 30
0.0
  0
LWPOLYLINE
  5
136
100
AcDbEntity
  8
Layer_1
 62
7
100
AcDbPolyline
 90
2
 70
0
 10
20.732804
 20
13.452354
 30
0.0
 10
19.713542
 20
14.471617
 30
0.0
  0
LWPOLYLINE
  5
137
100
AcDbEntity
  8
Layer_1
 62
7
100
AcDbPolyline
 90
2
 70
0
 10
20.732804
 20
15.692492
 30
0.0
 10
19.713542
 20
14.662026
 30
0.0
  0
LWPOLYLINE
  5
138
100
AcDbEntity
  8
Layer_1
 62
7
100
AcDbPolyline
 90
5
 70
0
 10
20.956817
 20
15.591686
 30
0.0
 10
20.934417
 20
15.670090
 30
0.0
 10
20.878412
 20
15.714895
 30
0.0
 10
20.800008
 20
15.726093
 30
0.0
 10
20.732804
 20
15.692492
 30
0.0
  0
LWPOLYLINE
  5
139
100
AcDbEntity
  8
Layer_1
 62
7
100
AcDbPolyline
 90
4
 70
0
 10
19.713542
 20
14.662026
 30
0.0
 10
19.668737
 20
14.594825
 30
0.0
 10
19.679939
 20
14.516420
 30
0.0
 10
19.713542
 20
14.471617
 30
0.0
  0
LWPOLYLINE
  5
13a
100
AcDbEntity
  8
Layer_1
 62
7
100
AcDbPolyline
 90
5
 70
0
 10
20.732804
 20
13.452354
 30
0.0
 10
20.800008
 20
13.407550
 30
0.0
 10
20.878412
 20
13.418749
 30
0.0
 10
20.934417
 20
13.463553
 30
0.0
 10
20.956817
 20
13.541957
 30
0.0
  0
LWPOLYLINE
  5
13b
100
AcDbEntity
  8
Layer_1
 62
7
100
AcDbPolyline
 90
2
 70
0
 10
18.212648
 20
16.286128
 30
0.0
 10
20.262375
 20
16.286128
 30
0.0
  0
LWPOLYLINE
  5
13c
100
AcDbEntity
  8
Layer_1
 62
7
100
AcDbPolyline
 90
2
 70
0
 10
20.363182
 20
16.062113
 30
0.0
 10
19.332717
 20
15.031651
 30
0.0
  0
LWPOLYLINE
  5
13d
100
AcDbEntity
  8
Layer_1
 62
7
100
AcDbPolyline
 90
2
 70
0
 10
18.123043
 20
16.062113
 30
0.0
 10
19.153507
 20
15.031651
 30
0.0
  0
LWPOLYLINE
  5
13e
100
AcDbEntity
  8
Layer_1
 62
7
100
AcDbPolyline
 90
5
 70
0
 10
18.212648
 20
16.286128
 30
0.0
 10
18.145444
 20
16.263726
 30
0.0
 10
18.089440
 20
16.207724
 30
0.0
 10
18.089440
 20
16.129319
 30
0.0
 10
18.123043
 20
16.062113
 30
0.0
  0
LWPOLYLINE
  5
13f
100
AcDbEntity
  8
Layer_1
 62
7
100
AcDbPolyline
 90
4
 70
0
 10
19.153507
 20
15.031651
 30
0.0
 10
19.220710
 20
14.998051
 30
0.0
 10
19.287914
 20
15.009249
 30
0.0
 10
19.332717
 20
15.031651
 30
0.0
  0
LWPOLYLINE
  5
140
100
AcDbEntity
  8
Layer_1
 62
7
100
AcDbPolyline
 90
6
 70
0
 10
20.363182
 20
16.062113
 30
0.0
 10
20.396783
 20
16.129319
 30
0.0
 10
20.385583
 20
16.207724
 30
0.0
 10
20.340780
 20
16.263726
 30
0.0
 10
20.273576
 20
16.286128
 30
0.0
 10
20.262375
 20
16.286128
 30
0.0
  0
LWPOLYLINE
  5
141
100
AcDbEntity
  8
Layer_1
 62
7
100
AcDbPolyline
 90
2
 70
0
 10
20.262375
 20
12.847515
 30
0.0
 10
18.212648
 20
12.847515
 30
0.0
  0
LWPOLYLINE
  5
142
100
AcDbEntity
  8
Layer_1
 62
7
100
AcDbPolyline
 90
2
 70
0
 10
18.123043
 20
13.071530
 30
0.0
 10
19.153507
 20
14.101992
 30
0.0
  0
LWPOLYLINE
  5
143
100
AcDbEntity
  8
Layer_1
 62
7
100
AcDbPolyline
 90
2
 70
0
 10
20.363182
 20
13.071530
 30
0.0
 10
19.332717
 20
14.101992
 30
0.0
  0
LWPOLYLINE
  5
144
100
AcDbEntity
  8
Layer_1
 62
7
100
AcDbPolyline
 90
5
 70
0
 10
20.262375
 20
12.847515
 30
0.0
 10
20.340780
 20
12.869917
 30
0.0
 10
20.385583
 20
12.925920
 30
0.0
 10
20.396783
 20
13.004324
 30
0.0
 10
20.363182
 20
13.071530
 30
0.0
  0
LWPOLYLINE
  5
145
100
AcDbEntity
  8
Layer_1
 62
7
100
AcDbPolyline
 90
4
 70
0
 10
19.332717
 20
14.101992
 30
0.0
 10
19.265514
 20
14.135597
 30
0.0
 10
19.187108
 20
14.124394
 30
0.0
 10
19.153507
 20
14.101992
 30
0.0
  0
LWPOLYLINE
  5
146
100
AcDbEntity
  8
Layer_1
 62
7
100
AcDbPolyline
 90
5
 70
0
 10
18.123043
 20
13.071530
 30
0.0
 10
18.089440
 20
13.004324
 30
0.0
 10
18.089440
 20
12.925920
 30
0.0
 10
18.145444
 20
12.869917
 30
0.0
 10
18.212648
 20
12.847515
 30
0.0
  0
LWPOLYLINE
  5
147
100
AcDbEntity
  8
Layer_1
 62
7
100
AcDbPolyline
 90
14
 70
1
 10
12.914720
 20
8.916073
 30
0.0
 10
12.892318
 20
9.016880
 30
0.0
 10
12.836315
 20
9.084081
 30
0.0
 10
12.746709
 20
9.128885
 30
0.0
 10
12.645903
 20
9.128885
 30
0.0
 10
12.556297
 20
9.072883
 30
0.0
 10
12.511495
 20
8.994478
 30
0.0
 10
12.489092
 20
8.904870
 30
0.0
 10
12.522696
 20
8.815267
 30
0.0
 10
12.589899
 20
8.736863
 30
0.0
 10
12.679505
 20
8.714461
 30
0.0
 10
12.780311
 20
8.725659
 30
0.0
 10
12.858715
 20
8.781662
 30
0.0
 10
12.903518
 20
8.860067
 30
0.0
  0
LWPOLYLINE
  5
148
100
AcDbEntity
  8
Layer_1
 62
7
100
AcDbPolyline
 90
14
 70
1
 10
12.589899
 20
7.706397
 30
0.0
 10
12.567498
 20
7.796004
 30
0.0
 10
12.500294
 20
7.874408
 30
0.0
 10
12.421889
 20
7.908009
 30
0.0
 10
12.321083
 20
7.908009
 30
0.0
 10
12.231477
 20
7.863206
 30
0.0
 10
12.175474
 20
7.784801
 30
0.0
 10
12.164273
 20
7.683995
 30
0.0
 10
12.197876
 20
7.594391
 30
0.0
 10
12.265079
 20
7.527186
 30
0.0
 10
12.354685
 20
7.493585
 30
0.0
 10
12.455491
 20
7.504783
 30
0.0
 10
12.533895
 20
7.560786
 30
0.0
 10
12.578698
 20
7.639190
 30
0.0
  0
LWPOLYLINE
  5
149
100
AcDbEntity
  8
Layer_1
 62
7
100
AcDbPolyline
 90
14
 70
1
 10
13.810775
 20
8.031218
 30
0.0
 10
13.788373
 20
8.120821
 30
0.0
 10
13.721170
 20
8.199225
 30
0.0
 10
13.631564
 20
8.232831
 30
0.0
 10
13.541958
 20
8.232831
 30
0.0
 10
13.452353
 20
8.188027
 30
0.0
 10
13.396349
 20
8.109622
 30
0.0
 10
13.385149
 20
8.008815
 30
0.0
 10
13.418750
 20
7.919208
 30
0.0
 10
13.485955
 20
7.852006
 30
0.0
 10
13.575560
 20
7.818402
 30
0.0
 10
13.665166
 20
7.829604
 30
0.0
 10
13.754772
 20
7.885607
 30
0.0
 10
13.799574
 20
7.964012
 30
0.0
  0
LWPOLYLINE
  5
14a
100
AcDbEntity
  8
Layer_1
 62
7
100
AcDbPolyline
 90
24
 70
0
 10
12.724308
 20
9.397704
 30
0.0
 10
12.500294
 20
9.341697
 30
0.0
 10
12.287481
 20
9.240890
 30
0.0
 10
12.108269
 20
9.106483
 30
0.0
 10
11.940259
 20
8.938471
 30
0.0
 10
11.828251
 20
8.748061
 30
0.0
 10
11.738646
 20
8.524047
 30
0.0
 10
11.705045
 20
8.300032
 30
0.0
 10
11.705045
 20
8.076021
 30
0.0
 10
11.761048
 20
7.840804
 30
0.0
 10
11.850654
 20
7.639190
 30
0.0
 10
11.985062
 20
7.448781
 30
0.0
 10
12.153073
 20
7.280769
 30
0.0
 10
12.343483
 20
7.157565
 30
0.0
 10
12.556297
 20
7.079156
 30
0.0
 10
12.791512
 20
7.034356
 30
0.0
 10
13.015526
 20
7.034356
 30
0.0
 10
13.239540
 20
7.079156
 30
0.0
 10
13.452353
 20
7.168763
 30
0.0
 10
13.642765
 20
7.291972
 30
0.0
 10
13.810775
 20
7.459980
 30
0.0
 10
13.933982
 20
7.650394
 30
0.0
 10
14.023588
 20
7.863206
 30
0.0
 10
14.068390
 20
8.053620
 30
0.0
  0
LWPOLYLINE
  5
14b
100
AcDbEntity
  8
Layer_1
 62
7
100
AcDbPolyline
 90
4
 70
0
 10
12.724308
 20
9.397704
 30
0.0
 10
12.903518
 20
9.442503
 30
0.0
 10
13.071529
 20
9.532111
 30
0.0
 10
13.172335
 20
9.621714
 30
0.0
  0
LWPOLYLINE
  5
14c
100
AcDbEntity
  8
Layer_1
 62
7
100
AcDbPolyline
 90
4
 70
0
 10
14.068390
 20
8.053620
 30
0.0
 10
14.124395
 20
8.232831
 30
0.0
 10
14.213999
 20
8.400838
 30
0.0
 10
14.292405
 20
8.501645
 30
0.0
  0
LWPOLYLINE
  5
14d
100
AcDbEntity
  8
Layer_1
 62
7
100
AcDbPolyline
 90
14
 70
1
 10
25.997130
 20
8.916073
 30
0.0
 10
25.974730
 20
9.016880
 30
0.0
 10
25.907524
 20
9.084081
 30
0.0
 10
25.817919
 20
9.128885
 30
0.0
 10
25.728313
 20
9.128885
 30
0.0
 10
25.638708
 20
9.072883
 30
0.0
 10
25.582705
 20
8.994478
 30
0.0
 10
25.571504
 20
8.904870
 30
0.0
 10
25.593906
 20
8.815267
 30
0.0
 10
25.672310
 20
8.736863
 30
0.0
 10
25.761916
 20
8.714461
 30
0.0
 10
25.851521
 20
8.725659
 30
0.0
 10
25.929926
 20
8.781662
 30
0.0
 10
25.985930
 20
8.860067
 30
0.0
  0
LWPOLYLINE
  5
14e
100
AcDbEntity
  8
Layer_1
 62
7
100
AcDbPolyline
 90
14
 70
1
 10
26.321951
 20
7.706397
 30
0.0
 10
26.299549
 20
7.796004
 30
0.0
 10
26.232345
 20
7.874408
 30
0.0
 10
26.142739
 20
7.908009
 30
0.0
 10
26.053134
 20
7.908009
 30
0.0
 10
25.963529
 20
7.863206
 30
0.0
 10
25.907524
 20
7.784801
 30
0.0
 10
25.896325
 20
7.683995
 30
0.0
 10
25.929926
 20
7.594391
 30
0.0
 10
25.997130
 20
7.527186
 30
0.0
 10
26.086735
 20
7.493585
 30
0.0
 10
26.176342
 20
7.504783
 30
0.0
 10
26.265948
 20
7.560786
 30
0.0
 10
26.310750
 20
7.639190
 30
0.0
  0
LWPOLYLINE
  5
14f
100
AcDbEntity
  8
Layer_1
 62
7
100
AcDbPolyline
 90
14
 70
1
 10
25.101075
 20
8.031218
 30
0.0
 10
25.078673
 20
8.120821
 30
0.0
 10
25.011469
 20
8.199225
 30
0.0
 10
24.933065
 20
8.232831
 30
0.0
 10
24.832258
 20
8.232831
 30
0.0
 10
24.742653
 20
8.188027
 30
0.0
 10
24.686649
 20
8.109622
 30
0.0
 10
24.675449
 20
8.008815
 30
0.0
 10
24.709050
 20
7.919208
 30
0.0
 10
24.776255
 20
7.852006
 30
0.0
 10
24.865861
 20
7.818402
 30
0.0
 10
24.966666
 20
7.829604
 30
0.0
 10
25.045072
 20
7.885607
 30
0.0
 10
25.089874
 20
7.964012
 30
0.0
  0
LWPOLYLINE
  5
150
100
AcDbEntity
  8
Layer_1
 62
7
100
AcDbPolyline
 90
27
 70
0
 10
24.417832
 20
8.053620
 30
0.0
 10
24.462635
 20
7.829604
 30
0.0
 10
24.563442
 20
7.616793
 30
0.0
 10
24.697849
 20
7.426379
 30
0.0
 10
24.865861
 20
7.269570
 30
0.0
 10
25.067472
 20
7.146362
 30
0.0
 10
25.280286
 20
7.067957
 30
0.0
 10
25.504301
 20
7.034356
 30
0.0
 10
25.739514
 20
7.034356
 30
0.0
 10
25.963529
 20
7.090359
 30
0.0
 10
26.176342
 20
7.179963
 30
0.0
 10
26.366753
 20
7.314374
 30
0.0
 10
26.523564
 20
7.482381
 30
0.0
 10
26.646770
 20
7.672796
 30
0.0
 10
26.736377
 20
7.885607
 30
0.0
 10
26.781179
 20
8.109622
 30
0.0
 10
26.781179
 20
8.344836
 30
0.0
 10
26.725176
 20
8.568850
 30
0.0
 10
26.635571
 20
8.781662
 30
0.0
 10
26.512362
 20
8.972076
 30
0.0
 10
26.344353
 20
9.140084
 30
0.0
 10
26.153941
 20
9.263292
 30
0.0
 10
25.941127
 20
9.352900
 30
0.0
 10
25.761916
 20
9.397704
 30
0.0
 10
25.582705
 20
9.442503
 30
0.0
 10
25.414695
 20
9.532111
 30
0.0
 10
25.313889
 20
9.621714
 30
0.0
  0
LWPOLYLINE
  5
151
100
AcDbEntity
  8
Layer_1
 62
7
100
AcDbPolyline
 90
4
 70
0
 10
24.417832
 20
8.053620
 30
0.0
 10
24.361829
 20
8.232831
 30
0.0
 10
24.272224
 20
8.400838
 30
0.0
 10
24.193819
 20
8.501645
 30
0.0
  0
LWPOLYLINE
  5
152
100
AcDbEntity
  8
Layer_1
 62
7
100
AcDbPolyline
 90
14
 70
1
 10
25.997130
 20
20.217574
 30
0.0
 10
25.974730
 20
20.307178
 30
0.0
 10
25.907524
 20
20.385582
 30
0.0
 10
25.817919
 20
20.419183
 30
0.0
 10
25.728313
 20
20.419183
 30
0.0
 10
25.638708
 20
20.374383
 30
0.0
 10
25.582705
 20
20.295978
 30
0.0
 10
25.571504
 20
20.195172
 30
0.0
 10
25.593906
 20
20.105565
 30
0.0
 10
25.672310
 20
20.038363
 30
0.0
 10
25.761916
 20
20.004758
 30
0.0
 10
25.851521
 20
20.015961
 30
0.0
 10
25.929926
 20
20.071964
 30
0.0
 10
25.985930
 20
20.150368
 30
0.0
  0
LWPOLYLINE
  5
153
100
AcDbEntity
  8
Layer_1
 62
7
100
AcDbPolyline
 90
14
 70
1
 10
26.321951
 20
21.427247
 30
0.0
 10
26.299549
 20
21.528053
 30
0.0
 10
26.232345
 20
21.606458
 30
0.0
 10
26.142739
 20
21.640058
 30
0.0
 10
26.053134
 20
21.640058
 30
0.0
 10
25.963529
 20
21.584056
 30
0.0
 10
25.907524
 20
21.505651
 30
0.0
 10
25.896325
 20
21.416048
 30
0.0
 10
25.929926
 20
21.326440
 30
0.0
 10
25.997130
 20
21.248036
 30
0.0
 10
26.086735
 20
21.225634
 30
0.0
 10
26.176342
 20
21.236837
 30
0.0
 10
26.265948
 20
21.292840
 30
0.0
 10
26.310750
 20
21.371244
 30
0.0
  0
LWPOLYLINE
  5
154
100
AcDbEntity
  8
Layer_1
 62
7
100
AcDbPolyline
 90
14
 70
1
 10
25.101075
 20
21.102426
 30
0.0
 10
25.078673
 20
21.203232
 30
0.0
 10
25.011469
 20
21.270437
 30
0.0
 10
24.933065
 20
21.315242
 30
0.0
 10
24.832258
 20
21.315242
 30
0.0
 10
24.742653
 20
21.259235
 30
0.0
 10
24.686649
 20
21.180831
 30
0.0
 10
24.675449
 20
21.091227
 30
0.0
 10
24.709050
 20
20.990420
 30
0.0
 10
24.776255
 20
20.923215
 30
0.0
 10
24.865861
 20
20.900813
 30
0.0
 10
24.966666
 20
20.912016
 30
0.0
 10
25.045072
 20
20.956819
 30
0.0
 10
25.089874
 20
21.046423
 30
0.0
  0
LWPOLYLINE
  5
155
100
AcDbEntity
  8
Layer_1
 62
7
100
AcDbPolyline
 90
27
 70
0
 10
25.761916
 20
19.735944
 30
0.0
 10
25.985930
 20
19.791947
 30
0.0
 10
26.198742
 20
19.892753
 30
0.0
 10
26.377953
 20
20.027160
 30
0.0
 10
26.534764
 20
20.195172
 30
0.0
 10
26.657971
 20
20.385582
 30
0.0
 10
26.736377
 20
20.609597
 30
0.0
 10
26.781179
 20
20.833612
 30
0.0
 10
26.769978
 20
21.068825
 30
0.0
 10
26.725176
 20
21.292840
 30
0.0
 10
26.624370
 20
21.505651
 30
0.0
 10
26.501162
 20
21.684862
 30
0.0
 10
26.333151
 20
21.852874
 30
0.0
 10
26.142739
 20
21.976083
 30
0.0
 10
25.918725
 20
22.065686
 30
0.0
 10
25.694712
 20
22.099287
 30
0.0
 10
25.470698
 20
22.099287
 30
0.0
 10
25.235484
 20
22.054487
 30
0.0
 10
25.022670
 20
21.964880
 30
0.0
 10
24.832258
 20
21.841671
 30
0.0
 10
24.675449
 20
21.673664
 30
0.0
 10
24.541040
 20
21.483249
 30
0.0
 10
24.451435
 20
21.270437
 30
0.0
 10
24.417832
 20
21.091227
 30
0.0
 10
24.361829
 20
20.900813
 30
0.0
 10
24.272224
 20
20.744004
 30
0.0
 10
24.193819
 20
20.631999
 30
0.0
  0
LWPOLYLINE
  5
156
100
AcDbEntity
  8
Layer_1
 62
7
100
AcDbPolyline
 90
4
 70
0
 10
25.761916
 20
19.735944
 30
0.0
 10
25.582705
 20
19.691140
 30
0.0
 10
25.414695
 20
19.601533
 30
0.0
 10
25.313889
 20
19.511929
 30
0.0
  0
LWPOLYLINE
  5
157
100
AcDbEntity
  8
Layer_1
 62
7
100
AcDbPolyline
 90
14
 70
1
 10
12.914720
 20
20.217574
 30
0.0
 10
12.892318
 20
20.307178
 30
0.0
 10
12.836315
 20
20.385582
 30
0.0
 10
12.746709
 20
20.419183
 30
0.0
 10
12.645903
 20
20.419183
 30
0.0
 10
12.556297
 20
20.374383
 30
0.0
 10
12.511495
 20
20.295978
 30
0.0
 10
12.489092
 20
20.195172
 30
0.0
 10
12.522696
 20
20.105565
 30
0.0
 10
12.589899
 20
20.038363
 30
0.0
 10
12.679505
 20
20.004758
 30
0.0
 10
12.780311
 20
20.015961
 30
0.0
 10
12.858715
 20
20.071964
 30
0.0
 10
12.903518
 20
20.150368
 30
0.0
  0
LWPOLYLINE
  5
158
100
AcDbEntity
  8
Layer_1
 62
7
100
AcDbPolyline
 90
14
 70
1
 10
12.589899
 20
21.427247
 30
0.0
 10
12.567498
 20
21.528053
 30
0.0
 10
12.500294
 20
21.606458
 30
0.0
 10
12.421889
 20
21.640058
 30
0.0
 10
12.321083
 20
21.640058
 30
0.0
 10
12.231477
 20
21.584056
 30
0.0
 10
12.175474
 20
21.505651
 30
0.0
 10
12.164273
 20
21.416048
 30
0.0
 10
12.197876
 20
21.326440
 30
0.0
 10
12.265079
 20
21.248036
 30
0.0
 10
12.354685
 20
21.225634
 30
0.0
 10
12.455491
 20
21.236837
 30
0.0
 10
12.533895
 20
21.292840
 30
0.0
 10
12.578698
 20
21.371244
 30
0.0
  0
LWPOLYLINE
  5
159
100
AcDbEntity
  8
Layer_1
 62
7
100
AcDbPolyline
 90
14
 70
1
 10
13.810775
 20
21.102426
 30
0.0
 10
13.788373
 20
21.203232
 30
0.0
 10
13.721170
 20
21.270437
 30
0.0
 10
13.631564
 20
21.315242
 30
0.0
 10
13.541958
 20
21.315242
 30
0.0
 10
13.452353
 20
21.259235
 30
0.0
 10
13.396349
 20
21.180831
 30
0.0
 10
13.385149
 20
21.091227
 30
0.0
 10
13.418750
 20
20.990420
 30
0.0
 10
13.485955
 20
20.923215
 30
0.0
 10
13.575560
 20
20.900813
 30
0.0
 10
13.665166
 20
20.912016
 30
0.0
 10
13.754772
 20
20.956819
 30
0.0
 10
13.799574
 20
21.046423
 30
0.0
  0
LWPOLYLINE
  5
15a
100
AcDbEntity
  8
Layer_1
 62
7
100
AcDbPolyline
 90
24
 70
0
 10
14.068390
 20
21.091227
 30
0.0
 10
14.012388
 20
21.315242
 30
0.0
 10
13.922783
 20
21.516854
 30
0.0
 10
13.788373
 20
21.707265
 30
0.0
 10
13.609162
 20
21.864074
 30
0.0
 10
13.418750
 20
21.987282
 30
0.0
 10
13.205938
 20
22.065686
 30
0.0
 10
12.970723
 20
22.110490
 30
0.0
 10
12.746709
 20
22.099287
 30
0.0
 10
12.522696
 20
22.043284
 30
0.0
 10
12.309882
 20
21.953681
 30
0.0
 10
12.119470
 20
21.819269
 30
0.0
 10
11.962661
 20
21.662460
 30
0.0
 10
11.828251
 20
21.460848
 30
0.0
 10
11.749847
 20
21.248036
 30
0.0
 10
11.705045
 20
21.024022
 30
0.0
 10
11.705045
 20
20.788808
 30
0.0
 10
11.749847
 20
20.564793
 30
0.0
 10
11.839453
 20
20.351981
 30
0.0
 10
11.973860
 20
20.161567
 30
0.0
 10
12.130671
 20
19.993560
 30
0.0
 10
12.321083
 20
19.870351
 30
0.0
 10
12.533895
 20
19.780744
 30
0.0
 10
12.724308
 20
19.735944
 30
0.0
  0
LWPOLYLINE
  5
15b
100
AcDbEntity
  8
Layer_1
 62
7
100
AcDbPolyline
 90
4
 70
0
 10
14.068390
 20
21.091227
 30
0.0
 10
14.124395
 20
20.900813
 30
0.0
 10
14.213999
 20
20.744004
 30
0.0
 10
14.292405
 20
20.631999
 30
0.0
  0
LWPOLYLINE
  5
15c
100
AcDbEntity
  8
Layer_1
 62
7
100
AcDbPolyline
 90
4
 70
0
 10
12.724308
 20
19.735944
 30
0.0
 10
12.903518
 20
19.691140
 30
0.0
 10
13.071529
 20
19.601533
 30
0.0
 10
13.172335
 20
19.511929
 30
0.0
  0
LWPOLYLINE
  5
15d
100
AcDbEntity
  8
Layer_1
 62
7
100
AcDbPolyline
 90
2
 70
0
 10
13.441152
 20
20.217574
 30
0.0
 10
12.701906
 20
20.217574
 30
0.0
  0
LWPOLYLINE
  5
15e
100
AcDbEntity
  8
Layer_1
 62
7
100
AcDbPolyline
 90
2
 70
0
 10
11.962661
 20
20.217574
 30
0.0
 10
12.701906
 20
20.217574
 30
0.0
  0
LWPOLYLINE
  5
15f
100
AcDbEntity
  8
Layer_1
 62
7
100
AcDbPolyline
 90
2
 70
0
 10
12.701906
 20
20.956819
 30
0.0
 10
12.701906
 20
20.217574
 30
0.0
  0
LWPOLYLINE
  5
160
100
AcDbEntity
  8
Layer_1
 62
7
100
AcDbPolyline
 90
2
 70
0
 10
12.701906
 20
19.478328
 30
0.0
 10
12.701906
 20
20.217574
 30
0.0
  0
LWPOLYLINE
  5
161
100
AcDbEntity
  8
Layer_1
 62
7
100
AcDbPolyline
 90
2
 70
0
 10
12.377086
 20
22.177696
 30
0.0
 10
12.377086
 20
21.427247
 30
0.0
  0
LWPOLYLINE
  5
162
100
AcDbEntity
  8
Layer_1
 62
7
100
AcDbPolyline
 90
2
 70
0
 10
12.377086
 20
20.688001
 30
0.0
 10
12.377086
 20
21.427247
 30
0.0
  0
LWPOLYLINE
  5
163
100
AcDbEntity
  8
Layer_1
 62
7
100
AcDbPolyline
 90
2
 70
0
 10
11.637841
 20
21.427247
 30
0.0
 10
12.377086
 20
21.427247
 30
0.0
  0
LWPOLYLINE
  5
164
100
AcDbEntity
  8
Layer_1
 62
7
100
AcDbPolyline
 90
2
 70
0
 10
13.116332
 20
21.427247
 30
0.0
 10
12.377086
 20
21.427247
 30
0.0
  0
LWPOLYLINE
  5
165
100
AcDbEntity
  8
Layer_1
 62
7
100
AcDbPolyline
 90
2
 70
0
 10
13.597963
 20
20.363180
 30
0.0
 10
13.597963
 20
21.102426
 30
0.0
  0
LWPOLYLINE
  5
166
100
AcDbEntity
  8
Layer_1
 62
7
100
AcDbPolyline
 90
2
 70
0
 10
13.597963
 20
21.841671
 30
0.0
 10
13.597963
 20
21.102426
 30
0.0
  0
LWPOLYLINE
  5
167
100
AcDbEntity
  8
Layer_1
 62
7
100
AcDbPolyline
 90
2
 70
0
 10
14.337208
 20
21.102426
 30
0.0
 10
13.597963
 20
21.102426
 30
0.0
  0
LWPOLYLINE
  5
168
100
AcDbEntity
  8
Layer_1
 62
7
100
AcDbPolyline
 90
2
 70
0
 10
12.858715
 20
21.102426
 30
0.0
 10
13.597963
 20
21.102426
 30
0.0
  0
LWPOLYLINE
  5
169
100
AcDbEntity
  8
Layer_1
 62
7
100
AcDbPolyline
 90
2
 70
0
 10
24.888261
 20
21.841671
 30
0.0
 10
24.888261
 20
21.102426
 30
0.0
  0
LWPOLYLINE
  5
16a
100
AcDbEntity
  8
Layer_1
 62
7
100
AcDbPolyline
 90
2
 70
0
 10
24.888261
 20
20.363180
 30
0.0
 10
24.888261
 20
21.102426
 30
0.0
  0
LWPOLYLINE
  5
16b
100
AcDbEntity
  8
Layer_1
 62
7
100
AcDbPolyline
 90
2
 70
0
 10
24.149015
 20
21.102426
 30
0.0
 10
24.888261
 20
21.102426
 30
0.0
  0
LWPOLYLINE
  5
16c
100
AcDbEntity
  8
Layer_1
 62
7
100
AcDbPolyline
 90
2
 70
0
 10
25.627507
 20
21.102426
 30
0.0
 10
24.888261
 20
21.102426
 30
0.0
  0
LWPOLYLINE
  5
16d
100
AcDbEntity
  8
Layer_1
 62
7
100
AcDbPolyline
 90
2
 70
0
 10
25.784318
 20
20.956819
 30
0.0
 10
25.784318
 20
20.217574
 30
0.0
  0
LWPOLYLINE
  5
16e
100
AcDbEntity
  8
Layer_1
 62
7
100
AcDbPolyline
 90
2
 70
0
 10
25.784318
 20
19.478328
 30
0.0
 10
25.784318
 20
20.217574
 30
0.0
  0
LWPOLYLINE
  5
16f
100
AcDbEntity
  8
Layer_1
 62
7
100
AcDbPolyline
 90
2
 70
0
 10
25.033871
 20
20.217574
 30
0.0
 10
25.784318
 20
20.217574
 30
0.0
  0
LWPOLYLINE
  5
170
100
AcDbEntity
  8
Layer_1
 62
7
100
AcDbPolyline
 90
2
 70
0
 10
26.523564
 20
20.217574
 30
0.0
 10
25.784318
 20
20.217574
 30
0.0
  0
LWPOLYLINE
  5
171
100
AcDbEntity
  8
Layer_1
 62
7
100
AcDbPolyline
 90
2
 70
0
 10
26.109137
 20
22.177696
 30
0.0
 10
26.109137
 20
21.427247
 30
0.0
  0
LWPOLYLINE
  5
172
100
AcDbEntity
  8
Layer_1
 62
7
100
AcDbPolyline
 90
2
 70
0
 10
26.109137
 20
20.688001
 30
0.0
 10
26.109137
 20
21.427247
 30
0.0
  0
LWPOLYLINE
  5
173
100
AcDbEntity
  8
Layer_1
 62
7
100
AcDbPolyline
 90
2
 70
0
 10
25.369892
 20
21.427247
 30
0.0
 10
26.109137
 20
21.427247
 30
0.0
  0
LWPOLYLINE
  5
174
100
AcDbEntity
  8
Layer_1
 62
7
100
AcDbPolyline
 90
2
 70
0
 10
26.848383
 20
21.427247
 30
0.0
 10
26.109137
 20
21.427247
 30
0.0
  0
LWPOLYLINE
  5
175
100
AcDbEntity
  8
Layer_1
 62
7
100
AcDbPolyline
 90
2
 70
0
 10
13.597963
 20
8.770463
 30
0.0
 10
13.597963
 20
8.031218
 30
0.0
  0
LWPOLYLINE
  5
176
100
AcDbEntity
  8
Layer_1
 62
7
100
AcDbPolyline
 90
2
 70
0
 10
13.597963
 20
7.291972
 30
0.0
 10
13.597963
 20
8.031218
 30
0.0
  0
LWPOLYLINE
  5
177
100
AcDbEntity
  8
Layer_1
 62
7
100
AcDbPolyline
 90
2
 70
0
 10
12.858715
 20
8.031218
 30
0.0
 10
13.597963
 20
8.031218
 30
0.0
  0
LWPOLYLINE
  5
178
100
AcDbEntity
  8
Layer_1
 62
7
100
AcDbPolyline
 90
2
 70
0
 10
14.337208
 20
8.031218
 30
0.0
 10
13.597963
 20
8.031218
 30
0.0
  0
LWPOLYLINE
  5
179
100
AcDbEntity
  8
Layer_1
 62
7
100
AcDbPolyline
 90
2
 70
0
 10
12.377086
 20
8.445642
 30
0.0
 10
12.377086
 20
7.706397
 30
0.0
  0
LWPOLYLINE
  5
17a
100
AcDbEntity
  8
Layer_1
 62
7
100
AcDbPolyline
 90
2
 70
0
 10
12.377086
 20
6.967151
 30
0.0
 10
12.377086
 20
7.706397
 30
0.0
  0
LWPOLYLINE
  5
17b
100
AcDbEntity
  8
Layer_1
 62
7
100
AcDbPolyline
 90
2
 70
0
 10
11.637841
 20
7.706397
 30
0.0
 10
12.377086
 20
7.706397
 30
0.0
  0
LWPOLYLINE
  5
17c
100
AcDbEntity
  8
Layer_1
 62
7
100
AcDbPolyline
 90
2
 70
0
 10
13.116332
 20
7.706397
 30
0.0
 10
12.377086
 20
7.706397
 30
0.0
  0
LWPOLYLINE
  5
17d
100
AcDbEntity
  8
Layer_1
 62
7
100
AcDbPolyline
 90
2
 70
0
 10
12.701906
 20
9.666518
 30
0.0
 10
12.701906
 20
8.916073
 30
0.0
  0
LWPOLYLINE
  5
17e
100
AcDbEntity
  8
Layer_1
 62
7
100
AcDbPolyline
 90
2
 70
0
 10
12.701906
 20
8.176828
 30
0.0
 10
12.701906
 20
8.916073
 30
0.0
  0
LWPOLYLINE
  5
17f
100
AcDbEntity
  8
Layer_1
 62
7
100
AcDbPolyline
 90
2
 70
0
 10
11.962661
 20
8.916073
 30
0.0
 10
12.701906
 20
8.916073
 30
0.0
  0
LWPOLYLINE
  5
180
100
AcDbEntity
  8
Layer_1
 62
7
100
AcDbPolyline
 90
2
 70
0
 10
13.441152
 20
8.916073
 30
0.0
 10
12.701906
 20
8.916073
 30
0.0
  0
LWPOLYLINE
  5
181
100
AcDbEntity
  8
Layer_1
 62
7
100
AcDbPolyline
 90
2
 70
0
 10
24.888261
 20
8.770463
 30
0.0
 10
24.888261
 20
8.031218
 30
0.0
  0
LWPOLYLINE
  5
182
100
AcDbEntity
  8
Layer_1
 62
7
100
AcDbPolyline
 90
2
 70
0
 10
24.888261
 20
7.291972
 30
0.0
 10
24.888261
 20
8.031218
 30
0.0
  0
LWPOLYLINE
  5
183
100
AcDbEntity
  8
Layer_1
 62
7
100
AcDbPolyline
 90
2
 70
0
 10
24.149015
 20
8.031218
 30
0.0
 10
24.888261
 20
8.031218
 30
0.0
  0
LWPOLYLINE
  5
184
100
AcDbEntity
  8
Layer_1
 62
7
100
AcDbPolyline
 90
2
 70
0
 10
25.627507
 20
8.031218
 30
0.0
 10
24.888261
 20
8.031218
 30
0.0
  0
LWPOLYLINE
  5
185
100
AcDbEntity
  8
Layer_1
 62
7
100
AcDbPolyline
 90
2
 70
0
 10
26.109137
 20
8.445642
 30
0.0
 10
26.109137
 20
7.706397
 30
0.0
  0
LWPOLYLINE
  5
186
100
AcDbEntity
  8
Layer_1
 62
7
100
AcDbPolyline
 90
2
 70
0
 10
26.109137
 20
6.967151
 30
0.0
 10
26.109137
 20
7.706397
 30
0.0
  0
LWPOLYLINE
  5
187
100
AcDbEntity
  8
Layer_1
 62
7
100
AcDbPolyline
 90
2
 70
0
 10
25.369892
 20
7.706397
 30
0.0
 10
26.109137
 20
7.706397
 30
0.0
  0
LWPOLYLINE
  5
188
100
AcDbEntity
  8
Layer_1
 62
7
100
AcDbPolyline
 90
2
 70
0
 10
26.848383
 20
7.706397
 30
0.0
 10
26.109137
 20
7.706397
 30
0.0
  0
LWPOLYLINE
  5
189
100
AcDbEntity
  8
Layer_1
 62
7
100
AcDbPolyline
 90
2
 70
0
 10
25.784318
 20
9.666518
 30
0.0
 10
25.784318
 20
8.916073
 30
0.0
  0
LWPOLYLINE
  5
18a
100
AcDbEntity
  8
Layer_1
 62
7
100
AcDbPolyline
 90
2
 70
0
 10
25.784318
 20
8.176828
 30
0.0
 10
25.784318
 20
8.916073
 30
0.0
  0
LWPOLYLINE
  5
18b
100
AcDbEntity
  8
Layer_1
 62
7
100
AcDbPolyline
 90
2
 70
0
 10
25.033871
 20
8.916073
 30
0.0
 10
25.784318
 20
8.916073
 30
0.0
  0
LWPOLYLINE
  5
18c
100
AcDbEntity
  8
Layer_1
 62
7
100
AcDbPolyline
 90
2
 70
0
 10
26.523564
 20
8.916073
 30
0.0
 10
25.784318
 20
8.916073
 30
0.0
  0
LWPOLYLINE
  5
18d
100
AcDbEntity
  8
Layer_1
 62
7
100
AcDbPolyline
 90
2
 70
0
 10
25.022670
 20
20.161567
 30
0.0
 10
24.832258
 20
20.340778
 30
0.0
  0
LWPOLYLINE
  5
18e
100
AcDbEntity
  8
Layer_1
 62
7
100
AcDbPolyline
 90
4
 70
0
 10
25.022670
 20
19.971158
 30
0.0
 10
25.056273
 20
20.038363
 30
0.0
 10
25.045072
 20
20.116767
 30
0.0
 10
25.022670
 20
20.161567
 30
0.0
  0
LWPOLYLINE
  5
18f
100
AcDbEntity
  8
Layer_1
 62
7
100
AcDbPolyline
 90
4
 70
0
 10
24.641846
 20
20.340778
 30
0.0
 10
24.709050
 20
20.385582
 30
0.0
 10
24.787455
 20
20.374383
 30
0.0
 10
24.832258
 20
20.340778
 30
0.0
  0
LWPOLYLINE
  5
190
100
AcDbEntity
  8
Layer_1
 62
7
100
AcDbPolyline
 90
4
 70
0
 10
21.337641
 20
16.857366
 30
0.0
 10
21.304040
 20
16.924567
 30
0.0
 10
21.315241
 20
17.002972
 30
0.0
 10
21.337641
 20
17.036576
 30
0.0
  0
LWPOLYLINE
  5
191
100
AcDbEntity
  8
Layer_1
 62
7
100
AcDbPolyline
 90
2
 70
0
 10
21.528053
 20
16.666952
 30
0.0
 10
21.337641
 20
16.857366
 30
0.0
  0
LWPOLYLINE
  5
192
100
AcDbEntity
  8
Layer_1
 62
7
100
AcDbPolyline
 90
4
 70
0
 10
21.528053
 20
16.666952
 30
0.0
 10
21.595258
 20
16.633351
 30
0.0
 10
21.673663
 20
16.633351
 30
0.0
 10
21.718465
 20
16.666952
 30
0.0
  0
LWPOLYLINE
  5
193
100
AcDbEntity
  8
Layer_1
 62
7
100
AcDbPolyline
 90
2
 70
0
 10
25.022670
 20
19.971158
 30
0.0
 10
21.718465
 20
16.666952
 30
0.0
  0
LWPOLYLINE
  5
194
100
AcDbEntity
  8
Layer_1
 62
7
100
AcDbPolyline
 90
2
 70
0
 10
24.641846
 20
20.340778
 30
0.0
 10
21.337641
 20
17.036576
 30
0.0
  0
LWPOLYLINE
  5
195
100
AcDbEntity
  8
Layer_1
 62
7
100
AcDbPolyline
 90
2
 70
0
 10
13.463553
 20
8.983275
 30
0.0
 10
13.653965
 20
8.792865
 30
0.0
  0
LWPOLYLINE
  5
196
100
AcDbEntity
  8
Layer_1
 62
7
100
AcDbPolyline
 90
4
 70
0
 10
13.463553
 20
9.162486
 30
0.0
 10
13.429951
 20
9.095284
 30
0.0
 10
13.429951
 20
9.016880
 30
0.0
 10
13.463553
 20
8.983275
 30
0.0
  0
LWPOLYLINE
  5
197
100
AcDbEntity
  8
Layer_1
 62
7
100
AcDbPolyline
 90
4
 70
0
 10
13.833177
 20
8.792865
 30
0.0
 10
13.777173
 20
8.759260
 30
0.0
 10
13.698767
 20
8.759260
 30
0.0
 10
13.653965
 20
8.792865
 30
0.0
  0
LWPOLYLINE
  5
198
100
AcDbEntity
  8
Layer_1
 62
7
100
AcDbPolyline
 90
4
 70
0
 10
17.137381
 20
12.276281
 30
0.0
 10
17.182184
 20
12.209076
 30
0.0
 10
17.170983
 20
12.141870
 30
0.0
 10
17.137381
 20
12.097071
 30
0.0
  0
LWPOLYLINE
  5
199
100
AcDbEntity
  8
Layer_1
 62
7
100
AcDbPolyline
 90
2
 70
0
 10
16.958169
 20
12.466692
 30
0.0
 10
17.137381
 20
12.276281
 30
0.0
  0
LWPOLYLINE
  5
19a
100
AcDbEntity
  8
Layer_1
 62
7
100
AcDbPolyline
 90
4
 70
0
 10
16.958169
 20
12.466692
 30
0.0
 10
16.890966
 20
12.500292
 30
0.0
 10
16.812561
 20
12.500292
 30
0.0
 10
16.767758
 20
12.466692
 30
0.0
  0
LWPOLYLINE
  5
19b
100
AcDbEntity
  8
Layer_1
 62
7
100
AcDbPolyline
 90
2
 70
0
 10
13.463553
 20
9.162486
 30
0.0
 10
16.767758
 20
12.466692
 30
0.0
  0
LWPOLYLINE
  5
19c
100
AcDbEntity
  8
Layer_1
 62
7
100
AcDbPolyline
 90
2
 70
0
 10
13.833177
 20
8.792865
 30
0.0
 10
17.137381
 20
12.097071
 30
0.0
  0
LWPOLYLINE
  5
19d
100
AcDbEntity
  8
Layer_1
 62
7
100
AcDbPolyline
 90
2
 70
0
 10
24.832258
 20
8.792865
 30
0.0
 10
25.022670
 20
8.983275
 30
0.0
  0
LWPOLYLINE
  5
19e
100
AcDbEntity
  8
Layer_1
 62
7
100
AcDbPolyline
 90
4
 70
0
 10
24.641846
 20
8.792865
 30
0.0
 10
24.709050
 20
8.759260
 30
0.0
 10
24.787455
 20
8.759260
 30
0.0
 10
24.832258
 20
8.792865
 30
0.0
  0
LWPOLYLINE
  5
19f
100
AcDbEntity
  8
Layer_1
 62
7
100
AcDbPolyline
 90
4
 70
0
 10
25.022670
 20
9.162486
 30
0.0
 10
25.056273
 20
9.095284
 30
0.0
 10
25.045072
 20
9.016880
 30
0.0
 10
25.022670
 20
8.983275
 30
0.0
  0
LWPOLYLINE
  5
1a0
100
AcDbEntity
  8
Layer_1
 62
7
100
AcDbPolyline
 90
4
 70
0
 10
21.528053
 20
12.466692
 30
0.0
 10
21.595258
 20
12.500292
 30
0.0
 10
21.673663
 20
12.500292
 30
0.0
 10
21.718465
 20
12.466692
 30
0.0
  0
LWPOLYLINE
  5
1a1
100
AcDbEntity
  8
Layer_1
 62
7
100
AcDbPolyline
 90
2
 70
0
 10
21.337641
 20
12.276281
 30
0.0
 10
21.528053
 20
12.466692
 30
0.0
  0
LWPOLYLINE
  5
1a2
100
AcDbEntity
  8
Layer_1
 62
7
100
AcDbPolyline
 90
4
 70
0
 10
21.337641
 20
12.276281
 30
0.0
 10
21.304040
 20
12.209076
 30
0.0
 10
21.315241
 20
12.141870
 30
0.0
 10
21.337641
 20
12.097071
 30
0.0
  0
LWPOLYLINE
  5
1a3
100
AcDbEntity
  8
Layer_1
 62
7
100
AcDbPolyline
 90
2
 70
0
 10
24.641846
 20
8.792865
 30
0.0
 10
21.337641
 20
12.097071
 30
0.0
  0
LWPOLYLINE
  5
1a4
100
AcDbEntity
  8
Layer_1
 62
7
100
AcDbPolyline
 90
2
 70
0
 10
25.022670
 20
9.162486
 30
0.0
 10
21.718465
 20
12.466692
 30
0.0
  0
LWPOLYLINE
  5
1a5
100
AcDbEntity
  8
Layer_1
 62
7
100
AcDbPolyline
 90
2
 70
0
 10
13.463553
 20
20.161567
 30
0.0
 10
13.653965
 20
20.340778
 30
0.0
  0
LWPOLYLINE
  5
1a6
100
AcDbEntity
  8
Layer_1
 62
7
100
AcDbPolyline
 90
4
 70
0
 10
13.463553
 20
19.971158
 30
0.0
 10
13.429951
 20
20.038363
 30
0.0
 10
13.429951
 20
20.116767
 30
0.0
 10
13.463553
 20
20.161567
 30
0.0
  0
LWPOLYLINE
  5
1a7
100
AcDbEntity
  8
Layer_1
 62
7
100
AcDbPolyline
 90
4
 70
0
 10
13.833177
 20
20.340778
 30
0.0
 10
13.777173
 20
20.385582
 30
0.0
 10
13.698767
 20
20.374383
 30
0.0
 10
13.653965
 20
20.340778
 30
0.0
  0
LWPOLYLINE
  5
1a8
100
AcDbEntity
  8
Layer_1
 62
7
100
AcDbPolyline
 90
4
 70
0
 10
17.137381
 20
16.857366
 30
0.0
 10
17.182184
 20
16.924567
 30
0.0
 10
17.170983
 20
17.002972
 30
0.0
 10
17.137381
 20
17.036576
 30
0.0
  0
LWPOLYLINE
  5
1a9
100
AcDbEntity
  8
Layer_1
 62
7
100
AcDbPolyline
 90
2
 70
0
 10
16.958169
 20
16.666952
 30
0.0
 10
17.137381
 20
16.857366
 30
0.0
  0
LWPOLYLINE
  5
1aa
100
AcDbEntity
  8
Layer_1
 62
7
100
AcDbPolyline
 90
4
 70
0
 10
16.958169
 20
16.666952
 30
0.0
 10
16.890966
 20
16.633351
 30
0.0
 10
16.812561
 20
16.633351
 30
0.0
 10
16.767758
 20
16.666952
 30
0.0
  0
LWPOLYLINE
  5
1ab
100
AcDbEntity
  8
Layer_1
 62
7
100
AcDbPolyline
 90
2
 70
0
 10
13.463553
 20
19.971158
 30
0.0
 10
16.767758
 20
16.666952
 30
0.0
  0
LWPOLYLINE
  5
1ac
100
AcDbEntity
  8
Layer_1
 62
7
100
AcDbPolyline
 90
2
 70
0
 10
13.833177
 20
20.340778
 30
0.0
 10
17.137381
 20
17.036576
 30
0.0
  0
LWPOLYLINE
  5
1ad
100
AcDbEntity
  8
Layer_1
 62
7
100
AcDbPolyline
 90
2
 70
0
 10
25.145878
 20
14.292406
 30
0.0
 10
28.730100
 20
10.696984
 30
0.0
  0
LWPOLYLINE
  5
1ae
100
AcDbEntity
  8
Layer_1
 62
7
100
AcDbPolyline
 90
2
 70
0
 10
27.610030
 20
9.576915
 30
0.0
 10
24.014608
 20
13.161133
 30
0.0
  0
LWPOLYLINE
  5
1af
100
AcDbEntity
  8
Layer_1
 62
7
100
AcDbPolyline
 90
2
 70
0
 10
32.571938
 20
9.576915
 30
0.0
 10
36.156161
 20
13.161133
 30
0.0
  0
LWPOLYLINE
  5
1b0
100
AcDbEntity
  8
Layer_1
 62
7
100
AcDbPolyline
 90
2
 70
0
 10
35.036091
 20
14.292406
 30
0.0
 10
31.451869
 20
10.696984
 30
0.0
  0
LWPOLYLINE
  5
1b1
100
AcDbEntity
  8
Layer_1
 62
7
100
AcDbPolyline
 90
2
 70
0
 10
27.610030
 20
6.855145
 30
0.0
 10
24.014608
 20
3.270922
 30
0.0
  0
LWPOLYLINE
  5
1b2
100
AcDbEntity
  8
Layer_1
 62
7
100
AcDbPolyline
 90
2
 70
0
 10
25.145878
 20
2.150853
 30
0.0
 10
28.730100
 20
5.735076
 30
0.0
  0
LWPOLYLINE
  5
1b3
100
AcDbEntity
  8
Layer_1
 62
7
100
AcDbPolyline
 90
2
 70
0
 10
32.571938
 20
6.855145
 30
0.0
 10
36.156161
 20
3.270922
 30
0.0
  0
LWPOLYLINE
  5
1b4
100
AcDbEntity
  8
Layer_1
 62
7
100
AcDbPolyline
 90
2
 70
0
 10
35.036091
 20
2.150853
 30
0.0
 10
31.451869
 20
5.735076
 30
0.0
  0
LWPOLYLINE
  5
1b5
100
AcDbEntity
  8
Layer_1
 62
7
100
AcDbPolyline
 90
2
 70
0
 10
27.845246
 20
9.016880
 30
0.0
 10
27.845246
 20
7.415180
 30
0.0
  0
LWPOLYLINE
  5
1b6
100
AcDbEntity
  8
Layer_1
 62
7
100
AcDbPolyline
 90
2
 70
0
 10
32.336724
 20
9.016880
 30
0.0
 10
32.336724
 20
7.415180
 30
0.0
  0
LWPOLYLINE
  5
1b7
100
AcDbEntity
  8
Layer_1
 62
7
100
AcDbPolyline
 90
16
 70
1
 10
24.003408
 20
14.572423
 30
0.0
 10
23.981005
 20
14.673230
 30
0.0
 10
23.913802
 20
14.762833
 30
0.0
 10
23.824196
 20
14.818835
 30
0.0
 10
23.723390
 20
14.830038
 30
0.0
 10
23.611383
 20
14.796438
 30
0.0
 10
23.532978
 20
14.729232
 30
0.0
 10
23.488174
 20
14.639624
 30
0.0
 10
23.476974
 20
14.527620
 30
0.0
 10
23.521777
 20
14.426813
 30
0.0
 10
23.588980
 20
14.348408
 30
0.0
 10
23.689787
 20
14.303605
 30
0.0
 10
23.801794
 20
14.314808
 30
0.0
 10
23.902601
 20
14.359607
 30
0.0
 10
23.969805
 20
14.438016
 30
0.0
 10
24.003408
 20
14.538818
 30
0.0
  0
LWPOLYLINE
  5
1b8
100
AcDbEntity
  8
Layer_1
 62
7
100
AcDbPolyline
 90
16
 70
1
 10
36.704993
 20
14.572423
 30
0.0
 10
36.682591
 20
14.673230
 30
0.0
 10
36.615389
 20
14.762833
 30
0.0
 10
36.525782
 20
14.818835
 30
0.0
 10
36.413776
 20
14.830038
 30
0.0
 10
36.312970
 20
14.796438
 30
0.0
 10
36.234566
 20
14.729232
 30
0.0
 10
36.178563
 20
14.639624
 30
0.0
 10
36.178563
 20
14.527620
 30
0.0
 10
36.212164
 20
14.426813
 30
0.0
 10
36.290569
 20
14.348408
 30
0.0
 10
36.391375
 20
14.303605
 30
0.0
 10
36.503380
 20
14.314808
 30
0.0
 10
36.604187
 20
14.359607
 30
0.0
 10
36.671392
 20
14.438016
 30
0.0
 10
36.704993
 20
14.538818
 30
0.0
  0
LWPOLYLINE
  5
1b9
100
AcDbEntity
  8
Layer_1
 62
7
100
AcDbPolyline
 90
16
 70
1
 10
36.704993
 20
1.870836
 30
0.0
 10
36.682591
 20
1.971642
 30
0.0
 10
36.615389
 20
2.061245
 30
0.0
 10
36.525782
 20
2.117252
 30
0.0
 10
36.413776
 20
2.128451
 30
0.0
 10
36.312970
 20
2.106050
 30
0.0
 10
36.234566
 20
2.027645
 30
0.0
 10
36.178563
 20
1.938037
 30
0.0
 10
36.178563
 20
1.826032
 30
0.0
 10
36.212164
 20
1.725225
 30
0.0
 10
36.290569
 20
1.646821
 30
0.0
 10
36.391375
 20
1.602017
 30
0.0
 10
36.503380
 20
1.613220
 30
0.0
 10
36.604187
 20
1.658020
 30
0.0
 10
36.671392
 20
1.736429
 30
0.0
 10
36.704993
 20
1.837235
 30
0.0
  0
LWPOLYLINE
  5
1ba
100
AcDbEntity
  8
Layer_1
 62
7
100
AcDbPolyline
 90
16
 70
1
 10
24.003408
 20
1.870836
 30
0.0
 10
23.981005
 20
1.971642
 30
0.0
 10
23.913802
 20
2.061245
 30
0.0
 10
23.824196
 20
2.117252
 30
0.0
 10
23.723390
 20
2.128451
 30
0.0
 10
23.611383
 20
2.106050
 30
0.0
 10
23.532978
 20
2.027645
 30
0.0
 10
23.488174
 20
1.938037
 30
0.0
 10
23.476974
 20
1.826032
 30
0.0
 10
23.521777
 20
1.725225
 30
0.0
 10
23.588980
 20
1.646821
 30
0.0
 10
23.689787
 20
1.602017
 30
0.0
 10
23.801794
 20
1.613220
 30
0.0
 10
23.902601
 20
1.658020
 30
0.0
 10
23.969805
 20
1.736429
 30
0.0
 10
24.003408
 20
1.837235
 30
0.0
  0
LWPOLYLINE
  5
1bb
100
AcDbEntity
  8
Layer_1
 62
7
100
AcDbPolyline
 90
2
 70
0
 10
29.290135
 20
10.461766
 30
0.0
 10
29.424544
 20
10.461766
 30
0.0
  0
LWPOLYLINE
  5
1bc
100
AcDbEntity
  8
Layer_1
 62
7
100
AcDbPolyline
 90
2
 70
0
 10
29.424544
 20
10.999399
 30
0.0
 10
30.085385
 20
10.999399
 30
0.0
  0
LWPOLYLINE
  5
1bd
100
AcDbEntity
  8
Layer_1
 62
7
100
AcDbPolyline
 90
4
 70
0
 10
29.424544
 20
10.461766
 30
0.0
 10
29.502948
 20
10.484168
 30
0.0
 10
29.547750
 20
10.551374
 30
0.0
 10
29.558951
 20
10.596177
 30
0.0
  0
LWPOLYLINE
  5
1be
100
AcDbEntity
  8
Layer_1
 62
7
100
AcDbPolyline
 90
4
 70
0
 10
29.424544
 20
10.730585
 30
0.0
 10
29.502948
 20
10.708183
 30
0.0
 10
29.547750
 20
10.652180
 30
0.0
 10
29.558951
 20
10.596177
 30
0.0
  0
LWPOLYLINE
  5
1bf
100
AcDbEntity
  8
Layer_1
 62
7
100
AcDbPolyline
 90
4
 70
0
 10
29.301335
 20
10.864992
 30
0.0
 10
29.312536
 20
10.786588
 30
0.0
 10
29.379739
 20
10.741783
 30
0.0
 10
29.424544
 20
10.730585
 30
0.0
  0
LWPOLYLINE
  5
1c0
100
AcDbEntity
  8
Layer_1
 62
7
100
AcDbPolyline
 90
4
 70
0
 10
29.424544
 20
10.999399
 30
0.0
 10
29.357338
 20
10.977002
 30
0.0
 10
29.301335
 20
10.920995
 30
0.0
 10
29.301335
 20
10.864992
 30
0.0
  0
LWPOLYLINE
  5
1c1
100
AcDbEntity
  8
Layer_1
 62
7
100
AcDbPolyline
 90
2
 70
0
 10
30.891834
 20
10.461766
 30
0.0
 10
30.746226
 20
10.461766
 30
0.0
  0
LWPOLYLINE
  5
1c2
100
AcDbEntity
  8
Layer_1
 62
7
100
AcDbPolyline
 90
2
 70
0
 10
30.746226
 20
10.999399
 30
0.0
 10
30.085385
 20
10.999399
 30
0.0
  0
LWPOLYLINE
  5
1c3
100
AcDbEntity
  8
Layer_1
 62
7
100
AcDbPolyline
 90
4
 70
0
 10
30.746226
 20
10.461766
 30
0.0
 10
30.679020
 20
10.484168
 30
0.0
 10
30.634219
 20
10.551374
 30
0.0
 10
30.623017
 20
10.596177
 30
0.0
  0
LWPOLYLINE
  5
1c4
100
AcDbEntity
  8
Layer_1
 62
7
100
AcDbPolyline
 90
4
 70
0
 10
30.746226
 20
10.730585
 30
0.0
 10
30.679020
 20
10.708183
 30
0.0
 10
30.634219
 20
10.652180
 30
0.0
 10
30.623017
 20
10.596177
 30
0.0
  0
LWPOLYLINE
  5
1c5
100
AcDbEntity
  8
Layer_1
 62
7
100
AcDbPolyline
 90
4
 70
0
 10
30.880633
 20
10.864992
 30
0.0
 10
30.858231
 20
10.786588
 30
0.0
 10
30.802228
 20
10.741783
 30
0.0
 10
30.746226
 20
10.730585
 30
0.0
  0
LWPOLYLINE
  5
1c6
100
AcDbEntity
  8
Layer_1
 62
7
100
AcDbPolyline
 90
4
 70
0
 10
30.746226
 20
10.999399
 30
0.0
 10
30.824630
 20
10.977002
 30
0.0
 10
30.869432
 20
10.920995
 30
0.0
 10
30.880633
 20
10.864992
 30
0.0
  0
LWPOLYLINE
  5
1c7
100
AcDbEntity
  8
Layer_1
 62
7
100
AcDbPolyline
 90
2
 70
0
 10
29.290135
 20
5.970290
 30
0.0
 10
29.424544
 20
5.970290
 30
0.0
  0
LWPOLYLINE
  5
1c8
100
AcDbEntity
  8
Layer_1
 62
7
100
AcDbPolyline
 90
2
 70
0
 10
29.424544
 20
5.443856
 30
0.0
 10
30.085385
 20
5.443856
 30
0.0
  0
LWPOLYLINE
  5
1c9
100
AcDbEntity
  8
Layer_1
 62
7
100
AcDbPolyline
 90
4
 70
0
 10
29.424544
 20
5.970290
 30
0.0
 10
29.502948
 20
5.947888
 30
0.0
 10
29.547750
 20
5.891885
 30
0.0
 10
29.558951
 20
5.835882
 30
0.0
  0
LWPOLYLINE
  5
1ca
100
AcDbEntity
  8
Layer_1
 62
7
100
AcDbPolyline
 90
4
 70
0
 10
29.424544
 20
5.701471
 30
0.0
 10
29.502948
 20
5.723873
 30
0.0
 10
29.547750
 20
5.779876
 30
0.0
 10
29.558951
 20
5.835882
 30
0.0
  0
LWPOLYLINE
  5
1cb
100
AcDbEntity
  8
Layer_1
 62
7
100
AcDbPolyline
 90
4
 70
0
 10
29.301335
 20
5.567064
 30
0.0
 10
29.312536
 20
5.645468
 30
0.0
 10
29.379739
 20
5.690272
 30
0.0
 10
29.424544
 20
5.701471
 30
0.0
  0
LWPOLYLINE
  5
1cc
100
AcDbEntity
  8
Layer_1
 62
7
100
AcDbPolyline
 90
4
 70
0
 10
29.424544
 20
5.443856
 30
0.0
 10
29.357338
 20
5.466258
 30
0.0
 10
29.301335
 20
5.522260
 30
0.0
 10
29.301335
 20
5.567064
 30
0.0
  0
LWPOLYLINE
  5
1cd
100
AcDbEntity
  8
Layer_1
 62
7
100
AcDbPolyline
 90
2
 70
0
 10
30.891834
 20
5.970290
 30
0.0
 10
30.746226
 20
5.970290
 30
0.0
  0
LWPOLYLINE
  5
1ce
100
AcDbEntity
  8
Layer_1
 62
7
100
AcDbPolyline
 90
2
 70
0
 10
30.746226
 20
5.443856
 30
0.0
 10
30.085385
 20
5.443856
 30
0.0
  0
LWPOLYLINE
  5
1cf
100
AcDbEntity
  8
Layer_1
 62
7
100
AcDbPolyline
 90
4
 70
0
 10
30.746226
 20
5.970290
 30
0.0
 10
30.679020
 20
5.947888
 30
0.0
 10
30.634219
 20
5.891885
 30
0.0
 10
30.623017
 20
5.835882
 30
0.0
  0
LWPOLYLINE
  5
1d0
100
AcDbEntity
  8
Layer_1
 62
7
100
AcDbPolyline
 90
4
 70
0
 10
30.746226
 20
5.701471
 30
0.0
 10
30.679020
 20
5.723873
 30
0.0
 10
30.634219
 20
5.779876
 30
0.0
 10
30.623017
 20
5.835882
 30
0.0
  0
LWPOLYLINE
  5
1d1
100
AcDbEntity
  8
Layer_1
 62
7
100
AcDbPolyline
 90
4
 70
0
 10
30.880633
 20
5.567064
 30
0.0
 10
30.858231
 20
5.645468
 30
0.0
 10
30.802228
 20
5.690272
 30
0.0
 10
30.746226
 20
5.701471
 30
0.0
  0
LWPOLYLINE
  5
1d2
100
AcDbEntity
  8
Layer_1
 62
7
100
AcDbPolyline
 90
4
 70
0
 10
30.746226
 20
5.443856
 30
0.0
 10
30.824630
 20
5.466258
 30
0.0
 10
30.869432
 20
5.522260
 30
0.0
 10
30.880633
 20
5.567064
 30
0.0
  0
LWPOLYLINE
  5
1d3
100
AcDbEntity
  8
Layer_1
 62
7
100
AcDbPolyline
 90
5
 70
0
 10
28.730100
 20
10.696984
 30
0.0
 10
28.875710
 20
10.584974
 30
0.0
 10
29.054921
 20
10.506570
 30
0.0
 10
29.234132
 20
10.472970
 30
0.0
 10
29.290135
 20
10.461766
 30
0.0
  0
LWPOLYLINE
  5
1d4
100
AcDbEntity
  8
Layer_1
 62
7
100
AcDbPolyline
 90
5
 70
0
 10
30.891834
 20
10.461766
 30
0.0
 10
31.071045
 20
10.484168
 30
0.0
 10
31.250256
 20
10.551374
 30
0.0
 10
31.407065
 20
10.663379
 30
0.0
 10
31.451869
 20
10.696984
 30
0.0
  0
LWPOLYLINE
  5
1d5
100
AcDbEntity
  8
Layer_1
 62
7
100
AcDbPolyline
 90
5
 70
0
 10
32.336724
 20
9.016880
 30
0.0
 10
32.359124
 20
9.207290
 30
0.0
 10
32.426330
 20
9.375302
 30
0.0
 10
32.527135
 20
9.532111
 30
0.0
 10
32.571938
 20
9.576915
 30
0.0
  0
LWPOLYLINE
  5
1d6
100
AcDbEntity
  8
Layer_1
 62
7
100
AcDbPolyline
 90
5
 70
0
 10
32.571938
 20
6.855145
 30
0.0
 10
32.459930
 20
7.011954
 30
0.0
 10
32.381526
 20
7.179963
 30
0.0
 10
32.336724
 20
7.359173
 30
0.0
 10
32.336724
 20
7.415180
 30
0.0
  0
LWPOLYLINE
  5
1d7
100
AcDbEntity
  8
Layer_1
 62
7
100
AcDbPolyline
 90
5
 70
0
 10
31.451869
 20
5.735076
 30
0.0
 10
31.295060
 20
5.858280
 30
0.0
 10
31.127048
 20
5.925486
 30
0.0
 10
30.947837
 20
5.970290
 30
0.0
 10
30.891834
 20
5.970290
 30
0.0
  0
LWPOLYLINE
  5
1d8
100
AcDbEntity
  8
Layer_1
 62
7
100
AcDbPolyline
 90
5
 70
0
 10
29.290135
 20
5.970290
 30
0.0
 10
29.099722
 20
5.947888
 30
0.0
 10
28.931712
 20
5.880682
 30
0.0
 10
28.774903
 20
5.779876
 30
0.0
 10
28.730100
 20
5.735076
 30
0.0
  0
LWPOLYLINE
  5
1d9
100
AcDbEntity
  8
Layer_1
 62
7
100
AcDbPolyline
 90
5
 70
0
 10
27.610030
 20
6.855145
 30
0.0
 10
27.722037
 20
7.011954
 30
0.0
 10
27.800442
 20
7.179963
 30
0.0
 10
27.834045
 20
7.359173
 30
0.0
 10
27.845246
 20
7.415180
 30
0.0
  0
LWPOLYLINE
  5
1da
100
AcDbEntity
  8
Layer_1
 62
7
100
AcDbPolyline
 90
5
 70
0
 10
27.845246
 20
9.016880
 30
0.0
 10
27.822844
 20
9.207290
 30
0.0
 10
27.755640
 20
9.375302
 30
0.0
 10
27.643633
 20
9.532111
 30
0.0
 10
27.610030
 20
9.576915
 30
0.0
  0
LWPOLYLINE
  5
1db
100
AcDbEntity
  8
Layer_1
 62
7
100
AcDbPolyline
 90
2
 70
0
 10
28.371678
 20
9.240890
 30
0.0
 10
28.371678
 20
7.191165
 30
0.0
  0
LWPOLYLINE
  5
1dc
100
AcDbEntity
  8
Layer_1
 62
7
100
AcDbPolyline
 90
2
 70
0
 10
28.595692
 20
7.101558
 30
0.0
 10
29.626156
 20
8.120821
 30
0.0
  0
LWPOLYLINE
  5
1dd
100
AcDbEntity
  8
Layer_1
 62
7
100
AcDbPolyline
 90
2
 70
0
 10
28.595692
 20
9.341697
 30
0.0
 10
29.626156
 20
8.311235
 30
0.0
  0
LWPOLYLINE
  5
1de
100
AcDbEntity
  8
Layer_1
 62
7
100
AcDbPolyline
 90
5
 70
0
 10
28.371678
 20
9.240890
 30
0.0
 10
28.394080
 20
9.319295
 30
0.0
 10
28.450083
 20
9.364099
 30
0.0
 10
28.528487
 20
9.375302
 30
0.0
 10
28.595692
 20
9.341697
 30
0.0
  0
LWPOLYLINE
  5
1df
100
AcDbEntity
  8
Layer_1
 62
7
100
AcDbPolyline
 90
4
 70
0
 10
29.626156
 20
8.311235
 30
0.0
 10
29.659757
 20
8.244029
 30
0.0
 10
29.648556
 20
8.165624
 30
0.0
 10
29.626156
 20
8.120821
 30
0.0
  0
LWPOLYLINE
  5
1e0
100
AcDbEntity
  8
Layer_1
 62
7
100
AcDbPolyline
 90
5
 70
0
 10
28.595692
 20
7.101558
 30
0.0
 10
28.528487
 20
7.056759
 30
0.0
 10
28.450083
 20
7.067957
 30
0.0
 10
28.394080
 20
7.112761
 30
0.0
 10
28.371678
 20
7.191165
 30
0.0
  0
LWPOLYLINE
  5
1e1
100
AcDbEntity
  8
Layer_1
 62
7
100
AcDbPolyline
 90
2
 70
0
 10
31.810291
 20
9.240890
 30
0.0
 10
31.810291
 20
7.191165
 30
0.0
  0
LWPOLYLINE
  5
1e2
100
AcDbEntity
  8
Layer_1
 62
7
100
AcDbPolyline
 90
2
 70
0
 10
31.586278
 20
7.101558
 30
0.0
 10
30.555814
 20
8.120821
 30
0.0
  0
LWPOLYLINE
  5
1e3
100
AcDbEntity
  8
Layer_1
 62
7
100
AcDbPolyline
 90
2
 70
0
 10
31.586278
 20
9.341697
 30
0.0
 10
30.555814
 20
8.311235
 30
0.0
  0
LWPOLYLINE
  5
1e4
100
AcDbEntity
  8
Layer_1
 62
7
100
AcDbPolyline
 90
5
 70
0
 10
31.810291
 20
9.240890
 30
0.0
 10
31.787889
 20
9.319295
 30
0.0
 10
31.731886
 20
9.364099
 30
0.0
 10
31.653481
 20
9.375302
 30
0.0
 10
31.586278
 20
9.341697
 30
0.0
  0
LWPOLYLINE
  5
1e5
100
AcDbEntity
  8
Layer_1
 62
7
100
AcDbPolyline
 90
4
 70
0
 10
30.555814
 20
8.311235
 30
0.0
 10
30.522211
 20
8.244029
 30
0.0
 10
30.533412
 20
8.165624
 30
0.0
 10
30.555814
 20
8.120821
 30
0.0
  0
LWPOLYLINE
  5
1e6
100
AcDbEntity
  8
Layer_1
 62
7
100
AcDbPolyline
 90
5
 70
0
 10
31.586278
 20
7.101558
 30
0.0
 10
31.653481
 20
7.056759
 30
0.0
 10
31.731886
 20
7.067957
 30
0.0
 10
31.787889
 20
7.112761
 30
0.0
 10
31.810291
 20
7.191165
 30
0.0
  0
LWPOLYLINE
  5
1e7
100
AcDbEntity
  8
Layer_1
 62
7
100
AcDbPolyline
 90
2
 70
0
 10
29.066121
 20
9.935336
 30
0.0
 10
31.115848
 20
9.935336
 30
0.0
  0
LWPOLYLINE
  5
1e8
100
AcDbEntity
  8
Layer_1
 62
7
100
AcDbPolyline
 90
2
 70
0
 10
31.205454
 20
9.711322
 30
0.0
 10
30.186191
 20
8.680856
 30
0.0
  0
LWPOLYLINE
  5
1e9
100
AcDbEntity
  8
Layer_1
 62
7
100
AcDbPolyline
 90
2
 70
0
 10
28.965315
 20
9.711322
 30
0.0
 10
29.995779
 20
8.680856
 30
0.0
  0
LWPOLYLINE
  5
1ea
100
AcDbEntity
  8
Layer_1
 62
7
100
AcDbPolyline
 90
5
 70
0
 10
29.066121
 20
9.935336
 30
0.0
 10
28.987715
 20
9.912935
 30
0.0
 10
28.942913
 20
9.856932
 30
0.0
 10
28.931712
 20
9.778523
 30
0.0
 10
28.965315
 20
9.711322
 30
0.0
  0
LWPOLYLINE
  5
1eb
100
AcDbEntity
  8
Layer_1
 62
7
100
AcDbPolyline
 90
4
 70
0
 10
29.995779
 20
8.680856
 30
0.0
 10
30.062982
 20
8.647255
 30
0.0
 10
30.141387
 20
8.658454
 30
0.0
 10
30.186191
 20
8.680856
 30
0.0
  0
LWPOLYLINE
  5
1ec
100
AcDbEntity
  8
Layer_1
 62
7
100
AcDbPolyline
 90
5
 70
0
 10
31.205454
 20
9.711322
 30
0.0
 10
31.250256
 20
9.778523
 30
0.0
 10
31.239055
 20
9.856932
 30
0.0
 10
31.194253
 20
9.912935
 30
0.0
 10
31.115848
 20
9.935336
 30
0.0
  0
LWPOLYLINE
  5
1ed
100
AcDbEntity
  8
Layer_1
 62
7
100
AcDbPolyline
 90
2
 70
0
 10
31.115848
 20
6.496724
 30
0.0
 10
29.066121
 20
6.496724
 30
0.0
  0
LWPOLYLINE
  5
1ee
100
AcDbEntity
  8
Layer_1
 62
7
100
AcDbPolyline
 90
2
 70
0
 10
28.965315
 20
6.720734
 30
0.0
 10
29.995779
 20
7.751200
 30
0.0
  0
LWPOLYLINE
  5
1ef
100
AcDbEntity
  8
Layer_1
 62
7
100
AcDbPolyline
 90
2
 70
0
 10
31.205454
 20
6.720734
 30
0.0
 10
30.186191
 20
7.751200
 30
0.0
  0
LWPOLYLINE
  5
1f0
100
AcDbEntity
  8
Layer_1
 62
7
100
AcDbPolyline
 90
6
 70
0
 10
31.115848
 20
6.496724
 30
0.0
 10
31.194253
 20
6.519121
 30
0.0
 10
31.239055
 20
6.575128
 30
0.0
 10
31.250256
 20
6.653533
 30
0.0
 10
31.216655
 20
6.720734
 30
0.0
 10
31.205454
 20
6.720734
 30
0.0
  0
LWPOLYLINE
  5
1f1
100
AcDbEntity
  8
Layer_1
 62
7
100
AcDbPolyline
 90
4
 70
0
 10
30.186191
 20
7.751200
 30
0.0
 10
30.118985
 20
7.784801
 30
0.0
 10
30.040581
 20
7.784801
 30
0.0
 10
29.995779
 20
7.751200
 30
0.0
  0
LWPOLYLINE
  5
1f2
100
AcDbEntity
  8
Layer_1
 62
7
100
AcDbPolyline
 90
5
 70
0
 10
28.965315
 20
6.720734
 30
0.0
 10
28.931712
 20
6.653533
 30
0.0
 10
28.942913
 20
6.586327
 30
0.0
 10
28.987715
 20
6.519121
 30
0.0
 10
29.066121
 20
6.496724
 30
0.0
  0
LWPOLYLINE
  5
1f3
100
AcDbEntity
  8
Layer_1
 62
7
100
AcDbPolyline
 90
14
 70
1
 10
23.768192
 20
2.565277
 30
0.0
 10
23.745792
 20
2.666084
 30
0.0
 10
23.678586
 20
2.744488
 30
0.0
 10
23.588980
 20
2.778089
 30
0.0
 10
23.499375
 20
2.778089
 30
0.0
 10
23.409770
 20
2.722086
 30
0.0
 10
23.353767
 20
2.643682
 30
0.0
 10
23.342566
 20
2.554079
 30
0.0
 10
23.364968
 20
2.464471
 30
0.0
 10
23.443373
 20
2.386067
 30
0.0
 10
23.532978
 20
2.363665
 30
0.0
 10
23.622583
 20
2.374868
 30
0.0
 10
23.700988
 20
2.430870
 30
0.0
 10
23.756991
 20
2.509275
 30
0.0
  0
LWPOLYLINE
  5
1f4
100
AcDbEntity
  8
Layer_1
 62
7
100
AcDbPolyline
 90
14
 70
1
 10
23.432171
 20
1.355604
 30
0.0
 10
23.409770
 20
1.445208
 30
0.0
 10
23.353767
 20
1.523613
 30
0.0
 10
23.264162
 20
1.557218
 30
0.0
 10
23.163356
 20
1.557218
 30
0.0
 10
23.084951
 20
1.512414
 30
0.0
 10
23.028946
 20
1.434009
 30
0.0
 10
23.017745
 20
1.333203
 30
0.0
 10
23.040147
 20
1.243595
 30
0.0
 10
23.107351
 20
1.176394
 30
0.0
 10
23.208157
 20
1.142789
 30
0.0
 10
23.297762
 20
1.153992
 30
0.0
 10
23.376169
 20
1.209995
 30
0.0
 10
23.432171
 20
1.288399
 30
0.0
  0
LWPOLYLINE
  5
1f5
100
AcDbEntity
  8
Layer_1
 62
7
100
AcDbPolyline
 90
14
 70
1
 10
24.653047
 20
1.680422
 30
0.0
 10
24.630646
 20
1.770029
 30
0.0
 10
24.574643
 20
1.848434
 30
0.0
 10
24.485037
 20
1.882034
 30
0.0
 10
24.384231
 20
1.882034
 30
0.0
 10
24.305826
 20
1.837235
 30
0.0
 10
24.249822
 20
1.758826
 30
0.0
 10
24.227420
 20
1.658020
 30
0.0
 10
24.261023
 20
1.568416
 30
0.0
 10
24.328226
 20
1.501211
 30
0.0
 10
24.417832
 20
1.467610
 30
0.0
 10
24.518638
 20
1.478809
 30
0.0
 10
24.597043
 20
1.534816
 30
0.0
 10
24.641846
 20
1.624419
 30
0.0
  0
LWPOLYLINE
  5
1f6
100
AcDbEntity
  8
Layer_1
 62
7
100
AcDbPolyline
 90
24
 70
0
 10
23.566579
 20
3.046908
 30
0.0
 10
23.342566
 20
2.990905
 30
0.0
 10
23.140953
 20
2.890099
 30
0.0
 10
22.950542
 20
2.755691
 30
0.0
 10
22.793733
 20
2.587679
 30
0.0
 10
22.670524
 20
2.397270
 30
0.0
 10
22.592119
 20
2.184454
 30
0.0
 10
22.547316
 20
1.949240
 30
0.0
 10
22.558517
 20
1.725225
 30
0.0
 10
22.603321
 20
1.501211
 30
0.0
 10
22.704127
 20
1.288399
 30
0.0
 10
22.838534
 20
1.097985
 30
0.0
 10
22.995345
 20
0.929977
 30
0.0
 10
23.196956
 20
0.806769
 30
0.0
 10
23.409770
 20
0.728364
 30
0.0
 10
23.633785
 20
0.683561
 30
0.0
 10
23.868998
 20
0.683561
 30
0.0
 10
24.093012
 20
0.728364
 30
0.0
 10
24.305826
 20
0.817968
 30
0.0
 10
24.496238
 20
0.952379
 30
0.0
 10
24.653047
 20
1.109188
 30
0.0
 10
24.787455
 20
1.299598
 30
0.0
 10
24.877060
 20
1.512414
 30
0.0
 10
24.921864
 20
1.702824
 30
0.0
  0
LWPOLYLINE
  5
1f7
100
AcDbEntity
  8
Layer_1
 62
7
100
AcDbPolyline
 90
4
 70
0
 10
23.566579
 20
3.046908
 30
0.0
 10
23.756991
 20
3.091711
 30
0.0
 10
23.913802
 20
3.181315
 30
0.0
 10
24.014608
 20
3.270922
 30
0.0
  0
LWPOLYLINE
  5
1f8
100
AcDbEntity
  8
Layer_1
 62
7
100
AcDbPolyline
 90
4
 70
0
 10
24.921864
 20
1.702824
 30
0.0
 10
24.966666
 20
1.882034
 30
0.0
 10
25.056273
 20
2.050047
 30
0.0
 10
25.145878
 20
2.150853
 30
0.0
  0
LWPOLYLINE
  5
1f9
100
AcDbEntity
  8
Layer_1
 62
7
100
AcDbPolyline
 90
14
 70
1
 10
36.839404
 20
2.565277
 30
0.0
 10
36.817002
 20
2.666084
 30
0.0
 10
36.761000
 20
2.744488
 30
0.0
 10
36.671392
 20
2.778089
 30
0.0
 10
36.570586
 20
2.778089
 30
0.0
 10
36.480982
 20
2.722086
 30
0.0
 10
36.436178
 20
2.643682
 30
0.0
 10
36.413776
 20
2.554079
 30
0.0
 10
36.447377
 20
2.464471
 30
0.0
 10
36.514583
 20
2.386067
 30
0.0
 10
36.604187
 20
2.363665
 30
0.0
 10
36.704993
 20
2.374868
 30
0.0
 10
36.783397
 20
2.430870
 30
0.0
 10
36.828201
 20
2.509275
 30
0.0
  0
LWPOLYLINE
  5
1fa
100
AcDbEntity
  8
Layer_1
 62
7
100
AcDbPolyline
 90
14
 70
1
 10
37.164221
 20
1.355604
 30
0.0
 10
37.141823
 20
1.445208
 30
0.0
 10
37.085816
 20
1.523613
 30
0.0
 10
36.996213
 20
1.557218
 30
0.0
 10
36.895407
 20
1.557218
 30
0.0
 10
36.817002
 20
1.512414
 30
0.0
 10
36.761000
 20
1.434009
 30
0.0
 10
36.738598
 20
1.333203
 30
0.0
 10
36.772198
 20
1.243595
 30
0.0
 10
36.839404
 20
1.176394
 30
0.0
 10
36.929007
 20
1.142789
 30
0.0
 10
37.029814
 20
1.153992
 30
0.0
 10
37.108219
 20
1.209995
 30
0.0
 10
37.153022
 20
1.288399
 30
0.0
  0
LWPOLYLINE
  5
1fb
100
AcDbEntity
  8
Layer_1
 62
7
100
AcDbPolyline
 90
14
 70
1
 10
35.943345
 20
1.680422
 30
0.0
 10
35.920948
 20
1.770029
 30
0.0
 10
35.864941
 20
1.848434
 30
0.0
 10
35.775337
 20
1.882034
 30
0.0
 10
35.674531
 20
1.882034
 30
0.0
 10
35.596126
 20
1.837235
 30
0.0
 10
35.540123
 20
1.758826
 30
0.0
 10
35.528921
 20
1.658020
 30
0.0
 10
35.551323
 20
1.568416
 30
0.0
 10
35.618528
 20
1.501211
 30
0.0
 10
35.719335
 20
1.467610
 30
0.0
 10
35.808938
 20
1.478809
 30
0.0
 10
35.887342
 20
1.534816
 30
0.0
 10
35.943345
 20
1.624419
 30
0.0
  0
LWPOLYLINE
  5
1fc
100
AcDbEntity
  8
Layer_1
 62
7
100
AcDbPolyline
 90
27
 70
0
 10
35.260106
 20
1.702824
 30
0.0
 10
35.316109
 20
1.478809
 30
0.0
 10
35.416915
 20
1.265997
 30
0.0
 10
35.551323
 20
1.075587
 30
0.0
 10
35.719335
 20
0.918774
 30
0.0
 10
35.909744
 20
0.795570
 30
0.0
 10
36.133759
 20
0.717166
 30
0.0
 10
36.357774
 20
0.683561
 30
0.0
 10
36.581789
 20
0.683561
 30
0.0
 10
36.805799
 20
0.739563
 30
0.0
 10
37.018615
 20
0.829170
 30
0.0
 10
37.209025
 20
0.963578
 30
0.0
 10
37.377037
 20
1.131590
 30
0.0
 10
37.500245
 20
1.322000
 30
0.0
 10
37.578650
 20
1.534816
 30
0.0
 10
37.623449
 20
1.758826
 30
0.0
 10
37.623449
 20
1.994044
 30
0.0
 10
37.578650
 20
2.218054
 30
0.0
 10
37.489042
 20
2.430870
 30
0.0
 10
37.354635
 20
2.621280
 30
0.0
 10
37.197826
 20
2.789292
 30
0.0
 10
37.007412
 20
2.912501
 30
0.0
 10
36.794600
 20
3.002104
 30
0.0
 10
36.604187
 20
3.046908
 30
0.0
 10
36.424975
 20
3.091711
 30
0.0
 10
36.256967
 20
3.181315
 30
0.0
 10
36.156161
 20
3.270922
 30
0.0
  0
LWPOLYLINE
  5
1fd
100
AcDbEntity
  8
Layer_1
 62
7
100
AcDbPolyline
 90
4
 70
0
 10
35.260106
 20
1.702824
 30
0.0
 10
35.215303
 20
1.882034
 30
0.0
 10
35.125695
 20
2.050047
 30
0.0
 10
35.036091
 20
2.150853
 30
0.0
  0
LWPOLYLINE
  5
1fe
100
AcDbEntity
  8
Layer_1
 62
7
100
AcDbPolyline
 90
14
 70
1
 10
36.839404
 20
13.866779
 30
0.0
 10
36.817002
 20
13.956386
 30
0.0
 10
36.761000
 20
14.034790
 30
0.0
 10
36.671392
 20
14.068391
 30
0.0
 10
36.570586
 20
14.068391
 30
0.0
 10
36.480982
 20
14.023588
 30
0.0
 10
36.436178
 20
13.945183
 30
0.0
 10
36.413776
 20
13.844376
 30
0.0
 10
36.447377
 20
13.754773
 30
0.0
 10
36.514583
 20
13.687567
 30
0.0
 10
36.604187
 20
13.653967
 30
0.0
 10
36.704993
 20
13.665165
 30
0.0
 10
36.783397
 20
13.721168
 30
0.0
 10
36.828201
 20
13.799572
 30
0.0
  0
LWPOLYLINE
  5
1ff
100
AcDbEntity
  8
Layer_1
 62
7
100
AcDbPolyline
 90
14
 70
1
 10
37.164221
 20
15.087654
 30
0.0
 10
37.141823
 20
15.177262
 30
0.0
 10
37.085816
 20
15.255666
 30
0.0
 10
36.996213
 20
15.289267
 30
0.0
 10
36.895407
 20
15.289267
 30
0.0
 10
36.817002
 20
15.244463
 30
0.0
 10
36.761000
 20
15.154860
 30
0.0
 10
36.738598
 20
15.065252
 30
0.0
 10
36.772198
 20
14.975649
 30
0.0
 10
36.839404
 20
14.908443
 30
0.0
 10
36.929007
 20
14.874842
 30
0.0
 10
37.029814
 20
14.886041
 30
0.0
 10
37.108219
 20
14.942044
 30
0.0
 10
37.153022
 20
15.020449
 30
0.0
  0
LWPOLYLINE
  5
200
100
AcDbEntity
  8
Layer_1
 62
7
100
AcDbPolyline
 90
14
 70
1
 10
35.943345
 20
14.751634
 30
0.0
 10
35.920948
 20
14.852440
 30
0.0
 10
35.864941
 20
14.919642
 30
0.0
 10
35.775337
 20
14.964446
 30
0.0
 10
35.674531
 20
14.964446
 30
0.0
 10
35.596126
 20
14.908443
 30
0.0
 10
35.540123
 20
14.830038
 30
0.0
 10
35.528921
 20
14.740431
 30
0.0
 10
35.551323
 20
14.650828
 30
0.0
 10
35.618528
 20
14.572423
 30
0.0
 10
35.719335
 20
14.550021
 30
0.0
 10
35.808938
 20
14.561220
 30
0.0
 10
35.887342
 20
14.617227
 30
0.0
 10
35.943345
 20
14.695631
 30
0.0
  0
LWPOLYLINE
  5
201
100
AcDbEntity
  8
Layer_1
 62
7
100
AcDbPolyline
 90
27
 70
0
 10
36.604187
 20
13.385148
 30
0.0
 10
36.828201
 20
13.441151
 30
0.0
 10
37.041017
 20
13.541957
 30
0.0
 10
37.231427
 20
13.676368
 30
0.0
 10
37.388236
 20
13.844376
 30
0.0
 10
37.511444
 20
14.045989
 30
0.0
 10
37.589848
 20
14.258801
 30
0.0
 10
37.623449
 20
14.482815
 30
0.0
 10
37.623449
 20
14.718033
 30
0.0
 10
37.567446
 20
14.942044
 30
0.0
 10
37.477844
 20
15.154860
 30
0.0
 10
37.343432
 20
15.345269
 30
0.0
 10
37.175424
 20
15.502079
 30
0.0
 10
36.985010
 20
15.625287
 30
0.0
 10
36.772198
 20
15.714895
 30
0.0
 10
36.548184
 20
15.748495
 30
0.0
 10
36.312970
 20
15.748495
 30
0.0
 10
36.088955
 20
15.703692
 30
0.0
 10
35.876144
 20
15.614088
 30
0.0
 10
35.685730
 20
15.490880
 30
0.0
 10
35.517722
 20
15.322867
 30
0.0
 10
35.394514
 20
15.132458
 30
0.0
 10
35.304906
 20
14.919642
 30
0.0
 10
35.260106
 20
14.740431
 30
0.0
 10
35.215303
 20
14.550021
 30
0.0
 10
35.125695
 20
14.393213
 30
0.0
 10
35.036091
 20
14.292406
 30
0.0
  0
LWPOLYLINE
  5
202
100
AcDbEntity
  8
Layer_1
 62
7
100
AcDbPolyline
 90
4
 70
0
 10
36.604187
 20
13.385148
 30
0.0
 10
36.424975
 20
13.340345
 30
0.0
 10
36.256967
 20
13.250741
 30
0.0
 10
36.156161
 20
13.161133
 30
0.0
  0
LWPOLYLINE
  5
203
100
AcDbEntity
  8
Layer_1
 62
7
100
AcDbPolyline
 90
14
 70
1
 10
23.768192
 20
13.866779
 30
0.0
 10
23.745792
 20
13.956386
 30
0.0
 10
23.678586
 20
14.034790
 30
0.0
 10
23.588980
 20
14.068391
 30
0.0
 10
23.499375
 20
14.068391
 30
0.0
 10
23.409770
 20
14.023588
 30
0.0
 10
23.353767
 20
13.945183
 30
0.0
 10
23.342566
 20
13.844376
 30
0.0
 10
23.364968
 20
13.754773
 30
0.0
 10
23.443373
 20
13.687567
 30
0.0
 10
23.532978
 20
13.653967
 30
0.0
 10
23.622583
 20
13.665165
 30
0.0
 10
23.700988
 20
13.721168
 30
0.0
 10
23.756991
 20
13.799572
 30
0.0
  0
LWPOLYLINE
  5
204
100
AcDbEntity
  8
Layer_1
 62
7
100
AcDbPolyline
 90
14
 70
1
 10
23.432171
 20
15.087654
 30
0.0
 10
23.409770
 20
15.177262
 30
0.0
 10
23.353767
 20
15.255666
 30
0.0
 10
23.264162
 20
15.289267
 30
0.0
 10
23.163356
 20
15.289267
 30
0.0
 10
23.084951
 20
15.244463
 30
0.0
 10
23.028946
 20
15.154860
 30
0.0
 10
23.017745
 20
15.065252
 30
0.0
 10
23.040147
 20
14.975649
 30
0.0
 10
23.107351
 20
14.908443
 30
0.0
 10
23.208157
 20
14.874842
 30
0.0
 10
23.297762
 20
14.886041
 30
0.0
 10
23.376169
 20
14.942044
 30
0.0
 10
23.432171
 20
15.020449
 30
0.0
  0
LWPOLYLINE
  5
205
100
AcDbEntity
  8
Layer_1
 62
7
100
AcDbPolyline
 90
14
 70
1
 10
24.653047
 20
14.751634
 30
0.0
 10
24.630646
 20
14.852440
 30
0.0
 10
24.574643
 20
14.919642
 30
0.0
 10
24.485037
 20
14.964446
 30
0.0
 10
24.384231
 20
14.964446
 30
0.0
 10
24.305826
 20
14.908443
 30
0.0
 10
24.249822
 20
14.830038
 30
0.0
 10
24.227420
 20
14.740431
 30
0.0
 10
24.261023
 20
14.650828
 30
0.0
 10
24.328226
 20
14.572423
 30
0.0
 10
24.417832
 20
14.550021
 30
0.0
 10
24.518638
 20
14.561220
 30
0.0
 10
24.597043
 20
14.617227
 30
0.0
 10
24.641846
 20
14.695631
 30
0.0
  0
LWPOLYLINE
  5
206
100
AcDbEntity
  8
Layer_1
 62
7
100
AcDbPolyline
 90
24
 70
0
 10
24.921864
 20
14.740431
 30
0.0
 10
24.865861
 20
14.964446
 30
0.0
 10
24.765055
 20
15.166058
 30
0.0
 10
24.630646
 20
15.356472
 30
0.0
 10
24.462635
 20
15.513282
 30
0.0
 10
24.261023
 20
15.636490
 30
0.0
 10
24.048209
 20
15.714895
 30
0.0
 10
23.824196
 20
15.759694
 30
0.0
 10
23.588980
 20
15.748495
 30
0.0
 10
23.364968
 20
15.703692
 30
0.0
 10
23.152154
 20
15.602885
 30
0.0
 10
22.961742
 20
15.468478
 30
0.0
 10
22.804933
 20
15.311669
 30
0.0
 10
22.681725
 20
15.110056
 30
0.0
 10
22.592119
 20
14.897245
 30
0.0
 10
22.558517
 20
14.673230
 30
0.0
 10
22.558517
 20
14.438016
 30
0.0
 10
22.603321
 20
14.214001
 30
0.0
 10
22.692926
 20
14.001185
 30
0.0
 10
22.816134
 20
13.810776
 30
0.0
 10
22.984144
 20
13.653967
 30
0.0
 10
23.174556
 20
13.519555
 30
0.0
 10
23.387368
 20
13.429951
 30
0.0
 10
23.566579
 20
13.385148
 30
0.0
  0
LWPOLYLINE
  5
207
100
AcDbEntity
  8
Layer_1
 62
7
100
AcDbPolyline
 90
4
 70
0
 10
24.921864
 20
14.740431
 30
0.0
 10
24.966666
 20
14.550021
 30
0.0
 10
25.056273
 20
14.393213
 30
0.0
 10
25.145878
 20
14.292406
 30
0.0
  0
LWPOLYLINE
  5
208
100
AcDbEntity
  8
Layer_1
 62
7
100
AcDbPolyline
 90
4
 70
0
 10
23.566579
 20
13.385148
 30
0.0
 10
23.756991
 20
13.340345
 30
0.0
 10
23.913802
 20
13.250741
 30
0.0
 10
24.014608
 20
13.161133
 30
0.0
  0
LWPOLYLINE
  5
209
100
AcDbEntity
  8
Layer_1
 62
7
100
AcDbPolyline
 90
2
 70
0
 10
24.294626
 20
13.866779
 30
0.0
 10
23.555380
 20
13.866779
 30
0.0
  0
LWPOLYLINE
  5
20a
100
AcDbEntity
  8
Layer_1
 62
7
100
AcDbPolyline
 90
2
 70
0
 10
22.804933
 20
13.866779
 30
0.0
 10
23.555380
 20
13.866779
 30
0.0
  0
LWPOLYLINE
  5
20b
100
AcDbEntity
  8
Layer_1
 62
7
100
AcDbPolyline
 90
2
 70
0
 10
23.555380
 20
14.606024
 30
0.0
 10
23.555380
 20
13.866779
 30
0.0
  0
LWPOLYLINE
  5
20c
100
AcDbEntity
  8
Layer_1
 62
7
100
AcDbPolyline
 90
2
 70
0
 10
23.555380
 20
13.127533
 30
0.0
 10
23.555380
 20
13.866779
 30
0.0
  0
LWPOLYLINE
  5
20d
100
AcDbEntity
  8
Layer_1
 62
7
100
AcDbPolyline
 90
2
 70
0
 10
23.230559
 20
15.826900
 30
0.0
 10
23.230559
 20
15.087654
 30
0.0
  0
LWPOLYLINE
  5
20e
100
AcDbEntity
  8
Layer_1
 62
7
100
AcDbPolyline
 90
2
 70
0
 10
23.230559
 20
14.337210
 30
0.0
 10
23.230559
 20
15.087654
 30
0.0
  0
LWPOLYLINE
  5
20f
100
AcDbEntity
  8
Layer_1
 62
7
100
AcDbPolyline
 90
2
 70
0
 10
22.480112
 20
15.087654
 30
0.0
 10
23.230559
 20
15.087654
 30
0.0
  0
LWPOLYLINE
  5
210
100
AcDbEntity
  8
Layer_1
 62
7
100
AcDbPolyline
 90
2
 70
0
 10
23.969805
 20
15.087654
 30
0.0
 10
23.230559
 20
15.087654
 30
0.0
  0
LWPOLYLINE
  5
211
100
AcDbEntity
  8
Layer_1
 62
7
100
AcDbPolyline
 90
2
 70
0
 10
24.440234
 20
14.012388
 30
0.0
 10
24.440234
 20
14.751634
 30
0.0
  0
LWPOLYLINE
  5
212
100
AcDbEntity
  8
Layer_1
 62
7
100
AcDbPolyline
 90
2
 70
0
 10
24.440234
 20
15.502079
 30
0.0
 10
24.440234
 20
14.751634
 30
0.0
  0
LWPOLYLINE
  5
213
100
AcDbEntity
  8
Layer_1
 62
7
100
AcDbPolyline
 90
2
 70
0
 10
25.179479
 20
14.751634
 30
0.0
 10
24.440234
 20
14.751634
 30
0.0
  0
LWPOLYLINE
  5
214
100
AcDbEntity
  8
Layer_1
 62
7
100
AcDbPolyline
 90
2
 70
0
 10
23.700988
 20
14.751634
 30
0.0
 10
24.440234
 20
14.751634
 30
0.0
  0
LWPOLYLINE
  5
215
100
AcDbEntity
  8
Layer_1
 62
7
100
AcDbPolyline
 90
2
 70
0
 10
35.741737
 20
15.502079
 30
0.0
 10
35.741737
 20
14.751634
 30
0.0
  0
LWPOLYLINE
  5
216
100
AcDbEntity
  8
Layer_1
 62
7
100
AcDbPolyline
 90
2
 70
0
 10
35.741737
 20
14.012388
 30
0.0
 10
35.741737
 20
14.751634
 30
0.0
  0
LWPOLYLINE
  5
217
100
AcDbEntity
  8
Layer_1
 62
7
100
AcDbPolyline
 90
2
 70
0
 10
34.991288
 20
14.751634
 30
0.0
 10
35.741737
 20
14.751634
 30
0.0
  0
LWPOLYLINE
  5
218
100
AcDbEntity
  8
Layer_1
 62
7
100
AcDbPolyline
 90
2
 70
0
 10
36.480982
 20
14.751634
 30
0.0
 10
35.741737
 20
14.751634
 30
0.0
  0
LWPOLYLINE
  5
219
100
AcDbEntity
  8
Layer_1
 62
7
100
AcDbPolyline
 90
2
 70
0
 10
36.626588
 20
14.606024
 30
0.0
 10
36.626588
 20
13.866779
 30
0.0
  0
LWPOLYLINE
  5
21a
100
AcDbEntity
  8
Layer_1
 62
7
100
AcDbPolyline
 90
2
 70
0
 10
36.626588
 20
13.127533
 30
0.0
 10
36.626588
 20
13.866779
 30
0.0
  0
LWPOLYLINE
  5
21b
100
AcDbEntity
  8
Layer_1
 62
7
100
AcDbPolyline
 90
2
 70
0
 10
35.887342
 20
13.866779
 30
0.0
 10
36.626588
 20
13.866779
 30
0.0
  0
LWPOLYLINE
  5
21c
100
AcDbEntity
  8
Layer_1
 62
7
100
AcDbPolyline
 90
2
 70
0
 10
37.365834
 20
13.866779
 30
0.0
 10
36.626588
 20
13.866779
 30
0.0
  0
LWPOLYLINE
  5
21d
100
AcDbEntity
  8
Layer_1
 62
7
100
AcDbPolyline
 90
2
 70
0
 10
36.951409
 20
15.826900
 30
0.0
 10
36.951409
 20
15.087654
 30
0.0
  0
LWPOLYLINE
  5
21e
100
AcDbEntity
  8
Layer_1
 62
7
100
AcDbPolyline
 90
2
 70
0
 10
36.951409
 20
14.337210
 30
0.0
 10
36.951409
 20
15.087654
 30
0.0
  0
LWPOLYLINE
  5
21f
100
AcDbEntity
  8
Layer_1
 62
7
100
AcDbPolyline
 90
2
 70
0
 10
36.212164
 20
15.087654
 30
0.0
 10
36.951409
 20
15.087654
 30
0.0
  0
LWPOLYLINE
  5
220
100
AcDbEntity
  8
Layer_1
 62
7
100
AcDbPolyline
 90
2
 70
0
 10
37.690655
 20
15.087654
 30
0.0
 10
36.951409
 20
15.087654
 30
0.0
  0
LWPOLYLINE
  5
221
100
AcDbEntity
  8
Layer_1
 62
7
100
AcDbPolyline
 90
2
 70
0
 10
24.440234
 20
2.419668
 30
0.0
 10
24.440234
 20
1.680422
 30
0.0
  0
LWPOLYLINE
  5
222
100
AcDbEntity
  8
Layer_1
 62
7
100
AcDbPolyline
 90
2
 70
0
 10
24.440234
 20
0.941176
 30
0.0
 10
24.440234
 20
1.680422
 30
0.0
  0
LWPOLYLINE
  5
223
100
AcDbEntity
  8
Layer_1
 62
7
100
AcDbPolyline
 90
2
 70
0
 10
23.700988
 20
1.680422
 30
0.0
 10
24.440234
 20
1.680422
 30
0.0
  0
LWPOLYLINE
  5
224
100
AcDbEntity
  8
Layer_1
 62
7
100
AcDbPolyline
 90
2
 70
0
 10
25.179479
 20
1.680422
 30
0.0
 10
24.440234
 20
1.680422
 30
0.0
  0
LWPOLYLINE
  5
225
100
AcDbEntity
  8
Layer_1
 62
7
100
AcDbPolyline
 90
2
 70
0
 10
23.230559
 20
2.094850
 30
0.0
 10
23.230559
 20
1.355604
 30
0.0
  0
LWPOLYLINE
  5
226
100
AcDbEntity
  8
Layer_1
 62
7
100
AcDbPolyline
 90
2
 70
0
 10
23.230559
 20
0.616359
 30
0.0
 10
23.230559
 20
1.355604
 30
0.0
  0
LWPOLYLINE
  5
227
100
AcDbEntity
  8
Layer_1
 62
7
100
AcDbPolyline
 90
2
 70
0
 10
22.480112
 20
1.355604
 30
0.0
 10
23.230559
 20
1.355604
 30
0.0
  0
LWPOLYLINE
  5
228
100
AcDbEntity
  8
Layer_1
 62
7
100
AcDbPolyline
 90
2
 70
0
 10
23.969805
 20
1.355604
 30
0.0
 10
23.230559
 20
1.355604
 30
0.0
  0
LWPOLYLINE
  5
229
100
AcDbEntity
  8
Layer_1
 62
7
100
AcDbPolyline
 90
2
 70
0
 10
23.555380
 20
3.315726
 30
0.0
 10
23.555380
 20
2.565277
 30
0.0
  0
LWPOLYLINE
  5
22a
100
AcDbEntity
  8
Layer_1
 62
7
100
AcDbPolyline
 90
2
 70
0
 10
23.555380
 20
1.826032
 30
0.0
 10
23.555380
 20
2.565277
 30
0.0
  0
LWPOLYLINE
  5
22b
100
AcDbEntity
  8
Layer_1
 62
7
100
AcDbPolyline
 90
2
 70
0
 10
22.804933
 20
2.565277
 30
0.0
 10
23.555380
 20
2.565277
 30
0.0
  0
LWPOLYLINE
  5
22c
100
AcDbEntity
  8
Layer_1
 62
7
100
AcDbPolyline
 90
2
 70
0
 10
24.294626
 20
2.565277
 30
0.0
 10
23.555380
 20
2.565277
 30
0.0
  0
LWPOLYLINE
  5
22d
100
AcDbEntity
  8
Layer_1
 62
7
100
AcDbPolyline
 90
2
 70
0
 10
35.741737
 20
2.419668
 30
0.0
 10
35.741737
 20
1.680422
 30
0.0
  0
LWPOLYLINE
  5
22e
100
AcDbEntity
  8
Layer_1
 62
7
100
AcDbPolyline
 90
2
 70
0
 10
35.741737
 20
0.941176
 30
0.0
 10
35.741737
 20
1.680422
 30
0.0
  0
LWPOLYLINE
  5
22f
100
AcDbEntity
  8
Layer_1
 62
7
100
AcDbPolyline
 90
2
 70
0
 10
34.991288
 20
1.680422
 30
0.0
 10
35.741737
 20
1.680422
 30
0.0
  0
LWPOLYLINE
  5
230
100
AcDbEntity
  8
Layer_1
 62
7
100
AcDbPolyline
 90
2
 70
0
 10
36.480982
 20
1.680422
 30
0.0
 10
35.741737
 20
1.680422
 30
0.0
  0
LWPOLYLINE
  5
231
100
AcDbEntity
  8
Layer_1
 62
7
100
AcDbPolyline
 90
2
 70
0
 10
36.951409
 20
2.094850
 30
0.0
 10
36.951409
 20
1.355604
 30
0.0
  0
LWPOLYLINE
  5
232
100
AcDbEntity
  8
Layer_1
 62
7
100
AcDbPolyline
 90
2
 70
0
 10
36.951409
 20
0.616359
 30
0.0
 10
36.951409
 20
1.355604
 30
0.0
  0
LWPOLYLINE
  5
233
100
AcDbEntity
  8
Layer_1
 62
7
100
AcDbPolyline
 90
2
 70
0
 10
36.212164
 20
1.355604
 30
0.0
 10
36.951409
 20
1.355604
 30
0.0
  0
LWPOLYLINE
  5
234
100
AcDbEntity
  8
Layer_1
 62
7
100
AcDbPolyline
 90
2
 70
0
 10
37.690655
 20
1.355604
 30
0.0
 10
36.951409
 20
1.355604
 30
0.0
  0
LWPOLYLINE
  5
235
100
AcDbEntity
  8
Layer_1
 62
7
100
AcDbPolyline
 90
2
 70
0
 10
36.626588
 20
3.315726
 30
0.0
 10
36.626588
 20
2.565277
 30
0.0
  0
LWPOLYLINE
  5
236
100
AcDbEntity
  8
Layer_1
 62
7
100
AcDbPolyline
 90
2
 70
0
 10
36.626588
 20
1.826032
 30
0.0
 10
36.626588
 20
2.565277
 30
0.0
  0
LWPOLYLINE
  5
237
100
AcDbEntity
  8
Layer_1
 62
7
100
AcDbPolyline
 90
2
 70
0
 10
35.887342
 20
2.565277
 30
0.0
 10
36.626588
 20
2.565277
 30
0.0
  0
LWPOLYLINE
  5
238
100
AcDbEntity
  8
Layer_1
 62
7
100
AcDbPolyline
 90
2
 70
0
 10
37.365834
 20
2.565277
 30
0.0
 10
36.626588
 20
2.565277
 30
0.0
  0
LWPOLYLINE
  5
239
100
AcDbEntity
  8
Layer_1
 62
7
100
AcDbPolyline
 90
2
 70
0
 10
35.864941
 20
13.810776
 30
0.0
 10
35.674531
 20
13.989986
 30
0.0
  0
LWPOLYLINE
  5
23a
100
AcDbEntity
  8
Layer_1
 62
7
100
AcDbPolyline
 90
4
 70
0
 10
35.864941
 20
13.620362
 30
0.0
 10
35.898546
 20
13.687567
 30
0.0
 10
35.898546
 20
13.765972
 30
0.0
 10
35.864941
 20
13.810776
 30
0.0
  0
LWPOLYLINE
  5
23b
100
AcDbEntity
  8
Layer_1
 62
7
100
AcDbPolyline
 90
4
 70
0
 10
35.495320
 20
13.989986
 30
0.0
 10
35.562521
 20
14.034790
 30
0.0
 10
35.640930
 20
14.023588
 30
0.0
 10
35.674531
 20
13.989986
 30
0.0
  0
LWPOLYLINE
  5
23c
100
AcDbEntity
  8
Layer_1
 62
7
100
AcDbPolyline
 90
4
 70
0
 10
32.191114
 20
10.506570
 30
0.0
 10
32.157512
 20
10.573776
 30
0.0
 10
32.157512
 20
10.652180
 30
0.0
 10
32.191114
 20
10.696984
 30
0.0
  0
LWPOLYLINE
  5
23d
100
AcDbEntity
  8
Layer_1
 62
7
100
AcDbPolyline
 90
2
 70
0
 10
32.381526
 20
10.316160
 30
0.0
 10
32.191114
 20
10.506570
 30
0.0
  0
LWPOLYLINE
  5
23e
100
AcDbEntity
  8
Layer_1
 62
7
100
AcDbPolyline
 90
4
 70
0
 10
32.381526
 20
10.316160
 30
0.0
 10
32.448730
 20
10.282555
 30
0.0
 10
32.515935
 20
10.293758
 30
0.0
 10
32.560737
 20
10.316160
 30
0.0
  0
LWPOLYLINE
  5
23f
100
AcDbEntity
  8
Layer_1
 62
7
100
AcDbPolyline
 90
2
 70
0
 10
35.864941
 20
13.620362
 30
0.0
 10
32.560737
 20
10.316160
 30
0.0
  0
LWPOLYLINE
  5
240
100
AcDbEntity
  8
Layer_1
 62
7
100
AcDbPolyline
 90
2
 70
0
 10
35.495320
 20
13.989986
 30
0.0
 10
32.191114
 20
10.696984
 30
0.0
  0
LWPOLYLINE
  5
241
100
AcDbEntity
  8
Layer_1
 62
7
100
AcDbPolyline
 90
2
 70
0
 10
24.317026
 20
2.632484
 30
0.0
 10
24.496238
 20
2.442069
 30
0.0
  0
LWPOLYLINE
  5
242
100
AcDbEntity
  8
Layer_1
 62
7
100
AcDbPolyline
 90
4
 70
0
 10
24.317026
 20
2.811694
 30
0.0
 10
24.272224
 20
2.744488
 30
0.0
 10
24.283425
 20
2.677287
 30
0.0
 10
24.317026
 20
2.632484
 30
0.0
  0
LWPOLYLINE
  5
243
100
AcDbEntity
  8
Layer_1
 62
7
100
AcDbPolyline
 90
4
 70
0
 10
24.686649
 20
2.442069
 30
0.0
 10
24.619444
 20
2.408468
 30
0.0
 10
24.541040
 20
2.408468
 30
0.0
 10
24.496238
 20
2.442069
 30
0.0
  0
LWPOLYLINE
  5
244
100
AcDbEntity
  8
Layer_1
 62
7
100
AcDbPolyline
 90
4
 70
0
 10
27.990854
 20
5.925486
 30
0.0
 10
28.024457
 20
5.869483
 30
0.0
 10
28.024457
 20
5.791079
 30
0.0
 10
27.990854
 20
5.746275
 30
0.0
  0
LWPOLYLINE
  5
245
100
AcDbEntity
  8
Layer_1
 62
7
100
AcDbPolyline
 90
2
 70
0
 10
27.800442
 20
6.115899
 30
0.0
 10
27.990854
 20
5.925486
 30
0.0
  0
LWPOLYLINE
  5
246
100
AcDbEntity
  8
Layer_1
 62
7
100
AcDbPolyline
 90
4
 70
0
 10
27.800442
 20
6.115899
 30
0.0
 10
27.733238
 20
6.149500
 30
0.0
 10
27.654834
 20
6.149500
 30
0.0
 10
27.621231
 20
6.115899
 30
0.0
  0
LWPOLYLINE
  5
247
100
AcDbEntity
  8
Layer_1
 62
7
100
AcDbPolyline
 90
2
 70
0
 10
24.317026
 20
2.811694
 30
0.0
 10
27.621231
 20
6.115899
 30
0.0
  0
LWPOLYLINE
  5
248
100
AcDbEntity
  8
Layer_1
 62
7
100
AcDbPolyline
 90
2
 70
0
 10
24.686649
 20
2.442069
 30
0.0
 10
27.990854
 20
5.746275
 30
0.0
  0
LWPOLYLINE
  5
249
100
AcDbEntity
  8
Layer_1
 62
7
100
AcDbPolyline
 90
2
 70
0
 10
35.674531
 20
2.442069
 30
0.0
 10
35.864941
 20
2.632484
 30
0.0
  0
LWPOLYLINE
  5
24a
100
AcDbEntity
  8
Layer_1
 62
7
100
AcDbPolyline
 90
4
 70
0
 10
35.495320
 20
2.442069
 30
0.0
 10
35.562521
 20
2.408468
 30
0.0
 10
35.640930
 20
2.408468
 30
0.0
 10
35.674531
 20
2.442069
 30
0.0
  0
LWPOLYLINE
  5
24b
100
AcDbEntity
  8
Layer_1
 62
7
100
AcDbPolyline
 90
4
 70
0
 10
35.864941
 20
2.811694
 30
0.0
 10
35.898546
 20
2.744488
 30
0.0
 10
35.898546
 20
2.677287
 30
0.0
 10
35.864941
 20
2.632484
 30
0.0
  0
LWPOLYLINE
  5
24c
100
AcDbEntity
  8
Layer_1
 62
7
100
AcDbPolyline
 90
4
 70
0
 10
32.381526
 20
6.115899
 30
0.0
 10
32.448730
 20
6.149500
 30
0.0
 10
32.515935
 20
6.149500
 30
0.0
 10
32.560737
 20
6.115899
 30
0.0
  0
LWPOLYLINE
  5
24d
100
AcDbEntity
  8
Layer_1
 62
7
100
AcDbPolyline
 90
2
 70
0
 10
32.191114
 20
5.925486
 30
0.0
 10
32.381526
 20
6.115899
 30
0.0
  0
LWPOLYLINE
  5
24e
100
AcDbEntity
  8
Layer_1
 62
7
100
AcDbPolyline
 90
4
 70
0
 10
32.191114
 20
5.925486
 30
0.0
 10
32.157512
 20
5.869483
 30
0.0
 10
32.157512
 20
5.791079
 30
0.0
 10
32.191114
 20
5.746275
 30
0.0
  0
LWPOLYLINE
  5
24f
100
AcDbEntity
  8
Layer_1
 62
7
100
AcDbPolyline
 90
2
 70
0
 10
35.495320
 20
2.442069
 30
0.0
 10
32.191114
 20
5.746275
 30
0.0
  0
LWPOLYLINE
  5
250
100
AcDbEntity
  8
Layer_1
 62
7
100
AcDbPolyline
 90
2
 70
0
 10
35.864941
 20
2.811694
 30
0.0
 10
32.560737
 20
6.115899
 30
0.0
  0
LWPOLYLINE
  5
251
100
AcDbEntity
  8
Layer_1
 62
7
100
AcDbPolyline
 90
2
 70
0
 10
24.317026
 20
13.810776
 30
0.0
 10
24.496238
 20
13.989986
 30
0.0
  0
LWPOLYLINE
  5
252
100
AcDbEntity
  8
Layer_1
 62
7
100
AcDbPolyline
 90
4
 70
0
 10
24.317026
 20
13.620362
 30
0.0
 10
24.272224
 20
13.687567
 30
0.0
 10
24.283425
 20
13.765972
 30
0.0
 10
24.317026
 20
13.810776
 30
0.0
  0
LWPOLYLINE
  5
253
100
AcDbEntity
  8
Layer_1
 62
7
100
AcDbPolyline
 90
4
 70
0
 10
24.686649
 20
13.989986
 30
0.0
 10
24.619444
 20
14.034790
 30
0.0
 10
24.541040
 20
14.023588
 30
0.0
 10
24.496238
 20
13.989986
 30
0.0
  0
LWPOLYLINE
  5
254
100
AcDbEntity
  8
Layer_1
 62
7
100
AcDbPolyline
 90
4
 70
0
 10
27.990854
 20
10.506570
 30
0.0
 10
28.024457
 20
10.573776
 30
0.0
 10
28.024457
 20
10.652180
 30
0.0
 10
27.990854
 20
10.696984
 30
0.0
  0
LWPOLYLINE
  5
255
100
AcDbEntity
  8
Layer_1
 62
7
100
AcDbPolyline
 90
2
 70
0
 10
27.800442
 20
10.316160
 30
0.0
 10
27.990854
 20
10.506570
 30
0.0
  0
LWPOLYLINE
  5
256
100
AcDbEntity
  8
Layer_1
 62
7
100
AcDbPolyline
 90
4
 70
0
 10
27.800442
 20
10.316160
 30
0.0
 10
27.733238
 20
10.282555
 30
0.0
 10
27.654834
 20
10.293758
 30
0.0
 10
27.621231
 20
10.316160
 30
0.0
  0
LWPOLYLINE
  5
257
100
AcDbEntity
  8
Layer_1
 62
7
100
AcDbPolyline
 90
2
 70
0
 10
24.317026
 20
13.620362
 30
0.0
 10
27.621231
 20
10.316160
 30
0.0
  0
LWPOLYLINE
  5
258
100
AcDbEntity
  8
Layer_1
 62
7
100
AcDbPolyline
 90
2
 70
0
 10
24.686649
 20
13.989986
 30
0.0
 10
27.990854
 20
10.696984
 30
0.0
  0
LWPOLYLINE
  5
259
100
AcDbEntity
  8
Layer_1
 62
7
100
AcDbPolyline
 90
2
 70
0
 10
3.450133
 20
14.292406
 30
0.0
 10
7.034355
 20
10.696984
 30
0.0
  0
LWPOLYLINE
  5
25a
100
AcDbEntity
  8
Layer_1
 62
7
100
AcDbPolyline
 90
2
 70
0
 10
5.914286
 20
9.576915
 30
0.0
 10
2.318862
 20
13.161133
 30
0.0
  0
LWPOLYLINE
  5
25b
100
AcDbEntity
  8
Layer_1
 62
7
100
AcDbPolyline
 90
2
 70
0
 10
10.876193
 20
9.576915
 30
0.0
 10
14.460415
 20
13.161133
 30
0.0
  0
LWPOLYLINE
  5
25c
100
AcDbEntity
  8
Layer_1
 62
7
100
AcDbPolyline
 90
2
 70
0
 10
13.340346
 20
14.292406
 30
0.0
 10
9.756124
 20
10.696984
 30
0.0
  0
LWPOLYLINE
  5
25d
100
AcDbEntity
  8
Layer_1
 62
7
100
AcDbPolyline
 90
2
 70
0
 10
5.914286
 20
6.855145
 30
0.0
 10
2.318862
 20
3.270922
 30
0.0
  0
LWPOLYLINE
  5
25e
100
AcDbEntity
  8
Layer_1
 62
7
100
AcDbPolyline
 90
2
 70
0
 10
3.450133
 20
2.150853
 30
0.0
 10
7.034355
 20
5.735076
 30
0.0
  0
LWPOLYLINE
  5
25f
100
AcDbEntity
  8
Layer_1
 62
7
100
AcDbPolyline
 90
2
 70
0
 10
10.876193
 20
6.855145
 30
0.0
 10
14.460415
 20
3.270922
 30
0.0
  0
LWPOLYLINE
  5
260
100
AcDbEntity
  8
Layer_1
 62
7
100
AcDbPolyline
 90
2
 70
0
 10
13.340346
 20
2.150853
 30
0.0
 10
9.756124
 20
5.735076
 30
0.0
  0
LWPOLYLINE
  5
261
100
AcDbEntity
  8
Layer_1
 62
7
100
AcDbPolyline
 90
2
 70
0
 10
6.149500
 20
9.016880
 30
0.0
 10
6.149500
 20
7.415180
 30
0.0
  0
LWPOLYLINE
  5
262
100
AcDbEntity
  8
Layer_1
 62
7
100
AcDbPolyline
 90
2
 70
0
 10
10.640979
 20
9.016880
 30
0.0
 10
10.640979
 20
7.415180
 30
0.0
  0
LWPOLYLINE
  5
263
100
AcDbEntity
  8
Layer_1
 62
7
100
AcDbPolyline
 90
16
 70
1
 10
2.307662
 20
14.572423
 30
0.0
 10
2.285261
 20
14.673230
 30
0.0
 10
2.218057
 20
14.762833
 30
0.0
 10
2.128451
 20
14.818835
 30
0.0
 10
2.027645
 20
14.830038
 30
0.0
 10
1.915638
 20
14.796438
 30
0.0
 10
1.837233
 20
14.729232
 30
0.0
 10
1.792430
 20
14.639624
 30
0.0
 10
1.781229
 20
14.527620
 30
0.0
 10
1.826032
 20
14.426813
 30
0.0
 10
1.893236
 20
14.348408
 30
0.0
 10
1.994043
 20
14.303605
 30
0.0
 10
2.106050
 20
14.314808
 30
0.0
 10
2.206856
 20
14.359607
 30
0.0
 10
2.274060
 20
14.438016
 30
0.0
 10
2.307662
 20
14.538818
 30
0.0
  0
LWPOLYLINE
  5
264
100
AcDbEntity
  8
Layer_1
 62
7
100
AcDbPolyline
 90
16
 70
1
 10
15.009249
 20
14.572423
 30
0.0
 10
14.986848
 20
14.673230
 30
0.0
 10
14.919644
 20
14.762833
 30
0.0
 10
14.830038
 20
14.818835
 30
0.0
 10
14.718032
 20
14.830038
 30
0.0
 10
14.617225
 20
14.796438
 30
0.0
 10
14.538819
 20
14.729232
 30
0.0
 10
14.482817
 20
14.639624
 30
0.0
 10
14.482817
 20
14.527620
 30
0.0
 10
14.516419
 20
14.426813
 30
0.0
 10
14.594824
 20
14.348408
 30
0.0
 10
14.695630
 20
14.303605
 30
0.0
 10
14.807637
 20
14.314808
 30
0.0
 10
14.908442
 20
14.359607
 30
0.0
 10
14.975647
 20
14.438016
 30
0.0
 10
15.009249
 20
14.538818
 30
0.0
  0
LWPOLYLINE
  5
265
100
AcDbEntity
  8
Layer_1
 62
7
100
AcDbPolyline
 90
16
 70
1
 10
15.009249
 20
1.870836
 30
0.0
 10
14.986848
 20
1.971642
 30
0.0
 10
14.919644
 20
2.061245
 30
0.0
 10
14.830038
 20
2.117252
 30
0.0
 10
14.718032
 20
2.128451
 30
0.0
 10
14.617225
 20
2.106050
 30
0.0
 10
14.538819
 20
2.027645
 30
0.0
 10
14.482817
 20
1.938037
 30
0.0
 10
14.482817
 20
1.826032
 30
0.0
 10
14.516419
 20
1.725225
 30
0.0
 10
14.594824
 20
1.646821
 30
0.0
 10
14.695630
 20
1.602017
 30
0.0
 10
14.807637
 20
1.613220
 30
0.0
 10
14.908442
 20
1.658020
 30
0.0
 10
14.975647
 20
1.736429
 30
0.0
 10
15.009249
 20
1.837235
 30
0.0
  0
LWPOLYLINE
  5
266
100
AcDbEntity
  8
Layer_1
 62
7
100
AcDbPolyline
 90
16
 70
1
 10
2.307662
 20
1.870836
 30
0.0
 10
2.285261
 20
1.971642
 30
0.0
 10
2.218057
 20
2.061245
 30
0.0
 10
2.128451
 20
2.117252
 30
0.0
 10
2.027645
 20
2.128451
 30
0.0
 10
1.915638
 20
2.106050
 30
0.0
 10
1.837233
 20
2.027645
 30
0.0
 10
1.792430
 20
1.938037
 30
0.0
 10
1.781229
 20
1.826032
 30
0.0
 10
1.826032
 20
1.725225
 30
0.0
 10
1.893236
 20
1.646821
 30
0.0
 10
1.994043
 20
1.602017
 30
0.0
 10
2.106050
 20
1.613220
 30
0.0
 10
2.206856
 20
1.658020
 30
0.0
 10
2.274060
 20
1.736429
 30
0.0
 10
2.307662
 20
1.837235
 30
0.0
  0
LWPOLYLINE
  5
267
100
AcDbEntity
  8
Layer_1
 62
7
100
AcDbPolyline
 90
2
 70
0
 10
7.594390
 20
10.461766
 30
0.0
 10
7.728797
 20
10.461766
 30
0.0
  0
LWPOLYLINE
  5
268
100
AcDbEntity
  8
Layer_1
 62
7
100
AcDbPolyline
 90
2
 70
0
 10
7.728797
 20
10.999399
 30
0.0
 10
8.389639
 20
10.999399
 30
0.0
  0
LWPOLYLINE
  5
269
100
AcDbEntity
  8
Layer_1
 62
7
100
AcDbPolyline
 90
4
 70
0
 10
7.728797
 20
10.461766
 30
0.0
 10
7.807203
 20
10.484168
 30
0.0
 10
7.852006
 20
10.551374
 30
0.0
 10
7.863206
 20
10.596177
 30
0.0
  0
LWPOLYLINE
  5
26a
100
AcDbEntity
  8
Layer_1
 62
7
100
AcDbPolyline
 90
4
 70
0
 10
7.728797
 20
10.730585
 30
0.0
 10
7.807203
 20
10.708183
 30
0.0
 10
7.852006
 20
10.652180
 30
0.0
 10
7.863206
 20
10.596177
 30
0.0
  0
LWPOLYLINE
  5
26b
100
AcDbEntity
  8
Layer_1
 62
7
100
AcDbPolyline
 90
4
 70
0
 10
7.594390
 20
10.864992
 30
0.0
 10
7.616791
 20
10.786588
 30
0.0
 10
7.683995
 20
10.741783
 30
0.0
 10
7.728797
 20
10.730585
 30
0.0
  0
LWPOLYLINE
  5
26c
100
AcDbEntity
  8
Layer_1
 62
7
100
AcDbPolyline
 90
4
 70
0
 10
7.728797
 20
10.999399
 30
0.0
 10
7.661594
 20
10.977002
 30
0.0
 10
7.605590
 20
10.920995
 30
0.0
 10
7.594390
 20
10.864992
 30
0.0
  0
LWPOLYLINE
  5
26d
100
AcDbEntity
  8
Layer_1
 62
7
100
AcDbPolyline
 90
2
 70
0
 10
9.196089
 20
10.461766
 30
0.0
 10
9.050480
 20
10.461766
 30
0.0
  0
LWPOLYLINE
  5
26e
100
AcDbEntity
  8
Layer_1
 62
7
100
AcDbPolyline
 90
2
 70
0
 10
9.050480
 20
10.999399
 30
0.0
 10
8.389639
 20
10.999399
 30
0.0
  0
LWPOLYLINE
  5
26f
100
AcDbEntity
  8
Layer_1
 62
7
100
AcDbPolyline
 90
4
 70
0
 10
9.050480
 20
10.461766
 30
0.0
 10
8.983275
 20
10.484168
 30
0.0
 10
8.938472
 20
10.551374
 30
0.0
 10
8.927272
 20
10.596177
 30
0.0
  0
LWPOLYLINE
  5
270
100
AcDbEntity
  8
Layer_1
 62
7
100
AcDbPolyline
 90
4
 70
0
 10
9.050480
 20
10.730585
 30
0.0
 10
8.983275
 20
10.708183
 30
0.0
 10
8.938472
 20
10.652180
 30
0.0
 10
8.927272
 20
10.596177
 30
0.0
  0
LWPOLYLINE
  5
271
100
AcDbEntity
  8
Layer_1
 62
7
100
AcDbPolyline
 90
4
 70
0
 10
9.184888
 20
10.864992
 30
0.0
 10
9.162488
 20
10.786588
 30
0.0
 10
9.106483
 20
10.741783
 30
0.0
 10
9.050480
 20
10.730585
 30
0.0
  0
LWPOLYLINE
  5
272
100
AcDbEntity
  8
Layer_1
 62
7
100
AcDbPolyline
 90
4
 70
0
 10
9.050480
 20
10.999399
 30
0.0
 10
9.128884
 20
10.977002
 30
0.0
 10
9.173687
 20
10.920995
 30
0.0
 10
9.184888
 20
10.864992
 30
0.0
  0
LWPOLYLINE
  5
273
100
AcDbEntity
  8
Layer_1
 62
7
100
AcDbPolyline
 90
2
 70
0
 10
7.594390
 20
5.970290
 30
0.0
 10
7.728797
 20
5.970290
 30
0.0
  0
LWPOLYLINE
  5
274
100
AcDbEntity
  8
Layer_1
 62
7
100
AcDbPolyline
 90
2
 70
0
 10
7.728797
 20
5.443856
 30
0.0
 10
8.389639
 20
5.443856
 30
0.0
  0
LWPOLYLINE
  5
275
100
AcDbEntity
  8
Layer_1
 62
7
100
AcDbPolyline
 90
4
 70
0
 10
7.728797
 20
5.970290
 30
0.0
 10
7.807203
 20
5.947888
 30
0.0
 10
7.852006
 20
5.891885
 30
0.0
 10
7.863206
 20
5.835882
 30
0.0
  0
LWPOLYLINE
  5
276
100
AcDbEntity
  8
Layer_1
 62
7
100
AcDbPolyline
 90
4
 70
0
 10
7.728797
 20
5.701471
 30
0.0
 10
7.807203
 20
5.723873
 30
0.0
 10
7.852006
 20
5.779876
 30
0.0
 10
7.863206
 20
5.835882
 30
0.0
  0
LWPOLYLINE
  5
277
100
AcDbEntity
  8
Layer_1
 62
7
100
AcDbPolyline
 90
4
 70
0
 10
7.594390
 20
5.567064
 30
0.0
 10
7.616791
 20
5.645468
 30
0.0
 10
7.683995
 20
5.690272
 30
0.0
 10
7.728797
 20
5.701471
 30
0.0
  0
LWPOLYLINE
  5
278
100
AcDbEntity
  8
Layer_1
 62
7
100
AcDbPolyline
 90
4
 70
0
 10
7.728797
 20
5.443856
 30
0.0
 10
7.661594
 20
5.466258
 30
0.0
 10
7.605590
 20
5.522260
 30
0.0
 10
7.594390
 20
5.567064
 30
0.0
  0
LWPOLYLINE
  5
279
100
AcDbEntity
  8
Layer_1
 62
7
100
AcDbPolyline
 90
2
 70
0
 10
9.196089
 20
5.970290
 30
0.0
 10
9.050480
 20
5.970290
 30
0.0
  0
LWPOLYLINE
  5
27a
100
AcDbEntity
  8
Layer_1
 62
7
100
AcDbPolyline
 90
2
 70
0
 10
9.050480
 20
5.443856
 30
0.0
 10
8.389639
 20
5.443856
 30
0.0
  0
LWPOLYLINE
  5
27b
100
AcDbEntity
  8
Layer_1
 62
7
100
AcDbPolyline
 90
4
 70
0
 10
9.050480
 20
5.970290
 30
0.0
 10
8.983275
 20
5.947888
 30
0.0
 10
8.938472
 20
5.891885
 30
0.0
 10
8.927272
 20
5.835882
 30
0.0
  0
LWPOLYLINE
  5
27c
100
AcDbEntity
  8
Layer_1
 62
7
100
AcDbPolyline
 90
4
 70
0
 10
9.050480
 20
5.701471
 30
0.0
 10
8.983275
 20
5.723873
 30
0.0
 10
8.938472
 20
5.779876
 30
0.0
 10
8.927272
 20
5.835882
 30
0.0
  0
LWPOLYLINE
  5
27d
100
AcDbEntity
  8
Layer_1
 62
7
100
AcDbPolyline
 90
4
 70
0
 10
9.184888
 20
5.567064
 30
0.0
 10
9.162488
 20
5.645468
 30
0.0
 10
9.106483
 20
5.690272
 30
0.0
 10
9.050480
 20
5.701471
 30
0.0
  0
LWPOLYLINE
  5
27e
100
AcDbEntity
  8
Layer_1
 62
7
100
AcDbPolyline
 90
4
 70
0
 10
9.050480
 20
5.443856
 30
0.0
 10
9.128884
 20
5.466258
 30
0.0
 10
9.173687
 20
5.522260
 30
0.0
 10
9.184888
 20
5.567064
 30
0.0
  0
LWPOLYLINE
  5
27f
100
AcDbEntity
  8
Layer_1
 62
7
100
AcDbPolyline
 90
5
 70
0
 10
7.034355
 20
10.696984
 30
0.0
 10
7.179964
 20
10.584974
 30
0.0
 10
7.359175
 20
10.506570
 30
0.0
 10
7.538386
 20
10.472970
 30
0.0
 10
7.594390
 20
10.461766
 30
0.0
  0
LWPOLYLINE
  5
280
100
AcDbEntity
  8
Layer_1
 62
7
100
AcDbPolyline
 90
5
 70
0
 10
9.196089
 20
10.461766
 30
0.0
 10
9.375300
 20
10.484168
 30
0.0
 10
9.554511
 20
10.551374
 30
0.0
 10
9.711321
 20
10.663379
 30
0.0
 10
9.756124
 20
10.696984
 30
0.0
  0
LWPOLYLINE
  5
281
100
AcDbEntity
  8
Layer_1
 62
7
100
AcDbPolyline
 90
5
 70
0
 10
10.640979
 20
9.016880
 30
0.0
 10
10.663379
 20
9.207290
 30
0.0
 10
10.730584
 20
9.375302
 30
0.0
 10
10.831390
 20
9.532111
 30
0.0
 10
10.876193
 20
9.576915
 30
0.0
  0
LWPOLYLINE
  5
282
100
AcDbEntity
  8
Layer_1
 62
7
100
AcDbPolyline
 90
5
 70
0
 10
10.876193
 20
6.855145
 30
0.0
 10
10.764186
 20
7.011954
 30
0.0
 10
10.685781
 20
7.179963
 30
0.0
 10
10.640979
 20
7.359173
 30
0.0
 10
10.640979
 20
7.415180
 30
0.0
  0
LWPOLYLINE
  5
283
100
AcDbEntity
  8
Layer_1
 62
7
100
AcDbPolyline
 90
5
 70
0
 10
9.756124
 20
5.735076
 30
0.0
 10
9.599314
 20
5.858280
 30
0.0
 10
9.431304
 20
5.925486
 30
0.0
 10
9.252092
 20
5.970290
 30
0.0
 10
9.196089
 20
5.970290
 30
0.0
  0
LWPOLYLINE
  5
284
100
AcDbEntity
  8
Layer_1
 62
7
100
AcDbPolyline
 90
5
 70
0
 10
7.594390
 20
5.970290
 30
0.0
 10
7.403978
 20
5.947888
 30
0.0
 10
7.235968
 20
5.880682
 30
0.0
 10
7.079158
 20
5.779876
 30
0.0
 10
7.034355
 20
5.735076
 30
0.0
  0
LWPOLYLINE
  5
285
100
AcDbEntity
  8
Layer_1
 62
7
100
AcDbPolyline
 90
5
 70
0
 10
5.914286
 20
6.855145
 30
0.0
 10
6.026293
 20
7.011954
 30
0.0
 10
6.104697
 20
7.179963
 30
0.0
 10
6.138299
 20
7.359173
 30
0.0
 10
6.149500
 20
7.415180
 30
0.0
  0
LWPOLYLINE
  5
286
100
AcDbEntity
  8
Layer_1
 62
7
100
AcDbPolyline
 90
5
 70
0
 10
6.149500
 20
9.016880
 30
0.0
 10
6.127099
 20
9.207290
 30
0.0
 10
6.059895
 20
9.375302
 30
0.0
 10
5.947888
 20
9.532111
 30
0.0
 10
5.914286
 20
9.576915
 30
0.0
  0
LWPOLYLINE
  5
287
100
AcDbEntity
  8
Layer_1
 62
7
100
AcDbPolyline
 90
2
 70
0
 10
6.675933
 20
9.240890
 30
0.0
 10
6.675933
 20
7.191165
 30
0.0
  0
LWPOLYLINE
  5
288
100
AcDbEntity
  8
Layer_1
 62
7
100
AcDbPolyline
 90
2
 70
0
 10
6.899947
 20
7.101558
 30
0.0
 10
7.930411
 20
8.120821
 30
0.0
  0
LWPOLYLINE
  5
289
100
AcDbEntity
  8
Layer_1
 62
7
100
AcDbPolyline
 90
2
 70
0
 10
6.899947
 20
9.341697
 30
0.0
 10
7.930411
 20
8.311235
 30
0.0
  0
LWPOLYLINE
  5
28a
100
AcDbEntity
  8
Layer_1
 62
7
100
AcDbPolyline
 90
5
 70
0
 10
6.675933
 20
9.240890
 30
0.0
 10
6.698333
 20
9.319295
 30
0.0
 10
6.754338
 20
9.364099
 30
0.0
 10
6.832743
 20
9.375302
 30
0.0
 10
6.899947
 20
9.341697
 30
0.0
  0
LWPOLYLINE
  5
28b
100
AcDbEntity
  8
Layer_1
 62
7
100
AcDbPolyline
 90
4
 70
0
 10
7.930411
 20
8.311235
 30
0.0
 10
7.964013
 20
8.244029
 30
0.0
 10
7.952813
 20
8.165624
 30
0.0
 10
7.930411
 20
8.120821
 30
0.0
  0
LWPOLYLINE
  5
28c
100
AcDbEntity
  8
Layer_1
 62
7
100
AcDbPolyline
 90
5
 70
0
 10
6.899947
 20
7.101558
 30
0.0
 10
6.832743
 20
7.056759
 30
0.0
 10
6.754338
 20
7.067957
 30
0.0
 10
6.698333
 20
7.112761
 30
0.0
 10
6.675933
 20
7.191165
 30
0.0
  0
LWPOLYLINE
  5
28d
100
AcDbEntity
  8
Layer_1
 62
7
100
AcDbPolyline
 90
2
 70
0
 10
10.114546
 20
9.240890
 30
0.0
 10
10.114546
 20
7.191165
 30
0.0
  0
LWPOLYLINE
  5
28e
100
AcDbEntity
  8
Layer_1
 62
7
100
AcDbPolyline
 90
2
 70
0
 10
9.890532
 20
7.101558
 30
0.0
 10
8.860068
 20
8.120821
 30
0.0
  0
LWPOLYLINE
  5
28f
100
AcDbEntity
  8
Layer_1
 62
7
100
AcDbPolyline
 90
2
 70
0
 10
9.890532
 20
9.341697
 30
0.0
 10
8.860068
 20
8.311235
 30
0.0
  0
LWPOLYLINE
  5
290
100
AcDbEntity
  8
Layer_1
 62
7
100
AcDbPolyline
 90
5
 70
0
 10
10.114546
 20
9.240890
 30
0.0
 10
10.092145
 20
9.319295
 30
0.0
 10
10.036141
 20
9.364099
 30
0.0
 10
9.957737
 20
9.375302
 30
0.0
 10
9.890532
 20
9.341697
 30
0.0
  0
LWPOLYLINE
  5
291
100
AcDbEntity
  8
Layer_1
 62
7
100
AcDbPolyline
 90
4
 70
0
 10
8.860068
 20
8.311235
 30
0.0
 10
8.826466
 20
8.244029
 30
0.0
 10
8.837667
 20
8.165624
 30
0.0
 10
8.860068
 20
8.120821
 30
0.0
  0
LWPOLYLINE
  5
292
100
AcDbEntity
  8
Layer_1
 62
7
100
AcDbPolyline
 90
5
 70
0
 10
9.890532
 20
7.101558
 30
0.0
 10
9.957737
 20
7.056759
 30
0.0
 10
10.036141
 20
7.067957
 30
0.0
 10
10.092145
 20
7.112761
 30
0.0
 10
10.114546
 20
7.191165
 30
0.0
  0
LWPOLYLINE
  5
293
100
AcDbEntity
  8
Layer_1
 62
7
100
AcDbPolyline
 90
2
 70
0
 10
7.370376
 20
9.935336
 30
0.0
 10
9.420103
 20
9.935336
 30
0.0
  0
LWPOLYLINE
  5
294
100
AcDbEntity
  8
Layer_1
 62
7
100
AcDbPolyline
 90
2
 70
0
 10
9.509708
 20
9.711322
 30
0.0
 10
8.490445
 20
8.680856
 30
0.0
  0
LWPOLYLINE
  5
295
100
AcDbEntity
  8
Layer_1
 62
7
100
AcDbPolyline
 90
2
 70
0
 10
7.269570
 20
9.711322
 30
0.0
 10
8.300033
 20
8.680856
 30
0.0
  0
LWPOLYLINE
  5
296
100
AcDbEntity
  8
Layer_1
 62
7
100
AcDbPolyline
 90
5
 70
0
 10
7.370376
 20
9.935336
 30
0.0
 10
7.291971
 20
9.912935
 30
0.0
 10
7.247168
 20
9.856932
 30
0.0
 10
7.235968
 20
9.778523
 30
0.0
 10
7.269570
 20
9.711322
 30
0.0
  0
LWPOLYLINE
  5
297
100
AcDbEntity
  8
Layer_1
 62
7
100
AcDbPolyline
 90
4
 70
0
 10
8.300033
 20
8.680856
 30
0.0
 10
8.367238
 20
8.647255
 30
0.0
 10
8.445642
 20
8.658454
 30
0.0
 10
8.490445
 20
8.680856
 30
0.0
  0
LWPOLYLINE
  5
298
100
AcDbEntity
  8
Layer_1
 62
7
100
AcDbPolyline
 90
5
 70
0
 10
9.509708
 20
9.711322
 30
0.0
 10
9.554511
 20
9.778523
 30
0.0
 10
9.543310
 20
9.856932
 30
0.0
 10
9.498507
 20
9.912935
 30
0.0
 10
9.420103
 20
9.935336
 30
0.0
  0
LWPOLYLINE
  5
299
100
AcDbEntity
  8
Layer_1
 62
7
100
AcDbPolyline
 90
2
 70
0
 10
9.420103
 20
6.496724
 30
0.0
 10
7.370376
 20
6.496724
 30
0.0
  0
LWPOLYLINE
  5
29a
100
AcDbEntity
  8
Layer_1
 62
7
100
AcDbPolyline
 90
2
 70
0
 10
7.269570
 20
6.720734
 30
0.0
 10
8.300033
 20
7.751200
 30
0.0
  0
LWPOLYLINE
  5
29b
100
AcDbEntity
  8
Layer_1
 62
7
100
AcDbPolyline
 90
2
 70
0
 10
9.509708
 20
6.720734
 30
0.0
 10
8.490445
 20
7.751200
 30
0.0
  0
LWPOLYLINE
  5
29c
100
AcDbEntity
  8
Layer_1
 62
7
100
AcDbPolyline
 90
6
 70
0
 10
9.420103
 20
6.496724
 30
0.0
 10
9.487307
 20
6.519121
 30
0.0
 10
9.543310
 20
6.575128
 30
0.0
 10
9.554511
 20
6.653533
 30
0.0
 10
9.520909
 20
6.720734
 30
0.0
 10
9.509708
 20
6.720734
 30
0.0
  0
LWPOLYLINE
  5
29d
100
AcDbEntity
  8
Layer_1
 62
7
100
AcDbPolyline
 90
4
 70
0
 10
8.490445
 20
7.751200
 30
0.0
 10
8.423240
 20
7.784801
 30
0.0
 10
8.344836
 20
7.784801
 30
0.0
 10
8.300033
 20
7.751200
 30
0.0
  0
LWPOLYLINE
  5
29e
100
AcDbEntity
  8
Layer_1
 62
7
100
AcDbPolyline
 90
5
 70
0
 10
7.269570
 20
6.720734
 30
0.0
 10
7.235968
 20
6.653533
 30
0.0
 10
7.247168
 20
6.586327
 30
0.0
 10
7.291971
 20
6.519121
 30
0.0
 10
7.370376
 20
6.496724
 30
0.0
  0
LWPOLYLINE
  5
29f
100
AcDbEntity
  8
Layer_1
 62
7
100
AcDbPolyline
 90
14
 70
1
 10
2.072447
 20
2.565277
 30
0.0
 10
2.050046
 20
2.666084
 30
0.0
 10
1.982842
 20
2.744488
 30
0.0
 10
1.893236
 20
2.778089
 30
0.0
 10
1.803631
 20
2.778089
 30
0.0
 10
1.714025
 20
2.722086
 30
0.0
 10
1.658022
 20
2.643682
 30
0.0
 10
1.646821
 20
2.554079
 30
0.0
 10
1.669223
 20
2.464471
 30
0.0
 10
1.747627
 20
2.386067
 30
0.0
 10
1.837233
 20
2.363665
 30
0.0
 10
1.926839
 20
2.374868
 30
0.0
 10
2.005243
 20
2.430870
 30
0.0
 10
2.061247
 20
2.509275
 30
0.0
  0
LWPOLYLINE
  5
2a0
100
AcDbEntity
  8
Layer_1
 62
7
100
AcDbPolyline
 90
14
 70
1
 10
1.736427
 20
1.355604
 30
0.0
 10
1.714025
 20
1.445208
 30
0.0
 10
1.658022
 20
1.523613
 30
0.0
 10
1.568416
 20
1.557218
 30
0.0
 10
1.467610
 20
1.557218
 30
0.0
 10
1.389205
 20
1.512414
 30
0.0
 10
1.333201
 20
1.434009
 30
0.0
 10
1.322001
 20
1.333203
 30
0.0
 10
1.344402
 20
1.243595
 30
0.0
 10
1.411607
 20
1.176394
 30
0.0
 10
1.512413
 20
1.142789
 30
0.0
 10
1.602018
 20
1.153992
 30
0.0
 10
1.680423
 20
1.209995
 30
0.0
 10
1.736427
 20
1.288399
 30
0.0
  0
LWPOLYLINE
  5
2a1
100
AcDbEntity
  8
Layer_1
 62
7
100
AcDbPolyline
 90
14
 70
1
 10
2.957302
 20
1.680422
 30
0.0
 10
2.934901
 20
1.770029
 30
0.0
 10
2.878897
 20
1.848434
 30
0.0
 10
2.789292
 20
1.882034
 30
0.0
 10
2.688486
 20
1.882034
 30
0.0
 10
2.610081
 20
1.837235
 30
0.0
 10
2.554077
 20
1.758826
 30
0.0
 10
2.531676
 20
1.658020
 30
0.0
 10
2.565278
 20
1.568416
 30
0.0
 10
2.632482
 20
1.501211
 30
0.0
 10
2.722088
 20
1.467610
 30
0.0
 10
2.822894
 20
1.478809
 30
0.0
 10
2.901299
 20
1.534816
 30
0.0
 10
2.946102
 20
1.624419
 30
0.0
  0
LWPOLYLINE
  5
2a2
100
AcDbEntity
  8
Layer_1
 62
7
100
AcDbPolyline
 90
24
 70
0
 10
1.870835
 20
3.046908
 30
0.0
 10
1.646821
 20
2.990905
 30
0.0
 10
1.445209
 20
2.890099
 30
0.0
 10
1.254797
 20
2.755691
 30
0.0
 10
1.097987
 20
2.587679
 30
0.0
 10
0.974779
 20
2.397270
 30
0.0
 10
0.896375
 20
2.184454
 30
0.0
 10
0.851572
 20
1.949240
 30
0.0
 10
0.862773
 20
1.725225
 30
0.0
 10
0.907575
 20
1.501211
 30
0.0
 10
1.008381
 20
1.288399
 30
0.0
 10
1.142790
 20
1.097985
 30
0.0
 10
1.299599
 20
0.929977
 30
0.0
 10
1.501212
 20
0.806769
 30
0.0
 10
1.714025
 20
0.728364
 30
0.0
 10
1.938039
 20
0.683561
 30
0.0
 10
2.173254
 20
0.683561
 30
0.0
 10
2.397267
 20
0.728364
 30
0.0
 10
2.610081
 20
0.817968
 30
0.0
 10
2.800493
 20
0.952379
 30
0.0
 10
2.957302
 20
1.109188
 30
0.0
 10
3.091710
 20
1.299598
 30
0.0
 10
3.181316
 20
1.512414
 30
0.0
 10
3.226119
 20
1.702824
 30
0.0
  0
LWPOLYLINE
  5
2a3
100
AcDbEntity
  8
Layer_1
 62
7
100
AcDbPolyline
 90
4
 70
0
 10
1.870835
 20
3.046908
 30
0.0
 10
2.061247
 20
3.091711
 30
0.0
 10
2.218057
 20
3.181315
 30
0.0
 10
2.318862
 20
3.270922
 30
0.0
  0
LWPOLYLINE
  5
2a4
100
AcDbEntity
  8
Layer_1
 62
7
100
AcDbPolyline
 90
4
 70
0
 10
3.226119
 20
1.702824
 30
0.0
 10
3.270922
 20
1.882034
 30
0.0
 10
3.360527
 20
2.050047
 30
0.0
 10
3.450133
 20
2.150853
 30
0.0
  0
LWPOLYLINE
  5
2a5
100
AcDbEntity
  8
Layer_1
 62
7
100
AcDbPolyline
 90
14
 70
1
 10
15.143657
 20
2.565277
 30
0.0
 10
15.121256
 20
2.666084
 30
0.0
 10
15.065253
 20
2.744488
 30
0.0
 10
14.975647
 20
2.778089
 30
0.0
 10
14.874841
 20
2.778089
 30
0.0
 10
14.785235
 20
2.722086
 30
0.0
 10
14.740433
 20
2.643682
 30
0.0
 10
14.718032
 20
2.554079
 30
0.0
 10
14.751633
 20
2.464471
 30
0.0
 10
14.818837
 20
2.386067
 30
0.0
 10
14.908442
 20
2.363665
 30
0.0
 10
15.009249
 20
2.374868
 30
0.0
 10
15.087654
 20
2.430870
 30
0.0
 10
15.132457
 20
2.509275
 30
0.0
  0
LWPOLYLINE
  5
2a6
100
AcDbEntity
  8
Layer_1
 62
7
100
AcDbPolyline
 90
14
 70
1
 10
15.468477
 20
1.355604
 30
0.0
 10
15.446076
 20
1.445208
 30
0.0
 10
15.390073
 20
1.523613
 30
0.0
 10
15.300467
 20
1.557218
 30
0.0
 10
15.199661
 20
1.557218
 30
0.0
 10
15.121256
 20
1.512414
 30
0.0
 10
15.065253
 20
1.434009
 30
0.0
 10
15.042852
 20
1.333203
 30
0.0
 10
15.076454
 20
1.243595
 30
0.0
 10
15.143657
 20
1.176394
 30
0.0
 10
15.233264
 20
1.142789
 30
0.0
 10
15.334069
 20
1.153992
 30
0.0
 10
15.412474
 20
1.209995
 30
0.0
 10
15.457277
 20
1.288399
 30
0.0
  0
LWPOLYLINE
  5
2a7
100
AcDbEntity
  8
Layer_1
 62
7
100
AcDbPolyline
 90
14
 70
1
 10
14.247602
 20
1.680422
 30
0.0
 10
14.225201
 20
1.770029
 30
0.0
 10
14.169197
 20
1.848434
 30
0.0
 10
14.079592
 20
1.882034
 30
0.0
 10
13.978785
 20
1.882034
 30
0.0
 10
13.900381
 20
1.837235
 30
0.0
 10
13.844377
 20
1.758826
 30
0.0
 10
13.833177
 20
1.658020
 30
0.0
 10
13.855578
 20
1.568416
 30
0.0
 10
13.922783
 20
1.501211
 30
0.0
 10
14.023588
 20
1.467610
 30
0.0
 10
14.113195
 20
1.478809
 30
0.0
 10
14.191599
 20
1.534816
 30
0.0
 10
14.247602
 20
1.624419
 30
0.0
  0
LWPOLYLINE
  5
2a8
100
AcDbEntity
  8
Layer_1
 62
7
100
AcDbPolyline
 90
27
 70
0
 10
13.564360
 20
1.702824
 30
0.0
 10
13.620363
 20
1.478809
 30
0.0
 10
13.721170
 20
1.265997
 30
0.0
 10
13.855578
 20
1.075587
 30
0.0
 10
14.023588
 20
0.918774
 30
0.0
 10
14.213999
 20
0.795570
 30
0.0
 10
14.426813
 20
0.717166
 30
0.0
 10
14.662028
 20
0.683561
 30
0.0
 10
14.886042
 20
0.683561
 30
0.0
 10
15.110056
 20
0.739563
 30
0.0
 10
15.322869
 20
0.829170
 30
0.0
 10
15.513281
 20
0.963578
 30
0.0
 10
15.681291
 20
1.131590
 30
0.0
 10
15.804499
 20
1.322000
 30
0.0
 10
15.882904
 20
1.534816
 30
0.0
 10
15.927706
 20
1.758826
 30
0.0
 10
15.927706
 20
1.994044
 30
0.0
 10
15.882904
 20
2.218054
 30
0.0
 10
15.793299
 20
2.430870
 30
0.0
 10
15.658889
 20
2.621280
 30
0.0
 10
15.502080
 20
2.789292
 30
0.0
 10
15.311668
 20
2.912501
 30
0.0
 10
15.098854
 20
3.002104
 30
0.0
 10
14.908442
 20
3.046908
 30
0.0
 10
14.729231
 20
3.091711
 30
0.0
 10
14.561222
 20
3.181315
 30
0.0
 10
14.460415
 20
3.270922
 30
0.0
  0
LWPOLYLINE
  5
2a9
100
AcDbEntity
  8
Layer_1
 62
7
100
AcDbPolyline
 90
4
 70
0
 10
13.564360
 20
1.702824
 30
0.0
 10
13.519557
 20
1.882034
 30
0.0
 10
13.429951
 20
2.050047
 30
0.0
 10
13.340346
 20
2.150853
 30
0.0
  0
LWPOLYLINE
  5
2aa
100
AcDbEntity
  8
Layer_1
 62
7
100
AcDbPolyline
 90
14
 70
1
 10
15.143657
 20
13.866779
 30
0.0
 10
15.121256
 20
13.956386
 30
0.0
 10
15.065253
 20
14.034790
 30
0.0
 10
14.975647
 20
14.068391
 30
0.0
 10
14.874841
 20
14.068391
 30
0.0
 10
14.785235
 20
14.023588
 30
0.0
 10
14.740433
 20
13.945183
 30
0.0
 10
14.718032
 20
13.844376
 30
0.0
 10
14.751633
 20
13.754773
 30
0.0
 10
14.818837
 20
13.687567
 30
0.0
 10
14.908442
 20
13.653967
 30
0.0
 10
15.009249
 20
13.665165
 30
0.0
 10
15.087654
 20
13.721168
 30
0.0
 10
15.132457
 20
13.799572
 30
0.0
  0
LWPOLYLINE
  5
2ab
100
AcDbEntity
  8
Layer_1
 62
7
100
AcDbPolyline
 90
14
 70
1
 10
15.468477
 20
15.087654
 30
0.0
 10
15.446076
 20
15.177262
 30
0.0
 10
15.390073
 20
15.255666
 30
0.0
 10
15.300467
 20
15.289267
 30
0.0
 10
15.199661
 20
15.289267
 30
0.0
 10
15.121256
 20
15.244463
 30
0.0
 10
15.065253
 20
15.154860
 30
0.0
 10
15.042852
 20
15.065252
 30
0.0
 10
15.076454
 20
14.975649
 30
0.0
 10
15.143657
 20
14.908443
 30
0.0
 10
15.233264
 20
14.874842
 30
0.0
 10
15.334069
 20
14.886041
 30
0.0
 10
15.412474
 20
14.942044
 30
0.0
 10
15.457277
 20
15.020449
 30
0.0
  0
LWPOLYLINE
  5
2ac
100
AcDbEntity
  8
Layer_1
 62
7
100
AcDbPolyline
 90
14
 70
1
 10
14.247602
 20
14.751634
 30
0.0
 10
14.225201
 20
14.852440
 30
0.0
 10
14.169197
 20
14.919642
 30
0.0
 10
14.079592
 20
14.964446
 30
0.0
 10
13.978785
 20
14.964446
 30
0.0
 10
13.900381
 20
14.908443
 30
0.0
 10
13.844377
 20
14.830038
 30
0.0
 10
13.833177
 20
14.740431
 30
0.0
 10
13.855578
 20
14.650828
 30
0.0
 10
13.922783
 20
14.572423
 30
0.0
 10
14.023588
 20
14.550021
 30
0.0
 10
14.113195
 20
14.561220
 30
0.0
 10
14.191599
 20
14.617227
 30
0.0
 10
14.247602
 20
14.695631
 30
0.0
  0
LWPOLYLINE
  5
2ad
100
AcDbEntity
  8
Layer_1
 62
7
100
AcDbPolyline
 90
27
 70
0
 10
14.908442
 20
13.385148
 30
0.0
 10
15.132457
 20
13.441151
 30
0.0
 10
15.345270
 20
13.541957
 30
0.0
 10
15.535683
 20
13.676368
 30
0.0
 10
15.692492
 20
13.844376
 30
0.0
 10
15.815700
 20
14.045989
 30
0.0
 10
15.894105
 20
14.258801
 30
0.0
 10
15.927706
 20
14.482815
 30
0.0
 10
15.927706
 20
14.718033
 30
0.0
 10
15.871703
 20
14.942044
 30
0.0
 10
15.782097
 20
15.154860
 30
0.0
 10
15.647688
 20
15.345269
 30
0.0
 10
15.479679
 20
15.502079
 30
0.0
 10
15.289266
 20
15.625287
 30
0.0
 10
15.076454
 20
15.714895
 30
0.0
 10
14.852440
 20
15.748495
 30
0.0
 10
14.617225
 20
15.748495
 30
0.0
 10
14.393212
 20
15.703692
 30
0.0
 10
14.180398
 20
15.614088
 30
0.0
 10
13.989986
 20
15.490880
 30
0.0
 10
13.821976
 20
15.322867
 30
0.0
 10
13.698767
 20
15.132458
 30
0.0
 10
13.609162
 20
14.919642
 30
0.0
 10
13.564360
 20
14.740431
 30
0.0
 10
13.519557
 20
14.550021
 30
0.0
 10
13.429951
 20
14.393213
 30
0.0
 10
13.340346
 20
14.292406
 30
0.0
  0
LWPOLYLINE
  5
2ae
100
AcDbEntity
  8
Layer_1
 62
7
100
AcDbPolyline
 90
4
 70
0
 10
14.908442
 20
13.385148
 30
0.0
 10
14.729231
 20
13.340345
 30
0.0
 10
14.561222
 20
13.250741
 30
0.0
 10
14.460415
 20
13.161133
 30
0.0
  0
LWPOLYLINE
  5
2af
100
AcDbEntity
  8
Layer_1
 62
7
100
AcDbPolyline
 90
14
 70
1
 10
2.072447
 20
13.866779
 30
0.0
 10
2.050046
 20
13.956386
 30
0.0
 10
1.982842
 20
14.034790
 30
0.0
 10
1.893236
 20
14.068391
 30
0.0
 10
1.803631
 20
14.068391
 30
0.0
 10
1.714025
 20
14.023588
 30
0.0
 10
1.658022
 20
13.945183
 30
0.0
 10
1.646821
 20
13.844376
 30
0.0
 10
1.669223
 20
13.754773
 30
0.0
 10
1.747627
 20
13.687567
 30
0.0
 10
1.837233
 20
13.653967
 30
0.0
 10
1.926839
 20
13.665165
 30
0.0
 10
2.005243
 20
13.721168
 30
0.0
 10
2.061247
 20
13.799572
 30
0.0
  0
LWPOLYLINE
  5
2b0
100
AcDbEntity
  8
Layer_1
 62
7
100
AcDbPolyline
 90
14
 70
1
 10
1.736427
 20
15.087654
 30
0.0
 10
1.714025
 20
15.177262
 30
0.0
 10
1.658022
 20
15.255666
 30
0.0
 10
1.568416
 20
15.289267
 30
0.0
 10
1.467610
 20
15.289267
 30
0.0
 10
1.389205
 20
15.244463
 30
0.0
 10
1.333201
 20
15.154860
 30
0.0
 10
1.322001
 20
15.065252
 30
0.0
 10
1.344402
 20
14.975649
 30
0.0
 10
1.411607
 20
14.908443
 30
0.0
 10
1.512413
 20
14.874842
 30
0.0
 10
1.602018
 20
14.886041
 30
0.0
 10
1.680423
 20
14.942044
 30
0.0
 10
1.736427
 20
15.020449
 30
0.0
  0
LWPOLYLINE
  5
2b1
100
AcDbEntity
  8
Layer_1
 62
7
100
AcDbPolyline
 90
14
 70
1
 10
2.957302
 20
14.751634
 30
0.0
 10
2.934901
 20
14.852440
 30
0.0
 10
2.878897
 20
14.919642
 30
0.0
 10
2.789292
 20
14.964446
 30
0.0
 10
2.688486
 20
14.964446
 30
0.0
 10
2.610081
 20
14.908443
 30
0.0
 10
2.554077
 20
14.830038
 30
0.0
 10
2.531676
 20
14.740431
 30
0.0
 10
2.565278
 20
14.650828
 30
0.0
 10
2.632482
 20
14.572423
 30
0.0
 10
2.722088
 20
14.550021
 30
0.0
 10
2.822894
 20
14.561220
 30
0.0
 10
2.901299
 20
14.617227
 30
0.0
 10
2.946102
 20
14.695631
 30
0.0
  0
LWPOLYLINE
  5
2b2
100
AcDbEntity
  8
Layer_1
 62
7
100
AcDbPolyline
 90
24
 70
0
 10
3.226119
 20
14.740431
 30
0.0
 10
3.170115
 20
14.964446
 30
0.0
 10
3.069309
 20
15.166058
 30
0.0
 10
2.934901
 20
15.356472
 30
0.0
 10
2.766890
 20
15.513282
 30
0.0
 10
2.565278
 20
15.636490
 30
0.0
 10
2.352465
 20
15.714895
 30
0.0
 10
2.128451
 20
15.759694
 30
0.0
 10
1.893236
 20
15.748495
 30
0.0
 10
1.669223
 20
15.703692
 30
0.0
 10
1.456409
 20
15.602885
 30
0.0
 10
1.265997
 20
15.468478
 30
0.0
 10
1.109188
 20
15.311669
 30
0.0
 10
0.985980
 20
15.110056
 30
0.0
 10
0.896375
 20
14.897245
 30
0.0
 10
0.862773
 20
14.673230
 30
0.0
 10
0.862773
 20
14.438016
 30
0.0
 10
0.907575
 20
14.214001
 30
0.0
 10
0.997181
 20
14.001185
 30
0.0
 10
1.120388
 20
13.810776
 30
0.0
 10
1.288399
 20
13.653967
 30
0.0
 10
1.478811
 20
13.519555
 30
0.0
 10
1.691624
 20
13.429951
 30
0.0
 10
1.870835
 20
13.385148
 30
0.0
  0
LWPOLYLINE
  5
2b3
100
AcDbEntity
  8
Layer_1
 62
7
100
AcDbPolyline
 90
4
 70
0
 10
3.226119
 20
14.740431
 30
0.0
 10
3.270922
 20
14.550021
 30
0.0
 10
3.360527
 20
14.393213
 30
0.0
 10
3.450133
 20
14.292406
 30
0.0
  0
LWPOLYLINE
  5
2b4
100
AcDbEntity
  8
Layer_1
 62
7
100
AcDbPolyline
 90
4
 70
0
 10
1.870835
 20
13.385148
 30
0.0
 10
2.061247
 20
13.340345
 30
0.0
 10
2.218057
 20
13.250741
 30
0.0
 10
2.318862
 20
13.161133
 30
0.0
  0
LWPOLYLINE
  5
2b5
100
AcDbEntity
  8
Layer_1
 62
7
100
AcDbPolyline
 90
2
 70
0
 10
2.598880
 20
13.866779
 30
0.0
 10
1.859634
 20
13.866779
 30
0.0
  0
LWPOLYLINE
  5
2b6
100
AcDbEntity
  8
Layer_1
 62
7
100
AcDbPolyline
 90
2
 70
0
 10
1.109188
 20
13.866779
 30
0.0
 10
1.859634
 20
13.866779
 30
0.0
  0
LWPOLYLINE
  5
2b7
100
AcDbEntity
  8
Layer_1
 62
7
100
AcDbPolyline
 90
2
 70
0
 10
1.859634
 20
14.606024
 30
0.0
 10
1.859634
 20
13.866779
 30
0.0
  0
LWPOLYLINE
  5
2b8
100
AcDbEntity
  8
Layer_1
 62
7
100
AcDbPolyline
 90
2
 70
0
 10
1.859634
 20
13.127533
 30
0.0
 10
1.859634
 20
13.866779
 30
0.0
  0
LWPOLYLINE
  5
2b9
100
AcDbEntity
  8
Layer_1
 62
7
100
AcDbPolyline
 90
2
 70
0
 10
1.523613
 20
15.826900
 30
0.0
 10
1.523613
 20
15.087654
 30
0.0
  0
LWPOLYLINE
  5
2ba
100
AcDbEntity
  8
Layer_1
 62
7
100
AcDbPolyline
 90
2
 70
0
 10
1.523613
 20
14.337210
 30
0.0
 10
1.523613
 20
15.087654
 30
0.0
  0
LWPOLYLINE
  5
2bb
100
AcDbEntity
  8
Layer_1
 62
7
100
AcDbPolyline
 90
2
 70
0
 10
0.784367
 20
15.087654
 30
0.0
 10
1.523613
 20
15.087654
 30
0.0
  0
LWPOLYLINE
  5
2bc
100
AcDbEntity
  8
Layer_1
 62
7
100
AcDbPolyline
 90
2
 70
0
 10
2.274060
 20
15.087654
 30
0.0
 10
1.523613
 20
15.087654
 30
0.0
  0
LWPOLYLINE
  5
2bd
100
AcDbEntity
  8
Layer_1
 62
7
100
AcDbPolyline
 90
2
 70
0
 10
2.744489
 20
14.012388
 30
0.0
 10
2.744489
 20
14.751634
 30
0.0
  0
LWPOLYLINE
  5
2be
100
AcDbEntity
  8
Layer_1
 62
7
100
AcDbPolyline
 90
2
 70
0
 10
2.744489
 20
15.502079
 30
0.0
 10
2.744489
 20
14.751634
 30
0.0
  0
LWPOLYLINE
  5
2bf
100
AcDbEntity
  8
Layer_1
 62
7
100
AcDbPolyline
 90
2
 70
0
 10
3.483735
 20
14.751634
 30
0.0
 10
2.744489
 20
14.751634
 30
0.0
  0
LWPOLYLINE
  5
2c0
100
AcDbEntity
  8
Layer_1
 62
7
100
AcDbPolyline
 90
2
 70
0
 10
2.005243
 20
14.751634
 30
0.0
 10
2.744489
 20
14.751634
 30
0.0
  0
LWPOLYLINE
  5
2c1
100
AcDbEntity
  8
Layer_1
 62
7
100
AcDbPolyline
 90
2
 70
0
 10
14.045990
 20
15.502079
 30
0.0
 10
14.045990
 20
14.751634
 30
0.0
  0
LWPOLYLINE
  5
2c2
100
AcDbEntity
  8
Layer_1
 62
7
100
AcDbPolyline
 90
2
 70
0
 10
14.045990
 20
14.012388
 30
0.0
 10
14.045990
 20
14.751634
 30
0.0
  0
LWPOLYLINE
  5
2c3
100
AcDbEntity
  8
Layer_1
 62
7
100
AcDbPolyline
 90
2
 70
0
 10
13.295543
 20
14.751634
 30
0.0
 10
14.045990
 20
14.751634
 30
0.0
  0
LWPOLYLINE
  5
2c4
100
AcDbEntity
  8
Layer_1
 62
7
100
AcDbPolyline
 90
2
 70
0
 10
14.785235
 20
14.751634
 30
0.0
 10
14.045990
 20
14.751634
 30
0.0
  0
LWPOLYLINE
  5
2c5
100
AcDbEntity
  8
Layer_1
 62
7
100
AcDbPolyline
 90
2
 70
0
 10
14.930844
 20
14.606024
 30
0.0
 10
14.930844
 20
13.866779
 30
0.0
  0
LWPOLYLINE
  5
2c6
100
AcDbEntity
  8
Layer_1
 62
7
100
AcDbPolyline
 90
2
 70
0
 10
14.930844
 20
13.127533
 30
0.0
 10
14.930844
 20
13.866779
 30
0.0
  0
LWPOLYLINE
  5
2c7
100
AcDbEntity
  8
Layer_1
 62
7
100
AcDbPolyline
 90
2
 70
0
 10
14.191599
 20
13.866779
 30
0.0
 10
14.930844
 20
13.866779
 30
0.0
  0
LWPOLYLINE
  5
2c8
100
AcDbEntity
  8
Layer_1
 62
7
100
AcDbPolyline
 90
2
 70
0
 10
15.670090
 20
13.866779
 30
0.0
 10
14.930844
 20
13.866779
 30
0.0
  0
LWPOLYLINE
  5
2c9
100
AcDbEntity
  8
Layer_1
 62
7
100
AcDbPolyline
 90
2
 70
0
 10
15.255665
 20
15.826900
 30
0.0
 10
15.255665
 20
15.087654
 30
0.0
  0
LWPOLYLINE
  5
2ca
100
AcDbEntity
  8
Layer_1
 62
7
100
AcDbPolyline
 90
2
 70
0
 10
15.255665
 20
14.337210
 30
0.0
 10
15.255665
 20
15.087654
 30
0.0
  0
LWPOLYLINE
  5
2cb
100
AcDbEntity
  8
Layer_1
 62
7
100
AcDbPolyline
 90
2
 70
0
 10
14.516419
 20
15.087654
 30
0.0
 10
15.255665
 20
15.087654
 30
0.0
  0
LWPOLYLINE
  5
2cc
100
AcDbEntity
  8
Layer_1
 62
7
100
AcDbPolyline
 90
2
 70
0
 10
15.994911
 20
15.087654
 30
0.0
 10
15.255665
 20
15.087654
 30
0.0
  0
LWPOLYLINE
  5
2cd
100
AcDbEntity
  8
Layer_1
 62
7
100
AcDbPolyline
 90
2
 70
0
 10
2.744489
 20
2.419668
 30
0.0
 10
2.744489
 20
1.680422
 30
0.0
  0
LWPOLYLINE
  5
2ce
100
AcDbEntity
  8
Layer_1
 62
7
100
AcDbPolyline
 90
2
 70
0
 10
2.744489
 20
0.941176
 30
0.0
 10
2.744489
 20
1.680422
 30
0.0
  0
LWPOLYLINE
  5
2cf
100
AcDbEntity
  8
Layer_1
 62
7
100
AcDbPolyline
 90
2
 70
0
 10
2.005243
 20
1.680422
 30
0.0
 10
2.744489
 20
1.680422
 30
0.0
  0
LWPOLYLINE
  5
2d0
100
AcDbEntity
  8
Layer_1
 62
7
100
AcDbPolyline
 90
2
 70
0
 10
3.483735
 20
1.680422
 30
0.0
 10
2.744489
 20
1.680422
 30
0.0
  0
LWPOLYLINE
  5
2d1
100
AcDbEntity
  8
Layer_1
 62
7
100
AcDbPolyline
 90
2
 70
0
 10
1.523613
 20
2.094850
 30
0.0
 10
1.523613
 20
1.355604
 30
0.0
  0
LWPOLYLINE
  5
2d2
100
AcDbEntity
  8
Layer_1
 62
7
100
AcDbPolyline
 90
2
 70
0
 10
1.523613
 20
0.616359
 30
0.0
 10
1.523613
 20
1.355604
 30
0.0
  0
LWPOLYLINE
  5
2d3
100
AcDbEntity
  8
Layer_1
 62
7
100
AcDbPolyline
 90
2
 70
0
 10
0.784367
 20
1.355604
 30
0.0
 10
1.523613
 20
1.355604
 30
0.0
  0
LWPOLYLINE
  5
2d4
100
AcDbEntity
  8
Layer_1
 62
7
100
AcDbPolyline
 90
2
 70
0
 10
2.274060
 20
1.355604
 30
0.0
 10
1.523613
 20
1.355604
 30
0.0
  0
LWPOLYLINE
  5
2d5
100
AcDbEntity
  8
Layer_1
 62
7
100
AcDbPolyline
 90
2
 70
0
 10
1.859634
 20
3.315726
 30
0.0
 10
1.859634
 20
2.565277
 30
0.0
  0
LWPOLYLINE
  5
2d6
100
AcDbEntity
  8
Layer_1
 62
7
100
AcDbPolyline
 90
2
 70
0
 10
1.859634
 20
1.826032
 30
0.0
 10
1.859634
 20
2.565277
 30
0.0
  0
LWPOLYLINE
  5
2d7
100
AcDbEntity
  8
Layer_1
 62
7
100
AcDbPolyline
 90
2
 70
0
 10
1.109188
 20
2.565277
 30
0.0
 10
1.859634
 20
2.565277
 30
0.0
  0
LWPOLYLINE
  5
2d8
100
AcDbEntity
  8
Layer_1
 62
7
100
AcDbPolyline
 90
2
 70
0
 10
2.598880
 20
2.565277
 30
0.0
 10
1.859634
 20
2.565277
 30
0.0
  0
LWPOLYLINE
  5
2d9
100
AcDbEntity
  8
Layer_1
 62
7
100
AcDbPolyline
 90
2
 70
0
 10
14.045990
 20
2.419668
 30
0.0
 10
14.045990
 20
1.680422
 30
0.0
  0
LWPOLYLINE
  5
2da
100
AcDbEntity
  8
Layer_1
 62
7
100
AcDbPolyline
 90
2
 70
0
 10
14.045990
 20
0.941176
 30
0.0
 10
14.045990
 20
1.680422
 30
0.0
  0
LWPOLYLINE
  5
2db
100
AcDbEntity
  8
Layer_1
 62
7
100
AcDbPolyline
 90
2
 70
0
 10
13.295543
 20
1.680422
 30
0.0
 10
14.045990
 20
1.680422
 30
0.0
  0
LWPOLYLINE
  5
2dc
100
AcDbEntity
  8
Layer_1
 62
7
100
AcDbPolyline
 90
2
 70
0
 10
14.785235
 20
1.680422
 30
0.0
 10
14.045990
 20
1.680422
 30
0.0
  0
LWPOLYLINE
  5
2dd
100
AcDbEntity
  8
Layer_1
 62
7
100
AcDbPolyline
 90
2
 70
0
 10
15.255665
 20
2.094850
 30
0.0
 10
15.255665
 20
1.355604
 30
0.0
  0
LWPOLYLINE
  5
2de
100
AcDbEntity
  8
Layer_1
 62
7
100
AcDbPolyline
 90
2
 70
0
 10
15.255665
 20
0.616359
 30
0.0
 10
15.255665
 20
1.355604
 30
0.0
  0
LWPOLYLINE
  5
2df
100
AcDbEntity
  8
Layer_1
 62
7
100
AcDbPolyline
 90
2
 70
0
 10
14.516419
 20
1.355604
 30
0.0
 10
15.255665
 20
1.355604
 30
0.0
  0
LWPOLYLINE
  5
2e0
100
AcDbEntity
  8
Layer_1
 62
7
100
AcDbPolyline
 90
2
 70
0
 10
15.994911
 20
1.355604
 30
0.0
 10
15.255665
 20
1.355604
 30
0.0
  0
LWPOLYLINE
  5
2e1
100
AcDbEntity
  8
Layer_1
 62
7
100
AcDbPolyline
 90
2
 70
0
 10
14.930844
 20
3.315726
 30
0.0
 10
14.930844
 20
2.565277
 30
0.0
  0
LWPOLYLINE
  5
2e2
100
AcDbEntity
  8
Layer_1
 62
7
100
AcDbPolyline
 90
2
 70
0
 10
14.930844
 20
1.826032
 30
0.0
 10
14.930844
 20
2.565277
 30
0.0
  0
LWPOLYLINE
  5
2e3
100
AcDbEntity
  8
Layer_1
 62
7
100
AcDbPolyline
 90
2
 70
0
 10
14.191599
 20
2.565277
 30
0.0
 10
14.930844
 20
2.565277
 30
0.0
  0
LWPOLYLINE
  5
2e4
100
AcDbEntity
  8
Layer_1
 62
7
100
AcDbPolyline
 90
2
 70
0
 10
15.670090
 20
2.565277
 30
0.0
 10
14.930844
 20
2.565277
 30
0.0
  0
LWPOLYLINE
  5
2e5
100
AcDbEntity
  8
Layer_1
 62
7
100
AcDbPolyline
 90
2
 70
0
 10
14.169197
 20
13.810776
 30
0.0
 10
13.978785
 20
13.989986
 30
0.0
  0
LWPOLYLINE
  5
2e6
100
AcDbEntity
  8
Layer_1
 62
7
100
AcDbPolyline
 90
4
 70
0
 10
14.169197
 20
13.620362
 30
0.0
 10
14.202800
 20
13.687567
 30
0.0
 10
14.202800
 20
13.765972
 30
0.0
 10
14.169197
 20
13.810776
 30
0.0
  0
LWPOLYLINE
  5
2e7
100
AcDbEntity
  8
Layer_1
 62
7
100
AcDbPolyline
 90
4
 70
0
 10
13.799574
 20
13.989986
 30
0.0
 10
13.866779
 20
14.034790
 30
0.0
 10
13.933982
 20
14.023588
 30
0.0
 10
13.978785
 20
13.989986
 30
0.0
  0
LWPOLYLINE
  5
2e8
100
AcDbEntity
  8
Layer_1
 62
7
100
AcDbPolyline
 90
4
 70
0
 10
10.495370
 20
10.506570
 30
0.0
 10
10.461767
 20
10.573776
 30
0.0
 10
10.461767
 20
10.652180
 30
0.0
 10
10.495370
 20
10.696984
 30
0.0
  0
LWPOLYLINE
  5
2e9
100
AcDbEntity
  8
Layer_1
 62
7
100
AcDbPolyline
 90
2
 70
0
 10
10.685781
 20
10.316160
 30
0.0
 10
10.495370
 20
10.506570
 30
0.0
  0
LWPOLYLINE
  5
2ea
100
AcDbEntity
  8
Layer_1
 62
7
100
AcDbPolyline
 90
4
 70
0
 10
10.685781
 20
10.316160
 30
0.0
 10
10.752986
 20
10.282555
 30
0.0
 10
10.820190
 20
10.293758
 30
0.0
 10
10.864992
 20
10.316160
 30
0.0
  0
LWPOLYLINE
  5
2eb
100
AcDbEntity
  8
Layer_1
 62
7
100
AcDbPolyline
 90
2
 70
0
 10
14.169197
 20
13.620362
 30
0.0
 10
10.864992
 20
10.316160
 30
0.0
  0
LWPOLYLINE
  5
2ec
100
AcDbEntity
  8
Layer_1
 62
7
100
AcDbPolyline
 90
2
 70
0
 10
13.799574
 20
13.989986
 30
0.0
 10
10.495370
 20
10.696984
 30
0.0
  0
LWPOLYLINE
  5
2ed
100
AcDbEntity
  8
Layer_1
 62
7
100
AcDbPolyline
 90
2
 70
0
 10
2.621282
 20
2.632484
 30
0.0
 10
2.800493
 20
2.442069
 30
0.0
  0
LWPOLYLINE
  5
2ee
100
AcDbEntity
  8
Layer_1
 62
7
100
AcDbPolyline
 90
4
 70
0
 10
2.621282
 20
2.811694
 30
0.0
 10
2.576478
 20
2.744488
 30
0.0
 10
2.587679
 20
2.677287
 30
0.0
 10
2.621282
 20
2.632484
 30
0.0
  0
LWPOLYLINE
  5
2ef
100
AcDbEntity
  8
Layer_1
 62
7
100
AcDbPolyline
 90
4
 70
0
 10
2.990905
 20
2.442069
 30
0.0
 10
2.923700
 20
2.408468
 30
0.0
 10
2.845295
 20
2.408468
 30
0.0
 10
2.800493
 20
2.442069
 30
0.0
  0
LWPOLYLINE
  5
2f0
100
AcDbEntity
  8
Layer_1
 62
7
100
AcDbPolyline
 90
4
 70
0
 10
6.295109
 20
5.925486
 30
0.0
 10
6.328711
 20
5.869483
 30
0.0
 10
6.328711
 20
5.791079
 30
0.0
 10
6.295109
 20
5.746275
 30
0.0
  0
LWPOLYLINE
  5
2f1
100
AcDbEntity
  8
Layer_1
 62
7
100
AcDbPolyline
 90
2
 70
0
 10
6.104697
 20
6.115899
 30
0.0
 10
6.295109
 20
5.925486
 30
0.0
  0
LWPOLYLINE
  5
2f2
100
AcDbEntity
  8
Layer_1
 62
7
100
AcDbPolyline
 90
4
 70
0
 10
6.104697
 20
6.115899
 30
0.0
 10
6.037493
 20
6.149500
 30
0.0
 10
5.959088
 20
6.149500
 30
0.0
 10
5.925486
 20
6.115899
 30
0.0
  0
LWPOLYLINE
  5
2f3
100
AcDbEntity
  8
Layer_1
 62
7
100
AcDbPolyline
 90
2
 70
0
 10
2.621282
 20
2.811694
 30
0.0
 10
5.925486
 20
6.115899
 30
0.0
  0
LWPOLYLINE
  5
2f4
100
AcDbEntity
  8
Layer_1
 62
7
100
AcDbPolyline
 90
2
 70
0
 10
2.990905
 20
2.442069
 30
0.0
 10
6.295109
 20
5.746275
 30
0.0
  0
LWPOLYLINE
  5
2f5
100
AcDbEntity
  8
Layer_1
 62
7
100
AcDbPolyline
 90
2
 70
0
 10
13.978785
 20
2.442069
 30
0.0
 10
14.169197
 20
2.632484
 30
0.0
  0
LWPOLYLINE
  5
2f6
100
AcDbEntity
  8
Layer_1
 62
7
100
AcDbPolyline
 90
4
 70
0
 10
13.799574
 20
2.442069
 30
0.0
 10
13.866779
 20
2.408468
 30
0.0
 10
13.933982
 20
2.408468
 30
0.0
 10
13.978785
 20
2.442069
 30
0.0
  0
LWPOLYLINE
  5
2f7
100
AcDbEntity
  8
Layer_1
 62
7
100
AcDbPolyline
 90
4
 70
0
 10
14.169197
 20
2.811694
 30
0.0
 10
14.202800
 20
2.744488
 30
0.0
 10
14.202800
 20
2.677287
 30
0.0
 10
14.169197
 20
2.632484
 30
0.0
  0
LWPOLYLINE
  5
2f8
100
AcDbEntity
  8
Layer_1
 62
7
100
AcDbPolyline
 90
4
 70
0
 10
10.685781
 20
6.115899
 30
0.0
 10
10.752986
 20
6.149500
 30
0.0
 10
10.820190
 20
6.149500
 30
0.0
 10
10.864992
 20
6.115899
 30
0.0
  0
LWPOLYLINE
  5
2f9
100
AcDbEntity
  8
Layer_1
 62
7
100
AcDbPolyline
 90
2
 70
0
 10
10.495370
 20
5.925486
 30
0.0
 10
10.685781
 20
6.115899
 30
0.0
  0
LWPOLYLINE
  5
2fa
100
AcDbEntity
  8
Layer_1
 62
7
100
AcDbPolyline
 90
4
 70
0
 10
10.495370
 20
5.925486
 30
0.0
 10
10.461767
 20
5.869483
 30
0.0
 10
10.461767
 20
5.791079
 30
0.0
 10
10.495370
 20
5.746275
 30
0.0
  0
LWPOLYLINE
  5
2fb
100
AcDbEntity
  8
Layer_1
 62
7
100
AcDbPolyline
 90
2
 70
0
 10
13.799574
 20
2.442069
 30
0.0
 10
10.495370
 20
5.746275
 30
0.0
  0
LWPOLYLINE
  5
2fc
100
AcDbEntity
  8
Layer_1
 62
7
100
AcDbPolyline
 90
2
 70
0
 10
14.169197
 20
2.811694
 30
0.0
 10
10.864992
 20
6.115899
 30
0.0
  0
LWPOLYLINE
  5
2fd
100
AcDbEntity
  8
Layer_1
 62
7
100
AcDbPolyline
 90
2
 70
0
 10
2.621282
 20
13.810776
 30
0.0
 10
2.800493
 20
13.989986
 30
0.0
  0
LWPOLYLINE
  5
2fe
100
AcDbEntity
  8
Layer_1
 62
7
100
AcDbPolyline
 90
4
 70
0
 10
2.621282
 20
13.620362
 30
0.0
 10
2.576478
 20
13.687567
 30
0.0
 10
2.587679
 20
13.765972
 30
0.0
 10
2.621282
 20
13.810776
 30
0.0
  0
LWPOLYLINE
  5
2ff
100
AcDbEntity
  8
Layer_1
 62
7
100
AcDbPolyline
 90
4
 70
0
 10
2.990905
 20
13.989986
 30
0.0
 10
2.923700
 20
14.034790
 30
0.0
 10
2.845295
 20
14.023588
 30
0.0
 10
2.800493
 20
13.989986
 30
0.0
  0
LWPOLYLINE
  5
300
100
AcDbEntity
  8
Layer_1
 62
7
100
AcDbPolyline
 90
4
 70
0
 10
6.295109
 20
10.506570
 30
0.0
 10
6.328711
 20
10.573776
 30
0.0
 10
6.328711
 20
10.652180
 30
0.0
 10
6.295109
 20
10.696984
 30
0.0
  0
LWPOLYLINE
  5
301
100
AcDbEntity
  8
Layer_1
 62
7
100
AcDbPolyline
 90
2
 70
0
 10
6.104697
 20
10.316160
 30
0.0
 10
6.295109
 20
10.506570
 30
0.0
  0
LWPOLYLINE
  5
302
100
AcDbEntity
  8
Layer_1
 62
7
100
AcDbPolyline
 90
4
 70
0
 10
6.104697
 20
10.316160
 30
0.0
 10
6.037493
 20
10.282555
 30
0.0
 10
5.959088
 20
10.293758
 30
0.0
 10
5.925486
 20
10.316160
 30
0.0
  0
LWPOLYLINE
  5
303
100
AcDbEntity
  8
Layer_1
 62
7
100
AcDbPolyline
 90
2
 70
0
 10
2.621282
 20
13.620362
 30
0.0
 10
5.925486
 20
10.316160
 30
0.0
  0
LWPOLYLINE
  5
304
100
AcDbEntity
  8
Layer_1
 62
7
100
AcDbPolyline
 90
2
 70
0
 10
2.990905
 20
13.989986
 30
0.0
 10
6.295109
 20
10.696984
 30
0.0
  0
ENDSEC
  0
SECTION
  2
OBJECTS
  0
DICTIONARY
  5
C
330
0
100
AcDbDictionary
  3
ACAD_GROUP
350
D
  3
ACAD_MLINESTYLE
350
17
  0
DICTIONARY
  5
D
330
C
100
AcDbDictionary
  0
DICTIONARY
  5
1A
330
C
100
AcDbDictionary
  0
DICTIONARY
  5
17
330
C
100
AcDbDictionary
  3
STANDARD
350
18
  0
DICTIONARY
  5
19
330
C
100
AcDbDictionary
  0
ENDSEC
  0
EOF
