  0
SECTION
  2
BLOCKS
  0
ENDSEC
  0
SECTION
  2
ENTITIES
  0
LINE
  8
0
 10
26.6256
 20
-51.7762
 11
28.3645
 21
-51.5565
  0
LINE
  8
0
 10
28.3645
 20
-51.5565
 11
30.0862
 21
-51.2281
  0
LINE
  8
0
 10
30.0862
 20
-51.2281
 11
31.7838
 21
-50.7922
  0
LINE
  8
0
 10
31.7838
 20
-50.7922
 11
33.4508
 21
-50.2506
  0
LINE
  8
0
 10
33.4508
 20
-50.2506
 11
35.0804
 21
-49.6053
  0
LINE
  8
0
 10
35.0804
 20
-49.6053
 11
36.6663
 21
-48.8591
  0
LINE
  8
0
 10
36.6663
 20
-48.8591
 11
38.2023
 21
-48.0147
  0
LINE
  8
0
 10
38.2023
 20
-48.0147
 11
39.6821
 21
-47.0755
  0
LINE
  8
0
 10
39.6821
 20
-47.0755
 11
41.1001
 21
-46.0453
  0
LINE
  8
0
 10
41.1001
 20
-46.0453
 11
42.4506
 21
-44.9281
  0
LINE
  8
0
 10
42.4506
 20
-44.9281
 11
43.7283
 21
-43.7283
  0
LINE
  8
0
 10
43.7283
 20
-43.7283
 11
44.9281
 21
-42.4506
  0
LINE
  8
0
 10
44.9281
 20
-42.4506
 11
46.0453
 21
-41.1001
  0
LINE
  8
0
 10
46.0453
 20
-41.1001
 11
47.0755
 21
-39.6821
  0
LINE
  8
0
 10
47.0755
 20
-39.6821
 11
48.0147
 21
-38.2023
  0
LINE
  8
0
 10
48.0147
 20
-38.2023
 11
48.8591
 21
-36.6663
  0
LINE
  8
0
 10
48.8591
 20
-36.6663
 11
49.6053
 21
-35.0804
  0
LINE
  8
0
 10
49.6053
 20
-35.0804
 11
50.2506
 21
-33.4508
  0
LINE
  8
0
 10
50.2506
 20
-33.4508
 11
50.7922
 21
-31.7838
  0
LINE
  8
0
 10
50.7922
 20
-31.7838
 11
51.2281
 21
-30.0862
  0
LINE
  8
0
 10
51.2281
 20
-30.0862
 11
51.5565
 21
-28.3645
  0
LINE
  8
0
 10
51.5565
 20
-28.3645
 11
51.7762
 21
-26.6256
  0
LINE
  8
0
 10
51.7762
 20
-26.6256
 11
51.8862
 21
-24.8764
  0
LINE
  8
0
 10
51.8862
 20
-24.8764
 11
51.8862
 21
24.8764
  0
LINE
  8
0
 10
51.8862
 20
24.8764
 11
51.7762
 21
26.6256
  0
LINE
  8
0
 10
51.7762
 20
26.6256
 11
51.5565
 21
28.3645
  0
LINE
  8
0
 10
51.5565
 20
28.3645
 11
51.2281
 21
30.0862
  0
LINE
  8
0
 10
51.2281
 20
30.0862
 11
50.7922
 21
31.7838
  0
LINE
  8
0
 10
50.7922
 20
31.7838
 11
50.2506
 21
33.4508
  0
LINE
  8
0
 10
50.2506
 20
33.4508
 11
49.6053
 21
35.0804
  0
LINE
  8
0
 10
49.6053
 20
35.0804
 11
48.8591
 21
36.6663
  0
LINE
  8
0
 10
48.8591
 20
36.6663
 11
48.0147
 21
38.2023
  0
LINE
  8
0
 10
48.0147
 20
38.2023
 11
47.0755
 21
39.6821
  0
LINE
  8
0
 10
47.0755
 20
39.6821
 11
46.0453
 21
41.1001
  0
LINE
  8
0
 10
46.0453
 20
41.1001
 11
44.9281
 21
42.4506
  0
LINE
  8
0
 10
44.9281
 20
42.4506
 11
43.7283
 21
43.7283
  0
LINE
  8
0
 10
43.7283
 20
43.7283
 11
42.4506
 21
44.9281
  0
LINE
  8
0
 10
42.4506
 20
44.9281
 11
41.1001
 21
46.0453
  0
LINE
  8
0
 10
41.1001
 20
46.0453
 11
39.6821
 21
47.0755
  0
LINE
  8
0
 10
39.6821
 20
47.0755
 11
38.2023
 21
48.0147
  0
LINE
  8
0
 10
38.2023
 20
48.0147
 11
36.6663
 21
48.8591
  0
LINE
  8
0
 10
36.6663
 20
48.8591
 11
35.0804
 21
49.6053
  0
LINE
  8
0
 10
35.0804
 20
49.6053
 11
33.4508
 21
50.2506
  0
LINE
  8
0
 10
33.4508
 20
50.2506
 11
31.7838
 21
50.7922
  0
LINE
  8
0
 10
31.7838
 20
50.7922
 11
30.0862
 21
51.2281
  0
LINE
  8
0
 10
30.0862
 20
51.2281
 11
28.3645
 21
51.5565
  0
LINE
  8
0
 10
28.3645
 20
51.5565
 11
26.6256
 21
51.7762
  0
LINE
  8
0
 10
26.6256
 20
51.7762
 11
24.8764
 21
51.8862
  0
LINE
  8
0
 10
24.8764
 20
51.8862
 11
-24.8764
 21
51.8862
  0
LINE
  8
0
 10
-24.8764
 20
51.8862
 11
-26.6256
 21
51.7762
  0
LINE
  8
0
 10
-26.6256
 20
51.7762
 11
-28.3645
 21
51.5565
  0
LINE
  8
0
 10
-28.3645
 20
51.5565
 11
-30.0862
 21
51.2281
  0
LINE
  8
0
 10
-30.0862
 20
51.2281
 11
-31.7838
 21
50.7922
  0
LINE
  8
0
 10
-31.7838
 20
50.7922
 11
-33.4508
 21
50.2506
  0
LINE
  8
0
 10
-33.4508
 20
50.2506
 11
-35.0804
 21
49.6053
  0
LINE
  8
0
 10
-35.0804
 20
49.6053
 11
-36.6663
 21
48.8591
  0
LINE
  8
0
 10
-36.6663
 20
48.8591
 11
-38.2023
 21
48.0147
  0
LINE
  8
0
 10
-38.2023
 20
48.0147
 11
-39.6821
 21
47.0755
  0
LINE
  8
0
 10
-39.6821
 20
47.0755
 11
-41.1001
 21
46.0453
  0
LINE
  8
0
 10
-41.1001
 20
46.0453
 11
-42.4506
 21
44.9281
  0
LINE
  8
0
 10
-42.4506
 20
44.9281
 11
-43.7283
 21
43.7283
  0
LINE
  8
0
 10
-43.7283
 20
43.7283
 11
-44.9281
 21
42.4506
  0
LINE
  8
0
 10
-44.9281
 20
42.4506
 11
-46.0453
 21
41.1001
  0
LINE
  8
0
 10
-46.0453
 20
41.1001
 11
-47.0755
 21
39.6821
  0
LINE
  8
0
 10
-47.0755
 20
39.6821
 11
-48.0147
 21
38.2023
  0
LINE
  8
0
 10
-48.0147
 20
38.2023
 11
-48.8591
 21
36.6663
  0
LINE
  8
0
 10
-48.8591
 20
36.6663
 11
-49.6053
 21
35.0804
  0
LINE
  8
0
 10
-49.6053
 20
35.0804
 11
-50.2506
 21
33.4508
  0
LINE
  8
0
 10
-50.2506
 20
33.4508
 11
-50.7922
 21
31.7838
  0
LINE
  8
0
 10
-50.7922
 20
31.7838
 11
-51.2281
 21
30.0862
  0
LINE
  8
0
 10
-51.2281
 20
30.0862
 11
-51.5565
 21
28.3645
  0
LINE
  8
0
 10
-51.5565
 20
28.3645
 11
-51.7762
 21
26.6256
  0
LINE
  8
0
 10
-51.7762
 20
26.6256
 11
-51.8862
 21
24.8764
  0
LINE
  8
0
 10
-51.8862
 20
24.8764
 11
-51.8862
 21
-24.8764
  0
LINE
  8
0
 10
-51.8862
 20
-24.8764
 11
-51.7762
 21
-26.6256
  0
LINE
  8
0
 10
-51.7762
 20
-26.6256
 11
-51.5565
 21
-28.3645
  0
LINE
  8
0
 10
-51.5565
 20
-28.3645
 11
-51.2281
 21
-30.0862
  0
LINE
  8
0
 10
-51.2281
 20
-30.0862
 11
-50.7922
 21
-31.7838
  0
LINE
  8
0
 10
-50.7922
 20
-31.7838
 11
-50.2506
 21
-33.4508
  0
LINE
  8
0
 10
-50.2506
 20
-33.4508
 11
-49.6053
 21
-35.0804
  0
LINE
  8
0
 10
-49.6053
 20
-35.0804
 11
-48.8591
 21
-36.6663
  0
LINE
  8
0
 10
-48.8591
 20
-36.6663
 11
-48.0147
 21
-38.2023
  0
LINE
  8
0
 10
-48.0147
 20
-38.2023
 11
-47.0755
 21
-39.6821
  0
LINE
  8
0
 10
-47.0755
 20
-39.6821
 11
-46.0453
 21
-41.1001
  0
LINE
  8
0
 10
-46.0453
 20
-41.1001
 11
-44.9281
 21
-42.4506
  0
LINE
  8
0
 10
-44.9281
 20
-42.4506
 11
-43.7283
 21
-43.7283
  0
LINE
  8
0
 10
-43.7283
 20
-43.7283
 11
-42.4506
 21
-44.9281
  0
LINE
  8
0
 10
-42.4506
 20
-44.9281
 11
-41.1001
 21
-46.0453
  0
LINE
  8
0
 10
-41.1001
 20
-46.0453
 11
-39.6821
 21
-47.0755
  0
LINE
  8
0
 10
-39.6821
 20
-47.0755
 11
-38.2023
 21
-48.0147
  0
LINE
  8
0
 10
-38.2023
 20
-48.0147
 11
-36.6663
 21
-48.8591
  0
LINE
  8
0
 10
-36.6663
 20
-48.8591
 11
-35.0804
 21
-49.6053
  0
LINE
  8
0
 10
-35.0804
 20
-49.6053
 11
-33.4508
 21
-50.2506
  0
LINE
  8
0
 10
-33.4508
 20
-50.2506
 11
-31.7838
 21
-50.7922
  0
LINE
  8
0
 10
-31.7838
 20
-50.7922
 11
-30.0862
 21
-51.2281
  0
LINE
  8
0
 10
-30.0862
 20
-51.2281
 11
-28.3645
 21
-51.5565
  0
LINE
  8
0
 10
-28.3645
 20
-51.5565
 11
-26.6256
 21
-51.7762
  0
LINE
  8
0
 10
-26.6256
 20
-51.7762
 11
-24.8764
 21
-51.8862
  0
LINE
  8
0
 10
-24.8764
 20
-51.8862
 11
24.8764
 21
-51.8862
  0
LINE
  8
0
 10
24.8764
 20
-51.8862
 11
26.6256
 21
-51.7762
  0
LINE
  8
0
 10
-24.7193
 20
-46.8887
 11
-26.1551
 21
-46.7984
  0
LINE
  8
0
 10
-26.1551
 20
-46.7984
 11
-27.5823
 21
-46.6181
  0
LINE
  8
0
 10
-27.5823
 20
-46.6181
 11
-28.9955
 21
-46.3485
  0
LINE
  8
0
 10
-28.9955
 20
-46.3485
 11
-30.3889
 21
-45.9907
  0
LINE
  8
0
 10
-30.3889
 20
-45.9907
 11
-31.7571
 21
-45.5462
  0
LINE
  8
0
 10
-31.7571
 20
-45.5462
 11
-33.0947
 21
-45.0166
  0
LINE
  8
0
 10
-33.0947
 20
-45.0166
 11
-34.3964
 21
-44.404
  0
LINE
  8
0
 10
-34.3964
 20
-44.404
 11
-35.657
 21
-43.711
  0
LINE
  8
0
 10
-35.657
 20
-43.711
 11
-36.8717
 21
-42.9401
  0
LINE
  8
0
 10
-36.8717
 20
-42.9401
 11
-38.0356
 21
-42.0945
  0
LINE
  8
0
 10
-38.0356
 20
-42.0945
 11
-39.144
 21
-41.1775
  0
LINE
  8
0
 10
-39.144
 20
-41.1775
 11
-40.1927
 21
-40.1927
  0
LINE
  8
0
 10
-40.1927
 20
-40.1927
 11
-41.1775
 21
-39.144
  0
LINE
  8
0
 10
-41.1775
 20
-39.144
 11
-42.0945
 21
-38.0356
  0
LINE
  8
0
 10
-42.0945
 20
-38.0356
 11
-42.9401
 21
-36.8717
  0
LINE
  8
0
 10
-42.9401
 20
-36.8717
 11
-43.711
 21
-35.657
  0
LINE
  8
0
 10
-43.711
 20
-35.657
 11
-44.404
 21
-34.3964
  0
LINE
  8
0
 10
-44.404
 20
-34.3964
 11
-45.0166
 21
-33.0947
  0
LINE
  8
0
 10
-45.0166
 20
-33.0947
 11
-45.5462
 21
-31.7571
  0
LINE
  8
0
 10
-45.5462
 20
-31.7571
 11
-45.9907
 21
-30.3889
  0
LINE
  8
0
 10
-45.9907
 20
-30.3889
 11
-46.3485
 21
-28.9955
  0
LINE
  8
0
 10
-46.3485
 20
-28.9955
 11
-46.6181
 21
-27.5823
  0
LINE
  8
0
 10
-46.6181
 20
-27.5823
 11
-46.7984
 21
-26.1551
  0
LINE
  8
0
 10
-46.7984
 20
-26.1551
 11
-46.8887
 21
-24.7193
  0
LINE
  8
0
 10
-46.8887
 20
-24.7193
 11
-46.8887
 21
24.7193
  0
LINE
  8
0
 10
-46.8887
 20
24.7193
 11
-46.7984
 21
26.1551
  0
LINE
  8
0
 10
-46.7984
 20
26.1551
 11
-46.6181
 21
27.5823
  0
LINE
  8
0
 10
-46.6181
 20
27.5823
 11
-46.3485
 21
28.9955
  0
LINE
  8
0
 10
-46.3485
 20
28.9955
 11
-45.9907
 21
30.3889
  0
LINE
  8
0
 10
-45.9907
 20
30.3889
 11
-45.5462
 21
31.7571
  0
LINE
  8
0
 10
-45.5462
 20
31.7571
 11
-45.0166
 21
33.0947
  0
LINE
  8
0
 10
-45.0166
 20
33.0947
 11
-44.404
 21
34.3964
  0
LINE
  8
0
 10
-44.404
 20
34.3964
 11
-43.711
 21
35.657
  0
LINE
  8
0
 10
-43.711
 20
35.657
 11
-42.9401
 21
36.8717
  0
LINE
  8
0
 10
-42.9401
 20
36.8717
 11
-42.0945
 21
38.0356
  0
LINE
  8
0
 10
-42.0945
 20
38.0356
 11
-41.1775
 21
39.144
  0
LINE
  8
0
 10
-41.1775
 20
39.144
 11
-40.1927
 21
40.1927
  0
LINE
  8
0
 10
-40.1927
 20
40.1927
 11
-39.144
 21
41.1775
  0
LINE
  8
0
 10
-39.144
 20
41.1775
 11
-38.0356
 21
42.0945
  0
LINE
  8
0
 10
-38.0356
 20
42.0945
 11
-36.8717
 21
42.9401
  0
LINE
  8
0
 10
-36.8717
 20
42.9401
 11
-35.657
 21
43.711
  0
LINE
  8
0
 10
-35.657
 20
43.711
 11
-34.3964
 21
44.404
  0
LINE
  8
0
 10
-34.3964
 20
44.404
 11
-33.0947
 21
45.0166
  0
LINE
  8
0
 10
-33.0947
 20
45.0166
 11
-31.7571
 21
45.5462
  0
LINE
  8
0
 10
-31.7571
 20
45.5462
 11
-30.3889
 21
45.9907
  0
LINE
  8
0
 10
-30.3889
 20
45.9907
 11
-28.9955
 21
46.3485
  0
LINE
  8
0
 10
-28.9955
 20
46.3485
 11
-27.5823
 21
46.6181
  0
LINE
  8
0
 10
-27.5823
 20
46.6181
 11
-26.1551
 21
46.7984
  0
LINE
  8
0
 10
-26.1551
 20
46.7984
 11
-24.7193
 21
46.8887
  0
LINE
  8
0
 10
-24.7193
 20
46.8887
 11
24.7193
 21
46.8887
  0
LINE
  8
0
 10
24.7193
 20
46.8887
 11
26.1551
 21
46.7984
  0
LINE
  8
0
 10
26.1551
 20
46.7984
 11
27.5823
 21
46.6181
  0
LINE
  8
0
 10
27.5823
 20
46.6181
 11
28.9955
 21
46.3485
  0
LINE
  8
0
 10
28.9955
 20
46.3485
 11
30.3889
 21
45.9907
  0
LINE
  8
0
 10
30.3889
 20
45.9907
 11
31.7571
 21
45.5462
  0
LINE
  8
0
 10
31.7571
 20
45.5462
 11
33.0947
 21
45.0166
  0
LINE
  8
0
 10
33.0947
 20
45.0166
 11
34.3964
 21
44.404
  0
LINE
  8
0
 10
34.3964
 20
44.404
 11
35.657
 21
43.711
  0
LINE
  8
0
 10
35.657
 20
43.711
 11
36.8717
 21
42.9401
  0
LINE
  8
0
 10
36.8717
 20
42.9401
 11
38.0356
 21
42.0945
  0
LINE
  8
0
 10
38.0356
 20
42.0945
 11
39.144
 21
41.1775
  0
LINE
  8
0
 10
39.144
 20
41.1775
 11
40.1927
 21
40.1927
  0
LINE
  8
0
 10
40.1927
 20
40.1927
 11
41.1775
 21
39.144
  0
LINE
  8
0
 10
41.1775
 20
39.144
 11
42.0945
 21
38.0356
  0
LINE
  8
0
 10
42.0945
 20
38.0356
 11
42.9401
 21
36.8717
  0
LINE
  8
0
 10
42.9401
 20
36.8717
 11
43.711
 21
35.657
  0
LINE
  8
0
 10
43.711
 20
35.657
 11
44.404
 21
34.3964
  0
LINE
  8
0
 10
44.404
 20
34.3964
 11
45.0166
 21
33.0947
  0
LINE
  8
0
 10
45.0166
 20
33.0947
 11
45.5462
 21
31.7571
  0
LINE
  8
0
 10
45.5462
 20
31.7571
 11
45.9907
 21
30.3889
  0
LINE
  8
0
 10
45.9907
 20
30.3889
 11
46.3485
 21
28.9955
  0
LINE
  8
0
 10
46.3485
 20
28.9955
 11
46.6181
 21
27.5823
  0
LINE
  8
0
 10
46.6181
 20
27.5823
 11
46.7984
 21
26.1551
  0
LINE
  8
0
 10
46.7984
 20
26.1551
 11
46.8887
 21
24.7193
  0
LINE
  8
0
 10
46.8887
 20
24.7193
 11
46.8887
 21
-24.7193
  0
LINE
  8
0
 10
46.8887
 20
-24.7193
 11
46.7984
 21
-26.1551
  0
LINE
  8
0
 10
46.7984
 20
-26.1551
 11
46.6181
 21
-27.5823
  0
LINE
  8
0
 10
46.6181
 20
-27.5823
 11
46.3485
 21
-28.9955
  0
LINE
  8
0
 10
46.3485
 20
-28.9955
 11
45.9907
 21
-30.3889
  0
LINE
  8
0
 10
45.9907
 20
-30.3889
 11
45.5462
 21
-31.7571
  0
LINE
  8
0
 10
45.5462
 20
-31.7571
 11
45.0166
 21
-33.0947
  0
LINE
  8
0
 10
45.0166
 20
-33.0947
 11
44.404
 21
-34.3964
  0
LINE
  8
0
 10
44.404
 20
-34.3964
 11
43.711
 21
-35.657
  0
LINE
  8
0
 10
43.711
 20
-35.657
 11
42.9401
 21
-36.8717
  0
LINE
  8
0
 10
42.9401
 20
-36.8717
 11
42.0945
 21
-38.0356
  0
LINE
  8
0
 10
42.0945
 20
-38.0356
 11
41.1775
 21
-39.144
  0
LINE
  8
0
 10
41.1775
 20
-39.144
 11
40.1927
 21
-40.1927
  0
LINE
  8
0
 10
40.1927
 20
-40.1927
 11
39.144
 21
-41.1775
  0
LINE
  8
0
 10
39.144
 20
-41.1775
 11
38.0356
 21
-42.0945
  0
LINE
  8
0
 10
38.0356
 20
-42.0945
 11
36.8717
 21
-42.9401
  0
LINE
  8
0
 10
36.8717
 20
-42.9401
 11
35.657
 21
-43.711
  0
LINE
  8
0
 10
35.657
 20
-43.711
 11
34.3964
 21
-44.404
  0
LINE
  8
0
 10
34.3964
 20
-44.404
 11
33.0947
 21
-45.0166
  0
LINE
  8
0
 10
33.0947
 20
-45.0166
 11
31.7571
 21
-45.5462
  0
LINE
  8
0
 10
31.7571
 20
-45.5462
 11
30.3889
 21
-45.9907
  0
LINE
  8
0
 10
30.3889
 20
-45.9907
 11
28.9955
 21
-46.3485
  0
LINE
  8
0
 10
28.9955
 20
-46.3485
 11
27.5823
 21
-46.6181
  0
LINE
  8
0
 10
27.5823
 20
-46.6181
 11
26.1551
 21
-46.7984
  0
LINE
  8
0
 10
26.1551
 20
-46.7984
 11
24.7193
 21
-46.8887
  0
LINE
  8
0
 10
24.7193
 20
-46.8887
 11
-24.7193
 21
-46.8887
  0
ENDSEC
  0
SECTION
  2
OBJECTS
  0
DICTIONARY
  0
ENDSEC
  0
EOF
