  0
SECTION
  2
HEADER
  9
$ACADVER
  1
AC1009
  9
$EXTMIN
 10
0.0
 20
0.0
 30
0.0
  9
$EXTMAX
 10
1000.0
 20
1000.0
 30
0.0
  9
$FILLMODE
 70
 0
  9
$SPLFRAME
 70
 1
  0
ENDSEC
  0
SECTION
  2
TABLES
  0
TABLE
  2
LAYER
 70
1
  0
LAYER
  2
0
 70
     0
 62
     7
  6
CONTINUOUS
  0
ENDTAB
  0
ENDSEC
  0
SECTION
  2
ENTITIES
  0
POLYLINE
  8
0
 62
     0
 66
     1
 10
0
 20
0
 30
0.0
 40
0.48
 41
0.48
  0
VERTEX
  8
0
 10
0.908311
 20
0.313314
 30
0.0
 40
0.00666667
 41
0.00666667
  0
VERTEX
  8
0
 10
3.34831
 20
0.313314
 30
0.0
 40
0.00666667
 41
0.00666667
  0
SEQEND
 8
0
  0
POLYLINE
  8
0
 62
     0
 66
     1
 10
0
 20
0
 30
0.0
 40
0.48
 41
0.48
  0
VERTEX
  8
0
 10
3.34831
 20
0.313314
 30
0.0
 40
0.00666667
 41
0.00666667
  0
VERTEX
  8
0
 10
3.34831
 20
2.75499
 30
0.0
 40
0.00666667
 41
0.00666667
  0
SEQEND
 8
0
  0
POLYLINE
  8
0
 62
     0
 66
     1
 10
0
 20
0
 30
0.0
 40
0.48
 41
0.48
  0
VERTEX
  8
0
 10
3.34831
 20
2.75499
 30
0.0
 40
0.00666667
 41
0.00666667
  0
VERTEX
  8
0
 10
0.908311
 20
2.75499
 30
0.0
 40
0.00666667
 41
0.00666667
  0
SEQEND
 8
0
  0
POLYLINE
  8
0
 62
     0
 66
     1
 10
0
 20
0
 30
0.0
 40
0.48
 41
0.48
  0
VERTEX
  8
0
 10
0.908311
 20
2.75499
 30
0.0
 40
0.00666667
 41
0.00666667
  0
VERTEX
  8
0
 10
0.908311
 20
0.313314
 30
0.0
 40
0.00666667
 41
0.00666667
  0
SEQEND
 8
0
  0
POLYLINE
  8
0
 62
     0
 66
     1
 10
0
 20
0
 30
0.0
 40
0.48
 41
0.48
  0
VERTEX
  8
0
 10
0.908311
 20
2.75499
 30
0.0
 40
0.00666667
 41
0.00666667
  0
VERTEX
  8
0
 10
0.586643
 20
2.75499
 30
0.0
 40
0.00666667
 41
0.00666667
  0
SEQEND
 8
0
  0
POLYLINE
  8
0
 62
     0
 66
     1
 10
0
 20
0
 30
0.0
 40
0.48
 41
0.48
  0
VERTEX
  8
0
 10
0.664985
 20
2.75499
 30
0.0
 40
0.00666667
 41
0.00666667
  0
VERTEX
  8
0
 10
0.689996
 20
2.55832
 30
0.0
 40
0.00666667
 41
0.00666667
  0
SEQEND
 8
0
  0
POLYLINE
  8
0
 62
     0
 66
     1
 10
0
 20
0
 30
0.0
 40
0.48
 41
0.48
  0
VERTEX
  8
0
 10
0.689996
 20
2.55832
 30
0.0
 40
0.00666667
 41
0.00666667
  0
VERTEX
  8
0
 10
0.664985
 20
2.57667
 30
0.0
 40
0.00666667
 41
0.00666667
  0
SEQEND
 8
0
  0
POLYLINE
  8
0
 62
     0
 66
     1
 10
0
 20
0
 30
0.0
 40
0.48
 41
0.48
  0
VERTEX
  8
0
 10
0.664985
 20
2.57667
 30
0.0
 40
0.00666667
 41
0.00666667
  0
VERTEX
  8
0
 10
0.638346
 20
2.55832
 30
0.0
 40
0.00666667
 41
0.00666667
  0
SEQEND
 8
0
  0
POLYLINE
  8
0
 62
     0
 66
     1
 10
0
 20
0
 30
0.0
 40
0.48
 41
0.48
  0
VERTEX
  8
0
 10
0.638346
 20
2.55832
 30
0.0
 40
0.00666667
 41
0.00666667
  0
VERTEX
  8
0
 10
0.664985
 20
2.75499
 30
0.0
 40
0.00666667
 41
0.00666667
  0
SEQEND
 8
0
  0
POLYLINE
  8
0
 62
     0
 66
     1
 10
0
 20
0
 30
0.0
 40
0.48
 41
0.48
  0
VERTEX
  8
0
 10
0.664985
 20
0.313314
 30
0.0
 40
0.00666667
 41
0.00666667
  0
VERTEX
  8
0
 10
0.638346
 20
0.509983
 30
0.0
 40
0.00666667
 41
0.00666667
  0
SEQEND
 8
0
  0
POLYLINE
  8
0
 62
     0
 66
     1
 10
0
 20
0
 30
0.0
 40
0.48
 41
0.48
  0
VERTEX
  8
0
 10
0.638346
 20
0.509983
 30
0.0
 40
0.00666667
 41
0.00666667
  0
VERTEX
  8
0
 10
0.664985
 20
0.490018
 30
0.0
 40
0.00666667
 41
0.00666667
  0
SEQEND
 8
0
  0
POLYLINE
  8
0
 62
     0
 66
     1
 10
0
 20
0
 30
0.0
 40
0.48
 41
0.48
  0
VERTEX
  8
0
 10
0.664985
 20
0.490018
 30
0.0
 40
0.00666667
 41
0.00666667
  0
VERTEX
  8
0
 10
0.689996
 20
0.509983
 30
0.0
 40
0.00666667
 41
0.00666667
  0
SEQEND
 8
0
  0
POLYLINE
  8
0
 62
     0
 66
     1
 10
0
 20
0
 30
0.0
 40
0.48
 41
0.48
  0
VERTEX
  8
0
 10
0.689996
 20
0.509983
 30
0.0
 40
0.00666667
 41
0.00666667
  0
VERTEX
  8
0
 10
0.664985
 20
0.313314
 30
0.0
 40
0.00666667
 41
0.00666667
  0
SEQEND
 8
0
  0
POLYLINE
  8
0
 62
     0
 66
     1
 10
0
 20
0
 30
0.0
 40
0.48
 41
0.48
  0
VERTEX
  8
0
 10
0.664985
 20
2.75499
 30
0.0
 40
0.00666667
 41
0.00666667
  0
VERTEX
  8
0
 10
0.664985
 20
0.313314
 30
0.0
 40
0.00666667
 41
0.00666667
  0
SEQEND
 8
0
  0
POLYLINE
  8
0
 62
     0
 66
     1
 10
0
 20
0
 30
0.0
 40
0.48
 41
0.48
  0
VERTEX
  8
0
 10
0.908311
 20
0.313314
 30
0.0
 40
0.00666667
 41
0.00666667
  0
VERTEX
  8
0
 10
0.586643
 20
0.313314
 30
0.0
 40
0.00666667
 41
0.00666667
  0
SEQEND
 8
0
  0
POLYLINE
  8
0
 62
     0
 66
     1
 10
0
 20
0
 30
0.0
 70
     1
 40
0
 41
0
  0
VERTEX
  8
0
 10
0.461914
 20
1.43778
 30
0.0
 40
0
 41
0
  0
VERTEX
  8
0
 10
0.522244
 20
1.41672
 30
0.0
 40
0
 41
0
  0
VERTEX
  8
0
 10
0.523167
 20
1.4159
 30
0.0
 40
0
 41
0
  0
VERTEX
  8
0
 10
0.531847
 20
1.41471
 30
0.0
 40
0
 41
0
  0
VERTEX
  8
0
 10
0.541775
 20
1.41694
 30
0.0
 40
0
 41
0
  0
VERTEX
  8
0
 10
0.543294
 20
1.41781
 30
0.0
 40
0
 41
0
  0
VERTEX
  8
0
 10
0.544271
 20
1.41851
 30
0.0
 40
0
 41
0
  0
VERTEX
  8
0
 10
0.552192
 20
1.43056
 30
0.0
 40
0
 41
0
  0
VERTEX
  8
0
 10
0.552192
 20
1.43451
 30
0.0
 40
0
 41
0
  0
VERTEX
  8
0
 10
0.552192
 20
1.44883
 30
0.0
 40
0
 41
0
  0
VERTEX
  8
0
 10
0.552083
 20
1.45036
 30
0.0
 40
0
 41
0
  0
VERTEX
  8
0
 10
0.544922
 20
1.47
 30
0.0
 40
0
 41
0
  0
VERTEX
  8
0
 10
0.543511
 20
1.47185
 30
0.0
 40
0
 41
0
  0
VERTEX
  8
0
 10
0.541504
 20
1.47364
 30
0.0
 40
0
 41
0
  0
VERTEX
  8
0
 10
0.524306
 20
1.48676
 30
0.0
 40
0
 41
0
  0
VERTEX
  8
0
 10
0.522244
 20
1.48747
 30
0.0
 40
0
 41
0
  0
VERTEX
  8
0
 10
0.492079
 20
1.49789
 30
0.0
 40
0
 41
0
  0
VERTEX
  8
0
 10
0.489094
 20
1.49756
 30
0.0
 40
0
 41
0
  0
VERTEX
  8
0
 10
0.479167
 20
1.49832
 30
0.0
 40
0
 41
0
  0
VERTEX
  8
0
 10
0.472222
 20
1.4981
 30
0.0
 40
0
 41
0
  0
VERTEX
  8
0
 10
0.470811
 20
1.49724
 30
0.0
 40
0
 41
0
  0
VERTEX
  8
0
 10
0.469075
 20
1.49533
 30
0.0
 40
0
 41
0
  0
VERTEX
  8
0
 10
0.463758
 20
1.48893
 30
0.0
 40
0
 41
0
  0
VERTEX
  8
0
 10
0.461914
 20
1.48247
 30
0.0
 40
0
 41
0
  0
VERTEX
  8
0
 10
0.461914
 20
1.48031
 30
0.0
 40
0
 41
0
  0
VERTEX
  8
0
 10
0.461914
 20
1.43778
 30
0.0
 40
0
 41
0
  0
SEQEND
 8
0
  0
POLYLINE
  8
0
 62
     0
 66
     1
 10
0
 20
0
 30
0.0
 70
     1
 40
0
 41
0
  0
VERTEX
  8
0
 10
0.462349
 20
1.42324
 30
0.0
 40
0
 41
0
  0
VERTEX
  8
0
 10
0.456868
 20
1.42421
 30
0.0
 40
0
 41
0
  0
VERTEX
  8
0
 10
0.433757
 20
1.43571
 30
0.0
 40
0
 41
0
  0
VERTEX
  8
0
 10
0.413628
 20
1.45329
 30
0.0
 40
0
 41
0
  0
VERTEX
  8
0
 10
0.409614
 20
1.45731
 30
0.0
 40
0
 41
0
  0
VERTEX
  8
0
 10
0.404351
 20
1.46158
 30
0.0
 40
0
 41
0
  0
VERTEX
  8
0
 10
0.386014
 20
1.48529
 30
0.0
 40
0
 41
0
  0
VERTEX
  8
0
 10
0.374349
 20
1.51178
 30
0.0
 40
0
 41
0
  0
VERTEX
  8
0
 10
0.372504
 20
1.51742
 30
0.0
 40
0
 41
0
  0
VERTEX
  8
0
 10
0.371853
 20
1.52067
 30
0.0
 40
0
 41
0
  0
VERTEX
  8
0
 10
0.371853
 20
1.52067
 30
0.0
 40
0
 41
0
  0
VERTEX
  8
0
 10
0.373643
 20
1.52463
 30
0.0
 40
0
 41
0
  0
VERTEX
  8
0
 10
0.374024
 20
1.52479
 30
0.0
 40
0
 41
0
  0
VERTEX
  8
0
 10
0.374024
 20
1.52458
 30
0.0
 40
0
 41
0
  0
VERTEX
  8
0
 10
0.375706
 20
1.52399
 30
0.0
 40
0
 41
0
  0
VERTEX
  8
0
 10
0.378147
 20
1.52539
 30
0.0
 40
0
 41
0
  0
VERTEX
  8
0
 10
0.378581
 20
1.52522
 30
0.0
 40
0
 41
0
  0
VERTEX
  8
0
 10
0.378418
 20
1.52474
 30
0.0
 40
0
 41
0
  0
VERTEX
  8
0
 10
0.379232
 20
1.52274
 30
0.0
 40
0
 41
0
  0
VERTEX
  8
0
 10
0.381565
 20
1.52333
 30
0.0
 40
0
 41
0
  0
VERTEX
  8
0
 10
0.381836
 20
1.52306
 30
0.0
 40
0
 41
0
  0
VERTEX
  8
0
 10
0.381456
 20
1.52251
 30
0.0
 40
0
 41
0
  0
VERTEX
  8
0
 10
0.381782
 20
1.51981
 30
0.0
 40
0
 41
0
  0
VERTEX
  8
0
 10
0.384386
 20
1.51904
 30
0.0
 40
0
 41
0
  0
VERTEX
  8
0
 10
0.384657
 20
1.5185
 30
0.0
 40
0
 41
0
  0
VERTEX
  8
0
 10
0.385308
 20
1.51525
 30
0.0
 40
0
 41
0
  0
VERTEX
  8
0
 10
0.38661
 20
1.51178
 30
0.0
 40
0
 41
0
  0
VERTEX
  8
0
 10
0.389649
 20
1.50461
 30
0.0
 40
0
 41
0
  0
VERTEX
  8
0
 10
0.389649
 20
1.50299
 30
0.0
 40
0
 41
0
  0
VERTEX
  8
0
 10
0.395508
 20
1.49246
 30
0.0
 40
0
 41
0
  0
VERTEX
  8
0
 10
0.396158
 20
1.49137
 30
0.0
 40
0
 41
0
  0
VERTEX
  8
0
 10
0.396267
 20
1.48893
 30
0.0
 40
0
 41
0
  0
VERTEX
  8
0
 10
0.402399
 20
1.47894
 30
0.0
 40
0
 41
0
  0
VERTEX
  8
0
 10
0.412056
 20
1.46978
 30
0.0
 40
0
 41
0
  0
VERTEX
  8
0
 10
0.413954
 20
1.46772
 30
0.0
 40
0
 41
0
  0
VERTEX
  8
0
 10
0.415039
 20
1.4655
 30
0.0
 40
0
 41
0
  0
VERTEX
  8
0
 10
0.421821
 20
1.4585
 30
0.0
 40
0
 41
0
  0
VERTEX
  8
0
 10
0.429471
 20
1.45356
 30
0.0
 40
0
 41
0
  0
VERTEX
  8
0
 10
0.431099
 20
1.45231
 30
0.0
 40
0
 41
0
  0
VERTEX
  8
0
 10
0.432237
 20
1.45036
 30
0.0
 40
0
 41
0
  0
VERTEX
  8
0
 10
0.439725
 20
1.44499
 30
0.0
 40
0
 41
0
  0
VERTEX
  8
0
 10
0.4477
 20
1.44265
 30
0.0
 40
0
 41
0
  0
VERTEX
  8
0
 10
0.44911
 20
1.44211
 30
0.0
 40
0
 41
0
  0
VERTEX
  8
0
 10
0.44911
 20
1.48443
 30
0.0
 40
0
 41
0
  0
VERTEX
  8
0
 10
0.448351
 20
1.48742
 30
0.0
 40
0
 41
0
  0
VERTEX
  8
0
 10
0.451118
 20
1.49978
 30
0.0
 40
0
 41
0
  0
VERTEX
  8
0
 10
0.459581
 20
1.50896
 30
0.0
 40
0
 41
0
  0
VERTEX
  8
0
 10
0.461697
 20
1.51025
 30
0.0
 40
0
 41
0
  0
VERTEX
  8
0
 10
0.463108
 20
1.51064
 30
0.0
 40
0
 41
0
  0
VERTEX
  8
0
 10
0.474718
 20
1.51335
 30
0.0
 40
0
 41
0
  0
VERTEX
  8
0
 10
0.489475
 20
1.51307
 30
0.0
 40
0
 41
0
  0
VERTEX
  8
0
 10
0.492512
 20
1.51199
 30
0.0
 40
0
 41
0
  0
VERTEX
  8
0
 10
0.521593
 20
1.50201
 30
0.0
 40
0
 41
0
  0
VERTEX
  8
0
 10
0.523546
 20
1.50065
 30
0.0
 40
0
 41
0
  0
VERTEX
  8
0
 10
0.536783
 20
1.49263
 30
0.0
 40
0
 41
0
  0
VERTEX
  8
0
 10
0.550239
 20
1.48161
 30
0.0
 40
0
 41
0
  0
VERTEX
  8
0
 10
0.552408
 20
1.47879
 30
0.0
 40
0
 41
0
  0
VERTEX
  8
0
 10
0.554363
 20
1.47532
 30
0.0
 40
0
 41
0
  0
VERTEX
  8
0
 10
0.561686
 20
1.46067
 30
0.0
 40
0
 41
0
  0
VERTEX
  8
0
 10
0.564996
 20
1.4484
 30
0.0
 40
0
 41
0
  0
VERTEX
  8
0
 10
0.564996
 20
1.44428
 30
0.0
 40
0
 41
0
  0
VERTEX
  8
0
 10
0.564996
 20
1.42996
 30
0.0
 40
0
 41
0
  0
VERTEX
  8
0
 10
0.564996
 20
1.42367
 30
0.0
 40
0
 41
0
  0
VERTEX
  8
0
 10
0.555012
 20
1.40631
 30
0.0
 40
0
 41
0
  0
VERTEX
  8
0
 10
0.55306
 20
1.40479
 30
0.0
 40
0
 41
0
  0
VERTEX
  8
0
 10
0.55089
 20
1.403
 30
0.0
 40
0
 41
0
  0
VERTEX
  8
0
 10
0.539442
 20
1.39919
 30
0.0
 40
0
 41
0
  0
VERTEX
  8
0
 10
0.526475
 20
1.40099
 30
0.0
 40
0
 41
0
  0
VERTEX
  8
0
 10
0.523546
 20
1.40196
 30
0.0
 40
0
 41
0
  0
VERTEX
  8
0
 10
0.462349
 20
1.42324
 30
0.0
 40
0
 41
0
  0
SEQEND
 8
0
  0
POLYLINE
  8
0
 62
     0
 66
     1
 10
0
 20
0
 30
0.0
 70
     1
 40
0
 41
0
  0
VERTEX
  8
0
 10
0.564996
 20
1.60622
 30
0.0
 40
0
 41
0
  0
VERTEX
  8
0
 10
0.564996
 20
1.51964
 30
0.0
 40
0
 41
0
  0
VERTEX
  8
0
 10
0.564996
 20
1.51861
 30
0.0
 40
0
 41
0
  0
VERTEX
  8
0
 10
0.563151
 20
1.51579
 30
0.0
 40
0
 41
0
  0
VERTEX
  8
0
 10
0.562825
 20
1.51551
 30
0.0
 40
0
 41
0
  0
VERTEX
  8
0
 10
0.561849
 20
1.51514
 30
0.0
 40
0
 41
0
  0
VERTEX
  8
0
 10
0.558865
 20
1.51417
 30
0.0
 40
0
 41
0
  0
VERTEX
  8
0
 10
0.557943
 20
1.51497
 30
0.0
 40
0
 41
0
  0
VERTEX
  8
0
 10
0.557617
 20
1.51508
 30
0.0
 40
0
 41
0
  0
VERTEX
  8
0
 10
0.556857
 20
1.51497
 30
0.0
 40
0
 41
0
  0
VERTEX
  8
0
 10
0.554363
 20
1.51682
 30
0.0
 40
0
 41
0
  0
VERTEX
  8
0
 10
0.554144
 20
1.51704
 30
0.0
 40
0
 41
0
  0
VERTEX
  8
0
 10
0.438911
 20
1.63465
 30
0.0
 40
0
 41
0
  0
VERTEX
  8
0
 10
0.433485
 20
1.63943
 30
0.0
 40
0
 41
0
  0
VERTEX
  8
0
 10
0.428711
 20
1.6429
 30
0.0
 40
0
 41
0
  0
VERTEX
  8
0
 10
0.427626
 20
1.64301
 30
0.0
 40
0
 41
0
  0
VERTEX
  8
0
 10
0.419163
 20
1.648
 30
0.0
 40
0
 41
0
  0
VERTEX
  8
0
 10
0.418294
 20
1.64833
 30
0.0
 40
0
 41
0
  0
VERTEX
  8
0
 10
0.415419
 20
1.64822
 30
0.0
 40
0
 41
0
  0
VERTEX
  8
0
 10
0.404568
 20
1.6486
 30
0.0
 40
0
 41
0
  0
VERTEX
  8
0
 10
0.396212
 20
1.64649
 30
0.0
 40
0
 41
0
  0
VERTEX
  8
0
 10
0.39464
 20
1.64507
 30
0.0
 40
0
 41
0
  0
VERTEX
  8
0
 10
0.393229
 20
1.64399
 30
0.0
 40
0
 41
0
  0
VERTEX
  8
0
 10
0.389432
 20
1.64008
 30
0.0
 40
0
 41
0
  0
VERTEX
  8
0
 10
0.388129
 20
1.63678
 30
0.0
 40
0
 41
0
  0
VERTEX
  8
0
 10
0.387696
 20
1.63574
 30
0.0
 40
0
 41
0
  0
VERTEX
  8
0
 10
0.38699
 20
1.63385
 30
0.0
 40
0
 41
0
  0
VERTEX
  8
0
 10
0.385146
 20
1.62804
 30
0.0
 40
0
 41
0
  0
VERTEX
  8
0
 10
0.384874
 20
1.62424
 30
0.0
 40
0
 41
0
  0
VERTEX
  8
0
 10
0.384874
 20
1.62294
 30
0.0
 40
0
 41
0
  0
VERTEX
  8
0
 10
0.384819
 20
1.62136
 30
0.0
 40
0
 41
0
  0
VERTEX
  8
0
 10
0.388835
 20
1.60508
 30
0.0
 40
0
 41
0
  0
VERTEX
  8
0
 10
0.389649
 20
1.6034
 30
0.0
 40
0
 41
0
  0
VERTEX
  8
0
 10
0.389974
 20
1.60107
 30
0.0
 40
0
 41
0
  0
VERTEX
  8
0
 10
0.395236
 20
1.59261
 30
0.0
 40
0
 41
0
  0
VERTEX
  8
0
 10
0.403592
 20
1.58583
 30
0.0
 40
0
 41
0
  0
VERTEX
  8
0
 10
0.40549
 20
1.58431
 30
0.0
 40
0
 41
0
  0
VERTEX
  8
0
 10
0.405274
 20
1.58393
 30
0.0
 40
0
 41
0
  0
VERTEX
  8
0
 10
0.408311
 20
1.58117
 30
0.0
 40
0
 41
0
  0
VERTEX
  8
0
 10
0.408529
 20
1.58083
 30
0.0
 40
0
 41
0
  0
VERTEX
  8
0
 10
0.408094
 20
1.58008
 30
0.0
 40
0
 41
0
  0
VERTEX
  8
0
 10
0.407824
 20
1.57721
 30
0.0
 40
0
 41
0
  0
VERTEX
  8
0
 10
0.40956
 20
1.57676
 30
0.0
 40
0
 41
0
  0
VERTEX
  8
0
 10
0.409614
 20
1.5765
 30
0.0
 40
0
 41
0
  0
VERTEX
  8
0
 10
0.409017
 20
1.57574
 30
0.0
 40
0
 41
0
  0
VERTEX
  8
0
 10
0.407769
 20
1.57286
 30
0.0
 40
0
 41
0
  0
VERTEX
  8
0
 10
0.407932
 20
1.57221
 30
0.0
 40
0
 41
0
  0
VERTEX
  8
0
 10
0.407878
 20
1.57215
 30
0.0
 40
0
 41
0
  0
VERTEX
  8
0
 10
0.407118
 20
1.57172
 30
0.0
 40
0
 41
0
  0
VERTEX
  8
0
 10
0.404731
 20
1.57064
 30
0.0
 40
0
 41
0
  0
VERTEX
  8
0
 10
0.403863
 20
1.5714
 30
0.0
 40
0
 41
0
  0
VERTEX
  8
0
 10
0.403538
 20
1.5715
 30
0.0
 40
0
 41
0
  0
VERTEX
  8
0
 10
0.401367
 20
1.5726
 30
0.0
 40
0
 41
0
  0
VERTEX
  8
0
 10
0.398546
 20
1.574
 30
0.0
 40
0
 41
0
  0
VERTEX
  8
0
 10
0.38775
 20
1.58399
 30
0.0
 40
0
 41
0
  0
VERTEX
  8
0
 10
0.379992
 20
1.59614
 30
0.0
 40
0
 41
0
  0
VERTEX
  8
0
 10
0.378797
 20
1.59864
 30
0.0
 40
0
 41
0
  0
VERTEX
  8
0
 10
0.376953
 20
1.60058
 30
0.0
 40
0
 41
0
  0
VERTEX
  8
0
 10
0.372558
 20
1.61199
 30
0.0
 40
0
 41
0
  0
VERTEX
  8
0
 10
0.371853
 20
1.62315
 30
0.0
 40
0
 41
0
  0
VERTEX
  8
0
 10
0.371853
 20
1.62685
 30
0.0
 40
0
 41
0
  0
VERTEX
  8
0
 10
0.371744
 20
1.62989
 30
0.0
 40
0
 41
0
  0
VERTEX
  8
0
 10
0.375054
 20
1.64404
 30
0.0
 40
0
 41
0
  0
VERTEX
  8
0
 10
0.383029
 20
1.65587
 30
0.0
 40
0
 41
0
  0
VERTEX
  8
0
 10
0.385308
 20
1.65767
 30
0.0
 40
0
 41
0
  0
VERTEX
  8
0
 10
0.387587
 20
1.65901
 30
0.0
 40
0
 41
0
  0
VERTEX
  8
0
 10
0.400933
 20
1.66368
 30
0.0
 40
0
 41
0
  0
VERTEX
  8
0
 10
0.416232
 20
1.66342
 30
0.0
 40
0
 41
0
  0
VERTEX
  8
0
 10
0.419596
 20
1.66222
 30
0.0
 40
0
 41
0
  0
VERTEX
  8
0
 10
0.420085
 20
1.66086
 30
0.0
 40
0
 41
0
  0
VERTEX
  8
0
 10
0.425347
 20
1.65787
 30
0.0
 40
0
 41
0
  0
VERTEX
  8
0
 10
0.431749
 20
1.65603
 30
0.0
 40
0
 41
0
  0
VERTEX
  8
0
 10
0.432835
 20
1.65528
 30
0.0
 40
0
 41
0
  0
VERTEX
  8
0
 10
0.433322
 20
1.65419
 30
0.0
 40
0
 41
0
  0
VERTEX
  8
0
 10
0.446397
 20
1.64442
 30
0.0
 40
0
 41
0
  0
VERTEX
  8
0
 10
0.447808
 20
1.64313
 30
0.0
 40
0
 41
0
  0
VERTEX
  8
0
 10
0.552192
 20
1.53787
 30
0.0
 40
0
 41
0
  0
VERTEX
  8
0
 10
0.552192
 20
1.61079
 30
0.0
 40
0
 41
0
  0
VERTEX
  8
0
 10
0.552083
 20
1.61111
 30
0.0
 40
0
 41
0
  0
VERTEX
  8
0
 10
0.553819
 20
1.61469
 30
0.0
 40
0
 41
0
  0
VERTEX
  8
0
 10
0.554144
 20
1.6149
 30
0.0
 40
0
 41
0
  0
VERTEX
  8
0
 10
0.554199
 20
1.61475
 30
0.0
 40
0
 41
0
  0
VERTEX
  8
0
 10
0.558051
 20
1.61594
 30
0.0
 40
0
 41
0
  0
VERTEX
  8
0
 10
0.558485
 20
1.61578
 30
0.0
 40
0
 41
0
  0
VERTEX
  8
0
 10
0.558322
 20
1.61535
 30
0.0
 40
0
 41
0
  0
VERTEX
  8
0
 10
0.562662
 20
1.61274
 30
0.0
 40
0
 41
0
  0
VERTEX
  8
0
 10
0.563043
 20
1.61231
 30
0.0
 40
0
 41
0
  0
VERTEX
  8
0
 10
0.5625
 20
1.61176
 30
0.0
 40
0
 41
0
  0
VERTEX
  8
0
 10
0.564996
 20
1.60764
 30
0.0
 40
0
 41
0
  0
VERTEX
  8
0
 10
0.564996
 20
1.60622
 30
0.0
 40
0
 41
0
  0
SEQEND
 8
0
  0
POLYLINE
  8
0
 62
     0
 66
     1
 10
0
 20
0
 30
0.0
 40
0.48
 41
0.48
  0
VERTEX
  8
0
 10
0.908311
 20
2.75499
 30
0.0
 40
0.00666667
 41
0.00666667
  0
VERTEX
  8
0
 10
0.908311
 20
3.13997
 30
0.0
 40
0.00666667
 41
0.00666667
  0
SEQEND
 8
0
  0
POLYLINE
  8
0
 62
     0
 66
     1
 10
0
 20
0
 30
0.0
 40
0.48
 41
0.48
  0
VERTEX
  8
0
 10
0.908311
 20
3.06168
 30
0.0
 40
0.00666667
 41
0.00666667
  0
VERTEX
  8
0
 10
1.10498
 20
3.08664
 30
0.0
 40
0.00666667
 41
0.00666667
  0
SEQEND
 8
0
  0
POLYLINE
  8
0
 62
     0
 66
     1
 10
0
 20
0
 30
0.0
 40
0.48
 41
0.48
  0
VERTEX
  8
0
 10
1.10498
 20
3.08664
 30
0.0
 40
0.00666667
 41
0.00666667
  0
VERTEX
  8
0
 10
1.08502
 20
3.06168
 30
0.0
 40
0.00666667
 41
0.00666667
  0
SEQEND
 8
0
  0
POLYLINE
  8
0
 62
     0
 66
     1
 10
0
 20
0
 30
0.0
 40
0.48
 41
0.48
  0
VERTEX
  8
0
 10
1.08502
 20
3.06168
 30
0.0
 40
0.00666667
 41
0.00666667
  0
VERTEX
  8
0
 10
1.10498
 20
3.035
 30
0.0
 40
0.00666667
 41
0.00666667
  0
SEQEND
 8
0
  0
POLYLINE
  8
0
 62
     0
 66
     1
 10
0
 20
0
 30
0.0
 40
0.48
 41
0.48
  0
VERTEX
  8
0
 10
1.10498
 20
3.035
 30
0.0
 40
0.00666667
 41
0.00666667
  0
VERTEX
  8
0
 10
0.908311
 20
3.06168
 30
0.0
 40
0.00666667
 41
0.00666667
  0
SEQEND
 8
0
  0
POLYLINE
  8
0
 62
     0
 66
     1
 10
0
 20
0
 30
0.0
 40
0.48
 41
0.48
  0
VERTEX
  8
0
 10
3.34831
 20
3.06168
 30
0.0
 40
0.00666667
 41
0.00666667
  0
VERTEX
  8
0
 10
3.15169
 20
3.035
 30
0.0
 40
0.00666667
 41
0.00666667
  0
SEQEND
 8
0
  0
POLYLINE
  8
0
 62
     0
 66
     1
 10
0
 20
0
 30
0.0
 40
0.48
 41
0.48
  0
VERTEX
  8
0
 10
3.15169
 20
3.035
 30
0.0
 40
0.00666667
 41
0.00666667
  0
VERTEX
  8
0
 10
3.17165
 20
3.06168
 30
0.0
 40
0.00666667
 41
0.00666667
  0
SEQEND
 8
0
  0
POLYLINE
  8
0
 62
     0
 66
     1
 10
0
 20
0
 30
0.0
 40
0.48
 41
0.48
  0
VERTEX
  8
0
 10
3.17165
 20
3.06168
 30
0.0
 40
0.00666667
 41
0.00666667
  0
VERTEX
  8
0
 10
3.15169
 20
3.08664
 30
0.0
 40
0.00666667
 41
0.00666667
  0
SEQEND
 8
0
  0
POLYLINE
  8
0
 62
     0
 66
     1
 10
0
 20
0
 30
0.0
 40
0.48
 41
0.48
  0
VERTEX
  8
0
 10
3.15169
 20
3.08664
 30
0.0
 40
0.00666667
 41
0.00666667
  0
VERTEX
  8
0
 10
3.34831
 20
3.06168
 30
0.0
 40
0.00666667
 41
0.00666667
  0
SEQEND
 8
0
  0
POLYLINE
  8
0
 62
     0
 66
     1
 10
0
 20
0
 30
0.0
 40
0.48
 41
0.48
  0
VERTEX
  8
0
 10
0.908311
 20
3.06168
 30
0.0
 40
0.00666667
 41
0.00666667
  0
VERTEX
  8
0
 10
3.34831
 20
3.06168
 30
0.0
 40
0.00666667
 41
0.00666667
  0
SEQEND
 8
0
  0
POLYLINE
  8
0
 62
     0
 66
     1
 10
0
 20
0
 30
0.0
 40
0.48
 41
0.48
  0
VERTEX
  8
0
 10
3.34831
 20
2.75499
 30
0.0
 40
0.00666667
 41
0.00666667
  0
VERTEX
  8
0
 10
3.34831
 20
3.13997
 30
0.0
 40
0.00666667
 41
0.00666667
  0
SEQEND
 8
0
  0
POLYLINE
  8
0
 62
     0
 66
     1
 10
0
 20
0
 30
0.0
 70
     1
 40
0
 41
0
  0
VERTEX
  8
0
 10
2.02681
 20
3.259
 30
0.0
 40
0
 41
0
  0
VERTEX
  8
0
 10
2.00749
 20
3.20344
 30
0.0
 40
0
 41
0
  0
VERTEX
  8
0
 10
2.00581
 20
3.20171
 30
0.0
 40
0
 41
0
  0
VERTEX
  8
0
 10
2.00456
 20
3.19293
 30
0.0
 40
0
 41
0
  0
VERTEX
  8
0
 10
2.009
 20
3.18533
 30
0.0
 40
0
 41
0
  0
VERTEX
  8
0
 10
2.0101
 20
3.18392
 30
0.0
 40
0
 41
0
  0
VERTEX
  8
0
 10
2.01107
 20
3.18186
 30
0.0
 40
0
 41
0
  0
VERTEX
  8
0
 10
2.01801
 20
3.17671
 30
0.0
 40
0
 41
0
  0
VERTEX
  8
0
 10
2.02653
 20
3.17567
 30
0.0
 40
0
 41
0
  0
VERTEX
  8
0
 10
2.0294
 20
3.17567
 30
0.0
 40
0
 41
0
  0
VERTEX
  8
0
 10
2.04503
 20
3.17567
 30
0.0
 40
0
 41
0
  0
VERTEX
  8
0
 10
2.05132
 20
3.17567
 30
0.0
 40
0
 41
0
  0
VERTEX
  8
0
 10
2.06819
 20
3.1824
 30
0.0
 40
0
 41
0
  0
VERTEX
  8
0
 10
2.07021
 20
3.18371
 30
0.0
 40
0
 41
0
  0
VERTEX
  8
0
 10
2.07167
 20
3.1844
 30
0.0
 40
0
 41
0
  0
VERTEX
  8
0
 10
2.07937
 20
3.19168
 30
0.0
 40
0
 41
0
  0
VERTEX
  8
0
 10
2.08556
 20
3.2015
 30
0.0
 40
0
 41
0
  0
VERTEX
  8
0
 10
2.08626
 20
3.20344
 30
0.0
 40
0
 41
0
  0
VERTEX
  8
0
 10
2.09603
 20
3.23122
 30
0.0
 40
0
 41
0
  0
VERTEX
  8
0
 10
2.09631
 20
3.23318
 30
0.0
 40
0
 41
0
  0
VERTEX
  8
0
 10
2.09467
 20
3.24946
 30
0.0
 40
0
 41
0
  0
VERTEX
  8
0
 10
2.09364
 20
3.25076
 30
0.0
 40
0
 41
0
  0
VERTEX
  8
0
 10
2.09244
 20
3.25168
 30
0.0
 40
0
 41
0
  0
VERTEX
  8
0
 10
2.07867
 20
3.259
 30
0.0
 40
0
 41
0
  0
VERTEX
  8
0
 10
2.07411
 20
3.259
 30
0.0
 40
0
 41
0
  0
VERTEX
  8
0
 10
2.02681
 20
3.259
 30
0.0
 40
0
 41
0
  0
SEQEND
 8
0
  0
POLYLINE
  8
0
 62
     0
 66
     1
 10
0
 20
0
 30
0.0
 70
     1
 40
0
 41
0
  0
VERTEX
  8
0
 10
2.01594
 20
3.26508
 30
0.0
 40
0
 41
0
  0
VERTEX
  8
0
 10
2.01699
 20
3.26942
 30
0.0
 40
0
 41
0
  0
VERTEX
  8
0
 10
2.02854
 20
3.29204
 30
0.0
 40
0
 41
0
  0
VERTEX
  8
0
 10
2.04585
 20
3.31424
 30
0.0
 40
0
 41
0
  0
VERTEX
  8
0
 10
2.04981
 20
3.31825
 30
0.0
 40
0
 41
0
  0
VERTEX
  8
0
 10
2.053
 20
3.32232
 30
0.0
 40
0
 41
0
  0
VERTEX
  8
0
 10
2.07622
 20
3.34017
 30
0.0
 40
0
 41
0
  0
VERTEX
  8
0
 10
2.10428
 20
3.35374
 30
0.0
 40
0
 41
0
  0
VERTEX
  8
0
 10
2.10992
 20
3.35558
 30
0.0
 40
0
 41
0
  0
VERTEX
  8
0
 10
2.11317
 20
3.35622
 30
0.0
 40
0
 41
0
  0
VERTEX
  8
0
 10
2.11317
 20
3.35622
 30
0.0
 40
0
 41
0
  0
VERTEX
  8
0
 10
2.11708
 20
3.35444
 30
0.0
 40
0
 41
0
  0
VERTEX
  8
0
 10
2.11729
 20
3.35406
 30
0.0
 40
0
 41
0
  0
VERTEX
  8
0
 10
2.11681
 20
3.35331
 30
0.0
 40
0
 41
0
  0
VERTEX
  8
0
 10
2.11649
 20
3.35026
 30
0.0
 40
0
 41
0
  0
VERTEX
  8
0
 10
2.11757
 20
3.34924
 30
0.0
 40
0
 41
0
  0
VERTEX
  8
0
 10
2.11751
 20
3.34907
 30
0.0
 40
0
 41
0
  0
VERTEX
  8
0
 10
2.11681
 20
3.34853
 30
0.0
 40
0
 41
0
  0
VERTEX
  8
0
 10
2.11513
 20
3.34636
 30
0.0
 40
0
 41
0
  0
VERTEX
  8
0
 10
2.1154
 20
3.34571
 30
0.0
 40
0
 41
0
  0
VERTEX
  8
0
 10
2.11535
 20
3.3456
 30
0.0
 40
0
 41
0
  0
VERTEX
  8
0
 10
2.11426
 20
3.34511
 30
0.0
 40
0
 41
0
  0
VERTEX
  8
0
 10
2.11111
 20
3.34283
 30
0.0
 40
0
 41
0
  0
VERTEX
  8
0
 10
2.11057
 20
3.34256
 30
0.0
 40
0
 41
0
  0
VERTEX
  8
0
 10
2.10732
 20
3.34169
 30
0.0
 40
0
 41
0
  0
VERTEX
  8
0
 10
2.1034
 20
3.34039
 30
0.0
 40
0
 41
0
  0
VERTEX
  8
0
 10
2.09625
 20
3.33712
 30
0.0
 40
0
 41
0
  0
VERTEX
  8
0
 10
2.09472
 20
3.33594
 30
0.0
 40
0
 41
0
  0
VERTEX
  8
0
 10
2.08388
 20
3.33068
 30
0.0
 40
0
 41
0
  0
VERTEX
  8
0
 10
2.08279
 20
3.32997
 30
0.0
 40
0
 41
0
  0
VERTEX
  8
0
 10
2.0804
 20
3.32872
 30
0.0
 40
0
 41
0
  0
VERTEX
  8
0
 10
2.06054
 20
3.31293
 30
0.0
 40
0
 41
0
  0
VERTEX
  8
0
 10
2.05849
 20
3.31087
 30
0.0
 40
0
 41
0
  0
VERTEX
  8
0
 10
2.05638
 20
3.30865
 30
0.0
 40
0
 41
0
  0
VERTEX
  8
0
 10
2.04926
 20
3.30083
 30
0.0
 40
0
 41
0
  0
VERTEX
  8
0
 10
2.04372
 20
3.29394
 30
0.0
 40
0
 41
0
  0
VERTEX
  8
0
 10
2.04243
 20
3.29221
 30
0.0
 40
0
 41
0
  0
VERTEX
  8
0
 10
2.04064
 20
3.2901
 30
0.0
 40
0
 41
0
  0
VERTEX
  8
0
 10
2.03515
 20
3.28162
 30
0.0
 40
0
 41
0
  0
VERTEX
  8
0
 10
2.03228
 20
3.27442
 30
0.0
 40
0
 41
0
  0
VERTEX
  8
0
 10
2.03179
 20
3.27289
 30
0.0
 40
0
 41
0
  0
VERTEX
  8
0
 10
2.07758
 20
3.27289
 30
0.0
 40
0
 41
0
  0
VERTEX
  8
0
 10
2.08137
 20
3.27289
 30
0.0
 40
0
 41
0
  0
VERTEX
  8
0
 10
2.09278
 20
3.26986
 30
0.0
 40
0
 41
0
  0
VERTEX
  8
0
 10
2.10471
 20
3.26281
 30
0.0
 40
0
 41
0
  0
VERTEX
  8
0
 10
2.10622
 20
3.26074
 30
0.0
 40
0
 41
0
  0
VERTEX
  8
0
 10
2.10769
 20
3.25863
 30
0.0
 40
0
 41
0
  0
VERTEX
  8
0
 10
2.11024
 20
3.23415
 30
0.0
 40
0
 41
0
  0
VERTEX
  8
0
 10
2.10926
 20
3.23122
 30
0.0
 40
0
 41
0
  0
VERTEX
  8
0
 10
2.0995
 20
3.20344
 30
0.0
 40
0
 41
0
  0
VERTEX
  8
0
 10
2.09782
 20
3.20057
 30
0.0
 40
0
 41
0
  0
VERTEX
  8
0
 10
2.07894
 20
3.176
 30
0.0
 40
0
 41
0
  0
VERTEX
  8
0
 10
2.07607
 20
3.17393
 30
0.0
 40
0
 41
0
  0
VERTEX
  8
0
 10
2.07215
 20
3.1709
 30
0.0
 40
0
 41
0
  0
VERTEX
  8
0
 10
2.05681
 20
3.16331
 30
0.0
 40
0
 41
0
  0
VERTEX
  8
0
 10
2.04422
 20
3.16178
 30
0.0
 40
0
 41
0
  0
VERTEX
  8
0
 10
2.04004
 20
3.16178
 30
0.0
 40
0
 41
0
  0
VERTEX
  8
0
 10
2.02485
 20
3.16178
 30
0.0
 40
0
 41
0
  0
VERTEX
  8
0
 10
2.01812
 20
3.16178
 30
0.0
 40
0
 41
0
  0
VERTEX
  8
0
 10
1.99951
 20
3.17176
 30
0.0
 40
0
 41
0
  0
VERTEX
  8
0
 10
1.99794
 20
3.17372
 30
0.0
 40
0
 41
0
  0
VERTEX
  8
0
 10
1.99604
 20
3.17475
 30
0.0
 40
0
 41
0
  0
VERTEX
  8
0
 10
1.99181
 20
3.18576
 30
0.0
 40
0
 41
0
  0
VERTEX
  8
0
 10
1.99343
 20
3.20053
 30
0.0
 40
0
 41
0
  0
VERTEX
  8
0
 10
1.99447
 20
3.20344
 30
0.0
 40
0
 41
0
  0
VERTEX
  8
0
 10
2.01594
 20
3.26508
 30
0.0
 40
0
 41
0
  0
SEQEND
 8
0
  0
POLYLINE
  8
0
 62
     0
 66
     1
 10
0
 20
0
 30
0.0
 70
     1
 40
0
 41
0
  0
VERTEX
  8
0
 10
2.1996
 20
3.16178
 30
0.0
 40
0
 41
0
  0
VERTEX
  8
0
 10
2.11301
 20
3.16178
 30
0.0
 40
0
 41
0
  0
VERTEX
  8
0
 10
2.11193
 20
3.16178
 30
0.0
 40
0
 41
0
  0
VERTEX
  8
0
 10
2.10894
 20
3.16363
 30
0.0
 40
0
 41
0
  0
VERTEX
  8
0
 10
2.10867
 20
3.16396
 30
0.0
 40
0
 41
0
  0
VERTEX
  8
0
 10
2.10813
 20
3.16417
 30
0.0
 40
0
 41
0
  0
VERTEX
  8
0
 10
2.10824
 20
3.16889
 30
0.0
 40
0
 41
0
  0
VERTEX
  8
0
 10
2.10846
 20
3.16938
 30
0.0
 40
0
 41
0
  0
VERTEX
  8
0
 10
2.10846
 20
3.16938
 30
0.0
 40
0
 41
0
  0
VERTEX
  8
0
 10
2.11035
 20
3.17242
 30
0.0
 40
0
 41
0
  0
VERTEX
  8
0
 10
2.11062
 20
3.17264
 30
0.0
 40
0
 41
0
  0
VERTEX
  8
0
 10
2.23324
 20
3.28808
 30
0.0
 40
0
 41
0
  0
VERTEX
  8
0
 10
2.23822
 20
3.29351
 30
0.0
 40
0
 41
0
  0
VERTEX
  8
0
 10
2.24235
 20
3.2985
 30
0.0
 40
0
 41
0
  0
VERTEX
  8
0
 10
2.24235
 20
3.2985
 30
0.0
 40
0
 41
0
  0
VERTEX
  8
0
 10
2.24382
 20
3.30208
 30
0.0
 40
0
 41
0
  0
VERTEX
  8
0
 10
2.24724
 20
3.30783
 30
0.0
 40
0
 41
0
  0
VERTEX
  8
0
 10
2.24756
 20
3.30871
 30
0.0
 40
0
 41
0
  0
VERTEX
  8
0
 10
2.2481
 20
3.31039
 30
0.0
 40
0
 41
0
  0
VERTEX
  8
0
 10
2.24864
 20
3.32075
 30
0.0
 40
0
 41
0
  0
VERTEX
  8
0
 10
2.24528
 20
3.33094
 30
0.0
 40
0
 41
0
  0
VERTEX
  8
0
 10
2.24388
 20
3.33257
 30
0.0
 40
0
 41
0
  0
VERTEX
  8
0
 10
2.24218
 20
3.33296
 30
0.0
 40
0
 41
0
  0
VERTEX
  8
0
 10
2.23757
 20
3.33599
 30
0.0
 40
0
 41
0
  0
VERTEX
  8
0
 10
2.23454
 20
3.33908
 30
0.0
 40
0
 41
0
  0
VERTEX
  8
0
 10
2.23346
 20
3.33951
 30
0.0
 40
0
 41
0
  0
VERTEX
  8
0
 10
2.2321
 20
3.33908
 30
0.0
 40
0
 41
0
  0
VERTEX
  8
0
 10
2.22265
 20
3.34233
 30
0.0
 40
0
 41
0
  0
VERTEX
  8
0
 10
2.21957
 20
3.34233
 30
0.0
 40
0
 41
0
  0
VERTEX
  8
0
 10
2.21436
 20
3.34233
 30
0.0
 40
0
 41
0
  0
VERTEX
  8
0
 10
2.20047
 20
3.33838
 30
0.0
 40
0
 41
0
  0
VERTEX
  8
0
 10
2.19874
 20
3.33757
 30
0.0
 40
0
 41
0
  0
VERTEX
  8
0
 10
2.19607
 20
3.33604
 30
0.0
 40
0
 41
0
  0
VERTEX
  8
0
 10
2.18713
 20
3.33003
 30
0.0
 40
0
 41
0
  0
VERTEX
  8
0
 10
2.18028
 20
3.3234
 30
0.0
 40
0
 41
0
  0
VERTEX
  8
0
 10
2.17876
 20
3.3215
 30
0.0
 40
0
 41
0
  0
VERTEX
  8
0
 10
2.17811
 20
3.32064
 30
0.0
 40
0
 41
0
  0
VERTEX
  8
0
 10
2.17518
 20
3.31868
 30
0.0
 40
0
 41
0
  0
VERTEX
  8
0
 10
2.17486
 20
3.31847
 30
0.0
 40
0
 41
0
  0
VERTEX
  8
0
 10
2.17453
 20
3.31803
 30
0.0
 40
0
 41
0
  0
VERTEX
  8
0
 10
2.17074
 20
3.31749
 30
0.0
 40
0
 41
0
  0
VERTEX
  8
0
 10
2.17031
 20
3.31739
 30
0.0
 40
0
 41
0
  0
VERTEX
  8
0
 10
2.16932
 20
3.31722
 30
0.0
 40
0
 41
0
  0
VERTEX
  8
0
 10
2.16635
 20
3.31744
 30
0.0
 40
0
 41
0
  0
VERTEX
  8
0
 10
2.16581
 20
3.31885
 30
0.0
 40
0
 41
0
  0
VERTEX
  8
0
 10
2.16553
 20
3.31913
 30
0.0
 40
0
 41
0
  0
VERTEX
  8
0
 10
2.16553
 20
3.31913
 30
0.0
 40
0
 41
0
  0
VERTEX
  8
0
 10
2.16471
 20
3.32324
 30
0.0
 40
0
 41
0
  0
VERTEX
  8
0
 10
2.16488
 20
3.32368
 30
0.0
 40
0
 41
0
  0
VERTEX
  8
0
 10
2.16596
 20
3.32585
 30
0.0
 40
0
 41
0
  0
VERTEX
  8
0
 10
2.16749
 20
3.32753
 30
0.0
 40
0
 41
0
  0
VERTEX
  8
0
 10
2.178
 20
3.33811
 30
0.0
 40
0
 41
0
  0
VERTEX
  8
0
 10
2.19086
 20
3.34799
 30
0.0
 40
0
 41
0
  0
VERTEX
  8
0
 10
2.19353
 20
3.34928
 30
0.0
 40
0
 41
0
  0
VERTEX
  8
0
 10
2.19542
 20
3.34987
 30
0.0
 40
0
 41
0
  0
VERTEX
  8
0
 10
2.21576
 20
3.35622
 30
0.0
 40
0
 41
0
  0
VERTEX
  8
0
 10
2.2226
 20
3.35622
 30
0.0
 40
0
 41
0
  0
VERTEX
  8
0
 10
2.22706
 20
3.35622
 30
0.0
 40
0
 41
0
  0
VERTEX
  8
0
 10
2.2405
 20
3.35281
 30
0.0
 40
0
 41
0
  0
VERTEX
  8
0
 10
2.25342
 20
3.34483
 30
0.0
 40
0
 41
0
  0
VERTEX
  8
0
 10
2.25537
 20
3.34256
 30
0.0
 40
0
 41
0
  0
VERTEX
  8
0
 10
2.25646
 20
3.34017
 30
0.0
 40
0
 41
0
  0
VERTEX
  8
0
 10
2.26144
 20
3.32682
 30
0.0
 40
0
 41
0
  0
VERTEX
  8
0
 10
2.26193
 20
3.31179
 30
0.0
 40
0
 41
0
  0
VERTEX
  8
0
 10
2.26079
 20
3.30849
 30
0.0
 40
0
 41
0
  0
VERTEX
  8
0
 10
2.26014
 20
3.30675
 30
0.0
 40
0
 41
0
  0
VERTEX
  8
0
 10
2.25461
 20
3.29633
 30
0.0
 40
0
 41
0
  0
VERTEX
  8
0
 10
2.25385
 20
3.29525
 30
0.0
 40
0
 41
0
  0
VERTEX
  8
0
 10
2.25228
 20
3.29346
 30
0.0
 40
0
 41
0
  0
VERTEX
  8
0
 10
2.24724
 20
3.28722
 30
0.0
 40
0
 41
0
  0
VERTEX
  8
0
 10
2.24246
 20
3.28168
 30
0.0
 40
0
 41
0
  0
VERTEX
  8
0
 10
2.24104
 20
3.28028
 30
0.0
 40
0
 41
0
  0
VERTEX
  8
0
 10
2.13146
 20
3.17567
 30
0.0
 40
0
 41
0
  0
VERTEX
  8
0
 10
2.20437
 20
3.17567
 30
0.0
 40
0
 41
0
  0
VERTEX
  8
0
 10
2.2054
 20
3.17567
 30
0.0
 40
0
 41
0
  0
VERTEX
  8
0
 10
2.20822
 20
3.17389
 30
0.0
 40
0
 41
0
  0
VERTEX
  8
0
 10
2.2085
 20
3.1735
 30
0.0
 40
0
 41
0
  0
VERTEX
  8
0
 10
2.20833
 20
3.17264
 30
0.0
 40
0
 41
0
  0
VERTEX
  8
0
 10
2.20876
 20
3.16976
 30
0.0
 40
0
 41
0
  0
VERTEX
  8
0
 10
2.20942
 20
3.16894
 30
0.0
 40
0
 41
0
  0
VERTEX
  8
0
 10
2.20936
 20
3.16872
 30
0.0
 40
0
 41
0
  0
VERTEX
  8
0
 10
2.20861
 20
3.16775
 30
0.0
 40
0
 41
0
  0
VERTEX
  8
0
 10
2.20632
 20
3.16433
 30
0.0
 40
0
 41
0
  0
VERTEX
  8
0
 10
2.20589
 20
3.16396
 30
0.0
 40
0
 41
0
  0
VERTEX
  8
0
 10
2.20514
 20
3.16342
 30
0.0
 40
0
 41
0
  0
VERTEX
  8
0
 10
2.20096
 20
3.16178
 30
0.0
 40
0
 41
0
  0
VERTEX
  8
0
 10
2.1996
 20
3.16178
 30
0.0
 40
0
 41
0
  0
SEQEND
 8
0
  0
POLYLINE
  8
0
 62
     0
 66
     1
 10
0
 20
0
 30
0.0
 40
0.48
 41
0.48
  0
VERTEX
  8
0
 10
1.39165
 20
2.43668
 30
0.0
 40
0.00666667
 41
0.00666667
  0
VERTEX
  8
0
 10
1.92665
 20
1.90332
 30
0.0
 40
0.00666667
 41
0.00666667
  0
SEQEND
 8
0
  0
POLYLINE
  8
0
 62
     0
 66
     1
 10
0
 20
0
 30
0.0
 40
0.48
 41
0.48
  0
VERTEX
  8
0
 10
1.75836
 20
1.73665
 30
0.0
 40
0.00666667
 41
0.00666667
  0
VERTEX
  8
0
 10
1.22499
 20
2.27001
 30
0.0
 40
0.00666667
 41
0.00666667
  0
SEQEND
 8
0
  0
POLYLINE
  8
0
 62
     0
 66
     1
 10
0
 20
0
 30
0.0
 40
0.48
 41
0.48
  0
VERTEX
  8
0
 10
2.49669
 20
1.73665
 30
0.0
 40
0.00666667
 41
0.00666667
  0
VERTEX
  8
0
 10
3.03168
 20
2.27001
 30
0.0
 40
0.00666667
 41
0.00666667
  0
SEQEND
 8
0
  0
POLYLINE
  8
0
 62
     0
 66
     1
 10
0
 20
0
 30
0.0
 40
0.48
 41
0.48
  0
VERTEX
  8
0
 10
2.86501
 20
2.43668
 30
0.0
 40
0.00666667
 41
0.00666667
  0
VERTEX
  8
0
 10
2.33003
 20
1.90332
 30
0.0
 40
0.00666667
 41
0.00666667
  0
SEQEND
 8
0
  0
POLYLINE
  8
0
 62
     0
 66
     1
 10
0
 20
0
 30
0.0
 40
0.48
 41
0.48
  0
VERTEX
  8
0
 10
1.75836
 20
1.33165
 30
0.0
 40
0.00666667
 41
0.00666667
  0
VERTEX
  8
0
 10
1.22499
 20
0.79834
 30
0.0
 40
0.00666667
 41
0.00666667
  0
SEQEND
 8
0
  0
POLYLINE
  8
0
 62
     0
 66
     1
 10
0
 20
0
 30
0.0
 40
0.48
 41
0.48
  0
VERTEX
  8
0
 10
1.39165
 20
0.631674
 30
0.0
 40
0.00666667
 41
0.00666667
  0
VERTEX
  8
0
 10
1.92665
 20
1.16498
 30
0.0
 40
0.00666667
 41
0.00666667
  0
SEQEND
 8
0
  0
POLYLINE
  8
0
 62
     0
 66
     1
 10
0
 20
0
 30
0.0
 40
0.48
 41
0.48
  0
VERTEX
  8
0
 10
2.49669
 20
1.33165
 30
0.0
 40
0.00666667
 41
0.00666667
  0
VERTEX
  8
0
 10
3.03168
 20
0.79834
 30
0.0
 40
0.00666667
 41
0.00666667
  0
SEQEND
 8
0
  0
POLYLINE
  8
0
 62
     0
 66
     1
 10
0
 20
0
 30
0.0
 40
0.48
 41
0.48
  0
VERTEX
  8
0
 10
2.86501
 20
0.631674
 30
0.0
 40
0.00666667
 41
0.00666667
  0
VERTEX
  8
0
 10
2.33003
 20
1.16498
 30
0.0
 40
0.00666667
 41
0.00666667
  0
SEQEND
 8
0
  0
POLYLINE
  8
0
 62
     0
 66
     1
 10
0
 20
0
 30
0.0
 40
0.48
 41
0.48
  0
VERTEX
  8
0
 10
1.79335
 20
1.65332
 30
0.0
 40
0.00666667
 41
0.00666667
  0
VERTEX
  8
0
 10
1.79335
 20
1.41499
 30
0.0
 40
0.00666667
 41
0.00666667
  0
SEQEND
 8
0
  0
POLYLINE
  8
0
 62
     0
 66
     1
 10
0
 20
0
 30
0.0
 40
0.48
 41
0.48
  0
VERTEX
  8
0
 10
2.46332
 20
1.65332
 30
0.0
 40
0.00666667
 41
0.00666667
  0
VERTEX
  8
0
 10
2.46332
 20
1.41499
 30
0.0
 40
0.00666667
 41
0.00666667
  0
SEQEND
 8
0
  0
POLYLINE
  8
0
 62
     0
 66
     1
 10
0
 20
0
 30
0.0
 40
0.48
 41
0.48
  0
VERTEX
  8
0
 10
1.22331
 20
2.47835
 30
0.0
 40
0.00666667
 41
0.00666667
  0
VERTEX
  8
0
 10
1.22
 20
2.49501
 30
0.0
 40
0.00666667
 41
0.00666667
  0
SEQEND
 8
0
  0
POLYLINE
  8
0
 62
     0
 66
     1
 10
0
 20
0
 30
0.0
 40
0.48
 41
0.48
  0
VERTEX
  8
0
 10
1.22
 20
2.49501
 30
0.0
 40
0.00666667
 41
0.00666667
  0
VERTEX
  8
0
 10
1.21002
 20
2.50836
 30
0.0
 40
0.00666667
 41
0.00666667
  0
SEQEND
 8
0
  0
POLYLINE
  8
0
 62
     0
 66
     1
 10
0
 20
0
 30
0.0
 40
0.48
 41
0.48
  0
VERTEX
  8
0
 10
1.21002
 20
2.50836
 30
0.0
 40
0.00666667
 41
0.00666667
  0
VERTEX
  8
0
 10
1.19667
 20
2.51665
 30
0.0
 40
0.00666667
 41
0.00666667
  0
SEQEND
 8
0
  0
POLYLINE
  8
0
 62
     0
 66
     1
 10
0
 20
0
 30
0.0
 40
0.48
 41
0.48
  0
VERTEX
  8
0
 10
1.19667
 20
2.51665
 30
0.0
 40
0.00666667
 41
0.00666667
  0
VERTEX
  8
0
 10
1.18001
 20
2.51833
 30
0.0
 40
0.00666667
 41
0.00666667
  0
SEQEND
 8
0
  0
POLYLINE
  8
0
 62
     0
 66
     1
 10
0
 20
0
 30
0.0
 40
0.48
 41
0.48
  0
VERTEX
  8
0
 10
1.18001
 20
2.51833
 30
0.0
 40
0.00666667
 41
0.00666667
  0
VERTEX
  8
0
 10
1.16498
 20
2.51335
 30
0.0
 40
0.00666667
 41
0.00666667
  0
SEQEND
 8
0
  0
POLYLINE
  8
0
 62
     0
 66
     1
 10
0
 20
0
 30
0.0
 40
0.48
 41
0.48
  0
VERTEX
  8
0
 10
1.16498
 20
2.51335
 30
0.0
 40
0.00666667
 41
0.00666667
  0
VERTEX
  8
0
 10
1.15169
 20
2.50331
 30
0.0
 40
0.00666667
 41
0.00666667
  0
SEQEND
 8
0
  0
POLYLINE
  8
0
 62
     0
 66
     1
 10
0
 20
0
 30
0.0
 40
0.48
 41
0.48
  0
VERTEX
  8
0
 10
1.15169
 20
2.50331
 30
0.0
 40
0.00666667
 41
0.00666667
  0
VERTEX
  8
0
 10
1.14502
 20
2.48833
 30
0.0
 40
0.00666667
 41
0.00666667
  0
SEQEND
 8
0
  0
POLYLINE
  8
0
 62
     0
 66
     1
 10
0
 20
0
 30
0.0
 40
0.48
 41
0.48
  0
VERTEX
  8
0
 10
1.14502
 20
2.48833
 30
0.0
 40
0.00666667
 41
0.00666667
  0
VERTEX
  8
0
 10
1.14502
 20
2.47331
 30
0.0
 40
0.00666667
 41
0.00666667
  0
SEQEND
 8
0
  0
POLYLINE
  8
0
 62
     0
 66
     1
 10
0
 20
0
 30
0.0
 40
0.48
 41
0.48
  0
VERTEX
  8
0
 10
1.14502
 20
2.47331
 30
0.0
 40
0.00666667
 41
0.00666667
  0
VERTEX
  8
0
 10
1.15001
 20
2.45833
 30
0.0
 40
0.00666667
 41
0.00666667
  0
SEQEND
 8
0
  0
POLYLINE
  8
0
 62
     0
 66
     1
 10
0
 20
0
 30
0.0
 40
0.48
 41
0.48
  0
VERTEX
  8
0
 10
1.15001
 20
2.45833
 30
0.0
 40
0.00666667
 41
0.00666667
  0
VERTEX
  8
0
 10
1.16168
 20
2.44667
 30
0.0
 40
0.00666667
 41
0.00666667
  0
SEQEND
 8
0
  0
POLYLINE
  8
0
 62
     0
 66
     1
 10
0
 20
0
 30
0.0
 40
0.48
 41
0.48
  0
VERTEX
  8
0
 10
1.16168
 20
2.44667
 30
0.0
 40
0.00666667
 41
0.00666667
  0
VERTEX
  8
0
 10
1.17665
 20
2.44
 30
0.0
 40
0.00666667
 41
0.00666667
  0
SEQEND
 8
0
  0
POLYLINE
  8
0
 62
     0
 66
     1
 10
0
 20
0
 30
0.0
 40
0.48
 41
0.48
  0
VERTEX
  8
0
 10
1.17665
 20
2.44
 30
0.0
 40
0.00666667
 41
0.00666667
  0
VERTEX
  8
0
 10
1.19168
 20
2.44
 30
0.0
 40
0.00666667
 41
0.00666667
  0
SEQEND
 8
0
  0
POLYLINE
  8
0
 62
     0
 66
     1
 10
0
 20
0
 30
0.0
 40
0.48
 41
0.48
  0
VERTEX
  8
0
 10
1.19168
 20
2.44
 30
0.0
 40
0.00666667
 41
0.00666667
  0
VERTEX
  8
0
 10
1.20665
 20
2.44835
 30
0.0
 40
0.00666667
 41
0.00666667
  0
SEQEND
 8
0
  0
POLYLINE
  8
0
 62
     0
 66
     1
 10
0
 20
0
 30
0.0
 40
0.48
 41
0.48
  0
VERTEX
  8
0
 10
1.20665
 20
2.44835
 30
0.0
 40
0.00666667
 41
0.00666667
  0
VERTEX
  8
0
 10
1.21832
 20
2.46001
 30
0.0
 40
0.00666667
 41
0.00666667
  0
SEQEND
 8
0
  0
POLYLINE
  8
0
 62
     0
 66
     1
 10
0
 20
0
 30
0.0
 40
0.48
 41
0.48
  0
VERTEX
  8
0
 10
1.21832
 20
2.46001
 30
0.0
 40
0.00666667
 41
0.00666667
  0
VERTEX
  8
0
 10
1.22168
 20
2.47499
 30
0.0
 40
0.00666667
 41
0.00666667
  0
SEQEND
 8
0
  0
POLYLINE
  8
0
 62
     0
 66
     1
 10
0
 20
0
 30
0.0
 40
0.48
 41
0.48
  0
VERTEX
  8
0
 10
1.22168
 20
2.47499
 30
0.0
 40
0.00666667
 41
0.00666667
  0
VERTEX
  8
0
 10
1.22331
 20
2.47835
 30
0.0
 40
0.00666667
 41
0.00666667
  0
SEQEND
 8
0
  0
POLYLINE
  8
0
 62
     0
 66
     1
 10
0
 20
0
 30
0.0
 40
0.48
 41
0.48
  0
VERTEX
  8
0
 10
3.11165
 20
2.47835
 30
0.0
 40
0.00666667
 41
0.00666667
  0
VERTEX
  8
0
 10
3.10835
 20
2.49501
 30
0.0
 40
0.00666667
 41
0.00666667
  0
SEQEND
 8
0
  0
POLYLINE
  8
0
 62
     0
 66
     1
 10
0
 20
0
 30
0.0
 40
0.48
 41
0.48
  0
VERTEX
  8
0
 10
3.10835
 20
2.49501
 30
0.0
 40
0.00666667
 41
0.00666667
  0
VERTEX
  8
0
 10
3.09999
 20
2.50836
 30
0.0
 40
0.00666667
 41
0.00666667
  0
SEQEND
 8
0
  0
POLYLINE
  8
0
 62
     0
 66
     1
 10
0
 20
0
 30
0.0
 40
0.48
 41
0.48
  0
VERTEX
  8
0
 10
3.09999
 20
2.50836
 30
0.0
 40
0.00666667
 41
0.00666667
  0
VERTEX
  8
0
 10
3.08664
 20
2.51665
 30
0.0
 40
0.00666667
 41
0.00666667
  0
SEQEND
 8
0
  0
POLYLINE
  8
0
 62
     0
 66
     1
 10
0
 20
0
 30
0.0
 40
0.48
 41
0.48
  0
VERTEX
  8
0
 10
3.08664
 20
2.51665
 30
0.0
 40
0.00666667
 41
0.00666667
  0
VERTEX
  8
0
 10
3.06999
 20
2.51833
 30
0.0
 40
0.00666667
 41
0.00666667
  0
SEQEND
 8
0
  0
POLYLINE
  8
0
 62
     0
 66
     1
 10
0
 20
0
 30
0.0
 40
0.48
 41
0.48
  0
VERTEX
  8
0
 10
3.06999
 20
2.51833
 30
0.0
 40
0.00666667
 41
0.00666667
  0
VERTEX
  8
0
 10
3.05501
 20
2.51335
 30
0.0
 40
0.00666667
 41
0.00666667
  0
SEQEND
 8
0
  0
POLYLINE
  8
0
 62
     0
 66
     1
 10
0
 20
0
 30
0.0
 40
0.48
 41
0.48
  0
VERTEX
  8
0
 10
3.05501
 20
2.51335
 30
0.0
 40
0.00666667
 41
0.00666667
  0
VERTEX
  8
0
 10
3.04167
 20
2.50331
 30
0.0
 40
0.00666667
 41
0.00666667
  0
SEQEND
 8
0
  0
POLYLINE
  8
0
 62
     0
 66
     1
 10
0
 20
0
 30
0.0
 40
0.48
 41
0.48
  0
VERTEX
  8
0
 10
3.04167
 20
2.50331
 30
0.0
 40
0.00666667
 41
0.00666667
  0
VERTEX
  8
0
 10
3.035
 20
2.48833
 30
0.0
 40
0.00666667
 41
0.00666667
  0
SEQEND
 8
0
  0
POLYLINE
  8
0
 62
     0
 66
     1
 10
0
 20
0
 30
0.0
 40
0.48
 41
0.48
  0
VERTEX
  8
0
 10
3.035
 20
2.48833
 30
0.0
 40
0.00666667
 41
0.00666667
  0
VERTEX
  8
0
 10
3.03331
 20
2.47331
 30
0.0
 40
0.00666667
 41
0.00666667
  0
SEQEND
 8
0
  0
POLYLINE
  8
0
 62
     0
 66
     1
 10
0
 20
0
 30
0.0
 40
0.48
 41
0.48
  0
VERTEX
  8
0
 10
3.03331
 20
2.47331
 30
0.0
 40
0.00666667
 41
0.00666667
  0
VERTEX
  8
0
 10
3.03999
 20
2.45833
 30
0.0
 40
0.00666667
 41
0.00666667
  0
SEQEND
 8
0
  0
POLYLINE
  8
0
 62
     0
 66
     1
 10
0
 20
0
 30
0.0
 40
0.48
 41
0.48
  0
VERTEX
  8
0
 10
3.03999
 20
2.45833
 30
0.0
 40
0.00666667
 41
0.00666667
  0
VERTEX
  8
0
 10
3.05165
 20
2.44667
 30
0.0
 40
0.00666667
 41
0.00666667
  0
SEQEND
 8
0
  0
POLYLINE
  8
0
 62
     0
 66
     1
 10
0
 20
0
 30
0.0
 40
0.48
 41
0.48
  0
VERTEX
  8
0
 10
3.05165
 20
2.44667
 30
0.0
 40
0.00666667
 41
0.00666667
  0
VERTEX
  8
0
 10
3.06668
 20
2.44
 30
0.0
 40
0.00666667
 41
0.00666667
  0
SEQEND
 8
0
  0
POLYLINE
  8
0
 62
     0
 66
     1
 10
0
 20
0
 30
0.0
 40
0.48
 41
0.48
  0
VERTEX
  8
0
 10
3.06668
 20
2.44
 30
0.0
 40
0.00666667
 41
0.00666667
  0
VERTEX
  8
0
 10
3.08165
 20
2.44
 30
0.0
 40
0.00666667
 41
0.00666667
  0
SEQEND
 8
0
  0
POLYLINE
  8
0
 62
     0
 66
     1
 10
0
 20
0
 30
0.0
 40
0.48
 41
0.48
  0
VERTEX
  8
0
 10
3.08165
 20
2.44
 30
0.0
 40
0.00666667
 41
0.00666667
  0
VERTEX
  8
0
 10
3.09668
 20
2.44835
 30
0.0
 40
0.00666667
 41
0.00666667
  0
SEQEND
 8
0
  0
POLYLINE
  8
0
 62
     0
 66
     1
 10
0
 20
0
 30
0.0
 40
0.48
 41
0.48
  0
VERTEX
  8
0
 10
3.09668
 20
2.44835
 30
0.0
 40
0.00666667
 41
0.00666667
  0
VERTEX
  8
0
 10
3.10667
 20
2.46001
 30
0.0
 40
0.00666667
 41
0.00666667
  0
SEQEND
 8
0
  0
POLYLINE
  8
0
 62
     0
 66
     1
 10
0
 20
0
 30
0.0
 40
0.48
 41
0.48
  0
VERTEX
  8
0
 10
3.10667
 20
2.46001
 30
0.0
 40
0.00666667
 41
0.00666667
  0
VERTEX
  8
0
 10
3.11165
 20
2.47499
 30
0.0
 40
0.00666667
 41
0.00666667
  0
SEQEND
 8
0
  0
POLYLINE
  8
0
 62
     0
 66
     1
 10
0
 20
0
 30
0.0
 40
0.48
 41
0.48
  0
VERTEX
  8
0
 10
3.11165
 20
2.47499
 30
0.0
 40
0.00666667
 41
0.00666667
  0
VERTEX
  8
0
 10
3.11165
 20
2.47835
 30
0.0
 40
0.00666667
 41
0.00666667
  0
SEQEND
 8
0
  0
POLYLINE
  8
0
 62
     0
 66
     1
 10
0
 20
0
 30
0.0
 40
0.48
 41
0.48
  0
VERTEX
  8
0
 10
3.11165
 20
0.590007
 30
0.0
 40
0.00666667
 41
0.00666667
  0
VERTEX
  8
0
 10
3.10835
 20
0.604981
 30
0.0
 40
0.00666667
 41
0.00666667
  0
SEQEND
 8
0
  0
POLYLINE
  8
0
 62
     0
 66
     1
 10
0
 20
0
 30
0.0
 40
0.48
 41
0.48
  0
VERTEX
  8
0
 10
3.10835
 20
0.604981
 30
0.0
 40
0.00666667
 41
0.00666667
  0
VERTEX
  8
0
 10
3.09999
 20
0.618326
 30
0.0
 40
0.00666667
 41
0.00666667
  0
SEQEND
 8
0
  0
POLYLINE
  8
0
 62
     0
 66
     1
 10
0
 20
0
 30
0.0
 40
0.48
 41
0.48
  0
VERTEX
  8
0
 10
3.09999
 20
0.618326
 30
0.0
 40
0.00666667
 41
0.00666667
  0
VERTEX
  8
0
 10
3.08664
 20
0.626682
 30
0.0
 40
0.00666667
 41
0.00666667
  0
SEQEND
 8
0
  0
POLYLINE
  8
0
 62
     0
 66
     1
 10
0
 20
0
 30
0.0
 40
0.48
 41
0.48
  0
VERTEX
  8
0
 10
3.08664
 20
0.626682
 30
0.0
 40
0.00666667
 41
0.00666667
  0
VERTEX
  8
0
 10
3.06999
 20
0.62831
 30
0.0
 40
0.00666667
 41
0.00666667
  0
SEQEND
 8
0
  0
POLYLINE
  8
0
 62
     0
 66
     1
 10
0
 20
0
 30
0.0
 40
0.48
 41
0.48
  0
VERTEX
  8
0
 10
3.06999
 20
0.62831
 30
0.0
 40
0.00666667
 41
0.00666667
  0
VERTEX
  8
0
 10
3.05501
 20
0.623318
 30
0.0
 40
0.00666667
 41
0.00666667
  0
SEQEND
 8
0
  0
POLYLINE
  8
0
 62
     0
 66
     1
 10
0
 20
0
 30
0.0
 40
0.48
 41
0.48
  0
VERTEX
  8
0
 10
3.05501
 20
0.623318
 30
0.0
 40
0.00666667
 41
0.00666667
  0
VERTEX
  8
0
 10
3.04167
 20
0.613336
 30
0.0
 40
0.00666667
 41
0.00666667
  0
SEQEND
 8
0
  0
POLYLINE
  8
0
 62
     0
 66
     1
 10
0
 20
0
 30
0.0
 40
0.48
 41
0.48
  0
VERTEX
  8
0
 10
3.04167
 20
0.613336
 30
0.0
 40
0.00666667
 41
0.00666667
  0
VERTEX
  8
0
 10
3.035
 20
0.598307
 30
0.0
 40
0.00666667
 41
0.00666667
  0
SEQEND
 8
0
  0
POLYLINE
  8
0
 62
     0
 66
     1
 10
0
 20
0
 30
0.0
 40
0.48
 41
0.48
  0
VERTEX
  8
0
 10
3.035
 20
0.598307
 30
0.0
 40
0.00666667
 41
0.00666667
  0
VERTEX
  8
0
 10
3.03331
 20
0.583333
 30
0.0
 40
0.00666667
 41
0.00666667
  0
SEQEND
 8
0
  0
POLYLINE
  8
0
 62
     0
 66
     1
 10
0
 20
0
 30
0.0
 40
0.48
 41
0.48
  0
VERTEX
  8
0
 10
3.03331
 20
0.583333
 30
0.0
 40
0.00666667
 41
0.00666667
  0
VERTEX
  8
0
 10
3.03999
 20
0.56836
 30
0.0
 40
0.00666667
 41
0.00666667
  0
SEQEND
 8
0
  0
POLYLINE
  8
0
 62
     0
 66
     1
 10
0
 20
0
 30
0.0
 40
0.48
 41
0.48
  0
VERTEX
  8
0
 10
3.03999
 20
0.56836
 30
0.0
 40
0.00666667
 41
0.00666667
  0
VERTEX
  8
0
 10
3.05165
 20
0.55664
 30
0.0
 40
0.00666667
 41
0.00666667
  0
SEQEND
 8
0
  0
POLYLINE
  8
0
 62
     0
 66
     1
 10
0
 20
0
 30
0.0
 40
0.48
 41
0.48
  0
VERTEX
  8
0
 10
3.05165
 20
0.55664
 30
0.0
 40
0.00666667
 41
0.00666667
  0
VERTEX
  8
0
 10
3.06668
 20
0.550022
 30
0.0
 40
0.00666667
 41
0.00666667
  0
SEQEND
 8
0
  0
POLYLINE
  8
0
 62
     0
 66
     1
 10
0
 20
0
 30
0.0
 40
0.48
 41
0.48
  0
VERTEX
  8
0
 10
3.06668
 20
0.550022
 30
0.0
 40
0.00666667
 41
0.00666667
  0
VERTEX
  8
0
 10
3.08165
 20
0.55165
 30
0.0
 40
0.00666667
 41
0.00666667
  0
SEQEND
 8
0
  0
POLYLINE
  8
0
 62
     0
 66
     1
 10
0
 20
0
 30
0.0
 40
0.48
 41
0.48
  0
VERTEX
  8
0
 10
3.08165
 20
0.55165
 30
0.0
 40
0.00666667
 41
0.00666667
  0
VERTEX
  8
0
 10
3.09668
 20
0.558322
 30
0.0
 40
0.00666667
 41
0.00666667
  0
SEQEND
 8
0
  0
POLYLINE
  8
0
 62
     0
 66
     1
 10
0
 20
0
 30
0.0
 40
0.48
 41
0.48
  0
VERTEX
  8
0
 10
3.09668
 20
0.558322
 30
0.0
 40
0.00666667
 41
0.00666667
  0
VERTEX
  8
0
 10
3.10667
 20
0.569988
 30
0.0
 40
0.00666667
 41
0.00666667
  0
SEQEND
 8
0
  0
POLYLINE
  8
0
 62
     0
 66
     1
 10
0
 20
0
 30
0.0
 40
0.48
 41
0.48
  0
VERTEX
  8
0
 10
3.10667
 20
0.569988
 30
0.0
 40
0.00666667
 41
0.00666667
  0
VERTEX
  8
0
 10
3.11165
 20
0.585015
 30
0.0
 40
0.00666667
 41
0.00666667
  0
SEQEND
 8
0
  0
POLYLINE
  8
0
 62
     0
 66
     1
 10
0
 20
0
 30
0.0
 40
0.48
 41
0.48
  0
VERTEX
  8
0
 10
3.11165
 20
0.585015
 30
0.0
 40
0.00666667
 41
0.00666667
  0
VERTEX
  8
0
 10
3.11165
 20
0.590007
 30
0.0
 40
0.00666667
 41
0.00666667
  0
SEQEND
 8
0
  0
POLYLINE
  8
0
 62
     0
 66
     1
 10
0
 20
0
 30
0.0
 40
0.48
 41
0.48
  0
VERTEX
  8
0
 10
1.22331
 20
0.590007
 30
0.0
 40
0.00666667
 41
0.00666667
  0
VERTEX
  8
0
 10
1.22
 20
0.604981
 30
0.0
 40
0.00666667
 41
0.00666667
  0
SEQEND
 8
0
  0
POLYLINE
  8
0
 62
     0
 66
     1
 10
0
 20
0
 30
0.0
 40
0.48
 41
0.48
  0
VERTEX
  8
0
 10
1.22
 20
0.604981
 30
0.0
 40
0.00666667
 41
0.00666667
  0
VERTEX
  8
0
 10
1.21002
 20
0.618326
 30
0.0
 40
0.00666667
 41
0.00666667
  0
SEQEND
 8
0
  0
POLYLINE
  8
0
 62
     0
 66
     1
 10
0
 20
0
 30
0.0
 40
0.48
 41
0.48
  0
VERTEX
  8
0
 10
1.21002
 20
0.618326
 30
0.0
 40
0.00666667
 41
0.00666667
  0
VERTEX
  8
0
 10
1.19667
 20
0.626682
 30
0.0
 40
0.00666667
 41
0.00666667
  0
SEQEND
 8
0
  0
POLYLINE
  8
0
 62
     0
 66
     1
 10
0
 20
0
 30
0.0
 40
0.48
 41
0.48
  0
VERTEX
  8
0
 10
1.19667
 20
0.626682
 30
0.0
 40
0.00666667
 41
0.00666667
  0
VERTEX
  8
0
 10
1.18001
 20
0.62831
 30
0.0
 40
0.00666667
 41
0.00666667
  0
SEQEND
 8
0
  0
POLYLINE
  8
0
 62
     0
 66
     1
 10
0
 20
0
 30
0.0
 40
0.48
 41
0.48
  0
VERTEX
  8
0
 10
1.18001
 20
0.62831
 30
0.0
 40
0.00666667
 41
0.00666667
  0
VERTEX
  8
0
 10
1.16498
 20
0.623318
 30
0.0
 40
0.00666667
 41
0.00666667
  0
SEQEND
 8
0
  0
POLYLINE
  8
0
 62
     0
 66
     1
 10
0
 20
0
 30
0.0
 40
0.48
 41
0.48
  0
VERTEX
  8
0
 10
1.16498
 20
0.623318
 30
0.0
 40
0.00666667
 41
0.00666667
  0
VERTEX
  8
0
 10
1.15169
 20
0.613336
 30
0.0
 40
0.00666667
 41
0.00666667
  0
SEQEND
 8
0
  0
POLYLINE
  8
0
 62
     0
 66
     1
 10
0
 20
0
 30
0.0
 40
0.48
 41
0.48
  0
VERTEX
  8
0
 10
1.15169
 20
0.613336
 30
0.0
 40
0.00666667
 41
0.00666667
  0
VERTEX
  8
0
 10
1.14502
 20
0.598307
 30
0.0
 40
0.00666667
 41
0.00666667
  0
SEQEND
 8
0
  0
POLYLINE
  8
0
 62
     0
 66
     1
 10
0
 20
0
 30
0.0
 40
0.48
 41
0.48
  0
VERTEX
  8
0
 10
1.14502
 20
0.598307
 30
0.0
 40
0.00666667
 41
0.00666667
  0
VERTEX
  8
0
 10
1.14502
 20
0.583333
 30
0.0
 40
0.00666667
 41
0.00666667
  0
SEQEND
 8
0
  0
POLYLINE
  8
0
 62
     0
 66
     1
 10
0
 20
0
 30
0.0
 40
0.48
 41
0.48
  0
VERTEX
  8
0
 10
1.14502
 20
0.583333
 30
0.0
 40
0.00666667
 41
0.00666667
  0
VERTEX
  8
0
 10
1.15001
 20
0.56836
 30
0.0
 40
0.00666667
 41
0.00666667
  0
SEQEND
 8
0
  0
POLYLINE
  8
0
 62
     0
 66
     1
 10
0
 20
0
 30
0.0
 40
0.48
 41
0.48
  0
VERTEX
  8
0
 10
1.15001
 20
0.56836
 30
0.0
 40
0.00666667
 41
0.00666667
  0
VERTEX
  8
0
 10
1.16168
 20
0.55664
 30
0.0
 40
0.00666667
 41
0.00666667
  0
SEQEND
 8
0
  0
POLYLINE
  8
0
 62
     0
 66
     1
 10
0
 20
0
 30
0.0
 40
0.48
 41
0.48
  0
VERTEX
  8
0
 10
1.16168
 20
0.55664
 30
0.0
 40
0.00666667
 41
0.00666667
  0
VERTEX
  8
0
 10
1.17665
 20
0.550022
 30
0.0
 40
0.00666667
 41
0.00666667
  0
SEQEND
 8
0
  0
POLYLINE
  8
0
 62
     0
 66
     1
 10
0
 20
0
 30
0.0
 40
0.48
 41
0.48
  0
VERTEX
  8
0
 10
1.17665
 20
0.550022
 30
0.0
 40
0.00666667
 41
0.00666667
  0
VERTEX
  8
0
 10
1.19168
 20
0.55165
 30
0.0
 40
0.00666667
 41
0.00666667
  0
SEQEND
 8
0
  0
POLYLINE
  8
0
 62
     0
 66
     1
 10
0
 20
0
 30
0.0
 40
0.48
 41
0.48
  0
VERTEX
  8
0
 10
1.19168
 20
0.55165
 30
0.0
 40
0.00666667
 41
0.00666667
  0
VERTEX
  8
0
 10
1.20665
 20
0.558322
 30
0.0
 40
0.00666667
 41
0.00666667
  0
SEQEND
 8
0
  0
POLYLINE
  8
0
 62
     0
 66
     1
 10
0
 20
0
 30
0.0
 40
0.48
 41
0.48
  0
VERTEX
  8
0
 10
1.20665
 20
0.558322
 30
0.0
 40
0.00666667
 41
0.00666667
  0
VERTEX
  8
0
 10
1.21832
 20
0.569988
 30
0.0
 40
0.00666667
 41
0.00666667
  0
SEQEND
 8
0
  0
POLYLINE
  8
0
 62
     0
 66
     1
 10
0
 20
0
 30
0.0
 40
0.48
 41
0.48
  0
VERTEX
  8
0
 10
1.21832
 20
0.569988
 30
0.0
 40
0.00666667
 41
0.00666667
  0
VERTEX
  8
0
 10
1.22168
 20
0.585015
 30
0.0
 40
0.00666667
 41
0.00666667
  0
SEQEND
 8
0
  0
POLYLINE
  8
0
 62
     0
 66
     1
 10
0
 20
0
 30
0.0
 40
0.48
 41
0.48
  0
VERTEX
  8
0
 10
1.22168
 20
0.585015
 30
0.0
 40
0.00666667
 41
0.00666667
  0
VERTEX
  8
0
 10
1.22331
 20
0.590007
 30
0.0
 40
0.00666667
 41
0.00666667
  0
SEQEND
 8
0
  0
POLYLINE
  8
0
 62
     0
 66
     1
 10
0
 20
0
 30
0.0
 40
0.48
 41
0.48
  0
VERTEX
  8
0
 10
2.00999
 20
1.86833
 30
0.0
 40
0.00666667
 41
0.00666667
  0
VERTEX
  8
0
 10
2.03
 20
1.86833
 30
0.0
 40
0.00666667
 41
0.00666667
  0
SEQEND
 8
0
  0
POLYLINE
  8
0
 62
     0
 66
     1
 10
0
 20
0
 30
0.0
 40
0.48
 41
0.48
  0
VERTEX
  8
0
 10
2.03
 20
1.94667
 30
0.0
 40
0.00666667
 41
0.00666667
  0
VERTEX
  8
0
 10
2.12831
 20
1.94667
 30
0.0
 40
0.00666667
 41
0.00666667
  0
SEQEND
 8
0
  0
POLYLINE
  8
0
 62
     0
 66
     1
 10
0
 20
0
 30
0.0
 40
0.48
 41
0.48
  0
VERTEX
  8
0
 10
2.03
 20
1.86833
 30
0.0
 40
0.00666667
 41
0.00666667
  0
VERTEX
  8
0
 10
2.03999
 20
1.87169
 30
0.0
 40
0.00666667
 41
0.00666667
  0
SEQEND
 8
0
  0
POLYLINE
  8
0
 62
     0
 66
     1
 10
0
 20
0
 30
0.0
 40
0.48
 41
0.48
  0
VERTEX
  8
0
 10
2.03999
 20
1.87169
 30
0.0
 40
0.00666667
 41
0.00666667
  0
VERTEX
  8
0
 10
2.04833
 20
1.87999
 30
0.0
 40
0.00666667
 41
0.00666667
  0
SEQEND
 8
0
  0
POLYLINE
  8
0
 62
     0
 66
     1
 10
0
 20
0
 30
0.0
 40
0.48
 41
0.48
  0
VERTEX
  8
0
 10
2.04833
 20
1.87999
 30
0.0
 40
0.00666667
 41
0.00666667
  0
VERTEX
  8
0
 10
2.05003
 20
1.88835
 30
0.0
 40
0.00666667
 41
0.00666667
  0
SEQEND
 8
0
  0
POLYLINE
  8
0
 62
     0
 66
     1
 10
0
 20
0
 30
0.0
 40
0.48
 41
0.48
  0
VERTEX
  8
0
 10
2.03
 20
1.90831
 30
0.0
 40
0.00666667
 41
0.00666667
  0
VERTEX
  8
0
 10
2.03999
 20
1.905
 30
0.0
 40
0.00666667
 41
0.00666667
  0
SEQEND
 8
0
  0
POLYLINE
  8
0
 62
     0
 66
     1
 10
0
 20
0
 30
0.0
 40
0.48
 41
0.48
  0
VERTEX
  8
0
 10
2.03999
 20
1.905
 30
0.0
 40
0.00666667
 41
0.00666667
  0
VERTEX
  8
0
 10
2.04833
 20
1.89665
 30
0.0
 40
0.00666667
 41
0.00666667
  0
SEQEND
 8
0
  0
POLYLINE
  8
0
 62
     0
 66
     1
 10
0
 20
0
 30
0.0
 40
0.48
 41
0.48
  0
VERTEX
  8
0
 10
2.04833
 20
1.89665
 30
0.0
 40
0.00666667
 41
0.00666667
  0
VERTEX
  8
0
 10
2.05003
 20
1.88835
 30
0.0
 40
0.00666667
 41
0.00666667
  0
SEQEND
 8
0
  0
POLYLINE
  8
0
 62
     0
 66
     1
 10
0
 20
0
 30
0.0
 40
0.48
 41
0.48
  0
VERTEX
  8
0
 10
2.00999
 20
1.92833
 30
0.0
 40
0.00666667
 41
0.00666667
  0
VERTEX
  8
0
 10
2.01335
 20
1.91667
 30
0.0
 40
0.00666667
 41
0.00666667
  0
SEQEND
 8
0
  0
POLYLINE
  8
0
 62
     0
 66
     1
 10
0
 20
0
 30
0.0
 40
0.48
 41
0.48
  0
VERTEX
  8
0
 10
2.01335
 20
1.91667
 30
0.0
 40
0.00666667
 41
0.00666667
  0
VERTEX
  8
0
 10
2.02165
 20
1.91
 30
0.0
 40
0.00666667
 41
0.00666667
  0
SEQEND
 8
0
  0
POLYLINE
  8
0
 62
     0
 66
     1
 10
0
 20
0
 30
0.0
 40
0.48
 41
0.48
  0
VERTEX
  8
0
 10
2.02165
 20
1.91
 30
0.0
 40
0.00666667
 41
0.00666667
  0
VERTEX
  8
0
 10
2.03
 20
1.90831
 30
0.0
 40
0.00666667
 41
0.00666667
  0
SEQEND
 8
0
  0
POLYLINE
  8
0
 62
     0
 66
     1
 10
0
 20
0
 30
0.0
 40
0.48
 41
0.48
  0
VERTEX
  8
0
 10
2.03
 20
1.94667
 30
0.0
 40
0.00666667
 41
0.00666667
  0
VERTEX
  8
0
 10
2.01833
 20
1.94499
 30
0.0
 40
0.00666667
 41
0.00666667
  0
SEQEND
 8
0
  0
POLYLINE
  8
0
 62
     0
 66
     1
 10
0
 20
0
 30
0.0
 40
0.48
 41
0.48
  0
VERTEX
  8
0
 10
2.01833
 20
1.94499
 30
0.0
 40
0.00666667
 41
0.00666667
  0
VERTEX
  8
0
 10
2.01167
 20
1.935
 30
0.0
 40
0.00666667
 41
0.00666667
  0
SEQEND
 8
0
  0
POLYLINE
  8
0
 62
     0
 66
     1
 10
0
 20
0
 30
0.0
 40
0.48
 41
0.48
  0
VERTEX
  8
0
 10
2.01167
 20
1.935
 30
0.0
 40
0.00666667
 41
0.00666667
  0
VERTEX
  8
0
 10
2.00999
 20
1.92833
 30
0.0
 40
0.00666667
 41
0.00666667
  0
SEQEND
 8
0
  0
POLYLINE
  8
0
 62
     0
 66
     1
 10
0
 20
0
 30
0.0
 40
0.48
 41
0.48
  0
VERTEX
  8
0
 10
2.24669
 20
1.86833
 30
0.0
 40
0.00666667
 41
0.00666667
  0
VERTEX
  8
0
 10
2.22667
 20
1.86833
 30
0.0
 40
0.00666667
 41
0.00666667
  0
SEQEND
 8
0
  0
POLYLINE
  8
0
 62
     0
 66
     1
 10
0
 20
0
 30
0.0
 40
0.48
 41
0.48
  0
VERTEX
  8
0
 10
2.22667
 20
1.94667
 30
0.0
 40
0.00666667
 41
0.00666667
  0
VERTEX
  8
0
 10
2.12831
 20
1.94667
 30
0.0
 40
0.00666667
 41
0.00666667
  0
SEQEND
 8
0
  0
POLYLINE
  8
0
 62
     0
 66
     1
 10
0
 20
0
 30
0.0
 40
0.48
 41
0.48
  0
VERTEX
  8
0
 10
2.22667
 20
1.86833
 30
0.0
 40
0.00666667
 41
0.00666667
  0
VERTEX
  8
0
 10
2.215
 20
1.87169
 30
0.0
 40
0.00666667
 41
0.00666667
  0
SEQEND
 8
0
  0
POLYLINE
  8
0
 62
     0
 66
     1
 10
0
 20
0
 30
0.0
 40
0.48
 41
0.48
  0
VERTEX
  8
0
 10
2.215
 20
1.87169
 30
0.0
 40
0.00666667
 41
0.00666667
  0
VERTEX
  8
0
 10
2.20833
 20
1.87999
 30
0.0
 40
0.00666667
 41
0.00666667
  0
SEQEND
 8
0
  0
POLYLINE
  8
0
 62
     0
 66
     1
 10
0
 20
0
 30
0.0
 40
0.48
 41
0.48
  0
VERTEX
  8
0
 10
2.20833
 20
1.87999
 30
0.0
 40
0.00666667
 41
0.00666667
  0
VERTEX
  8
0
 10
2.20665
 20
1.88835
 30
0.0
 40
0.00666667
 41
0.00666667
  0
SEQEND
 8
0
  0
POLYLINE
  8
0
 62
     0
 66
     1
 10
0
 20
0
 30
0.0
 40
0.48
 41
0.48
  0
VERTEX
  8
0
 10
2.22667
 20
1.90831
 30
0.0
 40
0.00666667
 41
0.00666667
  0
VERTEX
  8
0
 10
2.215
 20
1.905
 30
0.0
 40
0.00666667
 41
0.00666667
  0
SEQEND
 8
0
  0
POLYLINE
  8
0
 62
     0
 66
     1
 10
0
 20
0
 30
0.0
 40
0.48
 41
0.48
  0
VERTEX
  8
0
 10
2.215
 20
1.905
 30
0.0
 40
0.00666667
 41
0.00666667
  0
VERTEX
  8
0
 10
2.20833
 20
1.89665
 30
0.0
 40
0.00666667
 41
0.00666667
  0
SEQEND
 8
0
  0
POLYLINE
  8
0
 62
     0
 66
     1
 10
0
 20
0
 30
0.0
 40
0.48
 41
0.48
  0
VERTEX
  8
0
 10
2.20833
 20
1.89665
 30
0.0
 40
0.00666667
 41
0.00666667
  0
VERTEX
  8
0
 10
2.20665
 20
1.88835
 30
0.0
 40
0.00666667
 41
0.00666667
  0
SEQEND
 8
0
  0
POLYLINE
  8
0
 62
     0
 66
     1
 10
0
 20
0
 30
0.0
 40
0.48
 41
0.48
  0
VERTEX
  8
0
 10
2.24669
 20
1.92833
 30
0.0
 40
0.00666667
 41
0.00666667
  0
VERTEX
  8
0
 10
2.24333
 20
1.91667
 30
0.0
 40
0.00666667
 41
0.00666667
  0
SEQEND
 8
0
  0
POLYLINE
  8
0
 62
     0
 66
     1
 10
0
 20
0
 30
0.0
 40
0.48
 41
0.48
  0
VERTEX
  8
0
 10
2.24333
 20
1.91667
 30
0.0
 40
0.00666667
 41
0.00666667
  0
VERTEX
  8
0
 10
2.23503
 20
1.91
 30
0.0
 40
0.00666667
 41
0.00666667
  0
SEQEND
 8
0
  0
POLYLINE
  8
0
 62
     0
 66
     1
 10
0
 20
0
 30
0.0
 40
0.48
 41
0.48
  0
VERTEX
  8
0
 10
2.23503
 20
1.91
 30
0.0
 40
0.00666667
 41
0.00666667
  0
VERTEX
  8
0
 10
2.22667
 20
1.90831
 30
0.0
 40
0.00666667
 41
0.00666667
  0
SEQEND
 8
0
  0
POLYLINE
  8
0
 62
     0
 66
     1
 10
0
 20
0
 30
0.0
 40
0.48
 41
0.48
  0
VERTEX
  8
0
 10
2.22667
 20
1.94667
 30
0.0
 40
0.00666667
 41
0.00666667
  0
VERTEX
  8
0
 10
2.23665
 20
1.94499
 30
0.0
 40
0.00666667
 41
0.00666667
  0
SEQEND
 8
0
  0
POLYLINE
  8
0
 62
     0
 66
     1
 10
0
 20
0
 30
0.0
 40
0.48
 41
0.48
  0
VERTEX
  8
0
 10
2.23665
 20
1.94499
 30
0.0
 40
0.00666667
 41
0.00666667
  0
VERTEX
  8
0
 10
2.24501
 20
1.935
 30
0.0
 40
0.00666667
 41
0.00666667
  0
SEQEND
 8
0
  0
POLYLINE
  8
0
 62
     0
 66
     1
 10
0
 20
0
 30
0.0
 40
0.48
 41
0.48
  0
VERTEX
  8
0
 10
2.24501
 20
1.935
 30
0.0
 40
0.00666667
 41
0.00666667
  0
VERTEX
  8
0
 10
2.24669
 20
1.92833
 30
0.0
 40
0.00666667
 41
0.00666667
  0
SEQEND
 8
0
  0
POLYLINE
  8
0
 62
     0
 66
     1
 10
0
 20
0
 30
0.0
 40
0.48
 41
0.48
  0
VERTEX
  8
0
 10
2.00999
 20
1.19998
 30
0.0
 40
0.00666667
 41
0.00666667
  0
VERTEX
  8
0
 10
2.03
 20
1.19998
 30
0.0
 40
0.00666667
 41
0.00666667
  0
SEQEND
 8
0
  0
POLYLINE
  8
0
 62
     0
 66
     1
 10
0
 20
0
 30
0.0
 40
0.48
 41
0.48
  0
VERTEX
  8
0
 10
2.03
 20
1.12001
 30
0.0
 40
0.00666667
 41
0.00666667
  0
VERTEX
  8
0
 10
2.12831
 20
1.12001
 30
0.0
 40
0.00666667
 41
0.00666667
  0
SEQEND
 8
0
  0
POLYLINE
  8
0
 62
     0
 66
     1
 10
0
 20
0
 30
0.0
 40
0.48
 41
0.48
  0
VERTEX
  8
0
 10
2.03
 20
1.19998
 30
0.0
 40
0.00666667
 41
0.00666667
  0
VERTEX
  8
0
 10
2.03999
 20
1.19667
 30
0.0
 40
0.00666667
 41
0.00666667
  0
SEQEND
 8
0
  0
POLYLINE
  8
0
 62
     0
 66
     1
 10
0
 20
0
 30
0.0
 40
0.48
 41
0.48
  0
VERTEX
  8
0
 10
2.03999
 20
1.19667
 30
0.0
 40
0.00666667
 41
0.00666667
  0
VERTEX
  8
0
 10
2.04833
 20
1.18669
 30
0.0
 40
0.00666667
 41
0.00666667
  0
SEQEND
 8
0
  0
POLYLINE
  8
0
 62
     0
 66
     1
 10
0
 20
0
 30
0.0
 40
0.48
 41
0.48
  0
VERTEX
  8
0
 10
2.04833
 20
1.18669
 30
0.0
 40
0.00666667
 41
0.00666667
  0
VERTEX
  8
0
 10
2.05003
 20
1.18001
 30
0.0
 40
0.00666667
 41
0.00666667
  0
SEQEND
 8
0
  0
POLYLINE
  8
0
 62
     0
 66
     1
 10
0
 20
0
 30
0.0
 40
0.48
 41
0.48
  0
VERTEX
  8
0
 10
2.03
 20
1.15999
 30
0.0
 40
0.00666667
 41
0.00666667
  0
VERTEX
  8
0
 10
2.03999
 20
1.16336
 30
0.0
 40
0.00666667
 41
0.00666667
  0
SEQEND
 8
0
  0
POLYLINE
  8
0
 62
     0
 66
     1
 10
0
 20
0
 30
0.0
 40
0.48
 41
0.48
  0
VERTEX
  8
0
 10
2.03999
 20
1.16336
 30
0.0
 40
0.00666667
 41
0.00666667
  0
VERTEX
  8
0
 10
2.04833
 20
1.17166
 30
0.0
 40
0.00666667
 41
0.00666667
  0
SEQEND
 8
0
  0
POLYLINE
  8
0
 62
     0
 66
     1
 10
0
 20
0
 30
0.0
 40
0.48
 41
0.48
  0
VERTEX
  8
0
 10
2.04833
 20
1.17166
 30
0.0
 40
0.00666667
 41
0.00666667
  0
VERTEX
  8
0
 10
2.05003
 20
1.18001
 30
0.0
 40
0.00666667
 41
0.00666667
  0
SEQEND
 8
0
  0
POLYLINE
  8
0
 62
     0
 66
     1
 10
0
 20
0
 30
0.0
 40
0.48
 41
0.48
  0
VERTEX
  8
0
 10
2.00999
 20
1.13997
 30
0.0
 40
0.00666667
 41
0.00666667
  0
VERTEX
  8
0
 10
2.01335
 20
1.15169
 30
0.0
 40
0.00666667
 41
0.00666667
  0
SEQEND
 8
0
  0
POLYLINE
  8
0
 62
     0
 66
     1
 10
0
 20
0
 30
0.0
 40
0.48
 41
0.48
  0
VERTEX
  8
0
 10
2.01335
 20
1.15169
 30
0.0
 40
0.00666667
 41
0.00666667
  0
VERTEX
  8
0
 10
2.02165
 20
1.15831
 30
0.0
 40
0.00666667
 41
0.00666667
  0
SEQEND
 8
0
  0
POLYLINE
  8
0
 62
     0
 66
     1
 10
0
 20
0
 30
0.0
 40
0.48
 41
0.48
  0
VERTEX
  8
0
 10
2.02165
 20
1.15831
 30
0.0
 40
0.00666667
 41
0.00666667
  0
VERTEX
  8
0
 10
2.03
 20
1.15999
 30
0.0
 40
0.00666667
 41
0.00666667
  0
SEQEND
 8
0
  0
POLYLINE
  8
0
 62
     0
 66
     1
 10
0
 20
0
 30
0.0
 40
0.48
 41
0.48
  0
VERTEX
  8
0
 10
2.03
 20
1.12001
 30
0.0
 40
0.00666667
 41
0.00666667
  0
VERTEX
  8
0
 10
2.01833
 20
1.12332
 30
0.0
 40
0.00666667
 41
0.00666667
  0
SEQEND
 8
0
  0
POLYLINE
  8
0
 62
     0
 66
     1
 10
0
 20
0
 30
0.0
 40
0.48
 41
0.48
  0
VERTEX
  8
0
 10
2.01833
 20
1.12332
 30
0.0
 40
0.00666667
 41
0.00666667
  0
VERTEX
  8
0
 10
2.01167
 20
1.13336
 30
0.0
 40
0.00666667
 41
0.00666667
  0
SEQEND
 8
0
  0
POLYLINE
  8
0
 62
     0
 66
     1
 10
0
 20
0
 30
0.0
 40
0.48
 41
0.48
  0
VERTEX
  8
0
 10
2.01167
 20
1.13336
 30
0.0
 40
0.00666667
 41
0.00666667
  0
VERTEX
  8
0
 10
2.00999
 20
1.13997
 30
0.0
 40
0.00666667
 41
0.00666667
  0
SEQEND
 8
0
  0
POLYLINE
  8
0
 62
     0
 66
     1
 10
0
 20
0
 30
0.0
 40
0.48
 41
0.48
  0
VERTEX
  8
0
 10
2.24669
 20
1.19998
 30
0.0
 40
0.00666667
 41
0.00666667
  0
VERTEX
  8
0
 10
2.22667
 20
1.19998
 30
0.0
 40
0.00666667
 41
0.00666667
  0
SEQEND
 8
0
  0
POLYLINE
  8
0
 62
     0
 66
     1
 10
0
 20
0
 30
0.0
 40
0.48
 41
0.48
  0
VERTEX
  8
0
 10
2.22667
 20
1.12001
 30
0.0
 40
0.00666667
 41
0.00666667
  0
VERTEX
  8
0
 10
2.12831
 20
1.12001
 30
0.0
 40
0.00666667
 41
0.00666667
  0
SEQEND
 8
0
  0
POLYLINE
  8
0
 62
     0
 66
     1
 10
0
 20
0
 30
0.0
 40
0.48
 41
0.48
  0
VERTEX
  8
0
 10
2.22667
 20
1.19998
 30
0.0
 40
0.00666667
 41
0.00666667
  0
VERTEX
  8
0
 10
2.215
 20
1.19667
 30
0.0
 40
0.00666667
 41
0.00666667
  0
SEQEND
 8
0
  0
POLYLINE
  8
0
 62
     0
 66
     1
 10
0
 20
0
 30
0.0
 40
0.48
 41
0.48
  0
VERTEX
  8
0
 10
2.215
 20
1.19667
 30
0.0
 40
0.00666667
 41
0.00666667
  0
VERTEX
  8
0
 10
2.20833
 20
1.18669
 30
0.0
 40
0.00666667
 41
0.00666667
  0
SEQEND
 8
0
  0
POLYLINE
  8
0
 62
     0
 66
     1
 10
0
 20
0
 30
0.0
 40
0.48
 41
0.48
  0
VERTEX
  8
0
 10
2.20833
 20
1.18669
 30
0.0
 40
0.00666667
 41
0.00666667
  0
VERTEX
  8
0
 10
2.20665
 20
1.18001
 30
0.0
 40
0.00666667
 41
0.00666667
  0
SEQEND
 8
0
  0
POLYLINE
  8
0
 62
     0
 66
     1
 10
0
 20
0
 30
0.0
 40
0.48
 41
0.48
  0
VERTEX
  8
0
 10
2.22667
 20
1.15999
 30
0.0
 40
0.00666667
 41
0.00666667
  0
VERTEX
  8
0
 10
2.215
 20
1.16336
 30
0.0
 40
0.00666667
 41
0.00666667
  0
SEQEND
 8
0
  0
POLYLINE
  8
0
 62
     0
 66
     1
 10
0
 20
0
 30
0.0
 40
0.48
 41
0.48
  0
VERTEX
  8
0
 10
2.215
 20
1.16336
 30
0.0
 40
0.00666667
 41
0.00666667
  0
VERTEX
  8
0
 10
2.20833
 20
1.17166
 30
0.0
 40
0.00666667
 41
0.00666667
  0
SEQEND
 8
0
  0
POLYLINE
  8
0
 62
     0
 66
     1
 10
0
 20
0
 30
0.0
 40
0.48
 41
0.48
  0
VERTEX
  8
0
 10
2.20833
 20
1.17166
 30
0.0
 40
0.00666667
 41
0.00666667
  0
VERTEX
  8
0
 10
2.20665
 20
1.18001
 30
0.0
 40
0.00666667
 41
0.00666667
  0
SEQEND
 8
0
  0
POLYLINE
  8
0
 62
     0
 66
     1
 10
0
 20
0
 30
0.0
 40
0.48
 41
0.48
  0
VERTEX
  8
0
 10
2.24669
 20
1.13997
 30
0.0
 40
0.00666667
 41
0.00666667
  0
VERTEX
  8
0
 10
2.24333
 20
1.15169
 30
0.0
 40
0.00666667
 41
0.00666667
  0
SEQEND
 8
0
  0
POLYLINE
  8
0
 62
     0
 66
     1
 10
0
 20
0
 30
0.0
 40
0.48
 41
0.48
  0
VERTEX
  8
0
 10
2.24333
 20
1.15169
 30
0.0
 40
0.00666667
 41
0.00666667
  0
VERTEX
  8
0
 10
2.23503
 20
1.15831
 30
0.0
 40
0.00666667
 41
0.00666667
  0
SEQEND
 8
0
  0
POLYLINE
  8
0
 62
     0
 66
     1
 10
0
 20
0
 30
0.0
 40
0.48
 41
0.48
  0
VERTEX
  8
0
 10
2.23503
 20
1.15831
 30
0.0
 40
0.00666667
 41
0.00666667
  0
VERTEX
  8
0
 10
2.22667
 20
1.15999
 30
0.0
 40
0.00666667
 41
0.00666667
  0
SEQEND
 8
0
  0
POLYLINE
  8
0
 62
     0
 66
     1
 10
0
 20
0
 30
0.0
 40
0.48
 41
0.48
  0
VERTEX
  8
0
 10
2.22667
 20
1.12001
 30
0.0
 40
0.00666667
 41
0.00666667
  0
VERTEX
  8
0
 10
2.23665
 20
1.12332
 30
0.0
 40
0.00666667
 41
0.00666667
  0
SEQEND
 8
0
  0
POLYLINE
  8
0
 62
     0
 66
     1
 10
0
 20
0
 30
0.0
 40
0.48
 41
0.48
  0
VERTEX
  8
0
 10
2.23665
 20
1.12332
 30
0.0
 40
0.00666667
 41
0.00666667
  0
VERTEX
  8
0
 10
2.24501
 20
1.13336
 30
0.0
 40
0.00666667
 41
0.00666667
  0
SEQEND
 8
0
  0
POLYLINE
  8
0
 62
     0
 66
     1
 10
0
 20
0
 30
0.0
 40
0.48
 41
0.48
  0
VERTEX
  8
0
 10
2.24501
 20
1.13336
 30
0.0
 40
0.00666667
 41
0.00666667
  0
VERTEX
  8
0
 10
2.24669
 20
1.13997
 30
0.0
 40
0.00666667
 41
0.00666667
  0
SEQEND
 8
0
  0
POLYLINE
  8
0
 62
     0
 66
     1
 10
0
 20
0
 30
0.0
 40
0.48
 41
0.48
  0
VERTEX
  8
0
 10
1.92665
 20
1.90332
 30
0.0
 40
0.00666667
 41
0.00666667
  0
VERTEX
  8
0
 10
1.94835
 20
1.88667
 30
0.0
 40
0.00666667
 41
0.00666667
  0
SEQEND
 8
0
  0
POLYLINE
  8
0
 62
     0
 66
     1
 10
0
 20
0
 30
0.0
 40
0.48
 41
0.48
  0
VERTEX
  8
0
 10
1.94835
 20
1.88667
 30
0.0
 40
0.00666667
 41
0.00666667
  0
VERTEX
  8
0
 10
1.97331
 20
1.875
 30
0.0
 40
0.00666667
 41
0.00666667
  0
SEQEND
 8
0
  0
POLYLINE
  8
0
 62
     0
 66
     1
 10
0
 20
0
 30
0.0
 40
0.48
 41
0.48
  0
VERTEX
  8
0
 10
1.97331
 20
1.875
 30
0.0
 40
0.00666667
 41
0.00666667
  0
VERTEX
  8
0
 10
2.00168
 20
1.86833
 30
0.0
 40
0.00666667
 41
0.00666667
  0
SEQEND
 8
0
  0
POLYLINE
  8
0
 62
     0
 66
     1
 10
0
 20
0
 30
0.0
 40
0.48
 41
0.48
  0
VERTEX
  8
0
 10
2.00168
 20
1.86833
 30
0.0
 40
0.00666667
 41
0.00666667
  0
VERTEX
  8
0
 10
2.00999
 20
1.86833
 30
0.0
 40
0.00666667
 41
0.00666667
  0
SEQEND
 8
0
  0
POLYLINE
  8
0
 62
     0
 66
     1
 10
0
 20
0
 30
0.0
 40
0.48
 41
0.48
  0
VERTEX
  8
0
 10
2.24669
 20
1.86833
 30
0.0
 40
0.00666667
 41
0.00666667
  0
VERTEX
  8
0
 10
2.27501
 20
1.87169
 30
0.0
 40
0.00666667
 41
0.00666667
  0
SEQEND
 8
0
  0
POLYLINE
  8
0
 62
     0
 66
     1
 10
0
 20
0
 30
0.0
 40
0.48
 41
0.48
  0
VERTEX
  8
0
 10
2.27501
 20
1.87169
 30
0.0
 40
0.00666667
 41
0.00666667
  0
VERTEX
  8
0
 10
2.30165
 20
1.88167
 30
0.0
 40
0.00666667
 41
0.00666667
  0
SEQEND
 8
0
  0
POLYLINE
  8
0
 62
     0
 66
     1
 10
0
 20
0
 30
0.0
 40
0.48
 41
0.48
  0
VERTEX
  8
0
 10
2.30165
 20
1.88167
 30
0.0
 40
0.00666667
 41
0.00666667
  0
VERTEX
  8
0
 10
2.32335
 20
1.89665
 30
0.0
 40
0.00666667
 41
0.00666667
  0
SEQEND
 8
0
  0
POLYLINE
  8
0
 62
     0
 66
     1
 10
0
 20
0
 30
0.0
 40
0.48
 41
0.48
  0
VERTEX
  8
0
 10
2.32335
 20
1.89665
 30
0.0
 40
0.00666667
 41
0.00666667
  0
VERTEX
  8
0
 10
2.33003
 20
1.90332
 30
0.0
 40
0.00666667
 41
0.00666667
  0
SEQEND
 8
0
  0
POLYLINE
  8
0
 62
     0
 66
     1
 10
0
 20
0
 30
0.0
 40
0.48
 41
0.48
  0
VERTEX
  8
0
 10
2.46332
 20
1.65332
 30
0.0
 40
0.00666667
 41
0.00666667
  0
VERTEX
  8
0
 10
2.46669
 20
1.68001
 30
0.0
 40
0.00666667
 41
0.00666667
  0
SEQEND
 8
0
  0
POLYLINE
  8
0
 62
     0
 66
     1
 10
0
 20
0
 30
0.0
 40
0.48
 41
0.48
  0
VERTEX
  8
0
 10
2.46669
 20
1.68001
 30
0.0
 40
0.00666667
 41
0.00666667
  0
VERTEX
  8
0
 10
2.47667
 20
1.70665
 30
0.0
 40
0.00666667
 41
0.00666667
  0
SEQEND
 8
0
  0
POLYLINE
  8
0
 62
     0
 66
     1
 10
0
 20
0
 30
0.0
 40
0.48
 41
0.48
  0
VERTEX
  8
0
 10
2.47667
 20
1.70665
 30
0.0
 40
0.00666667
 41
0.00666667
  0
VERTEX
  8
0
 10
2.49164
 20
1.72999
 30
0.0
 40
0.00666667
 41
0.00666667
  0
SEQEND
 8
0
  0
POLYLINE
  8
0
 62
     0
 66
     1
 10
0
 20
0
 30
0.0
 40
0.48
 41
0.48
  0
VERTEX
  8
0
 10
2.49164
 20
1.72999
 30
0.0
 40
0.00666667
 41
0.00666667
  0
VERTEX
  8
0
 10
2.49669
 20
1.73665
 30
0.0
 40
0.00666667
 41
0.00666667
  0
SEQEND
 8
0
  0
POLYLINE
  8
0
 62
     0
 66
     1
 10
0
 20
0
 30
0.0
 40
0.48
 41
0.48
  0
VERTEX
  8
0
 10
2.49669
 20
1.33165
 30
0.0
 40
0.00666667
 41
0.00666667
  0
VERTEX
  8
0
 10
2.47999
 20
1.35335
 30
0.0
 40
0.00666667
 41
0.00666667
  0
SEQEND
 8
0
  0
POLYLINE
  8
0
 62
     0
 66
     1
 10
0
 20
0
 30
0.0
 40
0.48
 41
0.48
  0
VERTEX
  8
0
 10
2.47999
 20
1.35335
 30
0.0
 40
0.00666667
 41
0.00666667
  0
VERTEX
  8
0
 10
2.46832
 20
1.37999
 30
0.0
 40
0.00666667
 41
0.00666667
  0
SEQEND
 8
0
  0
POLYLINE
  8
0
 62
     0
 66
     1
 10
0
 20
0
 30
0.0
 40
0.48
 41
0.48
  0
VERTEX
  8
0
 10
2.46832
 20
1.37999
 30
0.0
 40
0.00666667
 41
0.00666667
  0
VERTEX
  8
0
 10
2.46332
 20
1.40668
 30
0.0
 40
0.00666667
 41
0.00666667
  0
SEQEND
 8
0
  0
POLYLINE
  8
0
 62
     0
 66
     1
 10
0
 20
0
 30
0.0
 40
0.48
 41
0.48
  0
VERTEX
  8
0
 10
2.46332
 20
1.40668
 30
0.0
 40
0.00666667
 41
0.00666667
  0
VERTEX
  8
0
 10
2.46332
 20
1.41499
 30
0.0
 40
0.00666667
 41
0.00666667
  0
SEQEND
 8
0
  0
POLYLINE
  8
0
 62
     0
 66
     1
 10
0
 20
0
 30
0.0
 40
0.48
 41
0.48
  0
VERTEX
  8
0
 10
2.33003
 20
1.16498
 30
0.0
 40
0.00666667
 41
0.00666667
  0
VERTEX
  8
0
 10
2.30832
 20
1.18164
 30
0.0
 40
0.00666667
 41
0.00666667
  0
SEQEND
 8
0
  0
POLYLINE
  8
0
 62
     0
 66
     1
 10
0
 20
0
 30
0.0
 40
0.48
 41
0.48
  0
VERTEX
  8
0
 10
2.30832
 20
1.18164
 30
0.0
 40
0.00666667
 41
0.00666667
  0
VERTEX
  8
0
 10
2.28331
 20
1.19336
 30
0.0
 40
0.00666667
 41
0.00666667
  0
SEQEND
 8
0
  0
POLYLINE
  8
0
 62
     0
 66
     1
 10
0
 20
0
 30
0.0
 40
0.48
 41
0.48
  0
VERTEX
  8
0
 10
2.28331
 20
1.19336
 30
0.0
 40
0.00666667
 41
0.00666667
  0
VERTEX
  8
0
 10
2.25499
 20
1.19835
 30
0.0
 40
0.00666667
 41
0.00666667
  0
SEQEND
 8
0
  0
POLYLINE
  8
0
 62
     0
 66
     1
 10
0
 20
0
 30
0.0
 40
0.48
 41
0.48
  0
VERTEX
  8
0
 10
2.25499
 20
1.19835
 30
0.0
 40
0.00666667
 41
0.00666667
  0
VERTEX
  8
0
 10
2.24669
 20
1.19998
 30
0.0
 40
0.00666667
 41
0.00666667
  0
SEQEND
 8
0
  0
POLYLINE
  8
0
 62
     0
 66
     1
 10
0
 20
0
 30
0.0
 40
0.48
 41
0.48
  0
VERTEX
  8
0
 10
2.00999
 20
1.19998
 30
0.0
 40
0.00666667
 41
0.00666667
  0
VERTEX
  8
0
 10
1.98167
 20
1.19667
 30
0.0
 40
0.00666667
 41
0.00666667
  0
SEQEND
 8
0
  0
POLYLINE
  8
0
 62
     0
 66
     1
 10
0
 20
0
 30
0.0
 40
0.48
 41
0.48
  0
VERTEX
  8
0
 10
1.98167
 20
1.19667
 30
0.0
 40
0.00666667
 41
0.00666667
  0
VERTEX
  8
0
 10
1.95503
 20
1.18669
 30
0.0
 40
0.00666667
 41
0.00666667
  0
SEQEND
 8
0
  0
POLYLINE
  8
0
 62
     0
 66
     1
 10
0
 20
0
 30
0.0
 40
0.48
 41
0.48
  0
VERTEX
  8
0
 10
1.95503
 20
1.18669
 30
0.0
 40
0.00666667
 41
0.00666667
  0
VERTEX
  8
0
 10
1.93164
 20
1.16998
 30
0.0
 40
0.00666667
 41
0.00666667
  0
SEQEND
 8
0
  0
POLYLINE
  8
0
 62
     0
 66
     1
 10
0
 20
0
 30
0.0
 40
0.48
 41
0.48
  0
VERTEX
  8
0
 10
1.93164
 20
1.16998
 30
0.0
 40
0.00666667
 41
0.00666667
  0
VERTEX
  8
0
 10
1.92665
 20
1.16498
 30
0.0
 40
0.00666667
 41
0.00666667
  0
SEQEND
 8
0
  0
POLYLINE
  8
0
 62
     0
 66
     1
 10
0
 20
0
 30
0.0
 40
0.48
 41
0.48
  0
VERTEX
  8
0
 10
1.75836
 20
1.33165
 30
0.0
 40
0.00666667
 41
0.00666667
  0
VERTEX
  8
0
 10
1.77669
 20
1.35335
 30
0.0
 40
0.00666667
 41
0.00666667
  0
SEQEND
 8
0
  0
POLYLINE
  8
0
 62
     0
 66
     1
 10
0
 20
0
 30
0.0
 40
0.48
 41
0.48
  0
VERTEX
  8
0
 10
1.77669
 20
1.35335
 30
0.0
 40
0.00666667
 41
0.00666667
  0
VERTEX
  8
0
 10
1.78836
 20
1.37999
 30
0.0
 40
0.00666667
 41
0.00666667
  0
SEQEND
 8
0
  0
POLYLINE
  8
0
 62
     0
 66
     1
 10
0
 20
0
 30
0.0
 40
0.48
 41
0.48
  0
VERTEX
  8
0
 10
1.78836
 20
1.37999
 30
0.0
 40
0.00666667
 41
0.00666667
  0
VERTEX
  8
0
 10
1.79335
 20
1.40668
 30
0.0
 40
0.00666667
 41
0.00666667
  0
SEQEND
 8
0
  0
POLYLINE
  8
0
 62
     0
 66
     1
 10
0
 20
0
 30
0.0
 40
0.48
 41
0.48
  0
VERTEX
  8
0
 10
1.79335
 20
1.40668
 30
0.0
 40
0.00666667
 41
0.00666667
  0
VERTEX
  8
0
 10
1.79335
 20
1.41499
 30
0.0
 40
0.00666667
 41
0.00666667
  0
SEQEND
 8
0
  0
POLYLINE
  8
0
 62
     0
 66
     1
 10
0
 20
0
 30
0.0
 40
0.48
 41
0.48
  0
VERTEX
  8
0
 10
1.79335
 20
1.65332
 30
0.0
 40
0.00666667
 41
0.00666667
  0
VERTEX
  8
0
 10
1.78999
 20
1.68001
 30
0.0
 40
0.00666667
 41
0.00666667
  0
SEQEND
 8
0
  0
POLYLINE
  8
0
 62
     0
 66
     1
 10
0
 20
0
 30
0.0
 40
0.48
 41
0.48
  0
VERTEX
  8
0
 10
1.78999
 20
1.68001
 30
0.0
 40
0.00666667
 41
0.00666667
  0
VERTEX
  8
0
 10
1.78
 20
1.70665
 30
0.0
 40
0.00666667
 41
0.00666667
  0
SEQEND
 8
0
  0
POLYLINE
  8
0
 62
     0
 66
     1
 10
0
 20
0
 30
0.0
 40
0.48
 41
0.48
  0
VERTEX
  8
0
 10
1.78
 20
1.70665
 30
0.0
 40
0.00666667
 41
0.00666667
  0
VERTEX
  8
0
 10
1.76497
 20
1.72999
 30
0.0
 40
0.00666667
 41
0.00666667
  0
SEQEND
 8
0
  0
POLYLINE
  8
0
 62
     0
 66
     1
 10
0
 20
0
 30
0.0
 40
0.48
 41
0.48
  0
VERTEX
  8
0
 10
1.76497
 20
1.72999
 30
0.0
 40
0.00666667
 41
0.00666667
  0
VERTEX
  8
0
 10
1.75836
 20
1.73665
 30
0.0
 40
0.00666667
 41
0.00666667
  0
SEQEND
 8
0
  0
POLYLINE
  8
0
 62
     0
 66
     1
 10
0
 20
0
 30
0.0
 40
0.48
 41
0.48
  0
VERTEX
  8
0
 10
1.87169
 20
1.68668
 30
0.0
 40
0.00666667
 41
0.00666667
  0
VERTEX
  8
0
 10
1.87169
 20
1.38167
 30
0.0
 40
0.00666667
 41
0.00666667
  0
SEQEND
 8
0
  0
POLYLINE
  8
0
 62
     0
 66
     1
 10
0
 20
0
 30
0.0
 40
0.48
 41
0.48
  0
VERTEX
  8
0
 10
1.90668
 20
1.36664
 30
0.0
 40
0.00666667
 41
0.00666667
  0
VERTEX
  8
0
 10
2.05832
 20
1.52001
 30
0.0
 40
0.00666667
 41
0.00666667
  0
SEQEND
 8
0
  0
POLYLINE
  8
0
 62
     0
 66
     1
 10
0
 20
0
 30
0.0
 40
0.48
 41
0.48
  0
VERTEX
  8
0
 10
1.90668
 20
1.69997
 30
0.0
 40
0.00666667
 41
0.00666667
  0
VERTEX
  8
0
 10
2.05832
 20
1.54833
 30
0.0
 40
0.00666667
 41
0.00666667
  0
SEQEND
 8
0
  0
POLYLINE
  8
0
 62
     0
 66
     1
 10
0
 20
0
 30
0.0
 40
0.48
 41
0.48
  0
VERTEX
  8
0
 10
1.87169
 20
1.68668
 30
0.0
 40
0.00666667
 41
0.00666667
  0
VERTEX
  8
0
 10
1.875
 20
1.69835
 30
0.0
 40
0.00666667
 41
0.00666667
  0
SEQEND
 8
0
  0
POLYLINE
  8
0
 62
     0
 66
     1
 10
0
 20
0
 30
0.0
 40
0.48
 41
0.48
  0
VERTEX
  8
0
 10
1.875
 20
1.69835
 30
0.0
 40
0.00666667
 41
0.00666667
  0
VERTEX
  8
0
 10
1.88499
 20
1.70503
 30
0.0
 40
0.00666667
 41
0.00666667
  0
SEQEND
 8
0
  0
POLYLINE
  8
0
 62
     0
 66
     1
 10
0
 20
0
 30
0.0
 40
0.48
 41
0.48
  0
VERTEX
  8
0
 10
1.88499
 20
1.70503
 30
0.0
 40
0.00666667
 41
0.00666667
  0
VERTEX
  8
0
 10
1.89501
 20
1.70665
 30
0.0
 40
0.00666667
 41
0.00666667
  0
SEQEND
 8
0
  0
POLYLINE
  8
0
 62
     0
 66
     1
 10
0
 20
0
 30
0.0
 40
0.48
 41
0.48
  0
VERTEX
  8
0
 10
1.89501
 20
1.70665
 30
0.0
 40
0.00666667
 41
0.00666667
  0
VERTEX
  8
0
 10
1.905
 20
1.70167
 30
0.0
 40
0.00666667
 41
0.00666667
  0
SEQEND
 8
0
  0
POLYLINE
  8
0
 62
     0
 66
     1
 10
0
 20
0
 30
0.0
 40
0.48
 41
0.48
  0
VERTEX
  8
0
 10
1.905
 20
1.70167
 30
0.0
 40
0.00666667
 41
0.00666667
  0
VERTEX
  8
0
 10
1.90668
 20
1.69997
 30
0.0
 40
0.00666667
 41
0.00666667
  0
SEQEND
 8
0
  0
POLYLINE
  8
0
 62
     0
 66
     1
 10
0
 20
0
 30
0.0
 40
0.48
 41
0.48
  0
VERTEX
  8
0
 10
2.05832
 20
1.54833
 30
0.0
 40
0.00666667
 41
0.00666667
  0
VERTEX
  8
0
 10
2.06332
 20
1.53836
 30
0.0
 40
0.00666667
 41
0.00666667
  0
SEQEND
 8
0
  0
POLYLINE
  8
0
 62
     0
 66
     1
 10
0
 20
0
 30
0.0
 40
0.48
 41
0.48
  0
VERTEX
  8
0
 10
2.06332
 20
1.53836
 30
0.0
 40
0.00666667
 41
0.00666667
  0
VERTEX
  8
0
 10
2.06332
 20
1.52669
 30
0.0
 40
0.00666667
 41
0.00666667
  0
SEQEND
 8
0
  0
POLYLINE
  8
0
 62
     0
 66
     1
 10
0
 20
0
 30
0.0
 40
0.48
 41
0.48
  0
VERTEX
  8
0
 10
2.06332
 20
1.52669
 30
0.0
 40
0.00666667
 41
0.00666667
  0
VERTEX
  8
0
 10
2.05832
 20
1.52001
 30
0.0
 40
0.00666667
 41
0.00666667
  0
SEQEND
 8
0
  0
POLYLINE
  8
0
 62
     0
 66
     1
 10
0
 20
0
 30
0.0
 40
0.48
 41
0.48
  0
VERTEX
  8
0
 10
1.90668
 20
1.36664
 30
0.0
 40
0.00666667
 41
0.00666667
  0
VERTEX
  8
0
 10
1.89665
 20
1.36165
 30
0.0
 40
0.00666667
 41
0.00666667
  0
SEQEND
 8
0
  0
POLYLINE
  8
0
 62
     0
 66
     1
 10
0
 20
0
 30
0.0
 40
0.48
 41
0.48
  0
VERTEX
  8
0
 10
1.89665
 20
1.36165
 30
0.0
 40
0.00666667
 41
0.00666667
  0
VERTEX
  8
0
 10
1.88499
 20
1.36334
 30
0.0
 40
0.00666667
 41
0.00666667
  0
SEQEND
 8
0
  0
POLYLINE
  8
0
 62
     0
 66
     1
 10
0
 20
0
 30
0.0
 40
0.48
 41
0.48
  0
VERTEX
  8
0
 10
1.88499
 20
1.36334
 30
0.0
 40
0.00666667
 41
0.00666667
  0
VERTEX
  8
0
 10
1.875
 20
1.37001
 30
0.0
 40
0.00666667
 41
0.00666667
  0
SEQEND
 8
0
  0
POLYLINE
  8
0
 62
     0
 66
     1
 10
0
 20
0
 30
0.0
 40
0.48
 41
0.48
  0
VERTEX
  8
0
 10
1.875
 20
1.37001
 30
0.0
 40
0.00666667
 41
0.00666667
  0
VERTEX
  8
0
 10
1.87169
 20
1.38167
 30
0.0
 40
0.00666667
 41
0.00666667
  0
SEQEND
 8
0
  0
POLYLINE
  8
0
 62
     0
 66
     1
 10
0
 20
0
 30
0.0
 40
0.48
 41
0.48
  0
VERTEX
  8
0
 10
2.38336
 20
1.68668
 30
0.0
 40
0.00666667
 41
0.00666667
  0
VERTEX
  8
0
 10
2.38336
 20
1.38167
 30
0.0
 40
0.00666667
 41
0.00666667
  0
SEQEND
 8
0
  0
POLYLINE
  8
0
 62
     0
 66
     1
 10
0
 20
0
 30
0.0
 40
0.48
 41
0.48
  0
VERTEX
  8
0
 10
2.34999
 20
1.36664
 30
0.0
 40
0.00666667
 41
0.00666667
  0
VERTEX
  8
0
 10
2.19835
 20
1.52001
 30
0.0
 40
0.00666667
 41
0.00666667
  0
SEQEND
 8
0
  0
POLYLINE
  8
0
 62
     0
 66
     1
 10
0
 20
0
 30
0.0
 40
0.48
 41
0.48
  0
VERTEX
  8
0
 10
2.34999
 20
1.69997
 30
0.0
 40
0.00666667
 41
0.00666667
  0
VERTEX
  8
0
 10
2.19835
 20
1.54833
 30
0.0
 40
0.00666667
 41
0.00666667
  0
SEQEND
 8
0
  0
POLYLINE
  8
0
 62
     0
 66
     1
 10
0
 20
0
 30
0.0
 40
0.48
 41
0.48
  0
VERTEX
  8
0
 10
2.38336
 20
1.68668
 30
0.0
 40
0.00666667
 41
0.00666667
  0
VERTEX
  8
0
 10
2.37999
 20
1.69835
 30
0.0
 40
0.00666667
 41
0.00666667
  0
SEQEND
 8
0
  0
POLYLINE
  8
0
 62
     0
 66
     1
 10
0
 20
0
 30
0.0
 40
0.48
 41
0.48
  0
VERTEX
  8
0
 10
2.37999
 20
1.69835
 30
0.0
 40
0.00666667
 41
0.00666667
  0
VERTEX
  8
0
 10
2.37169
 20
1.70503
 30
0.0
 40
0.00666667
 41
0.00666667
  0
SEQEND
 8
0
  0
POLYLINE
  8
0
 62
     0
 66
     1
 10
0
 20
0
 30
0.0
 40
0.48
 41
0.48
  0
VERTEX
  8
0
 10
2.37169
 20
1.70503
 30
0.0
 40
0.00666667
 41
0.00666667
  0
VERTEX
  8
0
 10
2.36003
 20
1.70665
 30
0.0
 40
0.00666667
 41
0.00666667
  0
SEQEND
 8
0
  0
POLYLINE
  8
0
 62
     0
 66
     1
 10
0
 20
0
 30
0.0
 40
0.48
 41
0.48
  0
VERTEX
  8
0
 10
2.36003
 20
1.70665
 30
0.0
 40
0.00666667
 41
0.00666667
  0
VERTEX
  8
0
 10
2.34999
 20
1.70167
 30
0.0
 40
0.00666667
 41
0.00666667
  0
SEQEND
 8
0
  0
POLYLINE
  8
0
 62
     0
 66
     1
 10
0
 20
0
 30
0.0
 40
0.48
 41
0.48
  0
VERTEX
  8
0
 10
2.34999
 20
1.70167
 30
0.0
 40
0.00666667
 41
0.00666667
  0
VERTEX
  8
0
 10
2.34999
 20
1.69997
 30
0.0
 40
0.00666667
 41
0.00666667
  0
SEQEND
 8
0
  0
POLYLINE
  8
0
 62
     0
 66
     1
 10
0
 20
0
 30
0.0
 40
0.48
 41
0.48
  0
VERTEX
  8
0
 10
2.19835
 20
1.54833
 30
0.0
 40
0.00666667
 41
0.00666667
  0
VERTEX
  8
0
 10
2.19168
 20
1.53836
 30
0.0
 40
0.00666667
 41
0.00666667
  0
SEQEND
 8
0
  0
POLYLINE
  8
0
 62
     0
 66
     1
 10
0
 20
0
 30
0.0
 40
0.48
 41
0.48
  0
VERTEX
  8
0
 10
2.19168
 20
1.53836
 30
0.0
 40
0.00666667
 41
0.00666667
  0
VERTEX
  8
0
 10
2.19336
 20
1.52669
 30
0.0
 40
0.00666667
 41
0.00666667
  0
SEQEND
 8
0
  0
POLYLINE
  8
0
 62
     0
 66
     1
 10
0
 20
0
 30
0.0
 40
0.48
 41
0.48
  0
VERTEX
  8
0
 10
2.19336
 20
1.52669
 30
0.0
 40
0.00666667
 41
0.00666667
  0
VERTEX
  8
0
 10
2.19835
 20
1.52001
 30
0.0
 40
0.00666667
 41
0.00666667
  0
SEQEND
 8
0
  0
POLYLINE
  8
0
 62
     0
 66
     1
 10
0
 20
0
 30
0.0
 40
0.48
 41
0.48
  0
VERTEX
  8
0
 10
2.34999
 20
1.36664
 30
0.0
 40
0.00666667
 41
0.00666667
  0
VERTEX
  8
0
 10
2.36003
 20
1.36165
 30
0.0
 40
0.00666667
 41
0.00666667
  0
SEQEND
 8
0
  0
POLYLINE
  8
0
 62
     0
 66
     1
 10
0
 20
0
 30
0.0
 40
0.48
 41
0.48
  0
VERTEX
  8
0
 10
2.36003
 20
1.36165
 30
0.0
 40
0.00666667
 41
0.00666667
  0
VERTEX
  8
0
 10
2.37169
 20
1.36334
 30
0.0
 40
0.00666667
 41
0.00666667
  0
SEQEND
 8
0
  0
POLYLINE
  8
0
 62
     0
 66
     1
 10
0
 20
0
 30
0.0
 40
0.48
 41
0.48
  0
VERTEX
  8
0
 10
2.37169
 20
1.36334
 30
0.0
 40
0.00666667
 41
0.00666667
  0
VERTEX
  8
0
 10
2.37999
 20
1.37001
 30
0.0
 40
0.00666667
 41
0.00666667
  0
SEQEND
 8
0
  0
POLYLINE
  8
0
 62
     0
 66
     1
 10
0
 20
0
 30
0.0
 40
0.48
 41
0.48
  0
VERTEX
  8
0
 10
2.37999
 20
1.37001
 30
0.0
 40
0.00666667
 41
0.00666667
  0
VERTEX
  8
0
 10
2.38336
 20
1.38167
 30
0.0
 40
0.00666667
 41
0.00666667
  0
SEQEND
 8
0
  0
POLYLINE
  8
0
 62
     0
 66
     1
 10
0
 20
0
 30
0.0
 40
0.48
 41
0.48
  0
VERTEX
  8
0
 10
1.97499
 20
1.78999
 30
0.0
 40
0.00666667
 41
0.00666667
  0
VERTEX
  8
0
 10
2.28168
 20
1.78999
 30
0.0
 40
0.00666667
 41
0.00666667
  0
SEQEND
 8
0
  0
POLYLINE
  8
0
 62
     0
 66
     1
 10
0
 20
0
 30
0.0
 40
0.48
 41
0.48
  0
VERTEX
  8
0
 10
2.29497
 20
1.75667
 30
0.0
 40
0.00666667
 41
0.00666667
  0
VERTEX
  8
0
 10
2.14165
 20
1.60335
 30
0.0
 40
0.00666667
 41
0.00666667
  0
SEQEND
 8
0
  0
POLYLINE
  8
0
 62
     0
 66
     1
 10
0
 20
0
 30
0.0
 40
0.48
 41
0.48
  0
VERTEX
  8
0
 10
1.96164
 20
1.75667
 30
0.0
 40
0.00666667
 41
0.00666667
  0
VERTEX
  8
0
 10
2.11501
 20
1.60335
 30
0.0
 40
0.00666667
 41
0.00666667
  0
SEQEND
 8
0
  0
POLYLINE
  8
0
 62
     0
 66
     1
 10
0
 20
0
 30
0.0
 40
0.48
 41
0.48
  0
VERTEX
  8
0
 10
1.97499
 20
1.78999
 30
0.0
 40
0.00666667
 41
0.00666667
  0
VERTEX
  8
0
 10
1.965
 20
1.78668
 30
0.0
 40
0.00666667
 41
0.00666667
  0
SEQEND
 8
0
  0
POLYLINE
  8
0
 62
     0
 66
     1
 10
0
 20
0
 30
0.0
 40
0.48
 41
0.48
  0
VERTEX
  8
0
 10
1.965
 20
1.78668
 30
0.0
 40
0.00666667
 41
0.00666667
  0
VERTEX
  8
0
 10
1.95665
 20
1.77832
 30
0.0
 40
0.00666667
 41
0.00666667
  0
SEQEND
 8
0
  0
POLYLINE
  8
0
 62
     0
 66
     1
 10
0
 20
0
 30
0.0
 40
0.48
 41
0.48
  0
VERTEX
  8
0
 10
1.95665
 20
1.77832
 30
0.0
 40
0.00666667
 41
0.00666667
  0
VERTEX
  8
0
 10
1.95665
 20
1.76665
 30
0.0
 40
0.00666667
 41
0.00666667
  0
SEQEND
 8
0
  0
POLYLINE
  8
0
 62
     0
 66
     1
 10
0
 20
0
 30
0.0
 40
0.48
 41
0.48
  0
VERTEX
  8
0
 10
1.95665
 20
1.76665
 30
0.0
 40
0.00666667
 41
0.00666667
  0
VERTEX
  8
0
 10
1.96164
 20
1.75667
 30
0.0
 40
0.00666667
 41
0.00666667
  0
SEQEND
 8
0
  0
POLYLINE
  8
0
 62
     0
 66
     1
 10
0
 20
0
 30
0.0
 40
0.48
 41
0.48
  0
VERTEX
  8
0
 10
2.11501
 20
1.60335
 30
0.0
 40
0.00666667
 41
0.00666667
  0
VERTEX
  8
0
 10
2.125
 20
1.59831
 30
0.0
 40
0.00666667
 41
0.00666667
  0
SEQEND
 8
0
  0
POLYLINE
  8
0
 62
     0
 66
     1
 10
0
 20
0
 30
0.0
 40
0.48
 41
0.48
  0
VERTEX
  8
0
 10
2.125
 20
1.59831
 30
0.0
 40
0.00666667
 41
0.00666667
  0
VERTEX
  8
0
 10
2.13499
 20
1.59999
 30
0.0
 40
0.00666667
 41
0.00666667
  0
SEQEND
 8
0
  0
POLYLINE
  8
0
 62
     0
 66
     1
 10
0
 20
0
 30
0.0
 40
0.48
 41
0.48
  0
VERTEX
  8
0
 10
2.13499
 20
1.59999
 30
0.0
 40
0.00666667
 41
0.00666667
  0
VERTEX
  8
0
 10
2.14165
 20
1.60335
 30
0.0
 40
0.00666667
 41
0.00666667
  0
SEQEND
 8
0
  0
POLYLINE
  8
0
 62
     0
 66
     1
 10
0
 20
0
 30
0.0
 40
0.48
 41
0.48
  0
VERTEX
  8
0
 10
2.29497
 20
1.75667
 30
0.0
 40
0.00666667
 41
0.00666667
  0
VERTEX
  8
0
 10
2.30003
 20
1.76665
 30
0.0
 40
0.00666667
 41
0.00666667
  0
SEQEND
 8
0
  0
POLYLINE
  8
0
 62
     0
 66
     1
 10
0
 20
0
 30
0.0
 40
0.48
 41
0.48
  0
VERTEX
  8
0
 10
2.30003
 20
1.76665
 30
0.0
 40
0.00666667
 41
0.00666667
  0
VERTEX
  8
0
 10
2.29833
 20
1.77832
 30
0.0
 40
0.00666667
 41
0.00666667
  0
SEQEND
 8
0
  0
POLYLINE
  8
0
 62
     0
 66
     1
 10
0
 20
0
 30
0.0
 40
0.48
 41
0.48
  0
VERTEX
  8
0
 10
2.29833
 20
1.77832
 30
0.0
 40
0.00666667
 41
0.00666667
  0
VERTEX
  8
0
 10
2.29167
 20
1.78668
 30
0.0
 40
0.00666667
 41
0.00666667
  0
SEQEND
 8
0
  0
POLYLINE
  8
0
 62
     0
 66
     1
 10
0
 20
0
 30
0.0
 40
0.48
 41
0.48
  0
VERTEX
  8
0
 10
2.29167
 20
1.78668
 30
0.0
 40
0.00666667
 41
0.00666667
  0
VERTEX
  8
0
 10
2.28168
 20
1.78999
 30
0.0
 40
0.00666667
 41
0.00666667
  0
SEQEND
 8
0
  0
POLYLINE
  8
0
 62
     0
 66
     1
 10
0
 20
0
 30
0.0
 40
0.48
 41
0.48
  0
VERTEX
  8
0
 10
2.28168
 20
1.27832
 30
0.0
 40
0.00666667
 41
0.00666667
  0
VERTEX
  8
0
 10
1.97499
 20
1.27832
 30
0.0
 40
0.00666667
 41
0.00666667
  0
SEQEND
 8
0
  0
POLYLINE
  8
0
 62
     0
 66
     1
 10
0
 20
0
 30
0.0
 40
0.48
 41
0.48
  0
VERTEX
  8
0
 10
1.96164
 20
1.31169
 30
0.0
 40
0.00666667
 41
0.00666667
  0
VERTEX
  8
0
 10
2.11501
 20
1.465
 30
0.0
 40
0.00666667
 41
0.00666667
  0
SEQEND
 8
0
  0
POLYLINE
  8
0
 62
     0
 66
     1
 10
0
 20
0
 30
0.0
 40
0.48
 41
0.48
  0
VERTEX
  8
0
 10
2.29497
 20
1.31169
 30
0.0
 40
0.00666667
 41
0.00666667
  0
VERTEX
  8
0
 10
2.14165
 20
1.465
 30
0.0
 40
0.00666667
 41
0.00666667
  0
SEQEND
 8
0
  0
POLYLINE
  8
0
 62
     0
 66
     1
 10
0
 20
0
 30
0.0
 40
0.48
 41
0.48
  0
VERTEX
  8
0
 10
2.28168
 20
1.27832
 30
0.0
 40
0.00666667
 41
0.00666667
  0
VERTEX
  8
0
 10
2.29167
 20
1.28168
 30
0.0
 40
0.00666667
 41
0.00666667
  0
SEQEND
 8
0
  0
POLYLINE
  8
0
 62
     0
 66
     1
 10
0
 20
0
 30
0.0
 40
0.48
 41
0.48
  0
VERTEX
  8
0
 10
2.29167
 20
1.28168
 30
0.0
 40
0.00666667
 41
0.00666667
  0
VERTEX
  8
0
 10
2.29833
 20
1.28998
 30
0.0
 40
0.00666667
 41
0.00666667
  0
SEQEND
 8
0
  0
POLYLINE
  8
0
 62
     0
 66
     1
 10
0
 20
0
 30
0.0
 40
0.48
 41
0.48
  0
VERTEX
  8
0
 10
2.29833
 20
1.28998
 30
0.0
 40
0.00666667
 41
0.00666667
  0
VERTEX
  8
0
 10
2.30003
 20
1.30165
 30
0.0
 40
0.00666667
 41
0.00666667
  0
SEQEND
 8
0
  0
POLYLINE
  8
0
 62
     0
 66
     1
 10
0
 20
0
 30
0.0
 40
0.48
 41
0.48
  0
VERTEX
  8
0
 10
2.30003
 20
1.30165
 30
0.0
 40
0.00666667
 41
0.00666667
  0
VERTEX
  8
0
 10
2.29497
 20
1.31169
 30
0.0
 40
0.00666667
 41
0.00666667
  0
SEQEND
 8
0
  0
POLYLINE
  8
0
 62
     0
 66
     1
 10
0
 20
0
 30
0.0
 40
0.48
 41
0.48
  0
VERTEX
  8
0
 10
2.14165
 20
1.465
 30
0.0
 40
0.00666667
 41
0.00666667
  0
VERTEX
  8
0
 10
2.13167
 20
1.47
 30
0.0
 40
0.00666667
 41
0.00666667
  0
SEQEND
 8
0
  0
POLYLINE
  8
0
 62
     0
 66
     1
 10
0
 20
0
 30
0.0
 40
0.48
 41
0.48
  0
VERTEX
  8
0
 10
2.13167
 20
1.47
 30
0.0
 40
0.00666667
 41
0.00666667
  0
VERTEX
  8
0
 10
2.12001
 20
1.46832
 30
0.0
 40
0.00666667
 41
0.00666667
  0
SEQEND
 8
0
  0
POLYLINE
  8
0
 62
     0
 66
     1
 10
0
 20
0
 30
0.0
 40
0.48
 41
0.48
  0
VERTEX
  8
0
 10
2.12001
 20
1.46832
 30
0.0
 40
0.00666667
 41
0.00666667
  0
VERTEX
  8
0
 10
2.11501
 20
1.465
 30
0.0
 40
0.00666667
 41
0.00666667
  0
SEQEND
 8
0
  0
POLYLINE
  8
0
 62
     0
 66
     1
 10
0
 20
0
 30
0.0
 40
0.48
 41
0.48
  0
VERTEX
  8
0
 10
1.96164
 20
1.31169
 30
0.0
 40
0.00666667
 41
0.00666667
  0
VERTEX
  8
0
 10
1.95665
 20
1.30165
 30
0.0
 40
0.00666667
 41
0.00666667
  0
SEQEND
 8
0
  0
POLYLINE
  8
0
 62
     0
 66
     1
 10
0
 20
0
 30
0.0
 40
0.48
 41
0.48
  0
VERTEX
  8
0
 10
1.95665
 20
1.30165
 30
0.0
 40
0.00666667
 41
0.00666667
  0
VERTEX
  8
0
 10
1.95665
 20
1.28998
 30
0.0
 40
0.00666667
 41
0.00666667
  0
SEQEND
 8
0
  0
POLYLINE
  8
0
 62
     0
 66
     1
 10
0
 20
0
 30
0.0
 40
0.48
 41
0.48
  0
VERTEX
  8
0
 10
1.95665
 20
1.28998
 30
0.0
 40
0.00666667
 41
0.00666667
  0
VERTEX
  8
0
 10
1.965
 20
1.28168
 30
0.0
 40
0.00666667
 41
0.00666667
  0
SEQEND
 8
0
  0
POLYLINE
  8
0
 62
     0
 66
     1
 10
0
 20
0
 30
0.0
 40
0.48
 41
0.48
  0
VERTEX
  8
0
 10
1.965
 20
1.28168
 30
0.0
 40
0.00666667
 41
0.00666667
  0
VERTEX
  8
0
 10
1.97499
 20
1.27832
 30
0.0
 40
0.00666667
 41
0.00666667
  0
SEQEND
 8
0
  0
POLYLINE
  8
0
 62
     0
 66
     1
 10
0
 20
0
 30
0.0
 40
0.48
 41
0.48
  0
VERTEX
  8
0
 10
1.18669
 20
0.69336
 30
0.0
 40
0.00666667
 41
0.00666667
  0
VERTEX
  8
0
 10
1.18332
 20
0.708333
 30
0.0
 40
0.00666667
 41
0.00666667
  0
SEQEND
 8
0
  0
POLYLINE
  8
0
 62
     0
 66
     1
 10
0
 20
0
 30
0.0
 40
0.48
 41
0.48
  0
VERTEX
  8
0
 10
1.18332
 20
0.708333
 30
0.0
 40
0.00666667
 41
0.00666667
  0
VERTEX
  8
0
 10
1.17502
 20
0.718317
 30
0.0
 40
0.00666667
 41
0.00666667
  0
SEQEND
 8
0
  0
POLYLINE
  8
0
 62
     0
 66
     1
 10
0
 20
0
 30
0.0
 40
0.48
 41
0.48
  0
VERTEX
  8
0
 10
1.17502
 20
0.718317
 30
0.0
 40
0.00666667
 41
0.00666667
  0
VERTEX
  8
0
 10
1.16168
 20
0.724989
 30
0.0
 40
0.00666667
 41
0.00666667
  0
SEQEND
 8
0
  0
POLYLINE
  8
0
 62
     0
 66
     1
 10
0
 20
0
 30
0.0
 40
0.48
 41
0.48
  0
VERTEX
  8
0
 10
1.16168
 20
0.724989
 30
0.0
 40
0.00666667
 41
0.00666667
  0
VERTEX
  8
0
 10
1.14665
 20
0.723307
 30
0.0
 40
0.00666667
 41
0.00666667
  0
SEQEND
 8
0
  0
POLYLINE
  8
0
 62
     0
 66
     1
 10
0
 20
0
 30
0.0
 40
0.48
 41
0.48
  0
VERTEX
  8
0
 10
1.14665
 20
0.723307
 30
0.0
 40
0.00666667
 41
0.00666667
  0
VERTEX
  8
0
 10
1.13336
 20
0.716689
 30
0.0
 40
0.00666667
 41
0.00666667
  0
SEQEND
 8
0
  0
POLYLINE
  8
0
 62
     0
 66
     1
 10
0
 20
0
 30
0.0
 40
0.48
 41
0.48
  0
VERTEX
  8
0
 10
1.13336
 20
0.716689
 30
0.0
 40
0.00666667
 41
0.00666667
  0
VERTEX
  8
0
 10
1.12668
 20
0.705024
 30
0.0
 40
0.00666667
 41
0.00666667
  0
SEQEND
 8
0
  0
POLYLINE
  8
0
 62
     0
 66
     1
 10
0
 20
0
 30
0.0
 40
0.48
 41
0.48
  0
VERTEX
  8
0
 10
1.12668
 20
0.705024
 30
0.0
 40
0.00666667
 41
0.00666667
  0
VERTEX
  8
0
 10
1.12332
 20
0.691678
 30
0.0
 40
0.00666667
 41
0.00666667
  0
SEQEND
 8
0
  0
POLYLINE
  8
0
 62
     0
 66
     1
 10
0
 20
0
 30
0.0
 40
0.48
 41
0.48
  0
VERTEX
  8
0
 10
1.12332
 20
0.691678
 30
0.0
 40
0.00666667
 41
0.00666667
  0
VERTEX
  8
0
 10
1.12831
 20
0.67665
 30
0.0
 40
0.00666667
 41
0.00666667
  0
SEQEND
 8
0
  0
POLYLINE
  8
0
 62
     0
 66
     1
 10
0
 20
0
 30
0.0
 40
0.48
 41
0.48
  0
VERTEX
  8
0
 10
1.12831
 20
0.67665
 30
0.0
 40
0.00666667
 41
0.00666667
  0
VERTEX
  8
0
 10
1.13835
 20
0.666667
 30
0.0
 40
0.00666667
 41
0.00666667
  0
SEQEND
 8
0
  0
POLYLINE
  8
0
 62
     0
 66
     1
 10
0
 20
0
 30
0.0
 40
0.48
 41
0.48
  0
VERTEX
  8
0
 10
1.13835
 20
0.666667
 30
0.0
 40
0.00666667
 41
0.00666667
  0
VERTEX
  8
0
 10
1.15169
 20
0.661675
 30
0.0
 40
0.00666667
 41
0.00666667
  0
SEQEND
 8
0
  0
POLYLINE
  8
0
 62
     0
 66
     1
 10
0
 20
0
 30
0.0
 40
0.48
 41
0.48
  0
VERTEX
  8
0
 10
1.15169
 20
0.661675
 30
0.0
 40
0.00666667
 41
0.00666667
  0
VERTEX
  8
0
 10
1.16667
 20
0.664985
 30
0.0
 40
0.00666667
 41
0.00666667
  0
SEQEND
 8
0
  0
POLYLINE
  8
0
 62
     0
 66
     1
 10
0
 20
0
 30
0.0
 40
0.48
 41
0.48
  0
VERTEX
  8
0
 10
1.16667
 20
0.664985
 30
0.0
 40
0.00666667
 41
0.00666667
  0
VERTEX
  8
0
 10
1.17833
 20
0.671658
 30
0.0
 40
0.00666667
 41
0.00666667
  0
SEQEND
 8
0
  0
POLYLINE
  8
0
 62
     0
 66
     1
 10
0
 20
0
 30
0.0
 40
0.48
 41
0.48
  0
VERTEX
  8
0
 10
1.17833
 20
0.671658
 30
0.0
 40
0.00666667
 41
0.00666667
  0
VERTEX
  8
0
 10
1.185
 20
0.685004
 30
0.0
 40
0.00666667
 41
0.00666667
  0
SEQEND
 8
0
  0
POLYLINE
  8
0
 62
     0
 66
     1
 10
0
 20
0
 30
0.0
 40
0.48
 41
0.48
  0
VERTEX
  8
0
 10
1.185
 20
0.685004
 30
0.0
 40
0.00666667
 41
0.00666667
  0
VERTEX
  8
0
 10
1.18669
 20
0.69336
 30
0.0
 40
0.00666667
 41
0.00666667
  0
SEQEND
 8
0
  0
POLYLINE
  8
0
 62
     0
 66
     1
 10
0
 20
0
 30
0.0
 40
0.48
 41
0.48
  0
VERTEX
  8
0
 10
1.13835
 20
0.513346
 30
0.0
 40
0.00666667
 41
0.00666667
  0
VERTEX
  8
0
 10
1.13498
 20
0.526693
 30
0.0
 40
0.00666667
 41
0.00666667
  0
SEQEND
 8
0
  0
POLYLINE
  8
0
 62
     0
 66
     1
 10
0
 20
0
 30
0.0
 40
0.48
 41
0.48
  0
VERTEX
  8
0
 10
1.13498
 20
0.526693
 30
0.0
 40
0.00666667
 41
0.00666667
  0
VERTEX
  8
0
 10
1.125
 20
0.538357
 30
0.0
 40
0.00666667
 41
0.00666667
  0
SEQEND
 8
0
  0
POLYLINE
  8
0
 62
     0
 66
     1
 10
0
 20
0
 30
0.0
 40
0.48
 41
0.48
  0
VERTEX
  8
0
 10
1.125
 20
0.538357
 30
0.0
 40
0.00666667
 41
0.00666667
  0
VERTEX
  8
0
 10
1.11334
 20
0.543349
 30
0.0
 40
0.00666667
 41
0.00666667
  0
SEQEND
 8
0
  0
POLYLINE
  8
0
 62
     0
 66
     1
 10
0
 20
0
 30
0.0
 40
0.48
 41
0.48
  0
VERTEX
  8
0
 10
1.11334
 20
0.543349
 30
0.0
 40
0.00666667
 41
0.00666667
  0
VERTEX
  8
0
 10
1.09831
 20
0.543349
 30
0.0
 40
0.00666667
 41
0.00666667
  0
SEQEND
 8
0
  0
POLYLINE
  8
0
 62
     0
 66
     1
 10
0
 20
0
 30
0.0
 40
0.48
 41
0.48
  0
VERTEX
  8
0
 10
1.09831
 20
0.543349
 30
0.0
 40
0.00666667
 41
0.00666667
  0
VERTEX
  8
0
 10
1.08502
 20
0.536675
 30
0.0
 40
0.00666667
 41
0.00666667
  0
SEQEND
 8
0
  0
POLYLINE
  8
0
 62
     0
 66
     1
 10
0
 20
0
 30
0.0
 40
0.48
 41
0.48
  0
VERTEX
  8
0
 10
1.08502
 20
0.536675
 30
0.0
 40
0.00666667
 41
0.00666667
  0
VERTEX
  8
0
 10
1.07666
 20
0.523329
 30
0.0
 40
0.00666667
 41
0.00666667
  0
SEQEND
 8
0
  0
POLYLINE
  8
0
 62
     0
 66
     1
 10
0
 20
0
 30
0.0
 40
0.48
 41
0.48
  0
VERTEX
  8
0
 10
1.07666
 20
0.523329
 30
0.0
 40
0.00666667
 41
0.00666667
  0
VERTEX
  8
0
 10
1.07498
 20
0.509983
 30
0.0
 40
0.00666667
 41
0.00666667
  0
SEQEND
 8
0
  0
POLYLINE
  8
0
 62
     0
 66
     1
 10
0
 20
0
 30
0.0
 40
0.48
 41
0.48
  0
VERTEX
  8
0
 10
1.07498
 20
0.509983
 30
0.0
 40
0.00666667
 41
0.00666667
  0
VERTEX
  8
0
 10
1.08002
 20
0.49669
 30
0.0
 40
0.00666667
 41
0.00666667
  0
SEQEND
 8
0
  0
POLYLINE
  8
0
 62
     0
 66
     1
 10
0
 20
0
 30
0.0
 40
0.48
 41
0.48
  0
VERTEX
  8
0
 10
1.08002
 20
0.49669
 30
0.0
 40
0.00666667
 41
0.00666667
  0
VERTEX
  8
0
 10
1.09001
 20
0.486654
 30
0.0
 40
0.00666667
 41
0.00666667
  0
SEQEND
 8
0
  0
POLYLINE
  8
0
 62
     0
 66
     1
 10
0
 20
0
 30
0.0
 40
0.48
 41
0.48
  0
VERTEX
  8
0
 10
1.09001
 20
0.486654
 30
0.0
 40
0.00666667
 41
0.00666667
  0
VERTEX
  8
0
 10
1.10335
 20
0.481662
 30
0.0
 40
0.00666667
 41
0.00666667
  0
SEQEND
 8
0
  0
POLYLINE
  8
0
 62
     0
 66
     1
 10
0
 20
0
 30
0.0
 40
0.48
 41
0.48
  0
VERTEX
  8
0
 10
1.10335
 20
0.481662
 30
0.0
 40
0.00666667
 41
0.00666667
  0
VERTEX
  8
0
 10
1.11833
 20
0.483344
 30
0.0
 40
0.00666667
 41
0.00666667
  0
SEQEND
 8
0
  0
POLYLINE
  8
0
 62
     0
 66
     1
 10
0
 20
0
 30
0.0
 40
0.48
 41
0.48
  0
VERTEX
  8
0
 10
1.11833
 20
0.483344
 30
0.0
 40
0.00666667
 41
0.00666667
  0
VERTEX
  8
0
 10
1.12999
 20
0.491644
 30
0.0
 40
0.00666667
 41
0.00666667
  0
SEQEND
 8
0
  0
POLYLINE
  8
0
 62
     0
 66
     1
 10
0
 20
0
 30
0.0
 40
0.48
 41
0.48
  0
VERTEX
  8
0
 10
1.12999
 20
0.491644
 30
0.0
 40
0.00666667
 41
0.00666667
  0
VERTEX
  8
0
 10
1.13666
 20
0.50331
 30
0.0
 40
0.00666667
 41
0.00666667
  0
SEQEND
 8
0
  0
POLYLINE
  8
0
 62
     0
 66
     1
 10
0
 20
0
 30
0.0
 40
0.48
 41
0.48
  0
VERTEX
  8
0
 10
1.13666
 20
0.50331
 30
0.0
 40
0.00666667
 41
0.00666667
  0
VERTEX
  8
0
 10
1.13835
 20
0.513346
 30
0.0
 40
0.00666667
 41
0.00666667
  0
SEQEND
 8
0
  0
POLYLINE
  8
0
 62
     0
 66
     1
 10
0
 20
0
 30
0.0
 40
0.48
 41
0.48
  0
VERTEX
  8
0
 10
1.31999
 20
0.561686
 30
0.0
 40
0.00666667
 41
0.00666667
  0
VERTEX
  8
0
 10
1.31668
 20
0.574978
 30
0.0
 40
0.00666667
 41
0.00666667
  0
SEQEND
 8
0
  0
POLYLINE
  8
0
 62
     0
 66
     1
 10
0
 20
0
 30
0.0
 40
0.48
 41
0.48
  0
VERTEX
  8
0
 10
1.31668
 20
0.574978
 30
0.0
 40
0.00666667
 41
0.00666667
  0
VERTEX
  8
0
 10
1.30664
 20
0.586643
 30
0.0
 40
0.00666667
 41
0.00666667
  0
SEQEND
 8
0
  0
POLYLINE
  8
0
 62
     0
 66
     1
 10
0
 20
0
 30
0.0
 40
0.48
 41
0.48
  0
VERTEX
  8
0
 10
1.30664
 20
0.586643
 30
0.0
 40
0.00666667
 41
0.00666667
  0
VERTEX
  8
0
 10
1.29335
 20
0.591689
 30
0.0
 40
0.00666667
 41
0.00666667
  0
SEQEND
 8
0
  0
POLYLINE
  8
0
 62
     0
 66
     1
 10
0
 20
0
 30
0.0
 40
0.48
 41
0.48
  0
VERTEX
  8
0
 10
1.29335
 20
0.591689
 30
0.0
 40
0.00666667
 41
0.00666667
  0
VERTEX
  8
0
 10
1.28
 20
0.591689
 30
0.0
 40
0.00666667
 41
0.00666667
  0
SEQEND
 8
0
  0
POLYLINE
  8
0
 62
     0
 66
     1
 10
0
 20
0
 30
0.0
 40
0.48
 41
0.48
  0
VERTEX
  8
0
 10
1.28
 20
0.591689
 30
0.0
 40
0.00666667
 41
0.00666667
  0
VERTEX
  8
0
 10
1.26666
 20
0.585015
 30
0.0
 40
0.00666667
 41
0.00666667
  0
SEQEND
 8
0
  0
POLYLINE
  8
0
 62
     0
 66
     1
 10
0
 20
0
 30
0.0
 40
0.48
 41
0.48
  0
VERTEX
  8
0
 10
1.26666
 20
0.585015
 30
0.0
 40
0.00666667
 41
0.00666667
  0
VERTEX
  8
0
 10
1.25836
 20
0.573351
 30
0.0
 40
0.00666667
 41
0.00666667
  0
SEQEND
 8
0
  0
POLYLINE
  8
0
 62
     0
 66
     1
 10
0
 20
0
 30
0.0
 40
0.48
 41
0.48
  0
VERTEX
  8
0
 10
1.25836
 20
0.573351
 30
0.0
 40
0.00666667
 41
0.00666667
  0
VERTEX
  8
0
 10
1.25667
 20
0.558322
 30
0.0
 40
0.00666667
 41
0.00666667
  0
SEQEND
 8
0
  0
POLYLINE
  8
0
 62
     0
 66
     1
 10
0
 20
0
 30
0.0
 40
0.48
 41
0.48
  0
VERTEX
  8
0
 10
1.25667
 20
0.558322
 30
0.0
 40
0.00666667
 41
0.00666667
  0
VERTEX
  8
0
 10
1.26166
 20
0.544976
 30
0.0
 40
0.00666667
 41
0.00666667
  0
SEQEND
 8
0
  0
POLYLINE
  8
0
 62
     0
 66
     1
 10
0
 20
0
 30
0.0
 40
0.48
 41
0.48
  0
VERTEX
  8
0
 10
1.26166
 20
0.544976
 30
0.0
 40
0.00666667
 41
0.00666667
  0
VERTEX
  8
0
 10
1.27165
 20
0.534993
 30
0.0
 40
0.00666667
 41
0.00666667
  0
SEQEND
 8
0
  0
POLYLINE
  8
0
 62
     0
 66
     1
 10
0
 20
0
 30
0.0
 40
0.48
 41
0.48
  0
VERTEX
  8
0
 10
1.27165
 20
0.534993
 30
0.0
 40
0.00666667
 41
0.00666667
  0
VERTEX
  8
0
 10
1.28499
 20
0.530003
 30
0.0
 40
0.00666667
 41
0.00666667
  0
SEQEND
 8
0
  0
POLYLINE
  8
0
 62
     0
 66
     1
 10
0
 20
0
 30
0.0
 40
0.48
 41
0.48
  0
VERTEX
  8
0
 10
1.28499
 20
0.530003
 30
0.0
 40
0.00666667
 41
0.00666667
  0
VERTEX
  8
0
 10
1.29834
 20
0.531685
 30
0.0
 40
0.00666667
 41
0.00666667
  0
SEQEND
 8
0
  0
POLYLINE
  8
0
 62
     0
 66
     1
 10
0
 20
0
 30
0.0
 40
0.48
 41
0.48
  0
VERTEX
  8
0
 10
1.29834
 20
0.531685
 30
0.0
 40
0.00666667
 41
0.00666667
  0
VERTEX
  8
0
 10
1.31169
 20
0.539985
 30
0.0
 40
0.00666667
 41
0.00666667
  0
SEQEND
 8
0
  0
POLYLINE
  8
0
 62
     0
 66
     1
 10
0
 20
0
 30
0.0
 40
0.48
 41
0.48
  0
VERTEX
  8
0
 10
1.31169
 20
0.539985
 30
0.0
 40
0.00666667
 41
0.00666667
  0
VERTEX
  8
0
 10
1.31836
 20
0.55165
 30
0.0
 40
0.00666667
 41
0.00666667
  0
SEQEND
 8
0
  0
POLYLINE
  8
0
 62
     0
 66
     1
 10
0
 20
0
 30
0.0
 40
0.48
 41
0.48
  0
VERTEX
  8
0
 10
1.31836
 20
0.55165
 30
0.0
 40
0.00666667
 41
0.00666667
  0
VERTEX
  8
0
 10
1.31999
 20
0.561686
 30
0.0
 40
0.00666667
 41
0.00666667
  0
SEQEND
 8
0
  0
POLYLINE
  8
0
 62
     0
 66
     1
 10
0
 20
0
 30
0.0
 40
0.48
 41
0.48
  0
VERTEX
  8
0
 10
1.15831
 20
0.764974
 30
0.0
 40
0.00666667
 41
0.00666667
  0
VERTEX
  8
0
 10
1.125
 20
0.756674
 30
0.0
 40
0.00666667
 41
0.00666667
  0
SEQEND
 8
0
  0
POLYLINE
  8
0
 62
     0
 66
     1
 10
0
 20
0
 30
0.0
 40
0.48
 41
0.48
  0
VERTEX
  8
0
 10
1.125
 20
0.756674
 30
0.0
 40
0.00666667
 41
0.00666667
  0
VERTEX
  8
0
 10
1.09332
 20
0.741644
 30
0.0
 40
0.00666667
 41
0.00666667
  0
SEQEND
 8
0
  0
POLYLINE
  8
0
 62
     0
 66
     1
 10
0
 20
0
 30
0.0
 40
0.48
 41
0.48
  0
VERTEX
  8
0
 10
1.09332
 20
0.741644
 30
0.0
 40
0.00666667
 41
0.00666667
  0
VERTEX
  8
0
 10
1.06668
 20
0.721679
 30
0.0
 40
0.00666667
 41
0.00666667
  0
SEQEND
 8
0
  0
POLYLINE
  8
0
 62
     0
 66
     1
 10
0
 20
0
 30
0.0
 40
0.48
 41
0.48
  0
VERTEX
  8
0
 10
1.06668
 20
0.721679
 30
0.0
 40
0.00666667
 41
0.00666667
  0
VERTEX
  8
0
 10
1.04335
 20
0.696669
 30
0.0
 40
0.00666667
 41
0.00666667
  0
SEQEND
 8
0
  0
POLYLINE
  8
0
 62
     0
 66
     1
 10
0
 20
0
 30
0.0
 40
0.48
 41
0.48
  0
VERTEX
  8
0
 10
1.04335
 20
0.696669
 30
0.0
 40
0.00666667
 41
0.00666667
  0
VERTEX
  8
0
 10
1.02501
 20
0.668349
 30
0.0
 40
0.00666667
 41
0.00666667
  0
SEQEND
 8
0
  0
POLYLINE
  8
0
 62
     0
 66
     1
 10
0
 20
0
 30
0.0
 40
0.48
 41
0.48
  0
VERTEX
  8
0
 10
1.02501
 20
0.668349
 30
0.0
 40
0.00666667
 41
0.00666667
  0
VERTEX
  8
0
 10
1.01166
 20
0.634983
 30
0.0
 40
0.00666667
 41
0.00666667
  0
SEQEND
 8
0
  0
POLYLINE
  8
0
 62
     0
 66
     1
 10
0
 20
0
 30
0.0
 40
0.48
 41
0.48
  0
VERTEX
  8
0
 10
1.01166
 20
0.634983
 30
0.0
 40
0.00666667
 41
0.00666667
  0
VERTEX
  8
0
 10
1.00667
 20
0.601671
 30
0.0
 40
0.00666667
 41
0.00666667
  0
SEQEND
 8
0
  0
POLYLINE
  8
0
 62
     0
 66
     1
 10
0
 20
0
 30
0.0
 40
0.48
 41
0.48
  0
VERTEX
  8
0
 10
1.00667
 20
0.601671
 30
0.0
 40
0.00666667
 41
0.00666667
  0
VERTEX
  8
0
 10
1.00667
 20
0.566678
 30
0.0
 40
0.00666667
 41
0.00666667
  0
SEQEND
 8
0
  0
POLYLINE
  8
0
 62
     0
 66
     1
 10
0
 20
0
 30
0.0
 40
0.48
 41
0.48
  0
VERTEX
  8
0
 10
1.00667
 20
0.566678
 30
0.0
 40
0.00666667
 41
0.00666667
  0
VERTEX
  8
0
 10
1.01497
 20
0.533311
 30
0.0
 40
0.00666667
 41
0.00666667
  0
SEQEND
 8
0
  0
POLYLINE
  8
0
 62
     0
 66
     1
 10
0
 20
0
 30
0.0
 40
0.48
 41
0.48
  0
VERTEX
  8
0
 10
1.01497
 20
0.533311
 30
0.0
 40
0.00666667
 41
0.00666667
  0
VERTEX
  8
0
 10
1.02832
 20
0.501682
 30
0.0
 40
0.00666667
 41
0.00666667
  0
SEQEND
 8
0
  0
POLYLINE
  8
0
 62
     0
 66
     1
 10
0
 20
0
 30
0.0
 40
0.48
 41
0.48
  0
VERTEX
  8
0
 10
1.02832
 20
0.501682
 30
0.0
 40
0.00666667
 41
0.00666667
  0
VERTEX
  8
0
 10
1.04834
 20
0.474989
 30
0.0
 40
0.00666667
 41
0.00666667
  0
SEQEND
 8
0
  0
POLYLINE
  8
0
 62
     0
 66
     1
 10
0
 20
0
 30
0.0
 40
0.48
 41
0.48
  0
VERTEX
  8
0
 10
1.04834
 20
0.474989
 30
0.0
 40
0.00666667
 41
0.00666667
  0
VERTEX
  8
0
 10
1.07335
 20
0.449978
 30
0.0
 40
0.00666667
 41
0.00666667
  0
SEQEND
 8
0
  0
POLYLINE
  8
0
 62
     0
 66
     1
 10
0
 20
0
 30
0.0
 40
0.48
 41
0.48
  0
VERTEX
  8
0
 10
1.07335
 20
0.449978
 30
0.0
 40
0.00666667
 41
0.00666667
  0
VERTEX
  8
0
 10
1.10167
 20
0.43164
 30
0.0
 40
0.00666667
 41
0.00666667
  0
SEQEND
 8
0
  0
POLYLINE
  8
0
 62
     0
 66
     1
 10
0
 20
0
 30
0.0
 40
0.48
 41
0.48
  0
VERTEX
  8
0
 10
1.10167
 20
0.43164
 30
0.0
 40
0.00666667
 41
0.00666667
  0
VERTEX
  8
0
 10
1.13336
 20
0.418349
 30
0.0
 40
0.00666667
 41
0.00666667
  0
SEQEND
 8
0
  0
POLYLINE
  8
0
 62
     0
 66
     1
 10
0
 20
0
 30
0.0
 40
0.48
 41
0.48
  0
VERTEX
  8
0
 10
1.13336
 20
0.418349
 30
0.0
 40
0.00666667
 41
0.00666667
  0
VERTEX
  8
0
 10
1.16835
 20
0.413357
 30
0.0
 40
0.00666667
 41
0.00666667
  0
SEQEND
 8
0
  0
POLYLINE
  8
0
 62
     0
 66
     1
 10
0
 20
0
 30
0.0
 40
0.48
 41
0.48
  0
VERTEX
  8
0
 10
1.16835
 20
0.413357
 30
0.0
 40
0.00666667
 41
0.00666667
  0
VERTEX
  8
0
 10
1.20166
 20
0.413357
 30
0.0
 40
0.00666667
 41
0.00666667
  0
SEQEND
 8
0
  0
POLYLINE
  8
0
 62
     0
 66
     1
 10
0
 20
0
 30
0.0
 40
0.48
 41
0.48
  0
VERTEX
  8
0
 10
1.20166
 20
0.413357
 30
0.0
 40
0.00666667
 41
0.00666667
  0
VERTEX
  8
0
 10
1.23503
 20
0.419976
 30
0.0
 40
0.00666667
 41
0.00666667
  0
SEQEND
 8
0
  0
POLYLINE
  8
0
 62
     0
 66
     1
 10
0
 20
0
 30
0.0
 40
0.48
 41
0.48
  0
VERTEX
  8
0
 10
1.23503
 20
0.419976
 30
0.0
 40
0.00666667
 41
0.00666667
  0
VERTEX
  8
0
 10
1.26666
 20
0.433322
 30
0.0
 40
0.00666667
 41
0.00666667
  0
SEQEND
 8
0
  0
POLYLINE
  8
0
 62
     0
 66
     1
 10
0
 20
0
 30
0.0
 40
0.48
 41
0.48
  0
VERTEX
  8
0
 10
1.26666
 20
0.433322
 30
0.0
 40
0.00666667
 41
0.00666667
  0
VERTEX
  8
0
 10
1.29498
 20
0.45166
 30
0.0
 40
0.00666667
 41
0.00666667
  0
SEQEND
 8
0
  0
POLYLINE
  8
0
 62
     0
 66
     1
 10
0
 20
0
 30
0.0
 40
0.48
 41
0.48
  0
VERTEX
  8
0
 10
1.29498
 20
0.45166
 30
0.0
 40
0.00666667
 41
0.00666667
  0
VERTEX
  8
0
 10
1.31999
 20
0.476671
 30
0.0
 40
0.00666667
 41
0.00666667
  0
SEQEND
 8
0
  0
POLYLINE
  8
0
 62
     0
 66
     1
 10
0
 20
0
 30
0.0
 40
0.48
 41
0.48
  0
VERTEX
  8
0
 10
1.31999
 20
0.476671
 30
0.0
 40
0.00666667
 41
0.00666667
  0
VERTEX
  8
0
 10
1.33832
 20
0.504992
 30
0.0
 40
0.00666667
 41
0.00666667
  0
SEQEND
 8
0
  0
POLYLINE
  8
0
 62
     0
 66
     1
 10
0
 20
0
 30
0.0
 40
0.48
 41
0.48
  0
VERTEX
  8
0
 10
1.33832
 20
0.504992
 30
0.0
 40
0.00666667
 41
0.00666667
  0
VERTEX
  8
0
 10
1.35167
 20
0.536675
 30
0.0
 40
0.00666667
 41
0.00666667
  0
SEQEND
 8
0
  0
POLYLINE
  8
0
 62
     0
 66
     1
 10
0
 20
0
 30
0.0
 40
0.48
 41
0.48
  0
VERTEX
  8
0
 10
1.35167
 20
0.536675
 30
0.0
 40
0.00666667
 41
0.00666667
  0
VERTEX
  8
0
 10
1.35834
 20
0.563314
 30
0.0
 40
0.00666667
 41
0.00666667
  0
SEQEND
 8
0
  0
POLYLINE
  8
0
 62
     0
 66
     1
 10
0
 20
0
 30
0.0
 40
0.48
 41
0.48
  0
VERTEX
  8
0
 10
1.15831
 20
0.764974
 30
0.0
 40
0.00666667
 41
0.00666667
  0
VERTEX
  8
0
 10
1.185
 20
0.771647
 30
0.0
 40
0.00666667
 41
0.00666667
  0
SEQEND
 8
0
  0
POLYLINE
  8
0
 62
     0
 66
     1
 10
0
 20
0
 30
0.0
 40
0.48
 41
0.48
  0
VERTEX
  8
0
 10
1.185
 20
0.771647
 30
0.0
 40
0.00666667
 41
0.00666667
  0
VERTEX
  8
0
 10
1.21002
 20
0.784993
 30
0.0
 40
0.00666667
 41
0.00666667
  0
SEQEND
 8
0
  0
POLYLINE
  8
0
 62
     0
 66
     1
 10
0
 20
0
 30
0.0
 40
0.48
 41
0.48
  0
VERTEX
  8
0
 10
1.21002
 20
0.784993
 30
0.0
 40
0.00666667
 41
0.00666667
  0
VERTEX
  8
0
 10
1.22499
 20
0.79834
 30
0.0
 40
0.00666667
 41
0.00666667
  0
SEQEND
 8
0
  0
POLYLINE
  8
0
 62
     0
 66
     1
 10
0
 20
0
 30
0.0
 40
0.48
 41
0.48
  0
VERTEX
  8
0
 10
1.35834
 20
0.563314
 30
0.0
 40
0.00666667
 41
0.00666667
  0
VERTEX
  8
0
 10
1.36664
 20
0.591689
 30
0.0
 40
0.00666667
 41
0.00666667
  0
SEQEND
 8
0
  0
POLYLINE
  8
0
 62
     0
 66
     1
 10
0
 20
0
 30
0.0
 40
0.48
 41
0.48
  0
VERTEX
  8
0
 10
1.36664
 20
0.591689
 30
0.0
 40
0.00666667
 41
0.00666667
  0
VERTEX
  8
0
 10
1.37999
 20
0.615018
 30
0.0
 40
0.00666667
 41
0.00666667
  0
SEQEND
 8
0
  0
POLYLINE
  8
0
 62
     0
 66
     1
 10
0
 20
0
 30
0.0
 40
0.48
 41
0.48
  0
VERTEX
  8
0
 10
1.37999
 20
0.615018
 30
0.0
 40
0.00666667
 41
0.00666667
  0
VERTEX
  8
0
 10
1.39165
 20
0.631674
 30
0.0
 40
0.00666667
 41
0.00666667
  0
SEQEND
 8
0
  0
POLYLINE
  8
0
 62
     0
 66
     1
 10
0
 20
0
 30
0.0
 40
0.48
 41
0.48
  0
VERTEX
  8
0
 10
3.13336
 20
0.69336
 30
0.0
 40
0.00666667
 41
0.00666667
  0
VERTEX
  8
0
 10
3.12999
 20
0.708333
 30
0.0
 40
0.00666667
 41
0.00666667
  0
SEQEND
 8
0
  0
POLYLINE
  8
0
 62
     0
 66
     1
 10
0
 20
0
 30
0.0
 40
0.48
 41
0.48
  0
VERTEX
  8
0
 10
3.12999
 20
0.708333
 30
0.0
 40
0.00666667
 41
0.00666667
  0
VERTEX
  8
0
 10
3.12001
 20
0.718317
 30
0.0
 40
0.00666667
 41
0.00666667
  0
SEQEND
 8
0
  0
POLYLINE
  8
0
 62
     0
 66
     1
 10
0
 20
0
 30
0.0
 40
0.48
 41
0.48
  0
VERTEX
  8
0
 10
3.12001
 20
0.718317
 30
0.0
 40
0.00666667
 41
0.00666667
  0
VERTEX
  8
0
 10
3.10667
 20
0.724989
 30
0.0
 40
0.00666667
 41
0.00666667
  0
SEQEND
 8
0
  0
POLYLINE
  8
0
 62
     0
 66
     1
 10
0
 20
0
 30
0.0
 40
0.48
 41
0.48
  0
VERTEX
  8
0
 10
3.10667
 20
0.724989
 30
0.0
 40
0.00666667
 41
0.00666667
  0
VERTEX
  8
0
 10
3.09332
 20
0.723307
 30
0.0
 40
0.00666667
 41
0.00666667
  0
SEQEND
 8
0
  0
POLYLINE
  8
0
 62
     0
 66
     1
 10
0
 20
0
 30
0.0
 40
0.48
 41
0.48
  0
VERTEX
  8
0
 10
3.09332
 20
0.723307
 30
0.0
 40
0.00666667
 41
0.00666667
  0
VERTEX
  8
0
 10
3.08003
 20
0.716689
 30
0.0
 40
0.00666667
 41
0.00666667
  0
SEQEND
 8
0
  0
POLYLINE
  8
0
 62
     0
 66
     1
 10
0
 20
0
 30
0.0
 40
0.48
 41
0.48
  0
VERTEX
  8
0
 10
3.08003
 20
0.716689
 30
0.0
 40
0.00666667
 41
0.00666667
  0
VERTEX
  8
0
 10
3.07167
 20
0.705024
 30
0.0
 40
0.00666667
 41
0.00666667
  0
SEQEND
 8
0
  0
POLYLINE
  8
0
 62
     0
 66
     1
 10
0
 20
0
 30
0.0
 40
0.48
 41
0.48
  0
VERTEX
  8
0
 10
3.07167
 20
0.705024
 30
0.0
 40
0.00666667
 41
0.00666667
  0
VERTEX
  8
0
 10
3.06999
 20
0.691678
 30
0.0
 40
0.00666667
 41
0.00666667
  0
SEQEND
 8
0
  0
POLYLINE
  8
0
 62
     0
 66
     1
 10
0
 20
0
 30
0.0
 40
0.48
 41
0.48
  0
VERTEX
  8
0
 10
3.06999
 20
0.691678
 30
0.0
 40
0.00666667
 41
0.00666667
  0
VERTEX
  8
0
 10
3.07335
 20
0.67665
 30
0.0
 40
0.00666667
 41
0.00666667
  0
SEQEND
 8
0
  0
POLYLINE
  8
0
 62
     0
 66
     1
 10
0
 20
0
 30
0.0
 40
0.48
 41
0.48
  0
VERTEX
  8
0
 10
3.07335
 20
0.67665
 30
0.0
 40
0.00666667
 41
0.00666667
  0
VERTEX
  8
0
 10
3.08501
 20
0.666667
 30
0.0
 40
0.00666667
 41
0.00666667
  0
SEQEND
 8
0
  0
POLYLINE
  8
0
 62
     0
 66
     1
 10
0
 20
0
 30
0.0
 40
0.48
 41
0.48
  0
VERTEX
  8
0
 10
3.08501
 20
0.666667
 30
0.0
 40
0.00666667
 41
0.00666667
  0
VERTEX
  8
0
 10
3.09831
 20
0.661675
 30
0.0
 40
0.00666667
 41
0.00666667
  0
SEQEND
 8
0
  0
POLYLINE
  8
0
 62
     0
 66
     1
 10
0
 20
0
 30
0.0
 40
0.48
 41
0.48
  0
VERTEX
  8
0
 10
3.09831
 20
0.661675
 30
0.0
 40
0.00666667
 41
0.00666667
  0
VERTEX
  8
0
 10
3.11165
 20
0.664985
 30
0.0
 40
0.00666667
 41
0.00666667
  0
SEQEND
 8
0
  0
POLYLINE
  8
0
 62
     0
 66
     1
 10
0
 20
0
 30
0.0
 40
0.48
 41
0.48
  0
VERTEX
  8
0
 10
3.11165
 20
0.664985
 30
0.0
 40
0.00666667
 41
0.00666667
  0
VERTEX
  8
0
 10
3.12332
 20
0.671658
 30
0.0
 40
0.00666667
 41
0.00666667
  0
SEQEND
 8
0
  0
POLYLINE
  8
0
 62
     0
 66
     1
 10
0
 20
0
 30
0.0
 40
0.48
 41
0.48
  0
VERTEX
  8
0
 10
3.12332
 20
0.671658
 30
0.0
 40
0.00666667
 41
0.00666667
  0
VERTEX
  8
0
 10
3.13167
 20
0.685004
 30
0.0
 40
0.00666667
 41
0.00666667
  0
SEQEND
 8
0
  0
POLYLINE
  8
0
 62
     0
 66
     1
 10
0
 20
0
 30
0.0
 40
0.48
 41
0.48
  0
VERTEX
  8
0
 10
3.13167
 20
0.685004
 30
0.0
 40
0.00666667
 41
0.00666667
  0
VERTEX
  8
0
 10
3.13336
 20
0.69336
 30
0.0
 40
0.00666667
 41
0.00666667
  0
SEQEND
 8
0
  0
POLYLINE
  8
0
 62
     0
 66
     1
 10
0
 20
0
 30
0.0
 40
0.48
 41
0.48
  0
VERTEX
  8
0
 10
3.18164
 20
0.513346
 30
0.0
 40
0.00666667
 41
0.00666667
  0
VERTEX
  8
0
 10
3.17833
 20
0.526693
 30
0.0
 40
0.00666667
 41
0.00666667
  0
SEQEND
 8
0
  0
POLYLINE
  8
0
 62
     0
 66
     1
 10
0
 20
0
 30
0.0
 40
0.48
 41
0.48
  0
VERTEX
  8
0
 10
3.17833
 20
0.526693
 30
0.0
 40
0.00666667
 41
0.00666667
  0
VERTEX
  8
0
 10
3.16835
 20
0.538357
 30
0.0
 40
0.00666667
 41
0.00666667
  0
SEQEND
 8
0
  0
POLYLINE
  8
0
 62
     0
 66
     1
 10
0
 20
0
 30
0.0
 40
0.48
 41
0.48
  0
VERTEX
  8
0
 10
3.16835
 20
0.538357
 30
0.0
 40
0.00666667
 41
0.00666667
  0
VERTEX
  8
0
 10
3.155
 20
0.543349
 30
0.0
 40
0.00666667
 41
0.00666667
  0
SEQEND
 8
0
  0
POLYLINE
  8
0
 62
     0
 66
     1
 10
0
 20
0
 30
0.0
 40
0.48
 41
0.48
  0
VERTEX
  8
0
 10
3.155
 20
0.543349
 30
0.0
 40
0.00666667
 41
0.00666667
  0
VERTEX
  8
0
 10
3.14165
 20
0.543349
 30
0.0
 40
0.00666667
 41
0.00666667
  0
SEQEND
 8
0
  0
POLYLINE
  8
0
 62
     0
 66
     1
 10
0
 20
0
 30
0.0
 40
0.48
 41
0.48
  0
VERTEX
  8
0
 10
3.14165
 20
0.543349
 30
0.0
 40
0.00666667
 41
0.00666667
  0
VERTEX
  8
0
 10
3.12831
 20
0.536675
 30
0.0
 40
0.00666667
 41
0.00666667
  0
SEQEND
 8
0
  0
POLYLINE
  8
0
 62
     0
 66
     1
 10
0
 20
0
 30
0.0
 40
0.48
 41
0.48
  0
VERTEX
  8
0
 10
3.12831
 20
0.536675
 30
0.0
 40
0.00666667
 41
0.00666667
  0
VERTEX
  8
0
 10
3.12001
 20
0.523329
 30
0.0
 40
0.00666667
 41
0.00666667
  0
SEQEND
 8
0
  0
POLYLINE
  8
0
 62
     0
 66
     1
 10
0
 20
0
 30
0.0
 40
0.48
 41
0.48
  0
VERTEX
  8
0
 10
3.12001
 20
0.523329
 30
0.0
 40
0.00666667
 41
0.00666667
  0
VERTEX
  8
0
 10
3.11833
 20
0.509983
 30
0.0
 40
0.00666667
 41
0.00666667
  0
SEQEND
 8
0
  0
POLYLINE
  8
0
 62
     0
 66
     1
 10
0
 20
0
 30
0.0
 40
0.48
 41
0.48
  0
VERTEX
  8
0
 10
3.11833
 20
0.509983
 30
0.0
 40
0.00666667
 41
0.00666667
  0
VERTEX
  8
0
 10
3.12332
 20
0.49669
 30
0.0
 40
0.00666667
 41
0.00666667
  0
SEQEND
 8
0
  0
POLYLINE
  8
0
 62
     0
 66
     1
 10
0
 20
0
 30
0.0
 40
0.48
 41
0.48
  0
VERTEX
  8
0
 10
3.12332
 20
0.49669
 30
0.0
 40
0.00666667
 41
0.00666667
  0
VERTEX
  8
0
 10
3.13336
 20
0.486654
 30
0.0
 40
0.00666667
 41
0.00666667
  0
SEQEND
 8
0
  0
POLYLINE
  8
0
 62
     0
 66
     1
 10
0
 20
0
 30
0.0
 40
0.48
 41
0.48
  0
VERTEX
  8
0
 10
3.13336
 20
0.486654
 30
0.0
 40
0.00666667
 41
0.00666667
  0
VERTEX
  8
0
 10
3.14665
 20
0.481662
 30
0.0
 40
0.00666667
 41
0.00666667
  0
SEQEND
 8
0
  0
POLYLINE
  8
0
 62
     0
 66
     1
 10
0
 20
0
 30
0.0
 40
0.48
 41
0.48
  0
VERTEX
  8
0
 10
3.14665
 20
0.481662
 30
0.0
 40
0.00666667
 41
0.00666667
  0
VERTEX
  8
0
 10
3.16
 20
0.483344
 30
0.0
 40
0.00666667
 41
0.00666667
  0
SEQEND
 8
0
  0
POLYLINE
  8
0
 62
     0
 66
     1
 10
0
 20
0
 30
0.0
 40
0.48
 41
0.48
  0
VERTEX
  8
0
 10
3.16
 20
0.483344
 30
0.0
 40
0.00666667
 41
0.00666667
  0
VERTEX
  8
0
 10
3.17333
 20
0.491644
 30
0.0
 40
0.00666667
 41
0.00666667
  0
SEQEND
 8
0
  0
POLYLINE
  8
0
 62
     0
 66
     1
 10
0
 20
0
 30
0.0
 40
0.48
 41
0.48
  0
VERTEX
  8
0
 10
3.17333
 20
0.491644
 30
0.0
 40
0.00666667
 41
0.00666667
  0
VERTEX
  8
0
 10
3.18001
 20
0.50331
 30
0.0
 40
0.00666667
 41
0.00666667
  0
SEQEND
 8
0
  0
POLYLINE
  8
0
 62
     0
 66
     1
 10
0
 20
0
 30
0.0
 40
0.48
 41
0.48
  0
VERTEX
  8
0
 10
3.18001
 20
0.50331
 30
0.0
 40
0.00666667
 41
0.00666667
  0
VERTEX
  8
0
 10
3.18164
 20
0.513346
 30
0.0
 40
0.00666667
 41
0.00666667
  0
SEQEND
 8
0
  0
POLYLINE
  8
0
 62
     0
 66
     1
 10
0
 20
0
 30
0.0
 40
0.48
 41
0.48
  0
VERTEX
  8
0
 10
3
 20
0.561686
 30
0.0
 40
0.00666667
 41
0.00666667
  0
VERTEX
  8
0
 10
2.99669
 20
0.574978
 30
0.0
 40
0.00666667
 41
0.00666667
  0
SEQEND
 8
0
  0
POLYLINE
  8
0
 62
     0
 66
     1
 10
0
 20
0
 30
0.0
 40
0.48
 41
0.48
  0
VERTEX
  8
0
 10
2.99669
 20
0.574978
 30
0.0
 40
0.00666667
 41
0.00666667
  0
VERTEX
  8
0
 10
2.98665
 20
0.586643
 30
0.0
 40
0.00666667
 41
0.00666667
  0
SEQEND
 8
0
  0
POLYLINE
  8
0
 62
     0
 66
     1
 10
0
 20
0
 30
0.0
 40
0.48
 41
0.48
  0
VERTEX
  8
0
 10
2.98665
 20
0.586643
 30
0.0
 40
0.00666667
 41
0.00666667
  0
VERTEX
  8
0
 10
2.97499
 20
0.591689
 30
0.0
 40
0.00666667
 41
0.00666667
  0
SEQEND
 8
0
  0
POLYLINE
  8
0
 62
     0
 66
     1
 10
0
 20
0
 30
0.0
 40
0.48
 41
0.48
  0
VERTEX
  8
0
 10
2.97499
 20
0.591689
 30
0.0
 40
0.00666667
 41
0.00666667
  0
VERTEX
  8
0
 10
2.96001
 20
0.591689
 30
0.0
 40
0.00666667
 41
0.00666667
  0
SEQEND
 8
0
  0
POLYLINE
  8
0
 62
     0
 66
     1
 10
0
 20
0
 30
0.0
 40
0.48
 41
0.48
  0
VERTEX
  8
0
 10
2.96001
 20
0.591689
 30
0.0
 40
0.00666667
 41
0.00666667
  0
VERTEX
  8
0
 10
2.94667
 20
0.585015
 30
0.0
 40
0.00666667
 41
0.00666667
  0
SEQEND
 8
0
  0
POLYLINE
  8
0
 62
     0
 66
     1
 10
0
 20
0
 30
0.0
 40
0.48
 41
0.48
  0
VERTEX
  8
0
 10
2.94667
 20
0.585015
 30
0.0
 40
0.00666667
 41
0.00666667
  0
VERTEX
  8
0
 10
2.93832
 20
0.573351
 30
0.0
 40
0.00666667
 41
0.00666667
  0
SEQEND
 8
0
  0
POLYLINE
  8
0
 62
     0
 66
     1
 10
0
 20
0
 30
0.0
 40
0.48
 41
0.48
  0
VERTEX
  8
0
 10
2.93832
 20
0.573351
 30
0.0
 40
0.00666667
 41
0.00666667
  0
VERTEX
  8
0
 10
2.93668
 20
0.558322
 30
0.0
 40
0.00666667
 41
0.00666667
  0
SEQEND
 8
0
  0
POLYLINE
  8
0
 62
     0
 66
     1
 10
0
 20
0
 30
0.0
 40
0.48
 41
0.48
  0
VERTEX
  8
0
 10
2.93668
 20
0.558322
 30
0.0
 40
0.00666667
 41
0.00666667
  0
VERTEX
  8
0
 10
2.94168
 20
0.544976
 30
0.0
 40
0.00666667
 41
0.00666667
  0
SEQEND
 8
0
  0
POLYLINE
  8
0
 62
     0
 66
     1
 10
0
 20
0
 30
0.0
 40
0.48
 41
0.48
  0
VERTEX
  8
0
 10
2.94168
 20
0.544976
 30
0.0
 40
0.00666667
 41
0.00666667
  0
VERTEX
  8
0
 10
2.95167
 20
0.534993
 30
0.0
 40
0.00666667
 41
0.00666667
  0
SEQEND
 8
0
  0
POLYLINE
  8
0
 62
     0
 66
     1
 10
0
 20
0
 30
0.0
 40
0.48
 41
0.48
  0
VERTEX
  8
0
 10
2.95167
 20
0.534993
 30
0.0
 40
0.00666667
 41
0.00666667
  0
VERTEX
  8
0
 10
2.965
 20
0.530003
 30
0.0
 40
0.00666667
 41
0.00666667
  0
SEQEND
 8
0
  0
POLYLINE
  8
0
 62
     0
 66
     1
 10
0
 20
0
 30
0.0
 40
0.48
 41
0.48
  0
VERTEX
  8
0
 10
2.965
 20
0.530003
 30
0.0
 40
0.00666667
 41
0.00666667
  0
VERTEX
  8
0
 10
2.97999
 20
0.531685
 30
0.0
 40
0.00666667
 41
0.00666667
  0
SEQEND
 8
0
  0
POLYLINE
  8
0
 62
     0
 66
     1
 10
0
 20
0
 30
0.0
 40
0.48
 41
0.48
  0
VERTEX
  8
0
 10
2.97999
 20
0.531685
 30
0.0
 40
0.00666667
 41
0.00666667
  0
VERTEX
  8
0
 10
2.99164
 20
0.539985
 30
0.0
 40
0.00666667
 41
0.00666667
  0
SEQEND
 8
0
  0
POLYLINE
  8
0
 62
     0
 66
     1
 10
0
 20
0
 30
0.0
 40
0.48
 41
0.48
  0
VERTEX
  8
0
 10
2.99164
 20
0.539985
 30
0.0
 40
0.00666667
 41
0.00666667
  0
VERTEX
  8
0
 10
2.99832
 20
0.55165
 30
0.0
 40
0.00666667
 41
0.00666667
  0
SEQEND
 8
0
  0
POLYLINE
  8
0
 62
     0
 66
     1
 10
0
 20
0
 30
0.0
 40
0.48
 41
0.48
  0
VERTEX
  8
0
 10
2.99832
 20
0.55165
 30
0.0
 40
0.00666667
 41
0.00666667
  0
VERTEX
  8
0
 10
3
 20
0.561686
 30
0.0
 40
0.00666667
 41
0.00666667
  0
SEQEND
 8
0
  0
POLYLINE
  8
0
 62
     0
 66
     1
 10
0
 20
0
 30
0.0
 40
0.48
 41
0.48
  0
VERTEX
  8
0
 10
2.89833
 20
0.563314
 30
0.0
 40
0.00666667
 41
0.00666667
  0
VERTEX
  8
0
 10
2.905
 20
0.530003
 30
0.0
 40
0.00666667
 41
0.00666667
  0
SEQEND
 8
0
  0
POLYLINE
  8
0
 62
     0
 66
     1
 10
0
 20
0
 30
0.0
 40
0.48
 41
0.48
  0
VERTEX
  8
0
 10
2.905
 20
0.530003
 30
0.0
 40
0.00666667
 41
0.00666667
  0
VERTEX
  8
0
 10
2.91997
 20
0.5
 30
0.0
 40
0.00666667
 41
0.00666667
  0
SEQEND
 8
0
  0
POLYLINE
  8
0
 62
     0
 66
     1
 10
0
 20
0
 30
0.0
 40
0.48
 41
0.48
  0
VERTEX
  8
0
 10
2.91997
 20
0.5
 30
0.0
 40
0.00666667
 41
0.00666667
  0
VERTEX
  8
0
 10
2.94
 20
0.471679
 30
0.0
 40
0.00666667
 41
0.00666667
  0
SEQEND
 8
0
  0
POLYLINE
  8
0
 62
     0
 66
     1
 10
0
 20
0
 30
0.0
 40
0.48
 41
0.48
  0
VERTEX
  8
0
 10
2.94
 20
0.471679
 30
0.0
 40
0.00666667
 41
0.00666667
  0
VERTEX
  8
0
 10
2.965
 20
0.448351
 30
0.0
 40
0.00666667
 41
0.00666667
  0
SEQEND
 8
0
  0
POLYLINE
  8
0
 62
     0
 66
     1
 10
0
 20
0
 30
0.0
 40
0.48
 41
0.48
  0
VERTEX
  8
0
 10
2.965
 20
0.448351
 30
0.0
 40
0.00666667
 41
0.00666667
  0
VERTEX
  8
0
 10
2.99501
 20
0.430012
 30
0.0
 40
0.00666667
 41
0.00666667
  0
SEQEND
 8
0
  0
POLYLINE
  8
0
 62
     0
 66
     1
 10
0
 20
0
 30
0.0
 40
0.48
 41
0.48
  0
VERTEX
  8
0
 10
2.99501
 20
0.430012
 30
0.0
 40
0.00666667
 41
0.00666667
  0
VERTEX
  8
0
 10
3.02669
 20
0.418349
 30
0.0
 40
0.00666667
 41
0.00666667
  0
SEQEND
 8
0
  0
POLYLINE
  8
0
 62
     0
 66
     1
 10
0
 20
0
 30
0.0
 40
0.48
 41
0.48
  0
VERTEX
  8
0
 10
3.02669
 20
0.418349
 30
0.0
 40
0.00666667
 41
0.00666667
  0
VERTEX
  8
0
 10
3.06
 20
0.411675
 30
0.0
 40
0.00666667
 41
0.00666667
  0
SEQEND
 8
0
  0
POLYLINE
  8
0
 62
     0
 66
     1
 10
0
 20
0
 30
0.0
 40
0.48
 41
0.48
  0
VERTEX
  8
0
 10
3.06
 20
0.411675
 30
0.0
 40
0.00666667
 41
0.00666667
  0
VERTEX
  8
0
 10
3.095
 20
0.413357
 30
0.0
 40
0.00666667
 41
0.00666667
  0
SEQEND
 8
0
  0
POLYLINE
  8
0
 62
     0
 66
     1
 10
0
 20
0
 30
0.0
 40
0.48
 41
0.48
  0
VERTEX
  8
0
 10
3.095
 20
0.413357
 30
0.0
 40
0.00666667
 41
0.00666667
  0
VERTEX
  8
0
 10
3.12831
 20
0.421658
 30
0.0
 40
0.00666667
 41
0.00666667
  0
SEQEND
 8
0
  0
POLYLINE
  8
0
 62
     0
 66
     1
 10
0
 20
0
 30
0.0
 40
0.48
 41
0.48
  0
VERTEX
  8
0
 10
3.12831
 20
0.421658
 30
0.0
 40
0.00666667
 41
0.00666667
  0
VERTEX
  8
0
 10
3.16
 20
0.435004
 30
0.0
 40
0.00666667
 41
0.00666667
  0
SEQEND
 8
0
  0
POLYLINE
  8
0
 62
     0
 66
     1
 10
0
 20
0
 30
0.0
 40
0.48
 41
0.48
  0
VERTEX
  8
0
 10
3.16
 20
0.435004
 30
0.0
 40
0.00666667
 41
0.00666667
  0
VERTEX
  8
0
 10
3.18832
 20
0.455024
 30
0.0
 40
0.00666667
 41
0.00666667
  0
SEQEND
 8
0
  0
POLYLINE
  8
0
 62
     0
 66
     1
 10
0
 20
0
 30
0.0
 40
0.48
 41
0.48
  0
VERTEX
  8
0
 10
3.18832
 20
0.455024
 30
0.0
 40
0.00666667
 41
0.00666667
  0
VERTEX
  8
0
 10
3.21164
 20
0.478353
 30
0.0
 40
0.00666667
 41
0.00666667
  0
SEQEND
 8
0
  0
POLYLINE
  8
0
 62
     0
 66
     1
 10
0
 20
0
 30
0.0
 40
0.48
 41
0.48
  0
VERTEX
  8
0
 10
3.21164
 20
0.478353
 30
0.0
 40
0.00666667
 41
0.00666667
  0
VERTEX
  8
0
 10
3.22999
 20
0.508356
 30
0.0
 40
0.00666667
 41
0.00666667
  0
SEQEND
 8
0
  0
POLYLINE
  8
0
 62
     0
 66
     1
 10
0
 20
0
 30
0.0
 40
0.48
 41
0.48
  0
VERTEX
  8
0
 10
3.22999
 20
0.508356
 30
0.0
 40
0.00666667
 41
0.00666667
  0
VERTEX
  8
0
 10
3.24333
 20
0.539985
 30
0.0
 40
0.00666667
 41
0.00666667
  0
SEQEND
 8
0
  0
POLYLINE
  8
0
 62
     0
 66
     1
 10
0
 20
0
 30
0.0
 40
0.48
 41
0.48
  0
VERTEX
  8
0
 10
3.24333
 20
0.539985
 30
0.0
 40
0.00666667
 41
0.00666667
  0
VERTEX
  8
0
 10
3.25
 20
0.573351
 30
0.0
 40
0.00666667
 41
0.00666667
  0
SEQEND
 8
0
  0
POLYLINE
  8
0
 62
     0
 66
     1
 10
0
 20
0
 30
0.0
 40
0.48
 41
0.48
  0
VERTEX
  8
0
 10
3.25
 20
0.573351
 30
0.0
 40
0.00666667
 41
0.00666667
  0
VERTEX
  8
0
 10
3.25
 20
0.608344
 30
0.0
 40
0.00666667
 41
0.00666667
  0
SEQEND
 8
0
  0
POLYLINE
  8
0
 62
     0
 66
     1
 10
0
 20
0
 30
0.0
 40
0.48
 41
0.48
  0
VERTEX
  8
0
 10
3.25
 20
0.608344
 30
0.0
 40
0.00666667
 41
0.00666667
  0
VERTEX
  8
0
 10
3.24164
 20
0.641656
 30
0.0
 40
0.00666667
 41
0.00666667
  0
SEQEND
 8
0
  0
POLYLINE
  8
0
 62
     0
 66
     1
 10
0
 20
0
 30
0.0
 40
0.48
 41
0.48
  0
VERTEX
  8
0
 10
3.24164
 20
0.641656
 30
0.0
 40
0.00666667
 41
0.00666667
  0
VERTEX
  8
0
 10
3.22835
 20
0.67334
 30
0.0
 40
0.00666667
 41
0.00666667
  0
SEQEND
 8
0
  0
POLYLINE
  8
0
 62
     0
 66
     1
 10
0
 20
0
 30
0.0
 40
0.48
 41
0.48
  0
VERTEX
  8
0
 10
3.22835
 20
0.67334
 30
0.0
 40
0.00666667
 41
0.00666667
  0
VERTEX
  8
0
 10
3.21001
 20
0.70166
 30
0.0
 40
0.00666667
 41
0.00666667
  0
SEQEND
 8
0
  0
POLYLINE
  8
0
 62
     0
 66
     1
 10
0
 20
0
 30
0.0
 40
0.48
 41
0.48
  0
VERTEX
  8
0
 10
3.21001
 20
0.70166
 30
0.0
 40
0.00666667
 41
0.00666667
  0
VERTEX
  8
0
 10
3.185
 20
0.726671
 30
0.0
 40
0.00666667
 41
0.00666667
  0
SEQEND
 8
0
  0
POLYLINE
  8
0
 62
     0
 66
     1
 10
0
 20
0
 30
0.0
 40
0.48
 41
0.48
  0
VERTEX
  8
0
 10
3.185
 20
0.726671
 30
0.0
 40
0.00666667
 41
0.00666667
  0
VERTEX
  8
0
 10
3.15668
 20
0.745008
 30
0.0
 40
0.00666667
 41
0.00666667
  0
SEQEND
 8
0
  0
POLYLINE
  8
0
 62
     0
 66
     1
 10
0
 20
0
 30
0.0
 40
0.48
 41
0.48
  0
VERTEX
  8
0
 10
3.15668
 20
0.745008
 30
0.0
 40
0.00666667
 41
0.00666667
  0
VERTEX
  8
0
 10
3.125
 20
0.758356
 30
0.0
 40
0.00666667
 41
0.00666667
  0
SEQEND
 8
0
  0
POLYLINE
  8
0
 62
     0
 66
     1
 10
0
 20
0
 30
0.0
 40
0.48
 41
0.48
  0
VERTEX
  8
0
 10
3.125
 20
0.758356
 30
0.0
 40
0.00666667
 41
0.00666667
  0
VERTEX
  8
0
 10
3.09831
 20
0.764974
 30
0.0
 40
0.00666667
 41
0.00666667
  0
SEQEND
 8
0
  0
POLYLINE
  8
0
 62
     0
 66
     1
 10
0
 20
0
 30
0.0
 40
0.48
 41
0.48
  0
VERTEX
  8
0
 10
3.09831
 20
0.764974
 30
0.0
 40
0.00666667
 41
0.00666667
  0
VERTEX
  8
0
 10
3.07167
 20
0.771647
 30
0.0
 40
0.00666667
 41
0.00666667
  0
SEQEND
 8
0
  0
POLYLINE
  8
0
 62
     0
 66
     1
 10
0
 20
0
 30
0.0
 40
0.48
 41
0.48
  0
VERTEX
  8
0
 10
3.07167
 20
0.771647
 30
0.0
 40
0.00666667
 41
0.00666667
  0
VERTEX
  8
0
 10
3.04665
 20
0.784993
 30
0.0
 40
0.00666667
 41
0.00666667
  0
SEQEND
 8
0
  0
POLYLINE
  8
0
 62
     0
 66
     1
 10
0
 20
0
 30
0.0
 40
0.48
 41
0.48
  0
VERTEX
  8
0
 10
3.04665
 20
0.784993
 30
0.0
 40
0.00666667
 41
0.00666667
  0
VERTEX
  8
0
 10
3.03168
 20
0.79834
 30
0.0
 40
0.00666667
 41
0.00666667
  0
SEQEND
 8
0
  0
POLYLINE
  8
0
 62
     0
 66
     1
 10
0
 20
0
 30
0.0
 40
0.48
 41
0.48
  0
VERTEX
  8
0
 10
2.89833
 20
0.563314
 30
0.0
 40
0.00666667
 41
0.00666667
  0
VERTEX
  8
0
 10
2.88997
 20
0.591689
 30
0.0
 40
0.00666667
 41
0.00666667
  0
SEQEND
 8
0
  0
POLYLINE
  8
0
 62
     0
 66
     1
 10
0
 20
0
 30
0.0
 40
0.48
 41
0.48
  0
VERTEX
  8
0
 10
2.88997
 20
0.591689
 30
0.0
 40
0.00666667
 41
0.00666667
  0
VERTEX
  8
0
 10
2.87668
 20
0.615018
 30
0.0
 40
0.00666667
 41
0.00666667
  0
SEQEND
 8
0
  0
POLYLINE
  8
0
 62
     0
 66
     1
 10
0
 20
0
 30
0.0
 40
0.48
 41
0.48
  0
VERTEX
  8
0
 10
2.87668
 20
0.615018
 30
0.0
 40
0.00666667
 41
0.00666667
  0
VERTEX
  8
0
 10
2.86501
 20
0.631674
 30
0.0
 40
0.00666667
 41
0.00666667
  0
SEQEND
 8
0
  0
POLYLINE
  8
0
 62
     0
 66
     1
 10
0
 20
0
 30
0.0
 40
0.48
 41
0.48
  0
VERTEX
  8
0
 10
3.13336
 20
2.375
 30
0.0
 40
0.00666667
 41
0.00666667
  0
VERTEX
  8
0
 10
3.12999
 20
2.38835
 30
0.0
 40
0.00666667
 41
0.00666667
  0
SEQEND
 8
0
  0
POLYLINE
  8
0
 62
     0
 66
     1
 10
0
 20
0
 30
0.0
 40
0.48
 41
0.48
  0
VERTEX
  8
0
 10
3.12999
 20
2.38835
 30
0.0
 40
0.00666667
 41
0.00666667
  0
VERTEX
  8
0
 10
3.12001
 20
2.40001
 30
0.0
 40
0.00666667
 41
0.00666667
  0
SEQEND
 8
0
  0
POLYLINE
  8
0
 62
     0
 66
     1
 10
0
 20
0
 30
0.0
 40
0.48
 41
0.48
  0
VERTEX
  8
0
 10
3.12001
 20
2.40001
 30
0.0
 40
0.00666667
 41
0.00666667
  0
VERTEX
  8
0
 10
3.10667
 20
2.405
 30
0.0
 40
0.00666667
 41
0.00666667
  0
SEQEND
 8
0
  0
POLYLINE
  8
0
 62
     0
 66
     1
 10
0
 20
0
 30
0.0
 40
0.48
 41
0.48
  0
VERTEX
  8
0
 10
3.10667
 20
2.405
 30
0.0
 40
0.00666667
 41
0.00666667
  0
VERTEX
  8
0
 10
3.09332
 20
2.405
 30
0.0
 40
0.00666667
 41
0.00666667
  0
SEQEND
 8
0
  0
POLYLINE
  8
0
 62
     0
 66
     1
 10
0
 20
0
 30
0.0
 40
0.48
 41
0.48
  0
VERTEX
  8
0
 10
3.09332
 20
2.405
 30
0.0
 40
0.00666667
 41
0.00666667
  0
VERTEX
  8
0
 10
3.08003
 20
2.39833
 30
0.0
 40
0.00666667
 41
0.00666667
  0
SEQEND
 8
0
  0
POLYLINE
  8
0
 62
     0
 66
     1
 10
0
 20
0
 30
0.0
 40
0.48
 41
0.48
  0
VERTEX
  8
0
 10
3.08003
 20
2.39833
 30
0.0
 40
0.00666667
 41
0.00666667
  0
VERTEX
  8
0
 10
3.07167
 20
2.38667
 30
0.0
 40
0.00666667
 41
0.00666667
  0
SEQEND
 8
0
  0
POLYLINE
  8
0
 62
     0
 66
     1
 10
0
 20
0
 30
0.0
 40
0.48
 41
0.48
  0
VERTEX
  8
0
 10
3.07167
 20
2.38667
 30
0.0
 40
0.00666667
 41
0.00666667
  0
VERTEX
  8
0
 10
3.06999
 20
2.37169
 30
0.0
 40
0.00666667
 41
0.00666667
  0
SEQEND
 8
0
  0
POLYLINE
  8
0
 62
     0
 66
     1
 10
0
 20
0
 30
0.0
 40
0.48
 41
0.48
  0
VERTEX
  8
0
 10
3.06999
 20
2.37169
 30
0.0
 40
0.00666667
 41
0.00666667
  0
VERTEX
  8
0
 10
3.07335
 20
2.35835
 30
0.0
 40
0.00666667
 41
0.00666667
  0
SEQEND
 8
0
  0
POLYLINE
  8
0
 62
     0
 66
     1
 10
0
 20
0
 30
0.0
 40
0.48
 41
0.48
  0
VERTEX
  8
0
 10
3.07335
 20
2.35835
 30
0.0
 40
0.00666667
 41
0.00666667
  0
VERTEX
  8
0
 10
3.08501
 20
2.34831
 30
0.0
 40
0.00666667
 41
0.00666667
  0
SEQEND
 8
0
  0
POLYLINE
  8
0
 62
     0
 66
     1
 10
0
 20
0
 30
0.0
 40
0.48
 41
0.48
  0
VERTEX
  8
0
 10
3.08501
 20
2.34831
 30
0.0
 40
0.00666667
 41
0.00666667
  0
VERTEX
  8
0
 10
3.09831
 20
2.34332
 30
0.0
 40
0.00666667
 41
0.00666667
  0
SEQEND
 8
0
  0
POLYLINE
  8
0
 62
     0
 66
     1
 10
0
 20
0
 30
0.0
 40
0.48
 41
0.48
  0
VERTEX
  8
0
 10
3.09831
 20
2.34332
 30
0.0
 40
0.00666667
 41
0.00666667
  0
VERTEX
  8
0
 10
3.11165
 20
2.345
 30
0.0
 40
0.00666667
 41
0.00666667
  0
SEQEND
 8
0
  0
POLYLINE
  8
0
 62
     0
 66
     1
 10
0
 20
0
 30
0.0
 40
0.48
 41
0.48
  0
VERTEX
  8
0
 10
3.11165
 20
2.345
 30
0.0
 40
0.00666667
 41
0.00666667
  0
VERTEX
  8
0
 10
3.12332
 20
2.35335
 30
0.0
 40
0.00666667
 41
0.00666667
  0
SEQEND
 8
0
  0
POLYLINE
  8
0
 62
     0
 66
     1
 10
0
 20
0
 30
0.0
 40
0.48
 41
0.48
  0
VERTEX
  8
0
 10
3.12332
 20
2.35335
 30
0.0
 40
0.00666667
 41
0.00666667
  0
VERTEX
  8
0
 10
3.13167
 20
2.36501
 30
0.0
 40
0.00666667
 41
0.00666667
  0
SEQEND
 8
0
  0
POLYLINE
  8
0
 62
     0
 66
     1
 10
0
 20
0
 30
0.0
 40
0.48
 41
0.48
  0
VERTEX
  8
0
 10
3.13167
 20
2.36501
 30
0.0
 40
0.00666667
 41
0.00666667
  0
VERTEX
  8
0
 10
3.13336
 20
2.375
 30
0.0
 40
0.00666667
 41
0.00666667
  0
SEQEND
 8
0
  0
POLYLINE
  8
0
 62
     0
 66
     1
 10
0
 20
0
 30
0.0
 40
0.48
 41
0.48
  0
VERTEX
  8
0
 10
3.18164
 20
2.55501
 30
0.0
 40
0.00666667
 41
0.00666667
  0
VERTEX
  8
0
 10
3.17833
 20
2.56999
 30
0.0
 40
0.00666667
 41
0.00666667
  0
SEQEND
 8
0
  0
POLYLINE
  8
0
 62
     0
 66
     1
 10
0
 20
0
 30
0.0
 40
0.48
 41
0.48
  0
VERTEX
  8
0
 10
3.17833
 20
2.56999
 30
0.0
 40
0.00666667
 41
0.00666667
  0
VERTEX
  8
0
 10
3.16835
 20
2.58003
 30
0.0
 40
0.00666667
 41
0.00666667
  0
SEQEND
 8
0
  0
POLYLINE
  8
0
 62
     0
 66
     1
 10
0
 20
0
 30
0.0
 40
0.48
 41
0.48
  0
VERTEX
  8
0
 10
3.16835
 20
2.58003
 30
0.0
 40
0.00666667
 41
0.00666667
  0
VERTEX
  8
0
 10
3.155
 20
2.58664
 30
0.0
 40
0.00666667
 41
0.00666667
  0
SEQEND
 8
0
  0
POLYLINE
  8
0
 62
     0
 66
     1
 10
0
 20
0
 30
0.0
 40
0.48
 41
0.48
  0
VERTEX
  8
0
 10
3.155
 20
2.58664
 30
0.0
 40
0.00666667
 41
0.00666667
  0
VERTEX
  8
0
 10
3.14165
 20
2.58501
 30
0.0
 40
0.00666667
 41
0.00666667
  0
SEQEND
 8
0
  0
POLYLINE
  8
0
 62
     0
 66
     1
 10
0
 20
0
 30
0.0
 40
0.48
 41
0.48
  0
VERTEX
  8
0
 10
3.14165
 20
2.58501
 30
0.0
 40
0.00666667
 41
0.00666667
  0
VERTEX
  8
0
 10
3.12831
 20
2.57835
 30
0.0
 40
0.00666667
 41
0.00666667
  0
SEQEND
 8
0
  0
POLYLINE
  8
0
 62
     0
 66
     1
 10
0
 20
0
 30
0.0
 40
0.48
 41
0.48
  0
VERTEX
  8
0
 10
3.12831
 20
2.57835
 30
0.0
 40
0.00666667
 41
0.00666667
  0
VERTEX
  8
0
 10
3.12001
 20
2.56668
 30
0.0
 40
0.00666667
 41
0.00666667
  0
SEQEND
 8
0
  0
POLYLINE
  8
0
 62
     0
 66
     1
 10
0
 20
0
 30
0.0
 40
0.48
 41
0.48
  0
VERTEX
  8
0
 10
3.12001
 20
2.56668
 30
0.0
 40
0.00666667
 41
0.00666667
  0
VERTEX
  8
0
 10
3.11833
 20
2.55333
 30
0.0
 40
0.00666667
 41
0.00666667
  0
SEQEND
 8
0
  0
POLYLINE
  8
0
 62
     0
 66
     1
 10
0
 20
0
 30
0.0
 40
0.48
 41
0.48
  0
VERTEX
  8
0
 10
3.11833
 20
2.55333
 30
0.0
 40
0.00666667
 41
0.00666667
  0
VERTEX
  8
0
 10
3.12332
 20
2.53836
 30
0.0
 40
0.00666667
 41
0.00666667
  0
SEQEND
 8
0
  0
POLYLINE
  8
0
 62
     0
 66
     1
 10
0
 20
0
 30
0.0
 40
0.48
 41
0.48
  0
VERTEX
  8
0
 10
3.12332
 20
2.53836
 30
0.0
 40
0.00666667
 41
0.00666667
  0
VERTEX
  8
0
 10
3.13336
 20
2.52832
 30
0.0
 40
0.00666667
 41
0.00666667
  0
SEQEND
 8
0
  0
POLYLINE
  8
0
 62
     0
 66
     1
 10
0
 20
0
 30
0.0
 40
0.48
 41
0.48
  0
VERTEX
  8
0
 10
3.13336
 20
2.52832
 30
0.0
 40
0.00666667
 41
0.00666667
  0
VERTEX
  8
0
 10
3.14665
 20
2.52333
 30
0.0
 40
0.00666667
 41
0.00666667
  0
SEQEND
 8
0
  0
POLYLINE
  8
0
 62
     0
 66
     1
 10
0
 20
0
 30
0.0
 40
0.48
 41
0.48
  0
VERTEX
  8
0
 10
3.14665
 20
2.52333
 30
0.0
 40
0.00666667
 41
0.00666667
  0
VERTEX
  8
0
 10
3.16
 20
2.52669
 30
0.0
 40
0.00666667
 41
0.00666667
  0
SEQEND
 8
0
  0
POLYLINE
  8
0
 62
     0
 66
     1
 10
0
 20
0
 30
0.0
 40
0.48
 41
0.48
  0
VERTEX
  8
0
 10
3.16
 20
2.52669
 30
0.0
 40
0.00666667
 41
0.00666667
  0
VERTEX
  8
0
 10
3.17333
 20
2.53331
 30
0.0
 40
0.00666667
 41
0.00666667
  0
SEQEND
 8
0
  0
POLYLINE
  8
0
 62
     0
 66
     1
 10
0
 20
0
 30
0.0
 40
0.48
 41
0.48
  0
VERTEX
  8
0
 10
3.17333
 20
2.53331
 30
0.0
 40
0.00666667
 41
0.00666667
  0
VERTEX
  8
0
 10
3.18001
 20
2.54665
 30
0.0
 40
0.00666667
 41
0.00666667
  0
SEQEND
 8
0
  0
POLYLINE
  8
0
 62
     0
 66
     1
 10
0
 20
0
 30
0.0
 40
0.48
 41
0.48
  0
VERTEX
  8
0
 10
3.18001
 20
2.54665
 30
0.0
 40
0.00666667
 41
0.00666667
  0
VERTEX
  8
0
 10
3.18164
 20
2.55501
 30
0.0
 40
0.00666667
 41
0.00666667
  0
SEQEND
 8
0
  0
POLYLINE
  8
0
 62
     0
 66
     1
 10
0
 20
0
 30
0.0
 40
0.48
 41
0.48
  0
VERTEX
  8
0
 10
3
 20
2.50667
 30
0.0
 40
0.00666667
 41
0.00666667
  0
VERTEX
  8
0
 10
2.99669
 20
2.52165
 30
0.0
 40
0.00666667
 41
0.00666667
  0
SEQEND
 8
0
  0
POLYLINE
  8
0
 62
     0
 66
     1
 10
0
 20
0
 30
0.0
 40
0.48
 41
0.48
  0
VERTEX
  8
0
 10
2.99669
 20
2.52165
 30
0.0
 40
0.00666667
 41
0.00666667
  0
VERTEX
  8
0
 10
2.98665
 20
2.53168
 30
0.0
 40
0.00666667
 41
0.00666667
  0
SEQEND
 8
0
  0
POLYLINE
  8
0
 62
     0
 66
     1
 10
0
 20
0
 30
0.0
 40
0.48
 41
0.48
  0
VERTEX
  8
0
 10
2.98665
 20
2.53168
 30
0.0
 40
0.00666667
 41
0.00666667
  0
VERTEX
  8
0
 10
2.97499
 20
2.53836
 30
0.0
 40
0.00666667
 41
0.00666667
  0
SEQEND
 8
0
  0
POLYLINE
  8
0
 62
     0
 66
     1
 10
0
 20
0
 30
0.0
 40
0.48
 41
0.48
  0
VERTEX
  8
0
 10
2.97499
 20
2.53836
 30
0.0
 40
0.00666667
 41
0.00666667
  0
VERTEX
  8
0
 10
2.96001
 20
2.53668
 30
0.0
 40
0.00666667
 41
0.00666667
  0
SEQEND
 8
0
  0
POLYLINE
  8
0
 62
     0
 66
     1
 10
0
 20
0
 30
0.0
 40
0.48
 41
0.48
  0
VERTEX
  8
0
 10
2.96001
 20
2.53668
 30
0.0
 40
0.00666667
 41
0.00666667
  0
VERTEX
  8
0
 10
2.94667
 20
2.53
 30
0.0
 40
0.00666667
 41
0.00666667
  0
SEQEND
 8
0
  0
POLYLINE
  8
0
 62
     0
 66
     1
 10
0
 20
0
 30
0.0
 40
0.48
 41
0.48
  0
VERTEX
  8
0
 10
2.94667
 20
2.53
 30
0.0
 40
0.00666667
 41
0.00666667
  0
VERTEX
  8
0
 10
2.93832
 20
2.51833
 30
0.0
 40
0.00666667
 41
0.00666667
  0
SEQEND
 8
0
  0
POLYLINE
  8
0
 62
     0
 66
     1
 10
0
 20
0
 30
0.0
 40
0.48
 41
0.48
  0
VERTEX
  8
0
 10
2.93832
 20
2.51833
 30
0.0
 40
0.00666667
 41
0.00666667
  0
VERTEX
  8
0
 10
2.93668
 20
2.50499
 30
0.0
 40
0.00666667
 41
0.00666667
  0
SEQEND
 8
0
  0
POLYLINE
  8
0
 62
     0
 66
     1
 10
0
 20
0
 30
0.0
 40
0.48
 41
0.48
  0
VERTEX
  8
0
 10
2.93668
 20
2.50499
 30
0.0
 40
0.00666667
 41
0.00666667
  0
VERTEX
  8
0
 10
2.94168
 20
2.49001
 30
0.0
 40
0.00666667
 41
0.00666667
  0
SEQEND
 8
0
  0
POLYLINE
  8
0
 62
     0
 66
     1
 10
0
 20
0
 30
0.0
 40
0.48
 41
0.48
  0
VERTEX
  8
0
 10
2.94168
 20
2.49001
 30
0.0
 40
0.00666667
 41
0.00666667
  0
VERTEX
  8
0
 10
2.95167
 20
2.47999
 30
0.0
 40
0.00666667
 41
0.00666667
  0
SEQEND
 8
0
  0
POLYLINE
  8
0
 62
     0
 66
     1
 10
0
 20
0
 30
0.0
 40
0.48
 41
0.48
  0
VERTEX
  8
0
 10
2.95167
 20
2.47999
 30
0.0
 40
0.00666667
 41
0.00666667
  0
VERTEX
  8
0
 10
2.965
 20
2.47499
 30
0.0
 40
0.00666667
 41
0.00666667
  0
SEQEND
 8
0
  0
POLYLINE
  8
0
 62
     0
 66
     1
 10
0
 20
0
 30
0.0
 40
0.48
 41
0.48
  0
VERTEX
  8
0
 10
2.965
 20
2.47499
 30
0.0
 40
0.00666667
 41
0.00666667
  0
VERTEX
  8
0
 10
2.97999
 20
2.47667
 30
0.0
 40
0.00666667
 41
0.00666667
  0
SEQEND
 8
0
  0
POLYLINE
  8
0
 62
     0
 66
     1
 10
0
 20
0
 30
0.0
 40
0.48
 41
0.48
  0
VERTEX
  8
0
 10
2.97999
 20
2.47667
 30
0.0
 40
0.00666667
 41
0.00666667
  0
VERTEX
  8
0
 10
2.99164
 20
2.48503
 30
0.0
 40
0.00666667
 41
0.00666667
  0
SEQEND
 8
0
  0
POLYLINE
  8
0
 62
     0
 66
     1
 10
0
 20
0
 30
0.0
 40
0.48
 41
0.48
  0
VERTEX
  8
0
 10
2.99164
 20
2.48503
 30
0.0
 40
0.00666667
 41
0.00666667
  0
VERTEX
  8
0
 10
2.99832
 20
2.49832
 30
0.0
 40
0.00666667
 41
0.00666667
  0
SEQEND
 8
0
  0
POLYLINE
  8
0
 62
     0
 66
     1
 10
0
 20
0
 30
0.0
 40
0.48
 41
0.48
  0
VERTEX
  8
0
 10
2.99832
 20
2.49832
 30
0.0
 40
0.00666667
 41
0.00666667
  0
VERTEX
  8
0
 10
3
 20
2.50667
 30
0.0
 40
0.00666667
 41
0.00666667
  0
SEQEND
 8
0
  0
POLYLINE
  8
0
 62
     0
 66
     1
 10
0
 20
0
 30
0.0
 40
0.48
 41
0.48
  0
VERTEX
  8
0
 10
3.09831
 20
2.30333
 30
0.0
 40
0.00666667
 41
0.00666667
  0
VERTEX
  8
0
 10
3.13167
 20
2.31168
 30
0.0
 40
0.00666667
 41
0.00666667
  0
SEQEND
 8
0
  0
POLYLINE
  8
0
 62
     0
 66
     1
 10
0
 20
0
 30
0.0
 40
0.48
 41
0.48
  0
VERTEX
  8
0
 10
3.13167
 20
2.31168
 30
0.0
 40
0.00666667
 41
0.00666667
  0
VERTEX
  8
0
 10
3.16336
 20
2.32667
 30
0.0
 40
0.00666667
 41
0.00666667
  0
SEQEND
 8
0
  0
POLYLINE
  8
0
 62
     0
 66
     1
 10
0
 20
0
 30
0.0
 40
0.48
 41
0.48
  0
VERTEX
  8
0
 10
3.16336
 20
2.32667
 30
0.0
 40
0.00666667
 41
0.00666667
  0
VERTEX
  8
0
 10
3.19
 20
2.34668
 30
0.0
 40
0.00666667
 41
0.00666667
  0
SEQEND
 8
0
  0
POLYLINE
  8
0
 62
     0
 66
     1
 10
0
 20
0
 30
0.0
 40
0.48
 41
0.48
  0
VERTEX
  8
0
 10
3.19
 20
2.34668
 30
0.0
 40
0.00666667
 41
0.00666667
  0
VERTEX
  8
0
 10
3.21332
 20
2.37169
 30
0.0
 40
0.00666667
 41
0.00666667
  0
SEQEND
 8
0
  0
POLYLINE
  8
0
 62
     0
 66
     1
 10
0
 20
0
 30
0.0
 40
0.48
 41
0.48
  0
VERTEX
  8
0
 10
3.21332
 20
2.37169
 30
0.0
 40
0.00666667
 41
0.00666667
  0
VERTEX
  8
0
 10
3.23167
 20
2.40001
 30
0.0
 40
0.00666667
 41
0.00666667
  0
SEQEND
 8
0
  0
POLYLINE
  8
0
 62
     0
 66
     1
 10
0
 20
0
 30
0.0
 40
0.48
 41
0.48
  0
VERTEX
  8
0
 10
3.23167
 20
2.40001
 30
0.0
 40
0.00666667
 41
0.00666667
  0
VERTEX
  8
0
 10
3.24333
 20
2.43332
 30
0.0
 40
0.00666667
 41
0.00666667
  0
SEQEND
 8
0
  0
POLYLINE
  8
0
 62
     0
 66
     1
 10
0
 20
0
 30
0.0
 40
0.48
 41
0.48
  0
VERTEX
  8
0
 10
3.24333
 20
2.43332
 30
0.0
 40
0.00666667
 41
0.00666667
  0
VERTEX
  8
0
 10
3.25
 20
2.46669
 30
0.0
 40
0.00666667
 41
0.00666667
  0
SEQEND
 8
0
  0
POLYLINE
  8
0
 62
     0
 66
     1
 10
0
 20
0
 30
0.0
 40
0.48
 41
0.48
  0
VERTEX
  8
0
 10
3.25
 20
2.46669
 30
0.0
 40
0.00666667
 41
0.00666667
  0
VERTEX
  8
0
 10
3.24832
 20
2.5
 30
0.0
 40
0.00666667
 41
0.00666667
  0
SEQEND
 8
0
  0
POLYLINE
  8
0
 62
     0
 66
     1
 10
0
 20
0
 30
0.0
 40
0.48
 41
0.48
  0
VERTEX
  8
0
 10
3.24832
 20
2.5
 30
0.0
 40
0.00666667
 41
0.00666667
  0
VERTEX
  8
0
 10
3.24164
 20
2.535
 30
0.0
 40
0.00666667
 41
0.00666667
  0
SEQEND
 8
0
  0
POLYLINE
  8
0
 62
     0
 66
     1
 10
0
 20
0
 30
0.0
 40
0.48
 41
0.48
  0
VERTEX
  8
0
 10
3.24164
 20
2.535
 30
0.0
 40
0.00666667
 41
0.00666667
  0
VERTEX
  8
0
 10
3.22835
 20
2.565
 30
0.0
 40
0.00666667
 41
0.00666667
  0
SEQEND
 8
0
  0
POLYLINE
  8
0
 62
     0
 66
     1
 10
0
 20
0
 30
0.0
 40
0.48
 41
0.48
  0
VERTEX
  8
0
 10
3.22835
 20
2.565
 30
0.0
 40
0.00666667
 41
0.00666667
  0
VERTEX
  8
0
 10
3.20833
 20
2.59332
 30
0.0
 40
0.00666667
 41
0.00666667
  0
SEQEND
 8
0
  0
POLYLINE
  8
0
 62
     0
 66
     1
 10
0
 20
0
 30
0.0
 40
0.48
 41
0.48
  0
VERTEX
  8
0
 10
3.20833
 20
2.59332
 30
0.0
 40
0.00666667
 41
0.00666667
  0
VERTEX
  8
0
 10
3.18332
 20
2.61833
 30
0.0
 40
0.00666667
 41
0.00666667
  0
SEQEND
 8
0
  0
POLYLINE
  8
0
 62
     0
 66
     1
 10
0
 20
0
 30
0.0
 40
0.48
 41
0.48
  0
VERTEX
  8
0
 10
3.18332
 20
2.61833
 30
0.0
 40
0.00666667
 41
0.00666667
  0
VERTEX
  8
0
 10
3.155
 20
2.63667
 30
0.0
 40
0.00666667
 41
0.00666667
  0
SEQEND
 8
0
  0
POLYLINE
  8
0
 62
     0
 66
     1
 10
0
 20
0
 30
0.0
 40
0.48
 41
0.48
  0
VERTEX
  8
0
 10
3.155
 20
2.63667
 30
0.0
 40
0.00666667
 41
0.00666667
  0
VERTEX
  8
0
 10
3.12169
 20
2.64833
 30
0.0
 40
0.00666667
 41
0.00666667
  0
SEQEND
 8
0
  0
POLYLINE
  8
0
 62
     0
 66
     1
 10
0
 20
0
 30
0.0
 40
0.48
 41
0.48
  0
VERTEX
  8
0
 10
3.12169
 20
2.64833
 30
0.0
 40
0.00666667
 41
0.00666667
  0
VERTEX
  8
0
 10
3.08832
 20
2.655
 30
0.0
 40
0.00666667
 41
0.00666667
  0
SEQEND
 8
0
  0
POLYLINE
  8
0
 62
     0
 66
     1
 10
0
 20
0
 30
0.0
 40
0.48
 41
0.48
  0
VERTEX
  8
0
 10
3.08832
 20
2.655
 30
0.0
 40
0.00666667
 41
0.00666667
  0
VERTEX
  8
0
 10
3.05501
 20
2.655
 30
0.0
 40
0.00666667
 41
0.00666667
  0
SEQEND
 8
0
  0
POLYLINE
  8
0
 62
     0
 66
     1
 10
0
 20
0
 30
0.0
 40
0.48
 41
0.48
  0
VERTEX
  8
0
 10
3.05501
 20
2.655
 30
0.0
 40
0.00666667
 41
0.00666667
  0
VERTEX
  8
0
 10
3.02001
 20
2.64833
 30
0.0
 40
0.00666667
 41
0.00666667
  0
SEQEND
 8
0
  0
POLYLINE
  8
0
 62
     0
 66
     1
 10
0
 20
0
 30
0.0
 40
0.48
 41
0.48
  0
VERTEX
  8
0
 10
3.02001
 20
2.64833
 30
0.0
 40
0.00666667
 41
0.00666667
  0
VERTEX
  8
0
 10
2.98833
 20
2.63499
 30
0.0
 40
0.00666667
 41
0.00666667
  0
SEQEND
 8
0
  0
POLYLINE
  8
0
 62
     0
 66
     1
 10
0
 20
0
 30
0.0
 40
0.48
 41
0.48
  0
VERTEX
  8
0
 10
2.98833
 20
2.63499
 30
0.0
 40
0.00666667
 41
0.00666667
  0
VERTEX
  8
0
 10
2.96001
 20
2.61664
 30
0.0
 40
0.00666667
 41
0.00666667
  0
SEQEND
 8
0
  0
POLYLINE
  8
0
 62
     0
 66
     1
 10
0
 20
0
 30
0.0
 40
0.48
 41
0.48
  0
VERTEX
  8
0
 10
2.96001
 20
2.61664
 30
0.0
 40
0.00666667
 41
0.00666667
  0
VERTEX
  8
0
 10
2.93668
 20
2.59169
 30
0.0
 40
0.00666667
 41
0.00666667
  0
SEQEND
 8
0
  0
POLYLINE
  8
0
 62
     0
 66
     1
 10
0
 20
0
 30
0.0
 40
0.48
 41
0.48
  0
VERTEX
  8
0
 10
2.93668
 20
2.59169
 30
0.0
 40
0.00666667
 41
0.00666667
  0
VERTEX
  8
0
 10
2.91667
 20
2.56332
 30
0.0
 40
0.00666667
 41
0.00666667
  0
SEQEND
 8
0
  0
POLYLINE
  8
0
 62
     0
 66
     1
 10
0
 20
0
 30
0.0
 40
0.48
 41
0.48
  0
VERTEX
  8
0
 10
2.91667
 20
2.56332
 30
0.0
 40
0.00666667
 41
0.00666667
  0
VERTEX
  8
0
 10
2.90332
 20
2.53168
 30
0.0
 40
0.00666667
 41
0.00666667
  0
SEQEND
 8
0
  0
POLYLINE
  8
0
 62
     0
 66
     1
 10
0
 20
0
 30
0.0
 40
0.48
 41
0.48
  0
VERTEX
  8
0
 10
2.90332
 20
2.53168
 30
0.0
 40
0.00666667
 41
0.00666667
  0
VERTEX
  8
0
 10
2.89833
 20
2.50331
 30
0.0
 40
0.00666667
 41
0.00666667
  0
SEQEND
 8
0
  0
POLYLINE
  8
0
 62
     0
 66
     1
 10
0
 20
0
 30
0.0
 40
0.48
 41
0.48
  0
VERTEX
  8
0
 10
2.89833
 20
2.50331
 30
0.0
 40
0.00666667
 41
0.00666667
  0
VERTEX
  8
0
 10
2.88997
 20
2.47667
 30
0.0
 40
0.00666667
 41
0.00666667
  0
SEQEND
 8
0
  0
POLYLINE
  8
0
 62
     0
 66
     1
 10
0
 20
0
 30
0.0
 40
0.48
 41
0.48
  0
VERTEX
  8
0
 10
2.88997
 20
2.47667
 30
0.0
 40
0.00666667
 41
0.00666667
  0
VERTEX
  8
0
 10
2.87668
 20
2.45167
 30
0.0
 40
0.00666667
 41
0.00666667
  0
SEQEND
 8
0
  0
POLYLINE
  8
0
 62
     0
 66
     1
 10
0
 20
0
 30
0.0
 40
0.48
 41
0.48
  0
VERTEX
  8
0
 10
2.87668
 20
2.45167
 30
0.0
 40
0.00666667
 41
0.00666667
  0
VERTEX
  8
0
 10
2.86501
 20
2.43668
 30
0.0
 40
0.00666667
 41
0.00666667
  0
SEQEND
 8
0
  0
POLYLINE
  8
0
 62
     0
 66
     1
 10
0
 20
0
 30
0.0
 40
0.48
 41
0.48
  0
VERTEX
  8
0
 10
3.09831
 20
2.30333
 30
0.0
 40
0.00666667
 41
0.00666667
  0
VERTEX
  8
0
 10
3.07167
 20
2.29665
 30
0.0
 40
0.00666667
 41
0.00666667
  0
SEQEND
 8
0
  0
POLYLINE
  8
0
 62
     0
 66
     1
 10
0
 20
0
 30
0.0
 40
0.48
 41
0.48
  0
VERTEX
  8
0
 10
3.07167
 20
2.29665
 30
0.0
 40
0.00666667
 41
0.00666667
  0
VERTEX
  8
0
 10
3.04665
 20
2.28331
 30
0.0
 40
0.00666667
 41
0.00666667
  0
SEQEND
 8
0
  0
POLYLINE
  8
0
 62
     0
 66
     1
 10
0
 20
0
 30
0.0
 40
0.48
 41
0.48
  0
VERTEX
  8
0
 10
3.04665
 20
2.28331
 30
0.0
 40
0.00666667
 41
0.00666667
  0
VERTEX
  8
0
 10
3.03168
 20
2.27001
 30
0.0
 40
0.00666667
 41
0.00666667
  0
SEQEND
 8
0
  0
POLYLINE
  8
0
 62
     0
 66
     1
 10
0
 20
0
 30
0.0
 40
0.48
 41
0.48
  0
VERTEX
  8
0
 10
1.18669
 20
2.375
 30
0.0
 40
0.00666667
 41
0.00666667
  0
VERTEX
  8
0
 10
1.18332
 20
2.38835
 30
0.0
 40
0.00666667
 41
0.00666667
  0
SEQEND
 8
0
  0
POLYLINE
  8
0
 62
     0
 66
     1
 10
0
 20
0
 30
0.0
 40
0.48
 41
0.48
  0
VERTEX
  8
0
 10
1.18332
 20
2.38835
 30
0.0
 40
0.00666667
 41
0.00666667
  0
VERTEX
  8
0
 10
1.17502
 20
2.40001
 30
0.0
 40
0.00666667
 41
0.00666667
  0
SEQEND
 8
0
  0
POLYLINE
  8
0
 62
     0
 66
     1
 10
0
 20
0
 30
0.0
 40
0.48
 41
0.48
  0
VERTEX
  8
0
 10
1.17502
 20
2.40001
 30
0.0
 40
0.00666667
 41
0.00666667
  0
VERTEX
  8
0
 10
1.16168
 20
2.405
 30
0.0
 40
0.00666667
 41
0.00666667
  0
SEQEND
 8
0
  0
POLYLINE
  8
0
 62
     0
 66
     1
 10
0
 20
0
 30
0.0
 40
0.48
 41
0.48
  0
VERTEX
  8
0
 10
1.16168
 20
2.405
 30
0.0
 40
0.00666667
 41
0.00666667
  0
VERTEX
  8
0
 10
1.14665
 20
2.405
 30
0.0
 40
0.00666667
 41
0.00666667
  0
SEQEND
 8
0
  0
POLYLINE
  8
0
 62
     0
 66
     1
 10
0
 20
0
 30
0.0
 40
0.48
 41
0.48
  0
VERTEX
  8
0
 10
1.14665
 20
2.405
 30
0.0
 40
0.00666667
 41
0.00666667
  0
VERTEX
  8
0
 10
1.13336
 20
2.39833
 30
0.0
 40
0.00666667
 41
0.00666667
  0
SEQEND
 8
0
  0
POLYLINE
  8
0
 62
     0
 66
     1
 10
0
 20
0
 30
0.0
 40
0.48
 41
0.48
  0
VERTEX
  8
0
 10
1.13336
 20
2.39833
 30
0.0
 40
0.00666667
 41
0.00666667
  0
VERTEX
  8
0
 10
1.12668
 20
2.38667
 30
0.0
 40
0.00666667
 41
0.00666667
  0
SEQEND
 8
0
  0
POLYLINE
  8
0
 62
     0
 66
     1
 10
0
 20
0
 30
0.0
 40
0.48
 41
0.48
  0
VERTEX
  8
0
 10
1.12668
 20
2.38667
 30
0.0
 40
0.00666667
 41
0.00666667
  0
VERTEX
  8
0
 10
1.12332
 20
2.37169
 30
0.0
 40
0.00666667
 41
0.00666667
  0
SEQEND
 8
0
  0
POLYLINE
  8
0
 62
     0
 66
     1
 10
0
 20
0
 30
0.0
 40
0.48
 41
0.48
  0
VERTEX
  8
0
 10
1.12332
 20
2.37169
 30
0.0
 40
0.00666667
 41
0.00666667
  0
VERTEX
  8
0
 10
1.12831
 20
2.35835
 30
0.0
 40
0.00666667
 41
0.00666667
  0
SEQEND
 8
0
  0
POLYLINE
  8
0
 62
     0
 66
     1
 10
0
 20
0
 30
0.0
 40
0.48
 41
0.48
  0
VERTEX
  8
0
 10
1.12831
 20
2.35835
 30
0.0
 40
0.00666667
 41
0.00666667
  0
VERTEX
  8
0
 10
1.13835
 20
2.34831
 30
0.0
 40
0.00666667
 41
0.00666667
  0
SEQEND
 8
0
  0
POLYLINE
  8
0
 62
     0
 66
     1
 10
0
 20
0
 30
0.0
 40
0.48
 41
0.48
  0
VERTEX
  8
0
 10
1.13835
 20
2.34831
 30
0.0
 40
0.00666667
 41
0.00666667
  0
VERTEX
  8
0
 10
1.15169
 20
2.34332
 30
0.0
 40
0.00666667
 41
0.00666667
  0
SEQEND
 8
0
  0
POLYLINE
  8
0
 62
     0
 66
     1
 10
0
 20
0
 30
0.0
 40
0.48
 41
0.48
  0
VERTEX
  8
0
 10
1.15169
 20
2.34332
 30
0.0
 40
0.00666667
 41
0.00666667
  0
VERTEX
  8
0
 10
1.16667
 20
2.345
 30
0.0
 40
0.00666667
 41
0.00666667
  0
SEQEND
 8
0
  0
POLYLINE
  8
0
 62
     0
 66
     1
 10
0
 20
0
 30
0.0
 40
0.48
 41
0.48
  0
VERTEX
  8
0
 10
1.16667
 20
2.345
 30
0.0
 40
0.00666667
 41
0.00666667
  0
VERTEX
  8
0
 10
1.17833
 20
2.35335
 30
0.0
 40
0.00666667
 41
0.00666667
  0
SEQEND
 8
0
  0
POLYLINE
  8
0
 62
     0
 66
     1
 10
0
 20
0
 30
0.0
 40
0.48
 41
0.48
  0
VERTEX
  8
0
 10
1.17833
 20
2.35335
 30
0.0
 40
0.00666667
 41
0.00666667
  0
VERTEX
  8
0
 10
1.185
 20
2.36501
 30
0.0
 40
0.00666667
 41
0.00666667
  0
SEQEND
 8
0
  0
POLYLINE
  8
0
 62
     0
 66
     1
 10
0
 20
0
 30
0.0
 40
0.48
 41
0.48
  0
VERTEX
  8
0
 10
1.185
 20
2.36501
 30
0.0
 40
0.00666667
 41
0.00666667
  0
VERTEX
  8
0
 10
1.18669
 20
2.375
 30
0.0
 40
0.00666667
 41
0.00666667
  0
SEQEND
 8
0
  0
POLYLINE
  8
0
 62
     0
 66
     1
 10
0
 20
0
 30
0.0
 40
0.48
 41
0.48
  0
VERTEX
  8
0
 10
1.13835
 20
2.55501
 30
0.0
 40
0.00666667
 41
0.00666667
  0
VERTEX
  8
0
 10
1.13498
 20
2.56999
 30
0.0
 40
0.00666667
 41
0.00666667
  0
SEQEND
 8
0
  0
POLYLINE
  8
0
 62
     0
 66
     1
 10
0
 20
0
 30
0.0
 40
0.48
 41
0.48
  0
VERTEX
  8
0
 10
1.13498
 20
2.56999
 30
0.0
 40
0.00666667
 41
0.00666667
  0
VERTEX
  8
0
 10
1.125
 20
2.58003
 30
0.0
 40
0.00666667
 41
0.00666667
  0
SEQEND
 8
0
  0
POLYLINE
  8
0
 62
     0
 66
     1
 10
0
 20
0
 30
0.0
 40
0.48
 41
0.48
  0
VERTEX
  8
0
 10
1.125
 20
2.58003
 30
0.0
 40
0.00666667
 41
0.00666667
  0
VERTEX
  8
0
 10
1.11334
 20
2.58664
 30
0.0
 40
0.00666667
 41
0.00666667
  0
SEQEND
 8
0
  0
POLYLINE
  8
0
 62
     0
 66
     1
 10
0
 20
0
 30
0.0
 40
0.48
 41
0.48
  0
VERTEX
  8
0
 10
1.11334
 20
2.58664
 30
0.0
 40
0.00666667
 41
0.00666667
  0
VERTEX
  8
0
 10
1.09831
 20
2.58501
 30
0.0
 40
0.00666667
 41
0.00666667
  0
SEQEND
 8
0
  0
POLYLINE
  8
0
 62
     0
 66
     1
 10
0
 20
0
 30
0.0
 40
0.48
 41
0.48
  0
VERTEX
  8
0
 10
1.09831
 20
2.58501
 30
0.0
 40
0.00666667
 41
0.00666667
  0
VERTEX
  8
0
 10
1.08502
 20
2.57835
 30
0.0
 40
0.00666667
 41
0.00666667
  0
SEQEND
 8
0
  0
POLYLINE
  8
0
 62
     0
 66
     1
 10
0
 20
0
 30
0.0
 40
0.48
 41
0.48
  0
VERTEX
  8
0
 10
1.08502
 20
2.57835
 30
0.0
 40
0.00666667
 41
0.00666667
  0
VERTEX
  8
0
 10
1.07666
 20
2.56668
 30
0.0
 40
0.00666667
 41
0.00666667
  0
SEQEND
 8
0
  0
POLYLINE
  8
0
 62
     0
 66
     1
 10
0
 20
0
 30
0.0
 40
0.48
 41
0.48
  0
VERTEX
  8
0
 10
1.07666
 20
2.56668
 30
0.0
 40
0.00666667
 41
0.00666667
  0
VERTEX
  8
0
 10
1.07498
 20
2.55333
 30
0.0
 40
0.00666667
 41
0.00666667
  0
SEQEND
 8
0
  0
POLYLINE
  8
0
 62
     0
 66
     1
 10
0
 20
0
 30
0.0
 40
0.48
 41
0.48
  0
VERTEX
  8
0
 10
1.07498
 20
2.55333
 30
0.0
 40
0.00666667
 41
0.00666667
  0
VERTEX
  8
0
 10
1.08002
 20
2.53836
 30
0.0
 40
0.00666667
 41
0.00666667
  0
SEQEND
 8
0
  0
POLYLINE
  8
0
 62
     0
 66
     1
 10
0
 20
0
 30
0.0
 40
0.48
 41
0.48
  0
VERTEX
  8
0
 10
1.08002
 20
2.53836
 30
0.0
 40
0.00666667
 41
0.00666667
  0
VERTEX
  8
0
 10
1.09001
 20
2.52832
 30
0.0
 40
0.00666667
 41
0.00666667
  0
SEQEND
 8
0
  0
POLYLINE
  8
0
 62
     0
 66
     1
 10
0
 20
0
 30
0.0
 40
0.48
 41
0.48
  0
VERTEX
  8
0
 10
1.09001
 20
2.52832
 30
0.0
 40
0.00666667
 41
0.00666667
  0
VERTEX
  8
0
 10
1.10335
 20
2.52333
 30
0.0
 40
0.00666667
 41
0.00666667
  0
SEQEND
 8
0
  0
POLYLINE
  8
0
 62
     0
 66
     1
 10
0
 20
0
 30
0.0
 40
0.48
 41
0.48
  0
VERTEX
  8
0
 10
1.10335
 20
2.52333
 30
0.0
 40
0.00666667
 41
0.00666667
  0
VERTEX
  8
0
 10
1.11833
 20
2.52669
 30
0.0
 40
0.00666667
 41
0.00666667
  0
SEQEND
 8
0
  0
POLYLINE
  8
0
 62
     0
 66
     1
 10
0
 20
0
 30
0.0
 40
0.48
 41
0.48
  0
VERTEX
  8
0
 10
1.11833
 20
2.52669
 30
0.0
 40
0.00666667
 41
0.00666667
  0
VERTEX
  8
0
 10
1.12999
 20
2.53331
 30
0.0
 40
0.00666667
 41
0.00666667
  0
SEQEND
 8
0
  0
POLYLINE
  8
0
 62
     0
 66
     1
 10
0
 20
0
 30
0.0
 40
0.48
 41
0.48
  0
VERTEX
  8
0
 10
1.12999
 20
2.53331
 30
0.0
 40
0.00666667
 41
0.00666667
  0
VERTEX
  8
0
 10
1.13666
 20
2.54665
 30
0.0
 40
0.00666667
 41
0.00666667
  0
SEQEND
 8
0
  0
POLYLINE
  8
0
 62
     0
 66
     1
 10
0
 20
0
 30
0.0
 40
0.48
 41
0.48
  0
VERTEX
  8
0
 10
1.13666
 20
2.54665
 30
0.0
 40
0.00666667
 41
0.00666667
  0
VERTEX
  8
0
 10
1.13835
 20
2.55501
 30
0.0
 40
0.00666667
 41
0.00666667
  0
SEQEND
 8
0
  0
POLYLINE
  8
0
 62
     0
 66
     1
 10
0
 20
0
 30
0.0
 40
0.48
 41
0.48
  0
VERTEX
  8
0
 10
1.31999
 20
2.50667
 30
0.0
 40
0.00666667
 41
0.00666667
  0
VERTEX
  8
0
 10
1.31668
 20
2.52165
 30
0.0
 40
0.00666667
 41
0.00666667
  0
SEQEND
 8
0
  0
POLYLINE
  8
0
 62
     0
 66
     1
 10
0
 20
0
 30
0.0
 40
0.48
 41
0.48
  0
VERTEX
  8
0
 10
1.31668
 20
2.52165
 30
0.0
 40
0.00666667
 41
0.00666667
  0
VERTEX
  8
0
 10
1.30664
 20
2.53168
 30
0.0
 40
0.00666667
 41
0.00666667
  0
SEQEND
 8
0
  0
POLYLINE
  8
0
 62
     0
 66
     1
 10
0
 20
0
 30
0.0
 40
0.48
 41
0.48
  0
VERTEX
  8
0
 10
1.30664
 20
2.53168
 30
0.0
 40
0.00666667
 41
0.00666667
  0
VERTEX
  8
0
 10
1.29335
 20
2.53836
 30
0.0
 40
0.00666667
 41
0.00666667
  0
SEQEND
 8
0
  0
POLYLINE
  8
0
 62
     0
 66
     1
 10
0
 20
0
 30
0.0
 40
0.48
 41
0.48
  0
VERTEX
  8
0
 10
1.29335
 20
2.53836
 30
0.0
 40
0.00666667
 41
0.00666667
  0
VERTEX
  8
0
 10
1.28
 20
2.53668
 30
0.0
 40
0.00666667
 41
0.00666667
  0
SEQEND
 8
0
  0
POLYLINE
  8
0
 62
     0
 66
     1
 10
0
 20
0
 30
0.0
 40
0.48
 41
0.48
  0
VERTEX
  8
0
 10
1.28
 20
2.53668
 30
0.0
 40
0.00666667
 41
0.00666667
  0
VERTEX
  8
0
 10
1.26666
 20
2.53
 30
0.0
 40
0.00666667
 41
0.00666667
  0
SEQEND
 8
0
  0
POLYLINE
  8
0
 62
     0
 66
     1
 10
0
 20
0
 30
0.0
 40
0.48
 41
0.48
  0
VERTEX
  8
0
 10
1.26666
 20
2.53
 30
0.0
 40
0.00666667
 41
0.00666667
  0
VERTEX
  8
0
 10
1.25836
 20
2.51833
 30
0.0
 40
0.00666667
 41
0.00666667
  0
SEQEND
 8
0
  0
POLYLINE
  8
0
 62
     0
 66
     1
 10
0
 20
0
 30
0.0
 40
0.48
 41
0.48
  0
VERTEX
  8
0
 10
1.25836
 20
2.51833
 30
0.0
 40
0.00666667
 41
0.00666667
  0
VERTEX
  8
0
 10
1.25667
 20
2.50499
 30
0.0
 40
0.00666667
 41
0.00666667
  0
SEQEND
 8
0
  0
POLYLINE
  8
0
 62
     0
 66
     1
 10
0
 20
0
 30
0.0
 40
0.48
 41
0.48
  0
VERTEX
  8
0
 10
1.25667
 20
2.50499
 30
0.0
 40
0.00666667
 41
0.00666667
  0
VERTEX
  8
0
 10
1.26166
 20
2.49001
 30
0.0
 40
0.00666667
 41
0.00666667
  0
SEQEND
 8
0
  0
POLYLINE
  8
0
 62
     0
 66
     1
 10
0
 20
0
 30
0.0
 40
0.48
 41
0.48
  0
VERTEX
  8
0
 10
1.26166
 20
2.49001
 30
0.0
 40
0.00666667
 41
0.00666667
  0
VERTEX
  8
0
 10
1.27165
 20
2.47999
 30
0.0
 40
0.00666667
 41
0.00666667
  0
SEQEND
 8
0
  0
POLYLINE
  8
0
 62
     0
 66
     1
 10
0
 20
0
 30
0.0
 40
0.48
 41
0.48
  0
VERTEX
  8
0
 10
1.27165
 20
2.47999
 30
0.0
 40
0.00666667
 41
0.00666667
  0
VERTEX
  8
0
 10
1.28499
 20
2.47499
 30
0.0
 40
0.00666667
 41
0.00666667
  0
SEQEND
 8
0
  0
POLYLINE
  8
0
 62
     0
 66
     1
 10
0
 20
0
 30
0.0
 40
0.48
 41
0.48
  0
VERTEX
  8
0
 10
1.28499
 20
2.47499
 30
0.0
 40
0.00666667
 41
0.00666667
  0
VERTEX
  8
0
 10
1.29834
 20
2.47667
 30
0.0
 40
0.00666667
 41
0.00666667
  0
SEQEND
 8
0
  0
POLYLINE
  8
0
 62
     0
 66
     1
 10
0
 20
0
 30
0.0
 40
0.48
 41
0.48
  0
VERTEX
  8
0
 10
1.29834
 20
2.47667
 30
0.0
 40
0.00666667
 41
0.00666667
  0
VERTEX
  8
0
 10
1.31169
 20
2.48503
 30
0.0
 40
0.00666667
 41
0.00666667
  0
SEQEND
 8
0
  0
POLYLINE
  8
0
 62
     0
 66
     1
 10
0
 20
0
 30
0.0
 40
0.48
 41
0.48
  0
VERTEX
  8
0
 10
1.31169
 20
2.48503
 30
0.0
 40
0.00666667
 41
0.00666667
  0
VERTEX
  8
0
 10
1.31836
 20
2.49832
 30
0.0
 40
0.00666667
 41
0.00666667
  0
SEQEND
 8
0
  0
POLYLINE
  8
0
 62
     0
 66
     1
 10
0
 20
0
 30
0.0
 40
0.48
 41
0.48
  0
VERTEX
  8
0
 10
1.31836
 20
2.49832
 30
0.0
 40
0.00666667
 41
0.00666667
  0
VERTEX
  8
0
 10
1.31999
 20
2.50667
 30
0.0
 40
0.00666667
 41
0.00666667
  0
SEQEND
 8
0
  0
POLYLINE
  8
0
 62
     0
 66
     1
 10
0
 20
0
 30
0.0
 40
0.48
 41
0.48
  0
VERTEX
  8
0
 10
1.35834
 20
2.50331
 30
0.0
 40
0.00666667
 41
0.00666667
  0
VERTEX
  8
0
 10
1.34999
 20
2.53668
 30
0.0
 40
0.00666667
 41
0.00666667
  0
SEQEND
 8
0
  0
POLYLINE
  8
0
 62
     0
 66
     1
 10
0
 20
0
 30
0.0
 40
0.48
 41
0.48
  0
VERTEX
  8
0
 10
1.34999
 20
2.53668
 30
0.0
 40
0.00666667
 41
0.00666667
  0
VERTEX
  8
0
 10
1.33664
 20
2.56836
 30
0.0
 40
0.00666667
 41
0.00666667
  0
SEQEND
 8
0
  0
POLYLINE
  8
0
 62
     0
 66
     1
 10
0
 20
0
 30
0.0
 40
0.48
 41
0.48
  0
VERTEX
  8
0
 10
1.33664
 20
2.56836
 30
0.0
 40
0.00666667
 41
0.00666667
  0
VERTEX
  8
0
 10
1.31668
 20
2.59668
 30
0.0
 40
0.00666667
 41
0.00666667
  0
SEQEND
 8
0
  0
POLYLINE
  8
0
 62
     0
 66
     1
 10
0
 20
0
 30
0.0
 40
0.48
 41
0.48
  0
VERTEX
  8
0
 10
1.31668
 20
2.59668
 30
0.0
 40
0.00666667
 41
0.00666667
  0
VERTEX
  8
0
 10
1.29167
 20
2.62001
 30
0.0
 40
0.00666667
 41
0.00666667
  0
SEQEND
 8
0
  0
POLYLINE
  8
0
 62
     0
 66
     1
 10
0
 20
0
 30
0.0
 40
0.48
 41
0.48
  0
VERTEX
  8
0
 10
1.29167
 20
2.62001
 30
0.0
 40
0.00666667
 41
0.00666667
  0
VERTEX
  8
0
 10
1.26166
 20
2.63835
 30
0.0
 40
0.00666667
 41
0.00666667
  0
SEQEND
 8
0
  0
POLYLINE
  8
0
 62
     0
 66
     1
 10
0
 20
0
 30
0.0
 40
0.48
 41
0.48
  0
VERTEX
  8
0
 10
1.26166
 20
2.63835
 30
0.0
 40
0.00666667
 41
0.00666667
  0
VERTEX
  8
0
 10
1.22998
 20
2.65001
 30
0.0
 40
0.00666667
 41
0.00666667
  0
SEQEND
 8
0
  0
POLYLINE
  8
0
 62
     0
 66
     1
 10
0
 20
0
 30
0.0
 40
0.48
 41
0.48
  0
VERTEX
  8
0
 10
1.22998
 20
2.65001
 30
0.0
 40
0.00666667
 41
0.00666667
  0
VERTEX
  8
0
 10
1.19499
 20
2.655
 30
0.0
 40
0.00666667
 41
0.00666667
  0
SEQEND
 8
0
  0
POLYLINE
  8
0
 62
     0
 66
     1
 10
0
 20
0
 30
0.0
 40
0.48
 41
0.48
  0
VERTEX
  8
0
 10
1.19499
 20
2.655
 30
0.0
 40
0.00666667
 41
0.00666667
  0
VERTEX
  8
0
 10
1.16168
 20
2.655
 30
0.0
 40
0.00666667
 41
0.00666667
  0
SEQEND
 8
0
  0
POLYLINE
  8
0
 62
     0
 66
     1
 10
0
 20
0
 30
0.0
 40
0.48
 41
0.48
  0
VERTEX
  8
0
 10
1.16168
 20
2.655
 30
0.0
 40
0.00666667
 41
0.00666667
  0
VERTEX
  8
0
 10
1.12831
 20
2.64665
 30
0.0
 40
0.00666667
 41
0.00666667
  0
SEQEND
 8
0
  0
POLYLINE
  8
0
 62
     0
 66
     1
 10
0
 20
0
 30
0.0
 40
0.48
 41
0.48
  0
VERTEX
  8
0
 10
1.12831
 20
2.64665
 30
0.0
 40
0.00666667
 41
0.00666667
  0
VERTEX
  8
0
 10
1.09668
 20
2.63336
 30
0.0
 40
0.00666667
 41
0.00666667
  0
SEQEND
 8
0
  0
POLYLINE
  8
0
 62
     0
 66
     1
 10
0
 20
0
 30
0.0
 40
0.48
 41
0.48
  0
VERTEX
  8
0
 10
1.09668
 20
2.63336
 30
0.0
 40
0.00666667
 41
0.00666667
  0
VERTEX
  8
0
 10
1.06836
 20
2.61333
 30
0.0
 40
0.00666667
 41
0.00666667
  0
SEQEND
 8
0
  0
POLYLINE
  8
0
 62
     0
 66
     1
 10
0
 20
0
 30
0.0
 40
0.48
 41
0.48
  0
VERTEX
  8
0
 10
1.06836
 20
2.61333
 30
0.0
 40
0.00666667
 41
0.00666667
  0
VERTEX
  8
0
 10
1.04498
 20
2.58832
 30
0.0
 40
0.00666667
 41
0.00666667
  0
SEQEND
 8
0
  0
POLYLINE
  8
0
 62
     0
 66
     1
 10
0
 20
0
 30
0.0
 40
0.48
 41
0.48
  0
VERTEX
  8
0
 10
1.04498
 20
2.58832
 30
0.0
 40
0.00666667
 41
0.00666667
  0
VERTEX
  8
0
 10
1.02669
 20
2.56
 30
0.0
 40
0.00666667
 41
0.00666667
  0
SEQEND
 8
0
  0
POLYLINE
  8
0
 62
     0
 66
     1
 10
0
 20
0
 30
0.0
 40
0.48
 41
0.48
  0
VERTEX
  8
0
 10
1.02669
 20
2.56
 30
0.0
 40
0.00666667
 41
0.00666667
  0
VERTEX
  8
0
 10
1.01335
 20
2.52832
 30
0.0
 40
0.00666667
 41
0.00666667
  0
SEQEND
 8
0
  0
POLYLINE
  8
0
 62
     0
 66
     1
 10
0
 20
0
 30
0.0
 40
0.48
 41
0.48
  0
VERTEX
  8
0
 10
1.01335
 20
2.52832
 30
0.0
 40
0.00666667
 41
0.00666667
  0
VERTEX
  8
0
 10
1.00667
 20
2.49501
 30
0.0
 40
0.00666667
 41
0.00666667
  0
SEQEND
 8
0
  0
POLYLINE
  8
0
 62
     0
 66
     1
 10
0
 20
0
 30
0.0
 40
0.48
 41
0.48
  0
VERTEX
  8
0
 10
1.00667
 20
2.49501
 30
0.0
 40
0.00666667
 41
0.00666667
  0
VERTEX
  8
0
 10
1.00667
 20
2.46001
 30
0.0
 40
0.00666667
 41
0.00666667
  0
SEQEND
 8
0
  0
POLYLINE
  8
0
 62
     0
 66
     1
 10
0
 20
0
 30
0.0
 40
0.48
 41
0.48
  0
VERTEX
  8
0
 10
1.00667
 20
2.46001
 30
0.0
 40
0.00666667
 41
0.00666667
  0
VERTEX
  8
0
 10
1.01335
 20
2.42665
 30
0.0
 40
0.00666667
 41
0.00666667
  0
SEQEND
 8
0
  0
POLYLINE
  8
0
 62
     0
 66
     1
 10
0
 20
0
 30
0.0
 40
0.48
 41
0.48
  0
VERTEX
  8
0
 10
1.01335
 20
2.42665
 30
0.0
 40
0.00666667
 41
0.00666667
  0
VERTEX
  8
0
 10
1.02669
 20
2.39501
 30
0.0
 40
0.00666667
 41
0.00666667
  0
SEQEND
 8
0
  0
POLYLINE
  8
0
 62
     0
 66
     1
 10
0
 20
0
 30
0.0
 40
0.48
 41
0.48
  0
VERTEX
  8
0
 10
1.02669
 20
2.39501
 30
0.0
 40
0.00666667
 41
0.00666667
  0
VERTEX
  8
0
 10
1.04666
 20
2.36664
 30
0.0
 40
0.00666667
 41
0.00666667
  0
SEQEND
 8
0
  0
POLYLINE
  8
0
 62
     0
 66
     1
 10
0
 20
0
 30
0.0
 40
0.48
 41
0.48
  0
VERTEX
  8
0
 10
1.04666
 20
2.36664
 30
0.0
 40
0.00666667
 41
0.00666667
  0
VERTEX
  8
0
 10
1.06999
 20
2.34169
 30
0.0
 40
0.00666667
 41
0.00666667
  0
SEQEND
 8
0
  0
POLYLINE
  8
0
 62
     0
 66
     1
 10
0
 20
0
 30
0.0
 40
0.48
 41
0.48
  0
VERTEX
  8
0
 10
1.06999
 20
2.34169
 30
0.0
 40
0.00666667
 41
0.00666667
  0
VERTEX
  8
0
 10
1.09831
 20
2.32335
 30
0.0
 40
0.00666667
 41
0.00666667
  0
SEQEND
 8
0
  0
POLYLINE
  8
0
 62
     0
 66
     1
 10
0
 20
0
 30
0.0
 40
0.48
 41
0.48
  0
VERTEX
  8
0
 10
1.09831
 20
2.32335
 30
0.0
 40
0.00666667
 41
0.00666667
  0
VERTEX
  8
0
 10
1.12999
 20
2.31
 30
0.0
 40
0.00666667
 41
0.00666667
  0
SEQEND
 8
0
  0
POLYLINE
  8
0
 62
     0
 66
     1
 10
0
 20
0
 30
0.0
 40
0.48
 41
0.48
  0
VERTEX
  8
0
 10
1.12999
 20
2.31
 30
0.0
 40
0.00666667
 41
0.00666667
  0
VERTEX
  8
0
 10
1.15831
 20
2.30333
 30
0.0
 40
0.00666667
 41
0.00666667
  0
SEQEND
 8
0
  0
POLYLINE
  8
0
 62
     0
 66
     1
 10
0
 20
0
 30
0.0
 40
0.48
 41
0.48
  0
VERTEX
  8
0
 10
1.35834
 20
2.50331
 30
0.0
 40
0.00666667
 41
0.00666667
  0
VERTEX
  8
0
 10
1.36664
 20
2.47667
 30
0.0
 40
0.00666667
 41
0.00666667
  0
SEQEND
 8
0
  0
POLYLINE
  8
0
 62
     0
 66
     1
 10
0
 20
0
 30
0.0
 40
0.48
 41
0.48
  0
VERTEX
  8
0
 10
1.36664
 20
2.47667
 30
0.0
 40
0.00666667
 41
0.00666667
  0
VERTEX
  8
0
 10
1.37999
 20
2.45167
 30
0.0
 40
0.00666667
 41
0.00666667
  0
SEQEND
 8
0
  0
POLYLINE
  8
0
 62
     0
 66
     1
 10
0
 20
0
 30
0.0
 40
0.48
 41
0.48
  0
VERTEX
  8
0
 10
1.37999
 20
2.45167
 30
0.0
 40
0.00666667
 41
0.00666667
  0
VERTEX
  8
0
 10
1.39165
 20
2.43668
 30
0.0
 40
0.00666667
 41
0.00666667
  0
SEQEND
 8
0
  0
POLYLINE
  8
0
 62
     0
 66
     1
 10
0
 20
0
 30
0.0
 40
0.48
 41
0.48
  0
VERTEX
  8
0
 10
1.15831
 20
2.30333
 30
0.0
 40
0.00666667
 41
0.00666667
  0
VERTEX
  8
0
 10
1.185
 20
2.29665
 30
0.0
 40
0.00666667
 41
0.00666667
  0
SEQEND
 8
0
  0
POLYLINE
  8
0
 62
     0
 66
     1
 10
0
 20
0
 30
0.0
 40
0.48
 41
0.48
  0
VERTEX
  8
0
 10
1.185
 20
2.29665
 30
0.0
 40
0.00666667
 41
0.00666667
  0
VERTEX
  8
0
 10
1.21002
 20
2.28331
 30
0.0
 40
0.00666667
 41
0.00666667
  0
SEQEND
 8
0
  0
POLYLINE
  8
0
 62
     0
 66
     1
 10
0
 20
0
 30
0.0
 40
0.48
 41
0.48
  0
VERTEX
  8
0
 10
1.21002
 20
2.28331
 30
0.0
 40
0.00666667
 41
0.00666667
  0
VERTEX
  8
0
 10
1.22499
 20
2.27001
 30
0.0
 40
0.00666667
 41
0.00666667
  0
SEQEND
 8
0
  0
POLYLINE
  8
0
 62
     0
 66
     1
 10
0
 20
0
 30
0.0
 40
0.48
 41
0.48
  0
VERTEX
  8
0
 10
1.26497
 20
2.375
 30
0.0
 40
0.00666667
 41
0.00666667
  0
VERTEX
  8
0
 10
1.155
 20
2.375
 30
0.0
 40
0.00666667
 41
0.00666667
  0
SEQEND
 8
0
  0
POLYLINE
  8
0
 62
     0
 66
     1
 10
0
 20
0
 30
0.0
 40
0.48
 41
0.48
  0
VERTEX
  8
0
 10
1.04498
 20
2.375
 30
0.0
 40
0.00666667
 41
0.00666667
  0
VERTEX
  8
0
 10
1.155
 20
2.375
 30
0.0
 40
0.00666667
 41
0.00666667
  0
SEQEND
 8
0
  0
POLYLINE
  8
0
 62
     0
 66
     1
 10
0
 20
0
 30
0.0
 40
0.48
 41
0.48
  0
VERTEX
  8
0
 10
1.155
 20
2.48503
 30
0.0
 40
0.00666667
 41
0.00666667
  0
VERTEX
  8
0
 10
1.155
 20
2.375
 30
0.0
 40
0.00666667
 41
0.00666667
  0
SEQEND
 8
0
  0
POLYLINE
  8
0
 62
     0
 66
     1
 10
0
 20
0
 30
0.0
 40
0.48
 41
0.48
  0
VERTEX
  8
0
 10
1.155
 20
2.26335
 30
0.0
 40
0.00666667
 41
0.00666667
  0
VERTEX
  8
0
 10
1.155
 20
2.375
 30
0.0
 40
0.00666667
 41
0.00666667
  0
SEQEND
 8
0
  0
POLYLINE
  8
0
 62
     0
 66
     1
 10
0
 20
0
 30
0.0
 40
0.48
 41
0.48
  0
VERTEX
  8
0
 10
1.10666
 20
2.66499
 30
0.0
 40
0.00666667
 41
0.00666667
  0
VERTEX
  8
0
 10
1.10666
 20
2.55501
 30
0.0
 40
0.00666667
 41
0.00666667
  0
SEQEND
 8
0
  0
POLYLINE
  8
0
 62
     0
 66
     1
 10
0
 20
0
 30
0.0
 40
0.48
 41
0.48
  0
VERTEX
  8
0
 10
1.10666
 20
2.44499
 30
0.0
 40
0.00666667
 41
0.00666667
  0
VERTEX
  8
0
 10
1.10666
 20
2.55501
 30
0.0
 40
0.00666667
 41
0.00666667
  0
SEQEND
 8
0
  0
POLYLINE
  8
0
 62
     0
 66
     1
 10
0
 20
0
 30
0.0
 40
0.48
 41
0.48
  0
VERTEX
  8
0
 10
0.99669
 20
2.55501
 30
0.0
 40
0.00666667
 41
0.00666667
  0
VERTEX
  8
0
 10
1.10666
 20
2.55501
 30
0.0
 40
0.00666667
 41
0.00666667
  0
SEQEND
 8
0
  0
POLYLINE
  8
0
 62
     0
 66
     1
 10
0
 20
0
 30
0.0
 40
0.48
 41
0.48
  0
VERTEX
  8
0
 10
1.21669
 20
2.55501
 30
0.0
 40
0.00666667
 41
0.00666667
  0
VERTEX
  8
0
 10
1.10666
 20
2.55501
 30
0.0
 40
0.00666667
 41
0.00666667
  0
SEQEND
 8
0
  0
POLYLINE
  8
0
 62
     0
 66
     1
 10
0
 20
0
 30
0.0
 40
0.48
 41
0.48
  0
VERTEX
  8
0
 10
1.28836
 20
2.39665
 30
0.0
 40
0.00666667
 41
0.00666667
  0
VERTEX
  8
0
 10
1.28836
 20
2.50667
 30
0.0
 40
0.00666667
 41
0.00666667
  0
SEQEND
 8
0
  0
POLYLINE
  8
0
 62
     0
 66
     1
 10
0
 20
0
 30
0.0
 40
0.48
 41
0.48
  0
VERTEX
  8
0
 10
1.28836
 20
2.61664
 30
0.0
 40
0.00666667
 41
0.00666667
  0
VERTEX
  8
0
 10
1.28836
 20
2.50667
 30
0.0
 40
0.00666667
 41
0.00666667
  0
SEQEND
 8
0
  0
POLYLINE
  8
0
 62
     0
 66
     1
 10
0
 20
0
 30
0.0
 40
0.48
 41
0.48
  0
VERTEX
  8
0
 10
1.39833
 20
2.50667
 30
0.0
 40
0.00666667
 41
0.00666667
  0
VERTEX
  8
0
 10
1.28836
 20
2.50667
 30
0.0
 40
0.00666667
 41
0.00666667
  0
SEQEND
 8
0
  0
POLYLINE
  8
0
 62
     0
 66
     1
 10
0
 20
0
 30
0.0
 40
0.48
 41
0.48
  0
VERTEX
  8
0
 10
1.17833
 20
2.50667
 30
0.0
 40
0.00666667
 41
0.00666667
  0
VERTEX
  8
0
 10
1.28836
 20
2.50667
 30
0.0
 40
0.00666667
 41
0.00666667
  0
SEQEND
 8
0
  0
POLYLINE
  8
0
 62
     0
 66
     1
 10
0
 20
0
 30
0.0
 40
0.48
 41
0.48
  0
VERTEX
  8
0
 10
2.96832
 20
2.61664
 30
0.0
 40
0.00666667
 41
0.00666667
  0
VERTEX
  8
0
 10
2.96832
 20
2.50667
 30
0.0
 40
0.00666667
 41
0.00666667
  0
SEQEND
 8
0
  0
POLYLINE
  8
0
 62
     0
 66
     1
 10
0
 20
0
 30
0.0
 40
0.48
 41
0.48
  0
VERTEX
  8
0
 10
2.96832
 20
2.39665
 30
0.0
 40
0.00666667
 41
0.00666667
  0
VERTEX
  8
0
 10
2.96832
 20
2.50667
 30
0.0
 40
0.00666667
 41
0.00666667
  0
SEQEND
 8
0
  0
POLYLINE
  8
0
 62
     0
 66
     1
 10
0
 20
0
 30
0.0
 40
0.48
 41
0.48
  0
VERTEX
  8
0
 10
2.85835
 20
2.50667
 30
0.0
 40
0.00666667
 41
0.00666667
  0
VERTEX
  8
0
 10
2.96832
 20
2.50667
 30
0.0
 40
0.00666667
 41
0.00666667
  0
SEQEND
 8
0
  0
POLYLINE
  8
0
 62
     0
 66
     1
 10
0
 20
0
 30
0.0
 40
0.48
 41
0.48
  0
VERTEX
  8
0
 10
3.07835
 20
2.50667
 30
0.0
 40
0.00666667
 41
0.00666667
  0
VERTEX
  8
0
 10
2.96832
 20
2.50667
 30
0.0
 40
0.00666667
 41
0.00666667
  0
SEQEND
 8
0
  0
POLYLINE
  8
0
 62
     0
 66
     1
 10
0
 20
0
 30
0.0
 40
0.48
 41
0.48
  0
VERTEX
  8
0
 10
3.10167
 20
2.48503
 30
0.0
 40
0.00666667
 41
0.00666667
  0
VERTEX
  8
0
 10
3.10167
 20
2.375
 30
0.0
 40
0.00666667
 41
0.00666667
  0
SEQEND
 8
0
  0
POLYLINE
  8
0
 62
     0
 66
     1
 10
0
 20
0
 30
0.0
 40
0.48
 41
0.48
  0
VERTEX
  8
0
 10
3.10167
 20
2.26335
 30
0.0
 40
0.00666667
 41
0.00666667
  0
VERTEX
  8
0
 10
3.10167
 20
2.375
 30
0.0
 40
0.00666667
 41
0.00666667
  0
SEQEND
 8
0
  0
POLYLINE
  8
0
 62
     0
 66
     1
 10
0
 20
0
 30
0.0
 40
0.48
 41
0.48
  0
VERTEX
  8
0
 10
2.99001
 20
2.375
 30
0.0
 40
0.00666667
 41
0.00666667
  0
VERTEX
  8
0
 10
3.10167
 20
2.375
 30
0.0
 40
0.00666667
 41
0.00666667
  0
SEQEND
 8
0
  0
POLYLINE
  8
0
 62
     0
 66
     1
 10
0
 20
0
 30
0.0
 40
0.48
 41
0.48
  0
VERTEX
  8
0
 10
3.21164
 20
2.375
 30
0.0
 40
0.00666667
 41
0.00666667
  0
VERTEX
  8
0
 10
3.10167
 20
2.375
 30
0.0
 40
0.00666667
 41
0.00666667
  0
SEQEND
 8
0
  0
POLYLINE
  8
0
 62
     0
 66
     1
 10
0
 20
0
 30
0.0
 40
0.48
 41
0.48
  0
VERTEX
  8
0
 10
3.15001
 20
2.66499
 30
0.0
 40
0.00666667
 41
0.00666667
  0
VERTEX
  8
0
 10
3.15001
 20
2.55501
 30
0.0
 40
0.00666667
 41
0.00666667
  0
SEQEND
 8
0
  0
POLYLINE
  8
0
 62
     0
 66
     1
 10
0
 20
0
 30
0.0
 40
0.48
 41
0.48
  0
VERTEX
  8
0
 10
3.15001
 20
2.44499
 30
0.0
 40
0.00666667
 41
0.00666667
  0
VERTEX
  8
0
 10
3.15001
 20
2.55501
 30
0.0
 40
0.00666667
 41
0.00666667
  0
SEQEND
 8
0
  0
POLYLINE
  8
0
 62
     0
 66
     1
 10
0
 20
0
 30
0.0
 40
0.48
 41
0.48
  0
VERTEX
  8
0
 10
3.03999
 20
2.55501
 30
0.0
 40
0.00666667
 41
0.00666667
  0
VERTEX
  8
0
 10
3.15001
 20
2.55501
 30
0.0
 40
0.00666667
 41
0.00666667
  0
SEQEND
 8
0
  0
POLYLINE
  8
0
 62
     0
 66
     1
 10
0
 20
0
 30
0.0
 40
0.48
 41
0.48
  0
VERTEX
  8
0
 10
3.25999
 20
2.55501
 30
0.0
 40
0.00666667
 41
0.00666667
  0
VERTEX
  8
0
 10
3.15001
 20
2.55501
 30
0.0
 40
0.00666667
 41
0.00666667
  0
SEQEND
 8
0
  0
POLYLINE
  8
0
 62
     0
 66
     1
 10
0
 20
0
 30
0.0
 40
0.48
 41
0.48
  0
VERTEX
  8
0
 10
1.28836
 20
0.671658
 30
0.0
 40
0.00666667
 41
0.00666667
  0
VERTEX
  8
0
 10
1.28836
 20
0.561686
 30
0.0
 40
0.00666667
 41
0.00666667
  0
SEQEND
 8
0
  0
POLYLINE
  8
0
 62
     0
 66
     1
 10
0
 20
0
 30
0.0
 40
0.48
 41
0.48
  0
VERTEX
  8
0
 10
1.28836
 20
0.45166
 30
0.0
 40
0.00666667
 41
0.00666667
  0
VERTEX
  8
0
 10
1.28836
 20
0.561686
 30
0.0
 40
0.00666667
 41
0.00666667
  0
SEQEND
 8
0
  0
POLYLINE
  8
0
 62
     0
 66
     1
 10
0
 20
0
 30
0.0
 40
0.48
 41
0.48
  0
VERTEX
  8
0
 10
1.17833
 20
0.561686
 30
0.0
 40
0.00666667
 41
0.00666667
  0
VERTEX
  8
0
 10
1.28836
 20
0.561686
 30
0.0
 40
0.00666667
 41
0.00666667
  0
SEQEND
 8
0
  0
POLYLINE
  8
0
 62
     0
 66
     1
 10
0
 20
0
 30
0.0
 40
0.48
 41
0.48
  0
VERTEX
  8
0
 10
1.39833
 20
0.561686
 30
0.0
 40
0.00666667
 41
0.00666667
  0
VERTEX
  8
0
 10
1.28836
 20
0.561686
 30
0.0
 40
0.00666667
 41
0.00666667
  0
SEQEND
 8
0
  0
POLYLINE
  8
0
 62
     0
 66
     1
 10
0
 20
0
 30
0.0
 40
0.48
 41
0.48
  0
VERTEX
  8
0
 10
1.10666
 20
0.623318
 30
0.0
 40
0.00666667
 41
0.00666667
  0
VERTEX
  8
0
 10
1.10666
 20
0.513346
 30
0.0
 40
0.00666667
 41
0.00666667
  0
SEQEND
 8
0
  0
POLYLINE
  8
0
 62
     0
 66
     1
 10
0
 20
0
 30
0.0
 40
0.48
 41
0.48
  0
VERTEX
  8
0
 10
1.10666
 20
0.401693
 30
0.0
 40
0.00666667
 41
0.00666667
  0
VERTEX
  8
0
 10
1.10666
 20
0.513346
 30
0.0
 40
0.00666667
 41
0.00666667
  0
SEQEND
 8
0
  0
POLYLINE
  8
0
 62
     0
 66
     1
 10
0
 20
0
 30
0.0
 40
0.48
 41
0.48
  0
VERTEX
  8
0
 10
0.99669
 20
0.513346
 30
0.0
 40
0.00666667
 41
0.00666667
  0
VERTEX
  8
0
 10
1.10666
 20
0.513346
 30
0.0
 40
0.00666667
 41
0.00666667
  0
SEQEND
 8
0
  0
POLYLINE
  8
0
 62
     0
 66
     1
 10
0
 20
0
 30
0.0
 40
0.48
 41
0.48
  0
VERTEX
  8
0
 10
1.21669
 20
0.513346
 30
0.0
 40
0.00666667
 41
0.00666667
  0
VERTEX
  8
0
 10
1.10666
 20
0.513346
 30
0.0
 40
0.00666667
 41
0.00666667
  0
SEQEND
 8
0
  0
POLYLINE
  8
0
 62
     0
 66
     1
 10
0
 20
0
 30
0.0
 40
0.48
 41
0.48
  0
VERTEX
  8
0
 10
1.155
 20
0.803331
 30
0.0
 40
0.00666667
 41
0.00666667
  0
VERTEX
  8
0
 10
1.155
 20
0.69336
 30
0.0
 40
0.00666667
 41
0.00666667
  0
SEQEND
 8
0
  0
POLYLINE
  8
0
 62
     0
 66
     1
 10
0
 20
0
 30
0.0
 40
0.48
 41
0.48
  0
VERTEX
  8
0
 10
1.155
 20
0.583333
 30
0.0
 40
0.00666667
 41
0.00666667
  0
VERTEX
  8
0
 10
1.155
 20
0.69336
 30
0.0
 40
0.00666667
 41
0.00666667
  0
SEQEND
 8
0
  0
POLYLINE
  8
0
 62
     0
 66
     1
 10
0
 20
0
 30
0.0
 40
0.48
 41
0.48
  0
VERTEX
  8
0
 10
1.04498
 20
0.69336
 30
0.0
 40
0.00666667
 41
0.00666667
  0
VERTEX
  8
0
 10
1.155
 20
0.69336
 30
0.0
 40
0.00666667
 41
0.00666667
  0
SEQEND
 8
0
  0
POLYLINE
  8
0
 62
     0
 66
     1
 10
0
 20
0
 30
0.0
 40
0.48
 41
0.48
  0
VERTEX
  8
0
 10
1.26497
 20
0.69336
 30
0.0
 40
0.00666667
 41
0.00666667
  0
VERTEX
  8
0
 10
1.155
 20
0.69336
 30
0.0
 40
0.00666667
 41
0.00666667
  0
SEQEND
 8
0
  0
POLYLINE
  8
0
 62
     0
 66
     1
 10
0
 20
0
 30
0.0
 40
0.48
 41
0.48
  0
VERTEX
  8
0
 10
2.96832
 20
0.671658
 30
0.0
 40
0.00666667
 41
0.00666667
  0
VERTEX
  8
0
 10
2.96832
 20
0.561686
 30
0.0
 40
0.00666667
 41
0.00666667
  0
SEQEND
 8
0
  0
POLYLINE
  8
0
 62
     0
 66
     1
 10
0
 20
0
 30
0.0
 40
0.48
 41
0.48
  0
VERTEX
  8
0
 10
2.96832
 20
0.45166
 30
0.0
 40
0.00666667
 41
0.00666667
  0
VERTEX
  8
0
 10
2.96832
 20
0.561686
 30
0.0
 40
0.00666667
 41
0.00666667
  0
SEQEND
 8
0
  0
POLYLINE
  8
0
 62
     0
 66
     1
 10
0
 20
0
 30
0.0
 40
0.48
 41
0.48
  0
VERTEX
  8
0
 10
2.85835
 20
0.561686
 30
0.0
 40
0.00666667
 41
0.00666667
  0
VERTEX
  8
0
 10
2.96832
 20
0.561686
 30
0.0
 40
0.00666667
 41
0.00666667
  0
SEQEND
 8
0
  0
POLYLINE
  8
0
 62
     0
 66
     1
 10
0
 20
0
 30
0.0
 40
0.48
 41
0.48
  0
VERTEX
  8
0
 10
3.07835
 20
0.561686
 30
0.0
 40
0.00666667
 41
0.00666667
  0
VERTEX
  8
0
 10
2.96832
 20
0.561686
 30
0.0
 40
0.00666667
 41
0.00666667
  0
SEQEND
 8
0
  0
POLYLINE
  8
0
 62
     0
 66
     1
 10
0
 20
0
 30
0.0
 40
0.48
 41
0.48
  0
VERTEX
  8
0
 10
3.15001
 20
0.623318
 30
0.0
 40
0.00666667
 41
0.00666667
  0
VERTEX
  8
0
 10
3.15001
 20
0.513346
 30
0.0
 40
0.00666667
 41
0.00666667
  0
SEQEND
 8
0
  0
POLYLINE
  8
0
 62
     0
 66
     1
 10
0
 20
0
 30
0.0
 40
0.48
 41
0.48
  0
VERTEX
  8
0
 10
3.15001
 20
0.401693
 30
0.0
 40
0.00666667
 41
0.00666667
  0
VERTEX
  8
0
 10
3.15001
 20
0.513346
 30
0.0
 40
0.00666667
 41
0.00666667
  0
SEQEND
 8
0
  0
POLYLINE
  8
0
 62
     0
 66
     1
 10
0
 20
0
 30
0.0
 40
0.48
 41
0.48
  0
VERTEX
  8
0
 10
3.03999
 20
0.513346
 30
0.0
 40
0.00666667
 41
0.00666667
  0
VERTEX
  8
0
 10
3.15001
 20
0.513346
 30
0.0
 40
0.00666667
 41
0.00666667
  0
SEQEND
 8
0
  0
POLYLINE
  8
0
 62
     0
 66
     1
 10
0
 20
0
 30
0.0
 40
0.48
 41
0.48
  0
VERTEX
  8
0
 10
3.25999
 20
0.513346
 30
0.0
 40
0.00666667
 41
0.00666667
  0
VERTEX
  8
0
 10
3.15001
 20
0.513346
 30
0.0
 40
0.00666667
 41
0.00666667
  0
SEQEND
 8
0
  0
POLYLINE
  8
0
 62
     0
 66
     1
 10
0
 20
0
 30
0.0
 40
0.48
 41
0.48
  0
VERTEX
  8
0
 10
3.10167
 20
0.803331
 30
0.0
 40
0.00666667
 41
0.00666667
  0
VERTEX
  8
0
 10
3.10167
 20
0.69336
 30
0.0
 40
0.00666667
 41
0.00666667
  0
SEQEND
 8
0
  0
POLYLINE
  8
0
 62
     0
 66
     1
 10
0
 20
0
 30
0.0
 40
0.48
 41
0.48
  0
VERTEX
  8
0
 10
3.10167
 20
0.583333
 30
0.0
 40
0.00666667
 41
0.00666667
  0
VERTEX
  8
0
 10
3.10167
 20
0.69336
 30
0.0
 40
0.00666667
 41
0.00666667
  0
SEQEND
 8
0
  0
POLYLINE
  8
0
 62
     0
 66
     1
 10
0
 20
0
 30
0.0
 40
0.48
 41
0.48
  0
VERTEX
  8
0
 10
2.99001
 20
0.69336
 30
0.0
 40
0.00666667
 41
0.00666667
  0
VERTEX
  8
0
 10
3.10167
 20
0.69336
 30
0.0
 40
0.00666667
 41
0.00666667
  0
SEQEND
 8
0
  0
POLYLINE
  8
0
 62
     0
 66
     1
 10
0
 20
0
 30
0.0
 40
0.48
 41
0.48
  0
VERTEX
  8
0
 10
3.21164
 20
0.69336
 30
0.0
 40
0.00666667
 41
0.00666667
  0
VERTEX
  8
0
 10
3.10167
 20
0.69336
 30
0.0
 40
0.00666667
 41
0.00666667
  0
SEQEND
 8
0
  0
POLYLINE
  8
0
 62
     0
 66
     1
 10
0
 20
0
 30
0.0
 40
0.48
 41
0.48
  0
VERTEX
  8
0
 10
2.98833
 20
2.36664
 30
0.0
 40
0.00666667
 41
0.00666667
  0
VERTEX
  8
0
 10
2.96001
 20
2.39333
 30
0.0
 40
0.00666667
 41
0.00666667
  0
SEQEND
 8
0
  0
POLYLINE
  8
0
 62
     0
 66
     1
 10
0
 20
0
 30
0.0
 40
0.48
 41
0.48
  0
VERTEX
  8
0
 10
2.98833
 20
2.33832
 30
0.0
 40
0.00666667
 41
0.00666667
  0
VERTEX
  8
0
 10
2.99333
 20
2.34831
 30
0.0
 40
0.00666667
 41
0.00666667
  0
SEQEND
 8
0
  0
POLYLINE
  8
0
 62
     0
 66
     1
 10
0
 20
0
 30
0.0
 40
0.48
 41
0.48
  0
VERTEX
  8
0
 10
2.99333
 20
2.34831
 30
0.0
 40
0.00666667
 41
0.00666667
  0
VERTEX
  8
0
 10
2.99164
 20
2.36003
 30
0.0
 40
0.00666667
 41
0.00666667
  0
SEQEND
 8
0
  0
POLYLINE
  8
0
 62
     0
 66
     1
 10
0
 20
0
 30
0.0
 40
0.48
 41
0.48
  0
VERTEX
  8
0
 10
2.99164
 20
2.36003
 30
0.0
 40
0.00666667
 41
0.00666667
  0
VERTEX
  8
0
 10
2.98833
 20
2.36664
 30
0.0
 40
0.00666667
 41
0.00666667
  0
SEQEND
 8
0
  0
POLYLINE
  8
0
 62
     0
 66
     1
 10
0
 20
0
 30
0.0
 40
0.48
 41
0.48
  0
VERTEX
  8
0
 10
2.93164
 20
2.39333
 30
0.0
 40
0.00666667
 41
0.00666667
  0
VERTEX
  8
0
 10
2.94168
 20
2.39833
 30
0.0
 40
0.00666667
 41
0.00666667
  0
SEQEND
 8
0
  0
POLYLINE
  8
0
 62
     0
 66
     1
 10
0
 20
0
 30
0.0
 40
0.48
 41
0.48
  0
VERTEX
  8
0
 10
2.94168
 20
2.39833
 30
0.0
 40
0.00666667
 41
0.00666667
  0
VERTEX
  8
0
 10
2.95335
 20
2.39833
 30
0.0
 40
0.00666667
 41
0.00666667
  0
SEQEND
 8
0
  0
POLYLINE
  8
0
 62
     0
 66
     1
 10
0
 20
0
 30
0.0
 40
0.48
 41
0.48
  0
VERTEX
  8
0
 10
2.95335
 20
2.39833
 30
0.0
 40
0.00666667
 41
0.00666667
  0
VERTEX
  8
0
 10
2.96001
 20
2.39333
 30
0.0
 40
0.00666667
 41
0.00666667
  0
SEQEND
 8
0
  0
POLYLINE
  8
0
 62
     0
 66
     1
 10
0
 20
0
 30
0.0
 40
0.48
 41
0.48
  0
VERTEX
  8
0
 10
2.44
 20
1.875
 30
0.0
 40
0.00666667
 41
0.00666667
  0
VERTEX
  8
0
 10
2.435
 20
1.88499
 30
0.0
 40
0.00666667
 41
0.00666667
  0
SEQEND
 8
0
  0
POLYLINE
  8
0
 62
     0
 66
     1
 10
0
 20
0
 30
0.0
 40
0.48
 41
0.48
  0
VERTEX
  8
0
 10
2.435
 20
1.88499
 30
0.0
 40
0.00666667
 41
0.00666667
  0
VERTEX
  8
0
 10
2.43668
 20
1.89501
 30
0.0
 40
0.00666667
 41
0.00666667
  0
SEQEND
 8
0
  0
POLYLINE
  8
0
 62
     0
 66
     1
 10
0
 20
0
 30
0.0
 40
0.48
 41
0.48
  0
VERTEX
  8
0
 10
2.43668
 20
1.89501
 30
0.0
 40
0.00666667
 41
0.00666667
  0
VERTEX
  8
0
 10
2.44
 20
1.90169
 30
0.0
 40
0.00666667
 41
0.00666667
  0
SEQEND
 8
0
  0
POLYLINE
  8
0
 62
     0
 66
     1
 10
0
 20
0
 30
0.0
 40
0.48
 41
0.48
  0
VERTEX
  8
0
 10
2.46832
 20
1.84668
 30
0.0
 40
0.00666667
 41
0.00666667
  0
VERTEX
  8
0
 10
2.44
 20
1.875
 30
0.0
 40
0.00666667
 41
0.00666667
  0
SEQEND
 8
0
  0
POLYLINE
  8
0
 62
     0
 66
     1
 10
0
 20
0
 30
0.0
 40
0.48
 41
0.48
  0
VERTEX
  8
0
 10
2.46832
 20
1.84668
 30
0.0
 40
0.00666667
 41
0.00666667
  0
VERTEX
  8
0
 10
2.47835
 20
1.84169
 30
0.0
 40
0.00666667
 41
0.00666667
  0
SEQEND
 8
0
  0
POLYLINE
  8
0
 62
     0
 66
     1
 10
0
 20
0
 30
0.0
 40
0.48
 41
0.48
  0
VERTEX
  8
0
 10
2.47835
 20
1.84169
 30
0.0
 40
0.00666667
 41
0.00666667
  0
VERTEX
  8
0
 10
2.49001
 20
1.84169
 30
0.0
 40
0.00666667
 41
0.00666667
  0
SEQEND
 8
0
  0
POLYLINE
  8
0
 62
     0
 66
     1
 10
0
 20
0
 30
0.0
 40
0.48
 41
0.48
  0
VERTEX
  8
0
 10
2.49001
 20
1.84169
 30
0.0
 40
0.00666667
 41
0.00666667
  0
VERTEX
  8
0
 10
2.49669
 20
1.84668
 30
0.0
 40
0.00666667
 41
0.00666667
  0
SEQEND
 8
0
  0
POLYLINE
  8
0
 62
     0
 66
     1
 10
0
 20
0
 30
0.0
 40
0.48
 41
0.48
  0
VERTEX
  8
0
 10
2.98833
 20
2.33832
 30
0.0
 40
0.00666667
 41
0.00666667
  0
VERTEX
  8
0
 10
2.49669
 20
1.84668
 30
0.0
 40
0.00666667
 41
0.00666667
  0
SEQEND
 8
0
  0
POLYLINE
  8
0
 62
     0
 66
     1
 10
0
 20
0
 30
0.0
 40
0.48
 41
0.48
  0
VERTEX
  8
0
 10
2.93164
 20
2.39333
 30
0.0
 40
0.00666667
 41
0.00666667
  0
VERTEX
  8
0
 10
2.44
 20
1.90169
 30
0.0
 40
0.00666667
 41
0.00666667
  0
SEQEND
 8
0
  0
POLYLINE
  8
0
 62
     0
 66
     1
 10
0
 20
0
 30
0.0
 40
0.48
 41
0.48
  0
VERTEX
  8
0
 10
1.26834
 20
0.70166
 30
0.0
 40
0.00666667
 41
0.00666667
  0
VERTEX
  8
0
 10
1.29666
 20
0.675022
 30
0.0
 40
0.00666667
 41
0.00666667
  0
SEQEND
 8
0
  0
POLYLINE
  8
0
 62
     0
 66
     1
 10
0
 20
0
 30
0.0
 40
0.48
 41
0.48
  0
VERTEX
  8
0
 10
1.26834
 20
0.729981
 30
0.0
 40
0.00666667
 41
0.00666667
  0
VERTEX
  8
0
 10
1.26335
 20
0.719997
 30
0.0
 40
0.00666667
 41
0.00666667
  0
SEQEND
 8
0
  0
POLYLINE
  8
0
 62
     0
 66
     1
 10
0
 20
0
 30
0.0
 40
0.48
 41
0.48
  0
VERTEX
  8
0
 10
1.26335
 20
0.719997
 30
0.0
 40
0.00666667
 41
0.00666667
  0
VERTEX
  8
0
 10
1.26497
 20
0.708333
 30
0.0
 40
0.00666667
 41
0.00666667
  0
SEQEND
 8
0
  0
POLYLINE
  8
0
 62
     0
 66
     1
 10
0
 20
0
 30
0.0
 40
0.48
 41
0.48
  0
VERTEX
  8
0
 10
1.26497
 20
0.708333
 30
0.0
 40
0.00666667
 41
0.00666667
  0
VERTEX
  8
0
 10
1.26834
 20
0.70166
 30
0.0
 40
0.00666667
 41
0.00666667
  0
SEQEND
 8
0
  0
POLYLINE
  8
0
 62
     0
 66
     1
 10
0
 20
0
 30
0.0
 40
0.48
 41
0.48
  0
VERTEX
  8
0
 10
1.32498
 20
0.675022
 30
0.0
 40
0.00666667
 41
0.00666667
  0
VERTEX
  8
0
 10
1.315
 20
0.668349
 30
0.0
 40
0.00666667
 41
0.00666667
  0
SEQEND
 8
0
  0
POLYLINE
  8
0
 62
     0
 66
     1
 10
0
 20
0
 30
0.0
 40
0.48
 41
0.48
  0
VERTEX
  8
0
 10
1.315
 20
0.668349
 30
0.0
 40
0.00666667
 41
0.00666667
  0
VERTEX
  8
0
 10
1.30333
 20
0.669976
 30
0.0
 40
0.00666667
 41
0.00666667
  0
SEQEND
 8
0
  0
POLYLINE
  8
0
 62
     0
 66
     1
 10
0
 20
0
 30
0.0
 40
0.48
 41
0.48
  0
VERTEX
  8
0
 10
1.30333
 20
0.669976
 30
0.0
 40
0.00666667
 41
0.00666667
  0
VERTEX
  8
0
 10
1.29666
 20
0.675022
 30
0.0
 40
0.00666667
 41
0.00666667
  0
SEQEND
 8
0
  0
POLYLINE
  8
0
 62
     0
 66
     1
 10
0
 20
0
 30
0.0
 40
0.48
 41
0.48
  0
VERTEX
  8
0
 10
1.815
 20
1.19336
 30
0.0
 40
0.00666667
 41
0.00666667
  0
VERTEX
  8
0
 10
1.82167
 20
1.18332
 30
0.0
 40
0.00666667
 41
0.00666667
  0
SEQEND
 8
0
  0
POLYLINE
  8
0
 62
     0
 66
     1
 10
0
 20
0
 30
0.0
 40
0.48
 41
0.48
  0
VERTEX
  8
0
 10
1.82167
 20
1.18332
 30
0.0
 40
0.00666667
 41
0.00666667
  0
VERTEX
  8
0
 10
1.81999
 20
1.17334
 30
0.0
 40
0.00666667
 41
0.00666667
  0
SEQEND
 8
0
  0
POLYLINE
  8
0
 62
     0
 66
     1
 10
0
 20
0
 30
0.0
 40
0.48
 41
0.48
  0
VERTEX
  8
0
 10
1.81999
 20
1.17334
 30
0.0
 40
0.00666667
 41
0.00666667
  0
VERTEX
  8
0
 10
1.815
 20
1.16667
 30
0.0
 40
0.00666667
 41
0.00666667
  0
SEQEND
 8
0
  0
POLYLINE
  8
0
 62
     0
 66
     1
 10
0
 20
0
 30
0.0
 40
0.48
 41
0.48
  0
VERTEX
  8
0
 10
1.78836
 20
1.22168
 30
0.0
 40
0.00666667
 41
0.00666667
  0
VERTEX
  8
0
 10
1.815
 20
1.19336
 30
0.0
 40
0.00666667
 41
0.00666667
  0
SEQEND
 8
0
  0
POLYLINE
  8
0
 62
     0
 66
     1
 10
0
 20
0
 30
0.0
 40
0.48
 41
0.48
  0
VERTEX
  8
0
 10
1.78836
 20
1.22168
 30
0.0
 40
0.00666667
 41
0.00666667
  0
VERTEX
  8
0
 10
1.77832
 20
1.22667
 30
0.0
 40
0.00666667
 41
0.00666667
  0
SEQEND
 8
0
  0
POLYLINE
  8
0
 62
     0
 66
     1
 10
0
 20
0
 30
0.0
 40
0.48
 41
0.48
  0
VERTEX
  8
0
 10
1.77832
 20
1.22667
 30
0.0
 40
0.00666667
 41
0.00666667
  0
VERTEX
  8
0
 10
1.76665
 20
1.22667
 30
0.0
 40
0.00666667
 41
0.00666667
  0
SEQEND
 8
0
  0
POLYLINE
  8
0
 62
     0
 66
     1
 10
0
 20
0
 30
0.0
 40
0.48
 41
0.48
  0
VERTEX
  8
0
 10
1.76665
 20
1.22667
 30
0.0
 40
0.00666667
 41
0.00666667
  0
VERTEX
  8
0
 10
1.75999
 20
1.22168
 30
0.0
 40
0.00666667
 41
0.00666667
  0
SEQEND
 8
0
  0
POLYLINE
  8
0
 62
     0
 66
     1
 10
0
 20
0
 30
0.0
 40
0.48
 41
0.48
  0
VERTEX
  8
0
 10
1.26834
 20
0.729981
 30
0.0
 40
0.00666667
 41
0.00666667
  0
VERTEX
  8
0
 10
1.75999
 20
1.22168
 30
0.0
 40
0.00666667
 41
0.00666667
  0
SEQEND
 8
0
  0
POLYLINE
  8
0
 62
     0
 66
     1
 10
0
 20
0
 30
0.0
 40
0.48
 41
0.48
  0
VERTEX
  8
0
 10
1.32498
 20
0.675022
 30
0.0
 40
0.00666667
 41
0.00666667
  0
VERTEX
  8
0
 10
1.815
 20
1.16667
 30
0.0
 40
0.00666667
 41
0.00666667
  0
SEQEND
 8
0
  0
POLYLINE
  8
0
 62
     0
 66
     1
 10
0
 20
0
 30
0.0
 40
0.48
 41
0.48
  0
VERTEX
  8
0
 10
2.96001
 20
0.675022
 30
0.0
 40
0.00666667
 41
0.00666667
  0
VERTEX
  8
0
 10
2.98833
 20
0.70166
 30
0.0
 40
0.00666667
 41
0.00666667
  0
SEQEND
 8
0
  0
POLYLINE
  8
0
 62
     0
 66
     1
 10
0
 20
0
 30
0.0
 40
0.48
 41
0.48
  0
VERTEX
  8
0
 10
2.93164
 20
0.675022
 30
0.0
 40
0.00666667
 41
0.00666667
  0
VERTEX
  8
0
 10
2.94168
 20
0.668349
 30
0.0
 40
0.00666667
 41
0.00666667
  0
SEQEND
 8
0
  0
POLYLINE
  8
0
 62
     0
 66
     1
 10
0
 20
0
 30
0.0
 40
0.48
 41
0.48
  0
VERTEX
  8
0
 10
2.94168
 20
0.668349
 30
0.0
 40
0.00666667
 41
0.00666667
  0
VERTEX
  8
0
 10
2.95335
 20
0.669976
 30
0.0
 40
0.00666667
 41
0.00666667
  0
SEQEND
 8
0
  0
POLYLINE
  8
0
 62
     0
 66
     1
 10
0
 20
0
 30
0.0
 40
0.48
 41
0.48
  0
VERTEX
  8
0
 10
2.95335
 20
0.669976
 30
0.0
 40
0.00666667
 41
0.00666667
  0
VERTEX
  8
0
 10
2.96001
 20
0.675022
 30
0.0
 40
0.00666667
 41
0.00666667
  0
SEQEND
 8
0
  0
POLYLINE
  8
0
 62
     0
 66
     1
 10
0
 20
0
 30
0.0
 40
0.48
 41
0.48
  0
VERTEX
  8
0
 10
2.98833
 20
0.729981
 30
0.0
 40
0.00666667
 41
0.00666667
  0
VERTEX
  8
0
 10
2.99333
 20
0.719997
 30
0.0
 40
0.00666667
 41
0.00666667
  0
SEQEND
 8
0
  0
POLYLINE
  8
0
 62
     0
 66
     1
 10
0
 20
0
 30
0.0
 40
0.48
 41
0.48
  0
VERTEX
  8
0
 10
2.99333
 20
0.719997
 30
0.0
 40
0.00666667
 41
0.00666667
  0
VERTEX
  8
0
 10
2.99164
 20
0.708333
 30
0.0
 40
0.00666667
 41
0.00666667
  0
SEQEND
 8
0
  0
POLYLINE
  8
0
 62
     0
 66
     1
 10
0
 20
0
 30
0.0
 40
0.48
 41
0.48
  0
VERTEX
  8
0
 10
2.99164
 20
0.708333
 30
0.0
 40
0.00666667
 41
0.00666667
  0
VERTEX
  8
0
 10
2.98833
 20
0.70166
 30
0.0
 40
0.00666667
 41
0.00666667
  0
SEQEND
 8
0
  0
POLYLINE
  8
0
 62
     0
 66
     1
 10
0
 20
0
 30
0.0
 40
0.48
 41
0.48
  0
VERTEX
  8
0
 10
2.46832
 20
1.22168
 30
0.0
 40
0.00666667
 41
0.00666667
  0
VERTEX
  8
0
 10
2.47835
 20
1.22667
 30
0.0
 40
0.00666667
 41
0.00666667
  0
SEQEND
 8
0
  0
POLYLINE
  8
0
 62
     0
 66
     1
 10
0
 20
0
 30
0.0
 40
0.48
 41
0.48
  0
VERTEX
  8
0
 10
2.47835
 20
1.22667
 30
0.0
 40
0.00666667
 41
0.00666667
  0
VERTEX
  8
0
 10
2.49001
 20
1.22667
 30
0.0
 40
0.00666667
 41
0.00666667
  0
SEQEND
 8
0
  0
POLYLINE
  8
0
 62
     0
 66
     1
 10
0
 20
0
 30
0.0
 40
0.48
 41
0.48
  0
VERTEX
  8
0
 10
2.49001
 20
1.22667
 30
0.0
 40
0.00666667
 41
0.00666667
  0
VERTEX
  8
0
 10
2.49669
 20
1.22168
 30
0.0
 40
0.00666667
 41
0.00666667
  0
SEQEND
 8
0
  0
POLYLINE
  8
0
 62
     0
 66
     1
 10
0
 20
0
 30
0.0
 40
0.48
 41
0.48
  0
VERTEX
  8
0
 10
2.44
 20
1.19336
 30
0.0
 40
0.00666667
 41
0.00666667
  0
VERTEX
  8
0
 10
2.46832
 20
1.22168
 30
0.0
 40
0.00666667
 41
0.00666667
  0
SEQEND
 8
0
  0
POLYLINE
  8
0
 62
     0
 66
     1
 10
0
 20
0
 30
0.0
 40
0.48
 41
0.48
  0
VERTEX
  8
0
 10
2.44
 20
1.19336
 30
0.0
 40
0.00666667
 41
0.00666667
  0
VERTEX
  8
0
 10
2.435
 20
1.18332
 30
0.0
 40
0.00666667
 41
0.00666667
  0
SEQEND
 8
0
  0
POLYLINE
  8
0
 62
     0
 66
     1
 10
0
 20
0
 30
0.0
 40
0.48
 41
0.48
  0
VERTEX
  8
0
 10
2.435
 20
1.18332
 30
0.0
 40
0.00666667
 41
0.00666667
  0
VERTEX
  8
0
 10
2.43668
 20
1.17334
 30
0.0
 40
0.00666667
 41
0.00666667
  0
SEQEND
 8
0
  0
POLYLINE
  8
0
 62
     0
 66
     1
 10
0
 20
0
 30
0.0
 40
0.48
 41
0.48
  0
VERTEX
  8
0
 10
2.43668
 20
1.17334
 30
0.0
 40
0.00666667
 41
0.00666667
  0
VERTEX
  8
0
 10
2.44
 20
1.16667
 30
0.0
 40
0.00666667
 41
0.00666667
  0
SEQEND
 8
0
  0
POLYLINE
  8
0
 62
     0
 66
     1
 10
0
 20
0
 30
0.0
 40
0.48
 41
0.48
  0
VERTEX
  8
0
 10
2.93164
 20
0.675022
 30
0.0
 40
0.00666667
 41
0.00666667
  0
VERTEX
  8
0
 10
2.44
 20
1.16667
 30
0.0
 40
0.00666667
 41
0.00666667
  0
SEQEND
 8
0
  0
POLYLINE
  8
0
 62
     0
 66
     1
 10
0
 20
0
 30
0.0
 40
0.48
 41
0.48
  0
VERTEX
  8
0
 10
2.98833
 20
0.729981
 30
0.0
 40
0.00666667
 41
0.00666667
  0
VERTEX
  8
0
 10
2.49669
 20
1.22168
 30
0.0
 40
0.00666667
 41
0.00666667
  0
SEQEND
 8
0
  0
POLYLINE
  8
0
 62
     0
 66
     1
 10
0
 20
0
 30
0.0
 40
0.48
 41
0.48
  0
VERTEX
  8
0
 10
1.26834
 20
2.36664
 30
0.0
 40
0.00666667
 41
0.00666667
  0
VERTEX
  8
0
 10
1.29666
 20
2.39333
 30
0.0
 40
0.00666667
 41
0.00666667
  0
SEQEND
 8
0
  0
POLYLINE
  8
0
 62
     0
 66
     1
 10
0
 20
0
 30
0.0
 40
0.48
 41
0.48
  0
VERTEX
  8
0
 10
1.26834
 20
2.33832
 30
0.0
 40
0.00666667
 41
0.00666667
  0
VERTEX
  8
0
 10
1.26335
 20
2.34831
 30
0.0
 40
0.00666667
 41
0.00666667
  0
SEQEND
 8
0
  0
POLYLINE
  8
0
 62
     0
 66
     1
 10
0
 20
0
 30
0.0
 40
0.48
 41
0.48
  0
VERTEX
  8
0
 10
1.26335
 20
2.34831
 30
0.0
 40
0.00666667
 41
0.00666667
  0
VERTEX
  8
0
 10
1.26497
 20
2.36003
 30
0.0
 40
0.00666667
 41
0.00666667
  0
SEQEND
 8
0
  0
POLYLINE
  8
0
 62
     0
 66
     1
 10
0
 20
0
 30
0.0
 40
0.48
 41
0.48
  0
VERTEX
  8
0
 10
1.26497
 20
2.36003
 30
0.0
 40
0.00666667
 41
0.00666667
  0
VERTEX
  8
0
 10
1.26834
 20
2.36664
 30
0.0
 40
0.00666667
 41
0.00666667
  0
SEQEND
 8
0
  0
POLYLINE
  8
0
 62
     0
 66
     1
 10
0
 20
0
 30
0.0
 40
0.48
 41
0.48
  0
VERTEX
  8
0
 10
1.32498
 20
2.39333
 30
0.0
 40
0.00666667
 41
0.00666667
  0
VERTEX
  8
0
 10
1.315
 20
2.39833
 30
0.0
 40
0.00666667
 41
0.00666667
  0
SEQEND
 8
0
  0
POLYLINE
  8
0
 62
     0
 66
     1
 10
0
 20
0
 30
0.0
 40
0.48
 41
0.48
  0
VERTEX
  8
0
 10
1.315
 20
2.39833
 30
0.0
 40
0.00666667
 41
0.00666667
  0
VERTEX
  8
0
 10
1.30333
 20
2.39833
 30
0.0
 40
0.00666667
 41
0.00666667
  0
SEQEND
 8
0
  0
POLYLINE
  8
0
 62
     0
 66
     1
 10
0
 20
0
 30
0.0
 40
0.48
 41
0.48
  0
VERTEX
  8
0
 10
1.30333
 20
2.39833
 30
0.0
 40
0.00666667
 41
0.00666667
  0
VERTEX
  8
0
 10
1.29666
 20
2.39333
 30
0.0
 40
0.00666667
 41
0.00666667
  0
SEQEND
 8
0
  0
POLYLINE
  8
0
 62
     0
 66
     1
 10
0
 20
0
 30
0.0
 40
0.48
 41
0.48
  0
VERTEX
  8
0
 10
1.815
 20
1.875
 30
0.0
 40
0.00666667
 41
0.00666667
  0
VERTEX
  8
0
 10
1.82167
 20
1.88499
 30
0.0
 40
0.00666667
 41
0.00666667
  0
SEQEND
 8
0
  0
POLYLINE
  8
0
 62
     0
 66
     1
 10
0
 20
0
 30
0.0
 40
0.48
 41
0.48
  0
VERTEX
  8
0
 10
1.82167
 20
1.88499
 30
0.0
 40
0.00666667
 41
0.00666667
  0
VERTEX
  8
0
 10
1.81999
 20
1.89501
 30
0.0
 40
0.00666667
 41
0.00666667
  0
SEQEND
 8
0
  0
POLYLINE
  8
0
 62
     0
 66
     1
 10
0
 20
0
 30
0.0
 40
0.48
 41
0.48
  0
VERTEX
  8
0
 10
1.81999
 20
1.89501
 30
0.0
 40
0.00666667
 41
0.00666667
  0
VERTEX
  8
0
 10
1.815
 20
1.90169
 30
0.0
 40
0.00666667
 41
0.00666667
  0
SEQEND
 8
0
  0
POLYLINE
  8
0
 62
     0
 66
     1
 10
0
 20
0
 30
0.0
 40
0.48
 41
0.48
  0
VERTEX
  8
0
 10
1.78836
 20
1.84668
 30
0.0
 40
0.00666667
 41
0.00666667
  0
VERTEX
  8
0
 10
1.815
 20
1.875
 30
0.0
 40
0.00666667
 41
0.00666667
  0
SEQEND
 8
0
  0
POLYLINE
  8
0
 62
     0
 66
     1
 10
0
 20
0
 30
0.0
 40
0.48
 41
0.48
  0
VERTEX
  8
0
 10
1.78836
 20
1.84668
 30
0.0
 40
0.00666667
 41
0.00666667
  0
VERTEX
  8
0
 10
1.77832
 20
1.84169
 30
0.0
 40
0.00666667
 41
0.00666667
  0
SEQEND
 8
0
  0
POLYLINE
  8
0
 62
     0
 66
     1
 10
0
 20
0
 30
0.0
 40
0.48
 41
0.48
  0
VERTEX
  8
0
 10
1.77832
 20
1.84169
 30
0.0
 40
0.00666667
 41
0.00666667
  0
VERTEX
  8
0
 10
1.76665
 20
1.84169
 30
0.0
 40
0.00666667
 41
0.00666667
  0
SEQEND
 8
0
  0
POLYLINE
  8
0
 62
     0
 66
     1
 10
0
 20
0
 30
0.0
 40
0.48
 41
0.48
  0
VERTEX
  8
0
 10
1.76665
 20
1.84169
 30
0.0
 40
0.00666667
 41
0.00666667
  0
VERTEX
  8
0
 10
1.75999
 20
1.84668
 30
0.0
 40
0.00666667
 41
0.00666667
  0
SEQEND
 8
0
  0
POLYLINE
  8
0
 62
     0
 66
     1
 10
0
 20
0
 30
0.0
 40
0.48
 41
0.48
  0
VERTEX
  8
0
 10
1.26834
 20
2.33832
 30
0.0
 40
0.00666667
 41
0.00666667
  0
VERTEX
  8
0
 10
1.75999
 20
1.84668
 30
0.0
 40
0.00666667
 41
0.00666667
  0
SEQEND
 8
0
  0
POLYLINE
  8
0
 62
     0
 66
     1
 10
0
 20
0
 30
0.0
 40
0.48
 41
0.48
  0
VERTEX
  8
0
 10
1.32498
 20
2.39333
 30
0.0
 40
0.00666667
 41
0.00666667
  0
VERTEX
  8
0
 10
1.815
 20
1.90169
 30
0.0
 40
0.00666667
 41
0.00666667
  0
SEQEND
 8
0
  0
ENDSEC
  0
EOF
