  0
SECTION
  2
HEADER
  9
$ACADVER
  1
AC1014
  9
$HANDSEED
  5
FFFF
  9
$MEASUREMENT
 70
     1
  0
ENDSEC
  0
SECTION
  2
TABLES
  0
TABLE
  2
VPORT
  5
8
330
0
100
AcDbSymbolTable
 70
     4
  0
VPORT
  5
2E
330
8
100
AcDbSymbolTableRecord
100
AcDbViewportTableRecord
  2
*ACTIVE
 70
     0
 10
0.0
 20
0.0
 11
1.0
 21
1.0
 12
210.0
 22
148.5
 13
0.0
 23
0.0
 14
10.0
 24
10.0
 15
10.0
 25
10.0
 16
0.0
 26
0.0
 36
1.0
 17
0.0
 27
0.0
 37
0.0
 40
341.0
 41
1.24
 42
50.0
 43
0.0
 44
0.0
 50
0.0
 51
0.0
 71
     0
 72
   100
 73
     1
 74
     3
 75
     0
 76
     0
 77
     0
 78
     0
  0
ENDTAB
  0
TABLE
  2
LTYPE
  5
5
330
0
100
AcDbSymbolTable
 70
     1
  0
LTYPE
  5
14
330
5
100
AcDbSymbolTableRecord
100
AcDbLinetypeTableRecord
  2
BYBLOCK
 70
     0
  3

 72
    65
 73
     0
 40
0.0
  0
LTYPE
  5
15
330
5
100
AcDbSymbolTableRecord
100
AcDbLinetypeTableRecord
  2
BYLAYER
 70
     0
  3

 72
    65
 73
     0
 40
0.0
  0
LTYPE
  5
16
330
5
100
AcDbSymbolTableRecord
100
AcDbLinetypeTableRecord
  2
CONTINUOUS
 70
     0
  3
Solid line
 72
    65
 73
     0
 40
0.0
  0
ENDTAB
  0
TABLE
  2
LAYER
  5
2
100
AcDbSymbolTable
 70
2
  0
LAYER
  5
50
100
AcDbSymbolTableRecord
100
AcDbLayerTableRecord
  2
0
 70
0
  6
CONTINUOUS
  0
LAYER
  5
51
100
AcDbSymbolTableRecord
100
AcDbLayerTableRecord
  2
Layer_1
 70
0
  6
CONTINUOUS
  0
ENDTAB
  0
TABLE
  2
STYLE
  5
3
330
0
100
AcDbSymbolTable
 70
     1
  0
STYLE
  5
11
330
3
100
AcDbSymbolTableRecord
100
AcDbTextStyleTableRecord
  2
STANDARD
 70
     0
 40
0.0
 41
1.0
 50
0.0
 71
     0
 42
2.5
  3
txt
  4

  0
ENDTAB
  0
TABLE
  2
VIEW
  5
6
330
0
100
AcDbSymbolTable
 70
     0
  0
ENDTAB
  0
TABLE
  2
UCS
  5
7
330
0
100
AcDbSymbolTable
 70
     0
  0
ENDTAB
  0
TABLE
  2
APPID
  5
9
330
0
100
AcDbSymbolTable
 70
     2
  0
APPID
  5
12
330
9
100
AcDbSymbolTableRecord
100
AcDbRegAppTableRecord
  2
ACAD
 70
     0
  0
ENDTAB
  0
TABLE
  2
DIMSTYLE
  5
A
330
0
100
AcDbSymbolTable
 70
     1
  0
DIMSTYLE
105
27
330
A
100
AcDbSymbolTableRecord
100
AcDbDimStyleTableRecord
  2
ISO-25
 70
     0
  3

  4

  5

  6

  7

 40
1.0
 41
2.5
 42
0.625
 43
3.75
 44
1.25
 45
0.0
 46
0.0
 47
0.0
 48
0.0
140
2.5
141
2.5
142
0.0
143
0.03937007874016
144
1.0
145
0.0
146
1.0
147
0.625
 71
     0
 72
     0
 73
     0
 74
     0
 75
     0
 76
     0
 77
     1
 78
     8
170
     0
171
     3
172
     1
173
     0
174
     0
175
     0
176
     0
177
     0
178
     0
270
     2
271
     2
272
     2
273
     2
274
     3
340
11
275
     0
280
     0
281
     0
282
     0
283
     0
284
     8
285
     0
286
     0
287
     3
288
     0
  0
ENDTAB
  0
TABLE
  2
BLOCK_RECORD
  5
1
330
0
100
AcDbSymbolTable
 70
     1
  0
BLOCK_RECORD
  5
1F
330
1
100
AcDbSymbolTableRecord
100
AcDbBlockTableRecord
  2
*MODEL_SPACE
  0
BLOCK_RECORD
  5
1B
330
1
100
AcDbSymbolTableRecord
100
AcDbBlockTableRecord
  2
*PAPER_SPACE
  0
ENDTAB
  0
ENDSEC
  0
SECTION
  2
BLOCKS
  0
BLOCK
  5
20
330
1F
100
AcDbEntity
  8
0
100
AcDbBlockBegin
  2
*MODEL_SPACE
 70
     0
 10
0.0
 20
0.0
 30
0.0
  3
*MODEL_SPACE
  1

  0
ENDBLK
  5
21
330
1F
100
AcDbEntity
  8
0
100
AcDbBlockEnd
  0
BLOCK
  5
1C
330
1B
100
AcDbEntity
 67
     1
  8
0
100
AcDbBlockBegin
  2
*PAPER_SPACE
  1

  0
ENDBLK
  5
1D
330
1B
100
AcDbEntity
 67
     1
  8
0
100
AcDbBlockEnd
  0
ENDSEC
  0
SECTION
  2
ENTITIES
  0
LWPOLYLINE
  5
100
100
AcDbEntity
  8
Layer_1
 62
7
100
AcDbPolyline
 90
4
 70
1
 10
3.757894
 20
0.022720
 30
0.0
 10
20.155711
 20
0.022720
 30
0.0
 10
20.155711
 20
16.431736
 30
0.0
 10
3.757894
 20
16.431736
 30
0.0
  0
LWPOLYLINE
  5
101
100
AcDbEntity
  8
Layer_1
 62
7
100
AcDbPolyline
 90
2
 70
0
 10
3.757894
 20
16.431736
 30
0.0
 10
1.596160
 20
16.431736
 30
0.0
  0
LWPOLYLINE
  5
102
100
AcDbEntity
  8
Layer_1
 62
7
100
AcDbPolyline
 90
4
 70
1
 10
2.122593
 20
16.431736
 30
0.0
 10
2.290603
 20
15.110054
 30
0.0
 10
2.122593
 20
15.233262
 30
0.0
 10
1.943382
 20
15.110054
 30
0.0
  0
LWPOLYLINE
  5
103
100
AcDbEntity
  8
Layer_1
 62
7
100
AcDbPolyline
 90
4
 70
1
 10
2.122593
 20
0.022720
 30
0.0
 10
1.943382
 20
1.344402
 30
0.0
 10
2.122593
 20
1.209994
 30
0.0
 10
2.290603
 20
1.344402
 30
0.0
  0
LWPOLYLINE
  5
104
100
AcDbEntity
  8
Layer_1
 62
7
100
AcDbPolyline
 90
2
 70
0
 10
2.122593
 20
16.431736
 30
0.0
 10
2.122593
 20
0.022720
 30
0.0
  0
LWPOLYLINE
  5
105
100
AcDbEntity
  8
Layer_1
 62
7
100
AcDbPolyline
 90
2
 70
0
 10
3.757894
 20
0.022720
 30
0.0
 10
1.596160
 20
0.022720
 30
0.0
  0
LWPOLYLINE
  5
106
100
AcDbEntity
  8
Layer_1
 62
7
100
AcDbPolyline
 90
2
 70
0
 10
3.757894
 20
16.431736
 30
0.0
 10
3.757894
 20
19.019098
 30
0.0
  0
LWPOLYLINE
  5
107
100
AcDbEntity
  8
Layer_1
 62
7
100
AcDbPolyline
 90
4
 70
1
 10
3.757894
 20
18.492664
 30
0.0
 10
5.079576
 20
18.660676
 30
0.0
 10
4.945168
 20
18.492664
 30
0.0
 10
5.079576
 20
18.313453
 30
0.0
  0
LWPOLYLINE
  5
108
100
AcDbEntity
  8
Layer_1
 62
7
100
AcDbPolyline
 90
4
 70
1
 10
20.155711
 20
18.492664
 30
0.0
 10
18.834029
 20
18.313453
 30
0.0
 10
18.968438
 20
18.492664
 30
0.0
 10
18.834029
 20
18.660676
 30
0.0
  0
LWPOLYLINE
  5
109
100
AcDbEntity
  8
Layer_1
 62
7
100
AcDbPolyline
 90
2
 70
0
 10
3.757894
 20
18.492664
 30
0.0
 10
20.155711
 20
18.492664
 30
0.0
  0
LWPOLYLINE
  5
10a
100
AcDbEntity
  8
Layer_1
 62
7
100
AcDbPolyline
 90
2
 70
0
 10
20.155711
 20
16.431736
 30
0.0
 10
20.155711
 20
19.019098
 30
0.0
  0
LWPOLYLINE
  5
10b
100
AcDbEntity
  8
Layer_1
 62
7
100
AcDbPolyline
 90
2
 70
0
 10
7.006096
 20
14.292403
 30
0.0
 10
10.601519
 20
10.708181
 30
0.0
  0
LWPOLYLINE
  5
10c
100
AcDbEntity
  8
Layer_1
 62
7
100
AcDbPolyline
 90
2
 70
0
 10
9.470249
 20
9.588111
 30
0.0
 10
5.886026
 20
13.172334
 30
0.0
  0
LWPOLYLINE
  5
10d
100
AcDbEntity
  8
Layer_1
 62
7
100
AcDbPolyline
 90
2
 70
0
 10
14.432155
 20
9.588111
 30
0.0
 10
18.027580
 20
13.172334
 30
0.0
  0
LWPOLYLINE
  5
10e
100
AcDbEntity
  8
Layer_1
 62
7
100
AcDbPolyline
 90
2
 70
0
 10
16.907510
 20
14.292403
 30
0.0
 10
13.312086
 20
10.708181
 30
0.0
  0
LWPOLYLINE
  5
10f
100
AcDbEntity
  8
Layer_1
 62
7
100
AcDbPolyline
 90
2
 70
0
 10
9.470249
 20
6.866347
 30
0.0
 10
5.886026
 20
3.282124
 30
0.0
  0
LWPOLYLINE
  5
110
100
AcDbEntity
  8
Layer_1
 62
7
100
AcDbPolyline
 90
2
 70
0
 10
7.006096
 20
2.162054
 30
0.0
 10
10.601519
 20
5.746277
 30
0.0
  0
LWPOLYLINE
  5
111
100
AcDbEntity
  8
Layer_1
 62
7
100
AcDbPolyline
 90
2
 70
0
 10
14.432155
 20
6.866347
 30
0.0
 10
18.027580
 20
3.282124
 30
0.0
  0
LWPOLYLINE
  5
112
100
AcDbEntity
  8
Layer_1
 62
7
100
AcDbPolyline
 90
2
 70
0
 10
16.907510
 20
2.162054
 30
0.0
 10
13.312086
 20
5.746277
 30
0.0
  0
LWPOLYLINE
  5
113
100
AcDbEntity
  8
Layer_1
 62
7
100
AcDbPolyline
 90
2
 70
0
 10
9.705463
 20
9.028076
 30
0.0
 10
9.705463
 20
7.426381
 30
0.0
  0
LWPOLYLINE
  5
114
100
AcDbEntity
  8
Layer_1
 62
7
100
AcDbPolyline
 90
2
 70
0
 10
14.208142
 20
9.028076
 30
0.0
 10
14.208142
 20
7.426381
 30
0.0
  0
LWPOLYLINE
  5
115
100
AcDbEntity
  8
Layer_1
 62
7
100
AcDbPolyline
 90
16
 70
1
 10
5.874826
 20
14.572421
 30
0.0
 10
5.852424
 20
14.684431
 30
0.0
 10
5.785220
 20
14.774034
 30
0.0
 10
5.695615
 20
14.830037
 30
0.0
 10
5.583608
 20
14.841240
 30
0.0
 10
5.482801
 20
14.807639
 30
0.0
 10
5.393196
 20
14.740433
 30
0.0
 10
5.348393
 20
14.639626
 30
0.0
 10
5.348393
 20
14.538820
 30
0.0
 10
5.381995
 20
14.438014
 30
0.0
 10
5.460400
 20
14.359609
 30
0.0
 10
5.561206
 20
14.314806
 30
0.0
 10
5.662012
 20
14.314806
 30
0.0
 10
5.762819
 20
14.370808
 30
0.0
 10
5.841224
 20
14.449212
 30
0.0
 10
5.863625
 20
14.550019
 30
0.0
  0
LWPOLYLINE
  5
116
100
AcDbEntity
  8
Layer_1
 62
7
100
AcDbPolyline
 90
16
 70
1
 10
18.565212
 20
14.572421
 30
0.0
 10
18.542810
 20
14.684431
 30
0.0
 10
18.486808
 20
14.774034
 30
0.0
 10
18.397203
 20
14.830037
 30
0.0
 10
18.285195
 20
14.841240
 30
0.0
 10
18.184389
 20
14.807639
 30
0.0
 10
18.094783
 20
14.740433
 30
0.0
 10
18.049980
 20
14.639626
 30
0.0
 10
18.038780
 20
14.538820
 30
0.0
 10
18.083582
 20
14.438014
 30
0.0
 10
18.161987
 20
14.359609
 30
0.0
 10
18.262793
 20
14.314806
 30
0.0
 10
18.363600
 20
14.314806
 30
0.0
 10
18.464406
 20
14.370808
 30
0.0
 10
18.531610
 20
14.449212
 30
0.0
 10
18.565212
 20
14.550019
 30
0.0
  0
LWPOLYLINE
  5
117
100
AcDbEntity
  8
Layer_1
 62
7
100
AcDbPolyline
 90
16
 70
1
 10
18.565212
 20
1.882037
 30
0.0
 10
18.542810
 20
1.982843
 30
0.0
 10
18.486808
 20
2.072447
 30
0.0
 10
18.397203
 20
2.128449
 30
0.0
 10
18.285195
 20
2.139652
 30
0.0
 10
18.184389
 20
2.106052
 30
0.0
 10
18.094783
 20
2.038845
 30
0.0
 10
18.049980
 20
1.938039
 30
0.0
 10
18.038780
 20
1.837233
 30
0.0
 10
18.083582
 20
1.736427
 30
0.0
 10
18.161987
 20
1.658022
 30
0.0
 10
18.262793
 20
1.613219
 30
0.0
 10
18.363600
 20
1.624420
 30
0.0
 10
18.464406
 20
1.669222
 30
0.0
 10
18.531610
 20
1.747627
 30
0.0
 10
18.565212
 20
1.848431
 30
0.0
  0
LWPOLYLINE
  5
118
100
AcDbEntity
  8
Layer_1
 62
7
100
AcDbPolyline
 90
16
 70
1
 10
5.874826
 20
1.882037
 30
0.0
 10
5.852424
 20
1.982843
 30
0.0
 10
5.785220
 20
2.072447
 30
0.0
 10
5.695615
 20
2.128449
 30
0.0
 10
5.583608
 20
2.139652
 30
0.0
 10
5.482801
 20
2.106052
 30
0.0
 10
5.393196
 20
2.038845
 30
0.0
 10
5.348393
 20
1.938039
 30
0.0
 10
5.348393
 20
1.837233
 30
0.0
 10
5.381995
 20
1.736427
 30
0.0
 10
5.460400
 20
1.658022
 30
0.0
 10
5.561206
 20
1.613219
 30
0.0
 10
5.662012
 20
1.624420
 30
0.0
 10
5.762819
 20
1.669222
 30
0.0
 10
5.841224
 20
1.747627
 30
0.0
 10
5.863625
 20
1.848431
 30
0.0
  0
LWPOLYLINE
  5
119
100
AcDbEntity
  8
Layer_1
 62
7
100
AcDbPolyline
 90
2
 70
0
 10
11.161554
 20
10.472967
 30
0.0
 10
11.295962
 20
10.472967
 30
0.0
  0
LWPOLYLINE
  5
11a
100
AcDbEntity
  8
Layer_1
 62
7
100
AcDbPolyline
 90
2
 70
0
 10
11.295962
 20
10.999401
 30
0.0
 10
11.956803
 20
10.999401
 30
0.0
  0
LWPOLYLINE
  5
11b
100
AcDbEntity
  8
Layer_1
 62
7
100
AcDbPolyline
 90
4
 70
0
 10
11.295962
 20
10.472967
 30
0.0
 10
11.363166
 20
10.495369
 30
0.0
 10
11.419169
 20
10.551372
 30
0.0
 10
11.430370
 20
10.607379
 30
0.0
  0
LWPOLYLINE
  5
11c
100
AcDbEntity
  8
Layer_1
 62
7
100
AcDbPolyline
 90
4
 70
0
 10
11.295962
 20
10.741785
 30
0.0
 10
11.363166
 20
10.719383
 30
0.0
 10
11.419169
 20
10.663381
 30
0.0
 10
11.430370
 20
10.607379
 30
0.0
  0
LWPOLYLINE
  5
11d
100
AcDbEntity
  8
Layer_1
 62
7
100
AcDbPolyline
 90
4
 70
0
 10
11.161554
 20
10.876193
 30
0.0
 10
11.183955
 20
10.797788
 30
0.0
 10
11.239958
 20
10.752985
 30
0.0
 10
11.295962
 20
10.741785
 30
0.0
  0
LWPOLYLINE
  5
11e
100
AcDbEntity
  8
Layer_1
 62
7
100
AcDbPolyline
 90
4
 70
0
 10
11.295962
 20
10.999401
 30
0.0
 10
11.217556
 20
10.988198
 30
0.0
 10
11.172753
 20
10.920997
 30
0.0
 10
11.161554
 20
10.876193
 30
0.0
  0
LWPOLYLINE
  5
11f
100
AcDbEntity
  8
Layer_1
 62
7
100
AcDbPolyline
 90
2
 70
0
 10
12.752051
 20
10.472967
 30
0.0
 10
12.617643
 20
10.472967
 30
0.0
  0
LWPOLYLINE
  5
120
100
AcDbEntity
  8
Layer_1
 62
7
100
AcDbPolyline
 90
2
 70
0
 10
12.617643
 20
10.999401
 30
0.0
 10
11.956803
 20
10.999401
 30
0.0
  0
LWPOLYLINE
  5
121
100
AcDbEntity
  8
Layer_1
 62
7
100
AcDbPolyline
 90
4
 70
0
 10
12.617643
 20
10.472967
 30
0.0
 10
12.539239
 20
10.495369
 30
0.0
 10
12.494436
 20
10.551372
 30
0.0
 10
12.483235
 20
10.607379
 30
0.0
  0
LWPOLYLINE
  5
122
100
AcDbEntity
  8
Layer_1
 62
7
100
AcDbPolyline
 90
4
 70
0
 10
12.617643
 20
10.741785
 30
0.0
 10
12.539239
 20
10.719383
 30
0.0
 10
12.494436
 20
10.663381
 30
0.0
 10
12.483235
 20
10.607379
 30
0.0
  0
LWPOLYLINE
  5
123
100
AcDbEntity
  8
Layer_1
 62
7
100
AcDbPolyline
 90
4
 70
0
 10
12.752051
 20
10.876193
 30
0.0
 10
12.729651
 20
10.797788
 30
0.0
 10
12.673647
 20
10.752985
 30
0.0
 10
12.617643
 20
10.741785
 30
0.0
  0
LWPOLYLINE
  5
124
100
AcDbEntity
  8
Layer_1
 62
7
100
AcDbPolyline
 90
4
 70
0
 10
12.617643
 20
10.999401
 30
0.0
 10
12.684848
 20
10.988198
 30
0.0
 10
12.740851
 20
10.920997
 30
0.0
 10
12.752051
 20
10.876193
 30
0.0
  0
LWPOLYLINE
  5
125
100
AcDbEntity
  8
Layer_1
 62
7
100
AcDbPolyline
 90
2
 70
0
 10
11.161554
 20
5.981490
 30
0.0
 10
11.295962
 20
5.981490
 30
0.0
  0
LWPOLYLINE
  5
126
100
AcDbEntity
  8
Layer_1
 62
7
100
AcDbPolyline
 90
2
 70
0
 10
11.295962
 20
5.443858
 30
0.0
 10
11.956803
 20
5.443858
 30
0.0
  0
LWPOLYLINE
  5
127
100
AcDbEntity
  8
Layer_1
 62
7
100
AcDbPolyline
 90
4
 70
0
 10
11.295962
 20
5.981490
 30
0.0
 10
11.363166
 20
5.959088
 30
0.0
 10
11.419169
 20
5.891883
 30
0.0
 10
11.430370
 20
5.847083
 30
0.0
  0
LWPOLYLINE
  5
128
100
AcDbEntity
  8
Layer_1
 62
7
100
AcDbPolyline
 90
4
 70
0
 10
11.295962
 20
5.712672
 30
0.0
 10
11.363166
 20
5.735074
 30
0.0
 10
11.419169
 20
5.791076
 30
0.0
 10
11.430370
 20
5.847083
 30
0.0
  0
LWPOLYLINE
  5
129
100
AcDbEntity
  8
Layer_1
 62
7
100
AcDbPolyline
 90
4
 70
0
 10
11.161554
 20
5.578265
 30
0.0
 10
11.183955
 20
5.656670
 30
0.0
 10
11.239958
 20
5.701473
 30
0.0
 10
11.295962
 20
5.712672
 30
0.0
  0
LWPOLYLINE
  5
12a
100
AcDbEntity
  8
Layer_1
 62
7
100
AcDbPolyline
 90
4
 70
0
 10
11.295962
 20
5.443858
 30
0.0
 10
11.217556
 20
5.466260
 30
0.0
 10
11.172753
 20
5.533461
 30
0.0
 10
11.161554
 20
5.578265
 30
0.0
  0
LWPOLYLINE
  5
12b
100
AcDbEntity
  8
Layer_1
 62
7
100
AcDbPolyline
 90
2
 70
0
 10
12.752051
 20
5.981490
 30
0.0
 10
12.617643
 20
5.981490
 30
0.0
  0
LWPOLYLINE
  5
12c
100
AcDbEntity
  8
Layer_1
 62
7
100
AcDbPolyline
 90
2
 70
0
 10
12.617643
 20
5.443858
 30
0.0
 10
11.956803
 20
5.443858
 30
0.0
  0
LWPOLYLINE
  5
12d
100
AcDbEntity
  8
Layer_1
 62
7
100
AcDbPolyline
 90
4
 70
0
 10
12.617643
 20
5.981490
 30
0.0
 10
12.539239
 20
5.959088
 30
0.0
 10
12.494436
 20
5.891883
 30
0.0
 10
12.483235
 20
5.847083
 30
0.0
  0
LWPOLYLINE
  5
12e
100
AcDbEntity
  8
Layer_1
 62
7
100
AcDbPolyline
 90
4
 70
0
 10
12.617643
 20
5.712672
 30
0.0
 10
12.539239
 20
5.735074
 30
0.0
 10
12.494436
 20
5.791076
 30
0.0
 10
12.483235
 20
5.847083
 30
0.0
  0
LWPOLYLINE
  5
12f
100
AcDbEntity
  8
Layer_1
 62
7
100
AcDbPolyline
 90
4
 70
0
 10
12.752051
 20
5.578265
 30
0.0
 10
12.729651
 20
5.656670
 30
0.0
 10
12.673647
 20
5.701473
 30
0.0
 10
12.617643
 20
5.712672
 30
0.0
  0
LWPOLYLINE
  5
130
100
AcDbEntity
  8
Layer_1
 62
7
100
AcDbPolyline
 90
4
 70
0
 10
12.617643
 20
5.443858
 30
0.0
 10
12.684848
 20
5.466260
 30
0.0
 10
12.740851
 20
5.533461
 30
0.0
 10
12.752051
 20
5.578265
 30
0.0
  0
LWPOLYLINE
  5
131
100
AcDbEntity
  8
Layer_1
 62
7
100
AcDbPolyline
 90
5
 70
0
 10
10.601519
 20
10.708181
 30
0.0
 10
10.747127
 20
10.596176
 30
0.0
 10
10.915138
 20
10.517771
 30
0.0
 10
11.105550
 20
10.472967
 30
0.0
 10
11.161554
 20
10.472967
 30
0.0
  0
LWPOLYLINE
  5
132
100
AcDbEntity
  8
Layer_1
 62
7
100
AcDbPolyline
 90
5
 70
0
 10
12.752051
 20
10.472967
 30
0.0
 10
12.942463
 20
10.495369
 30
0.0
 10
13.121676
 20
10.562575
 30
0.0
 10
13.267283
 20
10.663381
 30
0.0
 10
13.312086
 20
10.708181
 30
0.0
  0
LWPOLYLINE
  5
133
100
AcDbEntity
  8
Layer_1
 62
7
100
AcDbPolyline
 90
5
 70
0
 10
14.208142
 20
9.028076
 30
0.0
 10
14.230544
 20
9.207292
 30
0.0
 10
14.297747
 20
9.386503
 30
0.0
 10
14.398554
 20
9.543312
 30
0.0
 10
14.432155
 20
9.588111
 30
0.0
  0
LWPOLYLINE
  5
134
100
AcDbEntity
  8
Layer_1
 62
7
100
AcDbPolyline
 90
5
 70
0
 10
14.432155
 20
6.866347
 30
0.0
 10
14.320149
 20
7.011952
 30
0.0
 10
14.241745
 20
7.191163
 30
0.0
 10
14.208142
 20
7.370374
 30
0.0
 10
14.208142
 20
7.426381
 30
0.0
  0
LWPOLYLINE
  5
135
100
AcDbEntity
  8
Layer_1
 62
7
100
AcDbPolyline
 90
5
 70
0
 10
13.312086
 20
5.746277
 30
0.0
 10
13.166478
 20
5.858282
 30
0.0
 10
12.998467
 20
5.936687
 30
0.0
 10
12.808055
 20
5.970288
 30
0.0
 10
12.752051
 20
5.981490
 30
0.0
  0
LWPOLYLINE
  5
136
100
AcDbEntity
  8
Layer_1
 62
7
100
AcDbPolyline
 90
5
 70
0
 10
11.161554
 20
5.981490
 30
0.0
 10
10.971142
 20
5.959088
 30
0.0
 10
10.791930
 20
5.891883
 30
0.0
 10
10.635121
 20
5.779878
 30
0.0
 10
10.601519
 20
5.746277
 30
0.0
  0
LWPOLYLINE
  5
137
100
AcDbEntity
  8
Layer_1
 62
7
100
AcDbPolyline
 90
5
 70
0
 10
9.470249
 20
6.866347
 30
0.0
 10
9.593456
 20
7.011952
 30
0.0
 10
9.671860
 20
7.191163
 30
0.0
 10
9.705463
 20
7.370374
 30
0.0
 10
9.705463
 20
7.426381
 30
0.0
  0
LWPOLYLINE
  5
138
100
AcDbEntity
  8
Layer_1
 62
7
100
AcDbPolyline
 90
5
 70
0
 10
9.705463
 20
9.028076
 30
0.0
 10
9.683062
 20
9.207292
 30
0.0
 10
9.615858
 20
9.386503
 30
0.0
 10
9.515051
 20
9.543312
 30
0.0
 10
9.470249
 20
9.588111
 30
0.0
  0
LWPOLYLINE
  5
139
100
AcDbEntity
  8
Layer_1
 62
7
100
AcDbPolyline
 90
2
 70
0
 10
10.231895
 20
9.252091
 30
0.0
 10
10.231895
 20
7.202367
 30
0.0
  0
LWPOLYLINE
  5
13a
100
AcDbEntity
  8
Layer_1
 62
7
100
AcDbPolyline
 90
2
 70
0
 10
10.467110
 20
7.101560
 30
0.0
 10
11.486374
 20
8.132022
 30
0.0
  0
LWPOLYLINE
  5
13b
100
AcDbEntity
  8
Layer_1
 62
7
100
AcDbPolyline
 90
2
 70
0
 10
10.467110
 20
9.341699
 30
0.0
 10
11.486374
 20
8.322436
 30
0.0
  0
LWPOLYLINE
  5
13c
100
AcDbEntity
  8
Layer_1
 62
7
100
AcDbPolyline
 90
6
 70
0
 10
10.231895
 20
9.252091
 30
0.0
 10
10.254297
 20
9.330496
 30
0.0
 10
10.321502
 20
9.375299
 30
0.0
 10
10.388705
 20
9.386503
 30
0.0
 10
10.455910
 20
9.352898
 30
0.0
 10
10.467110
 20
9.341699
 30
0.0
  0
LWPOLYLINE
  5
13d
100
AcDbEntity
  8
Layer_1
 62
7
100
AcDbPolyline
 90
4
 70
0
 10
11.486374
 20
8.322436
 30
0.0
 10
11.519976
 20
8.255230
 30
0.0
 10
11.519976
 20
8.176826
 30
0.0
 10
11.486374
 20
8.132022
 30
0.0
  0
LWPOLYLINE
  5
13e
100
AcDbEntity
  8
Layer_1
 62
7
100
AcDbPolyline
 90
5
 70
0
 10
10.467110
 20
7.101560
 30
0.0
 10
10.399906
 20
7.067955
 30
0.0
 10
10.321502
 20
7.079158
 30
0.0
 10
10.254297
 20
7.123962
 30
0.0
 10
10.231895
 20
7.202367
 30
0.0
  0
LWPOLYLINE
  5
13f
100
AcDbEntity
  8
Layer_1
 62
7
100
AcDbPolyline
 90
2
 70
0
 10
13.670509
 20
9.252091
 30
0.0
 10
13.670509
 20
7.202367
 30
0.0
  0
LWPOLYLINE
  5
140
100
AcDbEntity
  8
Layer_1
 62
7
100
AcDbPolyline
 90
2
 70
0
 10
13.446496
 20
7.101560
 30
0.0
 10
12.427231
 20
8.132022
 30
0.0
  0
LWPOLYLINE
  5
141
100
AcDbEntity
  8
Layer_1
 62
7
100
AcDbPolyline
 90
2
 70
0
 10
13.446496
 20
9.341699
 30
0.0
 10
12.427231
 20
8.322436
 30
0.0
  0
LWPOLYLINE
  5
142
100
AcDbEntity
  8
Layer_1
 62
7
100
AcDbPolyline
 90
6
 70
0
 10
13.670509
 20
9.252091
 30
0.0
 10
13.648108
 20
9.330496
 30
0.0
 10
13.592103
 20
9.375299
 30
0.0
 10
13.513699
 20
9.386503
 30
0.0
 10
13.446496
 20
9.352898
 30
0.0
 10
13.446496
 20
9.341699
 30
0.0
  0
LWPOLYLINE
  5
143
100
AcDbEntity
  8
Layer_1
 62
7
100
AcDbPolyline
 90
4
 70
0
 10
12.427231
 20
8.322436
 30
0.0
 10
12.382428
 20
8.255230
 30
0.0
 10
12.393630
 20
8.176826
 30
0.0
 10
12.427231
 20
8.132022
 30
0.0
  0
LWPOLYLINE
  5
144
100
AcDbEntity
  8
Layer_1
 62
7
100
AcDbPolyline
 90
5
 70
0
 10
13.446496
 20
7.101560
 30
0.0
 10
13.513699
 20
7.067955
 30
0.0
 10
13.592103
 20
7.079158
 30
0.0
 10
13.648108
 20
7.123962
 30
0.0
 10
13.670509
 20
7.202367
 30
0.0
  0
LWPOLYLINE
  5
145
100
AcDbEntity
  8
Layer_1
 62
7
100
AcDbPolyline
 90
2
 70
0
 10
10.926339
 20
9.946538
 30
0.0
 10
12.987266
 20
9.946538
 30
0.0
  0
LWPOLYLINE
  5
146
100
AcDbEntity
  8
Layer_1
 62
7
100
AcDbPolyline
 90
2
 70
0
 10
13.076873
 20
9.722523
 30
0.0
 10
12.046409
 20
8.692056
 30
0.0
  0
LWPOLYLINE
  5
147
100
AcDbEntity
  8
Layer_1
 62
7
100
AcDbPolyline
 90
2
 70
0
 10
10.836734
 20
9.722523
 30
0.0
 10
11.867196
 20
8.692056
 30
0.0
  0
LWPOLYLINE
  5
148
100
AcDbEntity
  8
Layer_1
 62
7
100
AcDbPolyline
 90
5
 70
0
 10
10.926339
 20
9.946538
 30
0.0
 10
10.859135
 20
9.924135
 30
0.0
 10
10.803131
 20
9.868129
 30
0.0
 10
10.803131
 20
9.789724
 30
0.0
 10
10.836734
 20
9.722523
 30
0.0
  0
LWPOLYLINE
  5
149
100
AcDbEntity
  8
Layer_1
 62
7
100
AcDbPolyline
 90
4
 70
0
 10
11.867196
 20
8.692056
 30
0.0
 10
11.934401
 20
8.658456
 30
0.0
 10
12.001606
 20
8.669655
 30
0.0
 10
12.046409
 20
8.692056
 30
0.0
  0
LWPOLYLINE
  5
14a
100
AcDbEntity
  8
Layer_1
 62
7
100
AcDbPolyline
 90
5
 70
0
 10
13.076873
 20
9.722523
 30
0.0
 10
13.110474
 20
9.789724
 30
0.0
 10
13.099273
 20
9.868129
 30
0.0
 10
13.054471
 20
9.924135
 30
0.0
 10
12.987266
 20
9.946538
 30
0.0
  0
LWPOLYLINE
  5
14b
100
AcDbEntity
  8
Layer_1
 62
7
100
AcDbPolyline
 90
2
 70
0
 10
12.987266
 20
6.507920
 30
0.0
 10
10.926339
 20
6.507920
 30
0.0
  0
LWPOLYLINE
  5
14c
100
AcDbEntity
  8
Layer_1
 62
7
100
AcDbPolyline
 90
2
 70
0
 10
10.836734
 20
6.731935
 30
0.0
 10
11.867196
 20
7.762401
 30
0.0
  0
LWPOLYLINE
  5
14d
100
AcDbEntity
  8
Layer_1
 62
7
100
AcDbPolyline
 90
2
 70
0
 10
13.076873
 20
6.731935
 30
0.0
 10
12.046409
 20
7.762401
 30
0.0
  0
LWPOLYLINE
  5
14e
100
AcDbEntity
  8
Layer_1
 62
7
100
AcDbPolyline
 90
5
 70
0
 10
12.987266
 20
6.507920
 30
0.0
 10
13.054471
 20
6.530322
 30
0.0
 10
13.099273
 20
6.586329
 30
0.0
 10
13.110474
 20
6.664733
 30
0.0
 10
13.076873
 20
6.731935
 30
0.0
  0
LWPOLYLINE
  5
14f
100
AcDbEntity
  8
Layer_1
 62
7
100
AcDbPolyline
 90
4
 70
0
 10
12.046409
 20
7.762401
 30
0.0
 10
11.979204
 20
7.796002
 30
0.0
 10
11.900799
 20
7.784803
 30
0.0
 10
11.867196
 20
7.762401
 30
0.0
  0
LWPOLYLINE
  5
150
100
AcDbEntity
  8
Layer_1
 62
7
100
AcDbPolyline
 90
5
 70
0
 10
10.836734
 20
6.731935
 30
0.0
 10
10.803131
 20
6.664733
 30
0.0
 10
10.803131
 20
6.586329
 30
0.0
 10
10.859135
 20
6.530322
 30
0.0
 10
10.926339
 20
6.507920
 30
0.0
  0
LWPOLYLINE
  5
151
100
AcDbEntity
  8
Layer_1
 62
7
100
AcDbPolyline
 90
14
 70
1
 10
5.628410
 20
2.576479
 30
0.0
 10
5.606009
 20
2.677285
 30
0.0
 10
5.550006
 20
2.744490
 30
0.0
 10
5.460400
 20
2.789290
 30
0.0
 10
5.359594
 20
2.778091
 30
0.0
 10
5.269988
 20
2.733288
 30
0.0
 10
5.225185
 20
2.654883
 30
0.0
 10
5.202784
 20
2.565279
 30
0.0
 10
5.236386
 20
2.464473
 30
0.0
 10
5.303590
 20
2.397268
 30
0.0
 10
5.393196
 20
2.363667
 30
0.0
 10
5.494002
 20
2.386069
 30
0.0
 10
5.572407
 20
2.430868
 30
0.0
 10
5.617210
 20
2.520476
 30
0.0
  0
LWPOLYLINE
  5
152
100
AcDbEntity
  8
Layer_1
 62
7
100
AcDbPolyline
 90
14
 70
1
 10
5.303590
 20
1.366804
 30
0.0
 10
5.281189
 20
1.456409
 30
0.0
 10
5.213985
 20
1.534814
 30
0.0
 10
5.135580
 20
1.568416
 30
0.0
 10
5.034774
 20
1.568416
 30
0.0
 10
4.945168
 20
1.523613
 30
0.0
 10
4.889165
 20
1.434008
 30
0.0
 10
4.877964
 20
1.344402
 30
0.0
 10
4.911566
 20
1.254797
 30
0.0
 10
4.978770
 20
1.187593
 30
0.0
 10
5.068376
 20
1.153990
 30
0.0
 10
5.169182
 20
1.165191
 30
0.0
 10
5.247587
 20
1.221195
 30
0.0
 10
5.292390
 20
1.299599
 30
0.0
  0
LWPOLYLINE
  5
153
100
AcDbEntity
  8
Layer_1
 62
7
100
AcDbPolyline
 90
14
 70
1
 10
6.524466
 20
1.691624
 30
0.0
 10
6.502065
 20
1.781229
 30
0.0
 10
6.434860
 20
1.859635
 30
0.0
 10
6.345255
 20
1.893236
 30
0.0
 10
6.255649
 20
1.893236
 30
0.0
 10
6.166044
 20
1.848431
 30
0.0
 10
6.110040
 20
1.770029
 30
0.0
 10
6.098840
 20
1.669222
 30
0.0
 10
6.132442
 20
1.579617
 30
0.0
 10
6.199646
 20
1.512413
 30
0.0
 10
6.289251
 20
1.478811
 30
0.0
 10
6.378857
 20
1.490011
 30
0.0
 10
6.468462
 20
1.546015
 30
0.0
 10
6.513265
 20
1.624420
 30
0.0
  0
LWPOLYLINE
  5
154
100
AcDbEntity
  8
Layer_1
 62
7
100
AcDbPolyline
 90
24
 70
0
 10
5.437999
 20
3.058108
 30
0.0
 10
5.213985
 20
3.002106
 30
0.0
 10
5.001172
 20
2.901299
 30
0.0
 10
4.821960
 20
2.766893
 30
0.0
 10
4.665151
 20
2.598880
 30
0.0
 10
4.541943
 20
2.408466
 30
0.0
 10
4.452338
 20
2.184456
 30
0.0
 10
4.418735
 20
1.960441
 30
0.0
 10
4.418735
 20
1.725226
 30
0.0
 10
4.474739
 20
1.501212
 30
0.0
 10
4.564344
 20
1.288399
 30
0.0
 10
4.698753
 20
1.109188
 30
0.0
 10
4.866763
 20
0.941177
 30
0.0
 10
5.057175
 20
0.817970
 30
0.0
 10
5.269988
 20
0.728364
 30
0.0
 10
5.505203
 20
0.694762
 30
0.0
 10
5.729217
 20
0.694762
 30
0.0
 10
5.953231
 20
0.739565
 30
0.0
 10
6.166044
 20
0.829170
 30
0.0
 10
6.356456
 20
0.952378
 30
0.0
 10
6.524466
 20
1.120388
 30
0.0
 10
6.647674
 20
1.310800
 30
0.0
 10
6.737278
 20
1.523613
 30
0.0
 10
6.782081
 20
1.702824
 30
0.0
  0
LWPOLYLINE
  5
155
100
AcDbEntity
  8
Layer_1
 62
7
100
AcDbPolyline
 90
4
 70
0
 10
5.437999
 20
3.058108
 30
0.0
 10
5.617210
 20
3.102913
 30
0.0
 10
5.785220
 20
3.192516
 30
0.0
 10
5.886026
 20
3.282124
 30
0.0
  0
LWPOLYLINE
  5
156
100
AcDbEntity
  8
Layer_1
 62
7
100
AcDbPolyline
 90
4
 70
0
 10
6.782081
 20
1.702824
 30
0.0
 10
6.838085
 20
1.893236
 30
0.0
 10
6.927691
 20
2.050045
 30
0.0
 10
7.006096
 20
2.162054
 30
0.0
  0
LWPOLYLINE
  5
157
100
AcDbEntity
  8
Layer_1
 62
7
100
AcDbPolyline
 90
14
 70
1
 10
18.710821
 20
2.576479
 30
0.0
 10
18.688421
 20
2.677285
 30
0.0
 10
18.621215
 20
2.744490
 30
0.0
 10
18.531610
 20
2.789290
 30
0.0
 10
18.442004
 20
2.778091
 30
0.0
 10
18.352398
 20
2.733288
 30
0.0
 10
18.296396
 20
2.654883
 30
0.0
 10
18.285195
 20
2.565279
 30
0.0
 10
18.307597
 20
2.464473
 30
0.0
 10
18.386001
 20
2.397268
 30
0.0
 10
18.475607
 20
2.363667
 30
0.0
 10
18.565212
 20
2.386069
 30
0.0
 10
18.643617
 20
2.430868
 30
0.0
 10
18.699621
 20
2.520476
 30
0.0
  0
LWPOLYLINE
  5
158
100
AcDbEntity
  8
Layer_1
 62
7
100
AcDbPolyline
 90
14
 70
1
 10
19.035641
 20
1.366804
 30
0.0
 10
19.013240
 20
1.456409
 30
0.0
 10
18.946036
 20
1.534814
 30
0.0
 10
18.856430
 20
1.568416
 30
0.0
 10
18.766826
 20
1.568416
 30
0.0
 10
18.677220
 20
1.523613
 30
0.0
 10
18.621215
 20
1.434008
 30
0.0
 10
18.610014
 20
1.344402
 30
0.0
 10
18.643617
 20
1.254797
 30
0.0
 10
18.710821
 20
1.187593
 30
0.0
 10
18.800426
 20
1.153990
 30
0.0
 10
18.890032
 20
1.165191
 30
0.0
 10
18.979639
 20
1.221195
 30
0.0
 10
19.024441
 20
1.299599
 30
0.0
  0
LWPOLYLINE
  5
159
100
AcDbEntity
  8
Layer_1
 62
7
100
AcDbPolyline
 90
14
 70
1
 10
17.814766
 20
1.691624
 30
0.0
 10
17.792364
 20
1.781229
 30
0.0
 10
17.725160
 20
1.859635
 30
0.0
 10
17.646756
 20
1.893236
 30
0.0
 10
17.545949
 20
1.893236
 30
0.0
 10
17.456344
 20
1.848431
 30
0.0
 10
17.400339
 20
1.770029
 30
0.0
 10
17.389140
 20
1.669222
 30
0.0
 10
17.422741
 20
1.579617
 30
0.0
 10
17.489945
 20
1.512413
 30
0.0
 10
17.579552
 20
1.478811
 30
0.0
 10
17.680357
 20
1.490011
 30
0.0
 10
17.758763
 20
1.546015
 30
0.0
 10
17.803565
 20
1.624420
 30
0.0
  0
LWPOLYLINE
  5
15a
100
AcDbEntity
  8
Layer_1
 62
7
100
AcDbPolyline
 90
27
 70
0
 10
17.131523
 20
1.702824
 30
0.0
 10
17.176326
 20
1.478811
 30
0.0
 10
17.277133
 20
1.277198
 30
0.0
 10
17.411540
 20
1.086786
 30
0.0
 10
17.579552
 20
0.929977
 30
0.0
 10
17.781163
 20
0.806769
 30
0.0
 10
17.993977
 20
0.728364
 30
0.0
 10
18.217991
 20
0.683561
 30
0.0
 10
18.453205
 20
0.694762
 30
0.0
 10
18.677220
 20
0.750765
 30
0.0
 10
18.890032
 20
0.840371
 30
0.0
 10
19.080444
 20
0.974779
 30
0.0
 10
19.237255
 20
1.131589
 30
0.0
 10
19.360461
 20
1.333202
 30
0.0
 10
19.450066
 20
1.546015
 30
0.0
 10
19.494870
 20
1.770029
 30
0.0
 10
19.494870
 20
2.005245
 30
0.0
 10
19.438867
 20
2.229256
 30
0.0
 10
19.349262
 20
2.442072
 30
0.0
 10
19.226053
 20
2.632481
 30
0.0
 10
19.058044
 20
2.800493
 30
0.0
 10
18.867632
 20
2.923702
 30
0.0
 10
18.654818
 20
3.013305
 30
0.0
 10
18.475607
 20
3.058108
 30
0.0
 10
18.296396
 20
3.102913
 30
0.0
 10
18.128386
 20
3.192516
 30
0.0
 10
18.027580
 20
3.282124
 30
0.0
  0
LWPOLYLINE
  5
15b
100
AcDbEntity
  8
Layer_1
 62
7
100
AcDbPolyline
 90
4
 70
0
 10
17.131523
 20
1.702824
 30
0.0
 10
17.075520
 20
1.893236
 30
0.0
 10
16.985914
 20
2.050045
 30
0.0
 10
16.907510
 20
2.162054
 30
0.0
  0
LWPOLYLINE
  5
15c
100
AcDbEntity
  8
Layer_1
 62
7
100
AcDbPolyline
 90
14
 70
1
 10
18.710821
 20
13.877979
 30
0.0
 10
18.688421
 20
13.967587
 30
0.0
 10
18.621215
 20
14.045991
 30
0.0
 10
18.531610
 20
14.079592
 30
0.0
 10
18.442004
 20
14.079592
 30
0.0
 10
18.352398
 20
14.034788
 30
0.0
 10
18.296396
 20
13.956384
 30
0.0
 10
18.285195
 20
13.855577
 30
0.0
 10
18.307597
 20
13.765974
 30
0.0
 10
18.386001
 20
13.698768
 30
0.0
 10
18.475607
 20
13.665167
 30
0.0
 10
18.565212
 20
13.676367
 30
0.0
 10
18.643617
 20
13.732369
 30
0.0
 10
18.699621
 20
13.810774
 30
0.0
  0
LWPOLYLINE
  5
15d
100
AcDbEntity
  8
Layer_1
 62
7
100
AcDbPolyline
 90
14
 70
1
 10
19.035641
 20
15.087656
 30
0.0
 10
19.013240
 20
15.188458
 30
0.0
 10
18.946036
 20
15.255664
 30
0.0
 10
18.856430
 20
15.300468
 30
0.0
 10
18.766826
 20
15.289265
 30
0.0
 10
18.677220
 20
15.244465
 30
0.0
 10
18.621215
 20
15.166060
 30
0.0
 10
18.610014
 20
15.076453
 30
0.0
 10
18.643617
 20
14.975647
 30
0.0
 10
18.710821
 20
14.908441
 30
0.0
 10
18.800426
 20
14.874840
 30
0.0
 10
18.890032
 20
14.897242
 30
0.0
 10
18.979639
 20
14.942046
 30
0.0
 10
19.024441
 20
15.031649
 30
0.0
  0
LWPOLYLINE
  5
15e
100
AcDbEntity
  8
Layer_1
 62
7
100
AcDbPolyline
 90
14
 70
1
 10
17.814766
 20
14.762835
 30
0.0
 10
17.792364
 20
14.863642
 30
0.0
 10
17.725160
 20
14.930843
 30
0.0
 10
17.646756
 20
14.975647
 30
0.0
 10
17.545949
 20
14.964448
 30
0.0
 10
17.456344
 20
14.919644
 30
0.0
 10
17.400339
 20
14.841240
 30
0.0
 10
17.389140
 20
14.751632
 30
0.0
 10
17.422741
 20
14.650826
 30
0.0
 10
17.489945
 20
14.583624
 30
0.0
 10
17.579552
 20
14.550019
 30
0.0
 10
17.680357
 20
14.561222
 30
0.0
 10
17.758763
 20
14.617225
 30
0.0
 10
17.803565
 20
14.706833
 30
0.0
  0
LWPOLYLINE
  5
15f
100
AcDbEntity
  8
Layer_1
 62
7
100
AcDbPolyline
 90
27
 70
0
 10
18.475607
 20
13.396349
 30
0.0
 10
18.699621
 20
13.452351
 30
0.0
 10
18.912433
 20
13.553158
 30
0.0
 10
19.091644
 20
13.687569
 30
0.0
 10
19.248455
 20
13.855577
 30
0.0
 10
19.371662
 20
14.045991
 30
0.0
 10
19.450066
 20
14.270002
 30
0.0
 10
19.494870
 20
14.494017
 30
0.0
 10
19.483669
 20
14.718031
 30
0.0
 10
19.438867
 20
14.953245
 30
0.0
 10
19.349262
 20
15.154858
 30
0.0
 10
19.214853
 20
15.345272
 30
0.0
 10
19.046843
 20
15.513280
 30
0.0
 10
18.856430
 20
15.636488
 30
0.0
 10
18.632416
 20
15.714892
 30
0.0
 10
18.408403
 20
15.759696
 30
0.0
 10
18.184389
 20
15.759696
 30
0.0
 10
17.949175
 20
15.714892
 30
0.0
 10
17.736361
 20
15.625289
 30
0.0
 10
17.545949
 20
15.502081
 30
0.0
 10
17.389140
 20
15.334069
 30
0.0
 10
17.254731
 20
15.143659
 30
0.0
 10
17.165126
 20
14.930843
 30
0.0
 10
17.131523
 20
14.740433
 30
0.0
 10
17.075520
 20
14.561222
 30
0.0
 10
16.985914
 20
14.393210
 30
0.0
 10
16.907510
 20
14.292403
 30
0.0
  0
LWPOLYLINE
  5
160
100
AcDbEntity
  8
Layer_1
 62
7
100
AcDbPolyline
 90
4
 70
0
 10
18.475607
 20
13.396349
 30
0.0
 10
18.296396
 20
13.351545
 30
0.0
 10
18.128386
 20
13.261942
 30
0.0
 10
18.027580
 20
13.172334
 30
0.0
  0
LWPOLYLINE
  5
161
100
AcDbEntity
  8
Layer_1
 62
7
100
AcDbPolyline
 90
14
 70
1
 10
5.628410
 20
13.877979
 30
0.0
 10
5.606009
 20
13.967587
 30
0.0
 10
5.550006
 20
14.045991
 30
0.0
 10
5.460400
 20
14.079592
 30
0.0
 10
5.359594
 20
14.079592
 30
0.0
 10
5.269988
 20
14.034788
 30
0.0
 10
5.225185
 20
13.956384
 30
0.0
 10
5.202784
 20
13.855577
 30
0.0
 10
5.236386
 20
13.765974
 30
0.0
 10
5.303590
 20
13.698768
 30
0.0
 10
5.393196
 20
13.665167
 30
0.0
 10
5.494002
 20
13.676367
 30
0.0
 10
5.572407
 20
13.732369
 30
0.0
 10
5.617210
 20
13.810774
 30
0.0
  0
LWPOLYLINE
  5
162
100
AcDbEntity
  8
Layer_1
 62
7
100
AcDbPolyline
 90
14
 70
1
 10
5.303590
 20
15.087656
 30
0.0
 10
5.281189
 20
15.188458
 30
0.0
 10
5.213985
 20
15.255664
 30
0.0
 10
5.135580
 20
15.300468
 30
0.0
 10
5.034774
 20
15.289265
 30
0.0
 10
4.945168
 20
15.244465
 30
0.0
 10
4.889165
 20
15.166060
 30
0.0
 10
4.877964
 20
15.076453
 30
0.0
 10
4.911566
 20
14.975647
 30
0.0
 10
4.978770
 20
14.908441
 30
0.0
 10
5.068376
 20
14.874840
 30
0.0
 10
5.169182
 20
14.897242
 30
0.0
 10
5.247587
 20
14.942046
 30
0.0
 10
5.292390
 20
15.031649
 30
0.0
  0
LWPOLYLINE
  5
163
100
AcDbEntity
  8
Layer_1
 62
7
100
AcDbPolyline
 90
14
 70
1
 10
6.524466
 20
14.762835
 30
0.0
 10
6.502065
 20
14.863642
 30
0.0
 10
6.434860
 20
14.930843
 30
0.0
 10
6.345255
 20
14.975647
 30
0.0
 10
6.255649
 20
14.964448
 30
0.0
 10
6.166044
 20
14.919644
 30
0.0
 10
6.110040
 20
14.841240
 30
0.0
 10
6.098840
 20
14.751632
 30
0.0
 10
6.132442
 20
14.650826
 30
0.0
 10
6.199646
 20
14.583624
 30
0.0
 10
6.289251
 20
14.550019
 30
0.0
 10
6.378857
 20
14.561222
 30
0.0
 10
6.468462
 20
14.617225
 30
0.0
 10
6.513265
 20
14.706833
 30
0.0
  0
LWPOLYLINE
  5
164
100
AcDbEntity
  8
Layer_1
 62
7
100
AcDbPolyline
 90
24
 70
0
 10
6.782081
 20
14.740433
 30
0.0
 10
6.726079
 20
14.964448
 30
0.0
 10
6.636474
 20
15.177260
 30
0.0
 10
6.502065
 20
15.367674
 30
0.0
 10
6.334054
 20
15.524483
 30
0.0
 10
6.132442
 20
15.647691
 30
0.0
 10
5.919628
 20
15.726095
 30
0.0
 10
5.684414
 20
15.759696
 30
0.0
 10
5.460400
 20
15.759696
 30
0.0
 10
5.236386
 20
15.703694
 30
0.0
 10
5.023573
 20
15.614086
 30
0.0
 10
4.833161
 20
15.479678
 30
0.0
 10
4.676351
 20
15.311667
 30
0.0
 10
4.553144
 20
15.121257
 30
0.0
 10
4.463538
 20
14.908441
 30
0.0
 10
4.418735
 20
14.684431
 30
0.0
 10
4.418735
 20
14.449212
 30
0.0
 10
4.463538
 20
14.225202
 30
0.0
 10
4.553144
 20
14.012386
 30
0.0
 10
4.687552
 20
13.821976
 30
0.0
 10
4.844362
 20
13.653965
 30
0.0
 10
5.034774
 20
13.530756
 30
0.0
 10
5.247587
 20
13.441153
 30
0.0
 10
5.437999
 20
13.396349
 30
0.0
  0
LWPOLYLINE
  5
165
100
AcDbEntity
  8
Layer_1
 62
7
100
AcDbPolyline
 90
4
 70
0
 10
6.782081
 20
14.740433
 30
0.0
 10
6.838085
 20
14.561222
 30
0.0
 10
6.927691
 20
14.393210
 30
0.0
 10
7.006096
 20
14.292403
 30
0.0
  0
LWPOLYLINE
  5
166
100
AcDbEntity
  8
Layer_1
 62
7
100
AcDbPolyline
 90
4
 70
0
 10
5.437999
 20
13.396349
 30
0.0
 10
5.617210
 20
13.351545
 30
0.0
 10
5.785220
 20
13.261942
 30
0.0
 10
5.886026
 20
13.172334
 30
0.0
  0
LWPOLYLINE
  5
167
100
AcDbEntity
  8
Layer_1
 62
7
100
AcDbPolyline
 90
2
 70
0
 10
6.154843
 20
13.877979
 30
0.0
 10
5.415597
 20
13.877979
 30
0.0
  0
LWPOLYLINE
  5
168
100
AcDbEntity
  8
Layer_1
 62
7
100
AcDbPolyline
 90
2
 70
0
 10
4.676351
 20
13.877979
 30
0.0
 10
5.415597
 20
13.877979
 30
0.0
  0
LWPOLYLINE
  5
169
100
AcDbEntity
  8
Layer_1
 62
7
100
AcDbPolyline
 90
2
 70
0
 10
5.415597
 20
14.617225
 30
0.0
 10
5.415597
 20
13.877979
 30
0.0
  0
LWPOLYLINE
  5
16a
100
AcDbEntity
  8
Layer_1
 62
7
100
AcDbPolyline
 90
2
 70
0
 10
5.415597
 20
13.127535
 30
0.0
 10
5.415597
 20
13.877979
 30
0.0
  0
LWPOLYLINE
  5
16b
100
AcDbEntity
  8
Layer_1
 62
7
100
AcDbPolyline
 90
2
 70
0
 10
5.090777
 20
15.826902
 30
0.0
 10
5.090777
 20
15.087656
 30
0.0
  0
LWPOLYLINE
  5
16c
100
AcDbEntity
  8
Layer_1
 62
7
100
AcDbPolyline
 90
2
 70
0
 10
5.090777
 20
14.348406
 30
0.0
 10
5.090777
 20
15.087656
 30
0.0
  0
LWPOLYLINE
  5
16d
100
AcDbEntity
  8
Layer_1
 62
7
100
AcDbPolyline
 90
2
 70
0
 10
4.351531
 20
15.087656
 30
0.0
 10
5.090777
 20
15.087656
 30
0.0
  0
LWPOLYLINE
  5
16e
100
AcDbEntity
  8
Layer_1
 62
7
100
AcDbPolyline
 90
2
 70
0
 10
5.830023
 20
15.087656
 30
0.0
 10
5.090777
 20
15.087656
 30
0.0
  0
LWPOLYLINE
  5
16f
100
AcDbEntity
  8
Layer_1
 62
7
100
AcDbPolyline
 90
2
 70
0
 10
6.311653
 20
14.023590
 30
0.0
 10
6.311653
 20
14.762835
 30
0.0
  0
LWPOLYLINE
  5
170
100
AcDbEntity
  8
Layer_1
 62
7
100
AcDbPolyline
 90
2
 70
0
 10
6.311653
 20
15.502081
 30
0.0
 10
6.311653
 20
14.762835
 30
0.0
  0
LWPOLYLINE
  5
171
100
AcDbEntity
  8
Layer_1
 62
7
100
AcDbPolyline
 90
2
 70
0
 10
7.050899
 20
14.762835
 30
0.0
 10
6.311653
 20
14.762835
 30
0.0
  0
LWPOLYLINE
  5
172
100
AcDbEntity
  8
Layer_1
 62
7
100
AcDbPolyline
 90
2
 70
0
 10
5.572407
 20
14.762835
 30
0.0
 10
6.311653
 20
14.762835
 30
0.0
  0
LWPOLYLINE
  5
173
100
AcDbEntity
  8
Layer_1
 62
7
100
AcDbPolyline
 90
2
 70
0
 10
17.601952
 20
15.502081
 30
0.0
 10
17.601952
 20
14.762835
 30
0.0
  0
LWPOLYLINE
  5
174
100
AcDbEntity
  8
Layer_1
 62
7
100
AcDbPolyline
 90
2
 70
0
 10
17.601952
 20
14.023590
 30
0.0
 10
17.601952
 20
14.762835
 30
0.0
  0
LWPOLYLINE
  5
175
100
AcDbEntity
  8
Layer_1
 62
7
100
AcDbPolyline
 90
2
 70
0
 10
16.862706
 20
14.762835
 30
0.0
 10
17.601952
 20
14.762835
 30
0.0
  0
LWPOLYLINE
  5
176
100
AcDbEntity
  8
Layer_1
 62
7
100
AcDbPolyline
 90
2
 70
0
 10
18.341198
 20
14.762835
 30
0.0
 10
17.601952
 20
14.762835
 30
0.0
  0
LWPOLYLINE
  5
177
100
AcDbEntity
  8
Layer_1
 62
7
100
AcDbPolyline
 90
2
 70
0
 10
18.498009
 20
14.617225
 30
0.0
 10
18.498009
 20
13.877979
 30
0.0
  0
LWPOLYLINE
  5
178
100
AcDbEntity
  8
Layer_1
 62
7
100
AcDbPolyline
 90
2
 70
0
 10
18.498009
 20
13.127535
 30
0.0
 10
18.498009
 20
13.877979
 30
0.0
  0
LWPOLYLINE
  5
179
100
AcDbEntity
  8
Layer_1
 62
7
100
AcDbPolyline
 90
2
 70
0
 10
17.747562
 20
13.877979
 30
0.0
 10
18.498009
 20
13.877979
 30
0.0
  0
LWPOLYLINE
  5
17a
100
AcDbEntity
  8
Layer_1
 62
7
100
AcDbPolyline
 90
2
 70
0
 10
19.237255
 20
13.877979
 30
0.0
 10
18.498009
 20
13.877979
 30
0.0
  0
LWPOLYLINE
  5
17b
100
AcDbEntity
  8
Layer_1
 62
7
100
AcDbPolyline
 90
2
 70
0
 10
18.822828
 20
15.826902
 30
0.0
 10
18.822828
 20
15.087656
 30
0.0
  0
LWPOLYLINE
  5
17c
100
AcDbEntity
  8
Layer_1
 62
7
100
AcDbPolyline
 90
2
 70
0
 10
18.822828
 20
14.348406
 30
0.0
 10
18.822828
 20
15.087656
 30
0.0
  0
LWPOLYLINE
  5
17d
100
AcDbEntity
  8
Layer_1
 62
7
100
AcDbPolyline
 90
2
 70
0
 10
18.083582
 20
15.087656
 30
0.0
 10
18.822828
 20
15.087656
 30
0.0
  0
LWPOLYLINE
  5
17e
100
AcDbEntity
  8
Layer_1
 62
7
100
AcDbPolyline
 90
2
 70
0
 10
19.562073
 20
15.087656
 30
0.0
 10
18.822828
 20
15.087656
 30
0.0
  0
LWPOLYLINE
  5
17f
100
AcDbEntity
  8
Layer_1
 62
7
100
AcDbPolyline
 90
2
 70
0
 10
6.311653
 20
2.430868
 30
0.0
 10
6.311653
 20
1.691624
 30
0.0
  0
LWPOLYLINE
  5
180
100
AcDbEntity
  8
Layer_1
 62
7
100
AcDbPolyline
 90
2
 70
0
 10
6.311653
 20
0.952378
 30
0.0
 10
6.311653
 20
1.691624
 30
0.0
  0
LWPOLYLINE
  5
181
100
AcDbEntity
  8
Layer_1
 62
7
100
AcDbPolyline
 90
2
 70
0
 10
5.572407
 20
1.691624
 30
0.0
 10
6.311653
 20
1.691624
 30
0.0
  0
LWPOLYLINE
  5
182
100
AcDbEntity
  8
Layer_1
 62
7
100
AcDbPolyline
 90
2
 70
0
 10
7.050899
 20
1.691624
 30
0.0
 10
6.311653
 20
1.691624
 30
0.0
  0
LWPOLYLINE
  5
183
100
AcDbEntity
  8
Layer_1
 62
7
100
AcDbPolyline
 90
2
 70
0
 10
5.090777
 20
2.106052
 30
0.0
 10
5.090777
 20
1.366804
 30
0.0
  0
LWPOLYLINE
  5
184
100
AcDbEntity
  8
Layer_1
 62
7
100
AcDbPolyline
 90
2
 70
0
 10
5.090777
 20
0.616357
 30
0.0
 10
5.090777
 20
1.366804
 30
0.0
  0
LWPOLYLINE
  5
185
100
AcDbEntity
  8
Layer_1
 62
7
100
AcDbPolyline
 90
2
 70
0
 10
4.351531
 20
1.366804
 30
0.0
 10
5.090777
 20
1.366804
 30
0.0
  0
LWPOLYLINE
  5
186
100
AcDbEntity
  8
Layer_1
 62
7
100
AcDbPolyline
 90
2
 70
0
 10
5.830023
 20
1.366804
 30
0.0
 10
5.090777
 20
1.366804
 30
0.0
  0
LWPOLYLINE
  5
187
100
AcDbEntity
  8
Layer_1
 62
7
100
AcDbPolyline
 90
2
 70
0
 10
5.415597
 20
3.315724
 30
0.0
 10
5.415597
 20
2.576479
 30
0.0
  0
LWPOLYLINE
  5
188
100
AcDbEntity
  8
Layer_1
 62
7
100
AcDbPolyline
 90
2
 70
0
 10
5.415597
 20
1.837233
 30
0.0
 10
5.415597
 20
2.576479
 30
0.0
  0
LWPOLYLINE
  5
189
100
AcDbEntity
  8
Layer_1
 62
7
100
AcDbPolyline
 90
2
 70
0
 10
4.676351
 20
2.576479
 30
0.0
 10
5.415597
 20
2.576479
 30
0.0
  0
LWPOLYLINE
  5
18a
100
AcDbEntity
  8
Layer_1
 62
7
100
AcDbPolyline
 90
2
 70
0
 10
6.154843
 20
2.576479
 30
0.0
 10
5.415597
 20
2.576479
 30
0.0
  0
LWPOLYLINE
  5
18b
100
AcDbEntity
  8
Layer_1
 62
7
100
AcDbPolyline
 90
2
 70
0
 10
17.601952
 20
2.430868
 30
0.0
 10
17.601952
 20
1.691624
 30
0.0
  0
LWPOLYLINE
  5
18c
100
AcDbEntity
  8
Layer_1
 62
7
100
AcDbPolyline
 90
2
 70
0
 10
17.601952
 20
0.952378
 30
0.0
 10
17.601952
 20
1.691624
 30
0.0
  0
LWPOLYLINE
  5
18d
100
AcDbEntity
  8
Layer_1
 62
7
100
AcDbPolyline
 90
2
 70
0
 10
16.862706
 20
1.691624
 30
0.0
 10
17.601952
 20
1.691624
 30
0.0
  0
LWPOLYLINE
  5
18e
100
AcDbEntity
  8
Layer_1
 62
7
100
AcDbPolyline
 90
2
 70
0
 10
18.341198
 20
1.691624
 30
0.0
 10
17.601952
 20
1.691624
 30
0.0
  0
LWPOLYLINE
  5
18f
100
AcDbEntity
  8
Layer_1
 62
7
100
AcDbPolyline
 90
2
 70
0
 10
18.822828
 20
2.106052
 30
0.0
 10
18.822828
 20
1.366804
 30
0.0
  0
LWPOLYLINE
  5
190
100
AcDbEntity
  8
Layer_1
 62
7
100
AcDbPolyline
 90
2
 70
0
 10
18.822828
 20
0.616357
 30
0.0
 10
18.822828
 20
1.366804
 30
0.0
  0
LWPOLYLINE
  5
191
100
AcDbEntity
  8
Layer_1
 62
7
100
AcDbPolyline
 90
2
 70
0
 10
18.083582
 20
1.366804
 30
0.0
 10
18.822828
 20
1.366804
 30
0.0
  0
LWPOLYLINE
  5
192
100
AcDbEntity
  8
Layer_1
 62
7
100
AcDbPolyline
 90
2
 70
0
 10
19.562073
 20
1.366804
 30
0.0
 10
18.822828
 20
1.366804
 30
0.0
  0
LWPOLYLINE
  5
193
100
AcDbEntity
  8
Layer_1
 62
7
100
AcDbPolyline
 90
2
 70
0
 10
18.498009
 20
3.315724
 30
0.0
 10
18.498009
 20
2.576479
 30
0.0
  0
LWPOLYLINE
  5
194
100
AcDbEntity
  8
Layer_1
 62
7
100
AcDbPolyline
 90
2
 70
0
 10
18.498009
 20
1.837233
 30
0.0
 10
18.498009
 20
2.576479
 30
0.0
  0
LWPOLYLINE
  5
195
100
AcDbEntity
  8
Layer_1
 62
7
100
AcDbPolyline
 90
2
 70
0
 10
17.747562
 20
2.576479
 30
0.0
 10
18.498009
 20
2.576479
 30
0.0
  0
LWPOLYLINE
  5
196
100
AcDbEntity
  8
Layer_1
 62
7
100
AcDbPolyline
 90
2
 70
0
 10
19.237255
 20
2.576479
 30
0.0
 10
18.498009
 20
2.576479
 30
0.0
  0
LWPOLYLINE
  5
197
100
AcDbEntity
  8
Layer_1
 62
7
100
AcDbPolyline
 90
2
 70
0
 10
17.736361
 20
13.821976
 30
0.0
 10
17.545949
 20
14.001188
 30
0.0
  0
LWPOLYLINE
  5
198
100
AcDbEntity
  8
Layer_1
 62
7
100
AcDbPolyline
 90
4
 70
0
 10
17.736361
 20
13.631563
 30
0.0
 10
17.769962
 20
13.698768
 30
0.0
 10
17.758763
 20
13.777173
 30
0.0
 10
17.736361
 20
13.821976
 30
0.0
  0
LWPOLYLINE
  5
199
100
AcDbEntity
  8
Layer_1
 62
7
100
AcDbPolyline
 90
4
 70
0
 10
17.355537
 20
14.001188
 30
0.0
 10
17.422741
 20
14.034788
 30
0.0
 10
17.501146
 20
14.034788
 30
0.0
 10
17.545949
 20
14.001188
 30
0.0
  0
LWPOLYLINE
  5
19a
100
AcDbEntity
  8
Layer_1
 62
7
100
AcDbPolyline
 90
4
 70
0
 10
14.051332
 20
10.517771
 30
0.0
 10
14.017730
 20
10.584976
 30
0.0
 10
14.028931
 20
10.652178
 30
0.0
 10
14.051332
 20
10.696982
 30
0.0
  0
LWPOLYLINE
  5
19b
100
AcDbEntity
  8
Layer_1
 62
7
100
AcDbPolyline
 90
2
 70
0
 10
14.241745
 20
10.327361
 30
0.0
 10
14.051332
 20
10.517771
 30
0.0
  0
LWPOLYLINE
  5
19c
100
AcDbEntity
  8
Layer_1
 62
7
100
AcDbPolyline
 90
4
 70
0
 10
14.241745
 20
10.327361
 30
0.0
 10
14.308948
 20
10.293756
 30
0.0
 10
14.387353
 20
10.293756
 30
0.0
 10
14.432155
 20
10.327361
 30
0.0
  0
LWPOLYLINE
  5
19d
100
AcDbEntity
  8
Layer_1
 62
7
100
AcDbPolyline
 90
2
 70
0
 10
17.736361
 20
13.631563
 30
0.0
 10
14.432155
 20
10.327361
 30
0.0
  0
LWPOLYLINE
  5
19e
100
AcDbEntity
  8
Layer_1
 62
7
100
AcDbPolyline
 90
2
 70
0
 10
17.355537
 20
14.001188
 30
0.0
 10
14.051332
 20
10.696982
 30
0.0
  0
LWPOLYLINE
  5
19f
100
AcDbEntity
  8
Layer_1
 62
7
100
AcDbPolyline
 90
2
 70
0
 10
6.177244
 20
2.632481
 30
0.0
 10
6.367656
 20
2.453270
 30
0.0
  0
LWPOLYLINE
  5
1a0
100
AcDbEntity
  8
Layer_1
 62
7
100
AcDbPolyline
 90
4
 70
0
 10
6.177244
 20
2.822895
 30
0.0
 10
6.143642
 20
2.755690
 30
0.0
 10
6.154843
 20
2.677285
 30
0.0
 10
6.177244
 20
2.632481
 30
0.0
  0
LWPOLYLINE
  5
1a1
100
AcDbEntity
  8
Layer_1
 62
7
100
AcDbPolyline
 90
4
 70
0
 10
6.558068
 20
2.453270
 30
0.0
 10
6.490864
 20
2.408466
 30
0.0
 10
6.412459
 20
2.419670
 30
0.0
 10
6.367656
 20
2.453270
 30
0.0
  0
LWPOLYLINE
  5
1a2
100
AcDbEntity
  8
Layer_1
 62
7
100
AcDbPolyline
 90
4
 70
0
 10
9.851072
 20
5.936687
 30
0.0
 10
9.895875
 20
5.869481
 30
0.0
 10
9.884674
 20
5.802280
 30
0.0
 10
9.851072
 20
5.757476
 30
0.0
  0
LWPOLYLINE
  5
1a3
100
AcDbEntity
  8
Layer_1
 62
7
100
AcDbPolyline
 90
2
 70
0
 10
9.671860
 20
6.127101
 30
0.0
 10
9.851072
 20
5.936687
 30
0.0
  0
LWPOLYLINE
  5
1a4
100
AcDbEntity
  8
Layer_1
 62
7
100
AcDbPolyline
 90
4
 70
0
 10
9.671860
 20
6.127101
 30
0.0
 10
9.604657
 20
6.160702
 30
0.0
 10
9.526253
 20
6.160702
 30
0.0
 10
9.481450
 20
6.127101
 30
0.0
  0
LWPOLYLINE
  5
1a5
100
AcDbEntity
  8
Layer_1
 62
7
100
AcDbPolyline
 90
2
 70
0
 10
6.177244
 20
2.822895
 30
0.0
 10
9.481450
 20
6.127101
 30
0.0
  0
LWPOLYLINE
  5
1a6
100
AcDbEntity
  8
Layer_1
 62
7
100
AcDbPolyline
 90
2
 70
0
 10
6.558068
 20
2.453270
 30
0.0
 10
9.851072
 20
5.757476
 30
0.0
  0
LWPOLYLINE
  5
1a7
100
AcDbEntity
  8
Layer_1
 62
7
100
AcDbPolyline
 90
2
 70
0
 10
17.545949
 20
2.453270
 30
0.0
 10
17.736361
 20
2.632481
 30
0.0
  0
LWPOLYLINE
  5
1a8
100
AcDbEntity
  8
Layer_1
 62
7
100
AcDbPolyline
 90
4
 70
0
 10
17.355537
 20
2.453270
 30
0.0
 10
17.422741
 20
2.408466
 30
0.0
 10
17.501146
 20
2.419670
 30
0.0
 10
17.545949
 20
2.453270
 30
0.0
  0
LWPOLYLINE
  5
1a9
100
AcDbEntity
  8
Layer_1
 62
7
100
AcDbPolyline
 90
4
 70
0
 10
17.736361
 20
2.822895
 30
0.0
 10
17.769962
 20
2.755690
 30
0.0
 10
17.758763
 20
2.677285
 30
0.0
 10
17.736361
 20
2.632481
 30
0.0
  0
LWPOLYLINE
  5
1aa
100
AcDbEntity
  8
Layer_1
 62
7
100
AcDbPolyline
 90
4
 70
0
 10
14.241745
 20
6.127101
 30
0.0
 10
14.308948
 20
6.160702
 30
0.0
 10
14.387353
 20
6.160702
 30
0.0
 10
14.432155
 20
6.127101
 30
0.0
  0
LWPOLYLINE
  5
1ab
100
AcDbEntity
  8
Layer_1
 62
7
100
AcDbPolyline
 90
2
 70
0
 10
14.051332
 20
5.936687
 30
0.0
 10
14.241745
 20
6.127101
 30
0.0
  0
LWPOLYLINE
  5
1ac
100
AcDbEntity
  8
Layer_1
 62
7
100
AcDbPolyline
 90
4
 70
0
 10
14.051332
 20
5.936687
 30
0.0
 10
14.017730
 20
5.869481
 30
0.0
 10
14.028931
 20
5.802280
 30
0.0
 10
14.051332
 20
5.757476
 30
0.0
  0
LWPOLYLINE
  5
1ad
100
AcDbEntity
  8
Layer_1
 62
7
100
AcDbPolyline
 90
2
 70
0
 10
17.355537
 20
2.453270
 30
0.0
 10
14.051332
 20
5.757476
 30
0.0
  0
LWPOLYLINE
  5
1ae
100
AcDbEntity
  8
Layer_1
 62
7
100
AcDbPolyline
 90
2
 70
0
 10
17.736361
 20
2.822895
 30
0.0
 10
14.432155
 20
6.127101
 30
0.0
  0
LWPOLYLINE
  5
1af
100
AcDbEntity
  8
Layer_1
 62
7
100
AcDbPolyline
 90
2
 70
0
 10
6.177244
 20
13.821976
 30
0.0
 10
6.367656
 20
14.001188
 30
0.0
  0
LWPOLYLINE
  5
1b0
100
AcDbEntity
  8
Layer_1
 62
7
100
AcDbPolyline
 90
4
 70
0
 10
6.177244
 20
13.631563
 30
0.0
 10
6.143642
 20
13.698768
 30
0.0
 10
6.154843
 20
13.777173
 30
0.0
 10
6.177244
 20
13.821976
 30
0.0
  0
LWPOLYLINE
  5
1b1
100
AcDbEntity
  8
Layer_1
 62
7
100
AcDbPolyline
 90
4
 70
0
 10
6.558068
 20
14.001188
 30
0.0
 10
6.490864
 20
14.034788
 30
0.0
 10
6.412459
 20
14.034788
 30
0.0
 10
6.367656
 20
14.001188
 30
0.0
  0
LWPOLYLINE
  5
1b2
100
AcDbEntity
  8
Layer_1
 62
7
100
AcDbPolyline
 90
4
 70
0
 10
9.851072
 20
10.517771
 30
0.0
 10
9.895875
 20
10.584976
 30
0.0
 10
9.884674
 20
10.652178
 30
0.0
 10
9.851072
 20
10.696982
 30
0.0
  0
LWPOLYLINE
  5
1b3
100
AcDbEntity
  8
Layer_1
 62
7
100
AcDbPolyline
 90
2
 70
0
 10
9.671860
 20
10.327361
 30
0.0
 10
9.851072
 20
10.517771
 30
0.0
  0
LWPOLYLINE
  5
1b4
100
AcDbEntity
  8
Layer_1
 62
7
100
AcDbPolyline
 90
4
 70
0
 10
9.671860
 20
10.327361
 30
0.0
 10
9.604657
 20
10.293756
 30
0.0
 10
9.526253
 20
10.293756
 30
0.0
 10
9.481450
 20
10.327361
 30
0.0
  0
LWPOLYLINE
  5
1b5
100
AcDbEntity
  8
Layer_1
 62
7
100
AcDbPolyline
 90
2
 70
0
 10
6.177244
 20
13.631563
 30
0.0
 10
9.481450
 20
10.327361
 30
0.0
  0
LWPOLYLINE
  5
1b6
100
AcDbEntity
  8
Layer_1
 62
7
100
AcDbPolyline
 90
2
 70
0
 10
6.558068
 20
14.001188
 30
0.0
 10
9.851072
 20
10.696982
 30
0.0
  0
ENDSEC
  0
SECTION
  2
OBJECTS
  0
DICTIONARY
  5
C
330
0
100
AcDbDictionary
  3
ACAD_GROUP
350
D
  3
ACAD_MLINESTYLE
350
17
  0
DICTIONARY
  5
D
330
C
100
AcDbDictionary
  0
DICTIONARY
  5
1A
330
C
100
AcDbDictionary
  0
DICTIONARY
  5
17
330
C
100
AcDbDictionary
  3
STANDARD
350
18
  0
DICTIONARY
  5
19
330
C
100
AcDbDictionary
  0
ENDSEC
  0
EOF
